solid OpenSCAD_Model
  facet normal 0.677286 0.677285 0.287348
    outer loop
      vertex 26.4602 -30 6.66134e-15
      vertex 17.4749 -23.1317 4.99
      vertex 24.3431 -30 4.99
    endloop
  endfacet
  facet normal 0.677285 0.677285 0.287348
    outer loop
      vertex 17.4749 -23.1317 4.99
      vertex 26.4602 -30 6.66134e-15
      vertex 18.5334 -22.0732 4.90123e-15
    endloop
  endfacet
  facet normal -0.677285 -0.677286 0.287348
    outer loop
      vertex 22.0732 -18.5334 4.11524e-15
      vertex 30 -24.3431 4.99
      vertex 23.1317 -17.4749 4.99
    endloop
  endfacet
  facet normal -0.677285 -0.677285 0.287348
    outer loop
      vertex 30 -24.3431 4.99
      vertex 22.0732 -18.5334 4.11524e-15
      vertex 30 -26.4602 5.87535e-15
    endloop
  endfacet
  facet normal 0.707107 -0.707107 0
    outer loop
      vertex 23.1317 -17.4749 4.99
      vertex 18.5334 -22.0732 4.90123e-15
      vertex 22.0732 -18.5334 4.11524e-15
    endloop
  endfacet
  facet normal 0.707107 -0.707107 0
    outer loop
      vertex 18.5334 -22.0732 4.90123e-15
      vertex 23.1317 -17.4749 4.99
      vertex 17.4749 -23.1317 4.99
    endloop
  endfacet
  facet normal 0 0 -1
    outer loop
      vertex 24.3431 -30 4.99
      vertex 30 -24.3431 4.99
      vertex 30 -30 4.99
    endloop
  endfacet
  facet normal 0 0 -1
    outer loop
      vertex 24.3431 -30 4.99
      vertex 23.1317 -17.4749 4.99
      vertex 30 -24.3431 4.99
    endloop
  endfacet
  facet normal 0 -0 -1
    outer loop
      vertex 23.1317 -17.4749 4.99
      vertex 24.3431 -30 4.99
      vertex 17.4749 -23.1317 4.99
    endloop
  endfacet
  facet normal 0.707107 0.707107 2.19164e-07
    outer loop
      vertex 23.1317 -12.5251 4.99
      vertex 22.0619 -11.4553 2.54358e-15
      vertex 17.4749 -6.86827 4.99
    endloop
  endfacet
  facet normal 0.707137 0.707077 -1.25098e-05
    outer loop
      vertex 22.0619 -11.4553 2.54358e-15
      vertex 23.1317 -12.5251 4.99
      vertex 22.0732 -11.4666 2.54609e-15
    endloop
  endfacet
  facet normal 0 0 -1
    outer loop
      vertex 30 -5.65685 4.99
      vertex 24.3431 1.108e-15 4.99
      vertex 30 1.108e-15 4.99
    endloop
  endfacet
  facet normal 0 0 -1
    outer loop
      vertex 23.1317 -12.5251 4.99
      vertex 24.3431 1.108e-15 4.99
      vertex 30 -5.65685 4.99
    endloop
  endfacet
  facet normal 0 0 -1
    outer loop
      vertex 24.3431 1.108e-15 4.99
      vertex 23.1317 -12.5251 4.99
      vertex 17.4749 -6.86827 4.99
    endloop
  endfacet
  facet normal 0.707107 0.707107 -8.78411e-08
    outer loop
      vertex 22.0619 -11.4553 2.54358e-15
      vertex 18.5334 -7.92681 1.76011e-15
      vertex 17.4749 -6.86827 4.99
    endloop
  endfacet
  facet normal -0.677285 0.677285 0.287348
    outer loop
      vertex 22.0732 -11.4666 2.54609e-15
      vertex 30 -5.65685 4.99
      vertex 30 -3.53978 7.85988e-16
    endloop
  endfacet
  facet normal -0.677285 0.677285 0.287348
    outer loop
      vertex 30 -5.65685 4.99
      vertex 22.0732 -11.4666 2.54609e-15
      vertex 23.1317 -12.5251 4.99
    endloop
  endfacet
  facet normal 0.677285 -0.677285 0.287348
    outer loop
      vertex 18.5334 -7.92681 1.76011e-15
      vertex 24.3431 1.108e-15 4.99
      vertex 17.4749 -6.86827 4.99
    endloop
  endfacet
  facet normal 0.677285 -0.677285 0.287348
    outer loop
      vertex 24.3431 1.108e-15 4.99
      vertex 18.5334 -7.92681 1.76011e-15
      vertex 26.4602 0 0
    endloop
  endfacet
  facet normal -0.707107 0.707107 5.11168e-08
    outer loop
      vertex 7.93812 -11.4553 2.54358e-15
      vertex 6.86827 -12.5251 4.99
      vertex 12.5251 -6.86827 4.99
    endloop
  endfacet
  facet normal -0.707092 0.707122 6.39015e-06
    outer loop
      vertex 6.86827 -12.5251 4.99
      vertex 7.93812 -11.4553 2.54358e-15
      vertex 7.92681 -11.4666 2.54609e-15
    endloop
  endfacet
  facet normal 0 0 -1
    outer loop
      vertex 6.86827 -12.5251 4.99
      vertex 5.65685 1.108e-15 4.99
      vertex 12.5251 -6.86827 4.99
    endloop
  endfacet
  facet normal 0 0 -1
    outer loop
      vertex 0 -5.65685 4.99
      vertex 5.65685 1.108e-15 4.99
      vertex 6.86827 -12.5251 4.99
    endloop
  endfacet
  facet normal -0 0 -1
    outer loop
      vertex 5.65685 1.108e-15 4.99
      vertex 0 -5.65685 4.99
      vertex 0 1.108e-15 4.99
    endloop
  endfacet
  facet normal -0.707107 0.707107 2.7028e-07
    outer loop
      vertex 12.5251 -6.86827 4.99
      vertex 11.4666 -7.92681 1.76011e-15
      vertex 7.93812 -11.4553 2.54358e-15
    endloop
  endfacet
  facet normal -0.677285 -0.677285 0.287348
    outer loop
      vertex 3.53978 0 0
      vertex 12.5251 -6.86827 4.99
      vertex 5.65685 1.108e-15 4.99
    endloop
  endfacet
  facet normal -0.677285 -0.677285 0.287348
    outer loop
      vertex 12.5251 -6.86827 4.99
      vertex 3.53978 0 0
      vertex 11.4666 -7.92681 1.76011e-15
    endloop
  endfacet
  facet normal 0.677285 0.677285 0.287348
    outer loop
      vertex 0 -5.65685 4.99
      vertex 7.92681 -11.4666 2.54609e-15
      vertex 0 -3.53977 7.85988e-16
    endloop
  endfacet
  facet normal 0.677285 0.677285 0.287348
    outer loop
      vertex 7.92681 -11.4666 2.54609e-15
      vertex 0 -5.65685 4.99
      vertex 6.86827 -12.5251 4.99
    endloop
  endfacet
  facet normal -0.707107 -0.707107 2.19164e-07
    outer loop
      vertex 11.4553 -22.0619 4.89872e-15
      vertex 12.5251 -23.1317 4.99
      vertex 6.86827 -17.4749 4.99
    endloop
  endfacet
  facet normal -0.707077 -0.707137 -1.25098e-05
    outer loop
      vertex 12.5251 -23.1317 4.99
      vertex 11.4553 -22.0619 4.89872e-15
      vertex 11.4666 -22.0732 4.90123e-15
    endloop
  endfacet
  facet normal -0.707107 -0.707107 -8.78411e-08
    outer loop
      vertex 7.92681 -18.5334 4.11524e-15
      vertex 11.4553 -22.0619 4.89872e-15
      vertex 6.86827 -17.4749 4.99
    endloop
  endfacet
  facet normal -0.677285 0.677285 0.287348
    outer loop
      vertex 11.4666 -22.0732 4.90123e-15
      vertex 5.65685 -30 4.99
      vertex 12.5251 -23.1317 4.99
    endloop
  endfacet
  facet normal -0.677285 0.677285 0.287348
    outer loop
      vertex 5.65685 -30 4.99
      vertex 11.4666 -22.0732 4.90123e-15
      vertex 3.53978 -30 6.66134e-15
    endloop
  endfacet
  facet normal 0 0 -1
    outer loop
      vertex 5.65685 -30 4.99
      vertex 6.86827 -17.4749 4.99
      vertex 12.5251 -23.1317 4.99
    endloop
  endfacet
  facet normal 0 0 -1
    outer loop
      vertex 0 -24.3431 4.99
      vertex 5.65685 -30 4.99
      vertex 0 -30 4.99
    endloop
  endfacet
  facet normal 0 0 -1
    outer loop
      vertex 5.65685 -30 4.99
      vertex 0 -24.3431 4.99
      vertex 6.86827 -17.4749 4.99
    endloop
  endfacet
  facet normal 0.677285 -0.677285 0.287348
    outer loop
      vertex 0 -24.3431 4.99
      vertex 7.92681 -18.5334 4.11524e-15
      vertex 6.86827 -17.4749 4.99
    endloop
  endfacet
  facet normal 0.677285 -0.677285 0.287348
    outer loop
      vertex 7.92681 -18.5334 4.11524e-15
      vertex 0 -24.3431 4.99
      vertex 0 -26.4602 5.87535e-15
    endloop
  endfacet
  facet normal -0.677285 -0.677286 -0.287348
    outer loop
      vertex 30 -24.3431 115.01
      vertex 22.0732 -18.5334 120
      vertex 23.1317 -17.4749 115.01
    endloop
  endfacet
  facet normal -0.677285 -0.677285 -0.287348
    outer loop
      vertex 22.0732 -18.5334 120
      vertex 30 -24.3431 115.01
      vertex 30 -26.4602 120
    endloop
  endfacet
  facet normal 0.677285 0.677285 -0.287348
    outer loop
      vertex 26.4602 -30 120
      vertex 17.4749 -23.1317 115.01
      vertex 18.5334 -22.0732 120
    endloop
  endfacet
  facet normal 0.677285 0.677285 -0.287348
    outer loop
      vertex 17.4749 -23.1317 115.01
      vertex 26.4602 -30 120
      vertex 24.3431 -30 115.01
    endloop
  endfacet
  facet normal 0.707107 -0.707107 0
    outer loop
      vertex 18.5334 -22.0732 120
      vertex 23.1317 -17.4749 115.01
      vertex 22.0732 -18.5334 120
    endloop
  endfacet
  facet normal 0.707107 -0.707107 0
    outer loop
      vertex 23.1317 -17.4749 115.01
      vertex 18.5334 -22.0732 120
      vertex 17.4749 -23.1317 115.01
    endloop
  endfacet
  facet normal 0 0 1
    outer loop
      vertex 30 -24.3431 115.01
      vertex 24.3431 -30 115.01
      vertex 30 -30 115.01
    endloop
  endfacet
  facet normal 0 0 1
    outer loop
      vertex 23.1317 -17.4749 115.01
      vertex 24.3431 -30 115.01
      vertex 30 -24.3431 115.01
    endloop
  endfacet
  facet normal 0 0 1
    outer loop
      vertex 24.3431 -30 115.01
      vertex 23.1317 -17.4749 115.01
      vertex 17.4749 -23.1317 115.01
    endloop
  endfacet
  facet normal -0.707107 -0.707107 -2.19164e-07
    outer loop
      vertex 12.5251 -23.1317 115.01
      vertex 11.4553 -22.0619 120
      vertex 6.86827 -17.4749 115.01
    endloop
  endfacet
  facet normal -0.707077 -0.707137 1.25098e-05
    outer loop
      vertex 11.4553 -22.0619 120
      vertex 12.5251 -23.1317 115.01
      vertex 11.4666 -22.0732 120
    endloop
  endfacet
  facet normal 0 0 1
    outer loop
      vertex 6.86827 -17.4749 115.01
      vertex 5.65685 -30 115.01
      vertex 12.5251 -23.1317 115.01
    endloop
  endfacet
  facet normal -0 0 1
    outer loop
      vertex 0 -24.3431 115.01
      vertex 5.65685 -30 115.01
      vertex 6.86827 -17.4749 115.01
    endloop
  endfacet
  facet normal 0 0 1
    outer loop
      vertex 5.65685 -30 115.01
      vertex 0 -24.3431 115.01
      vertex 0 -30 115.01
    endloop
  endfacet
  facet normal -0.707107 -0.707107 8.78412e-08
    outer loop
      vertex 11.4553 -22.0619 120
      vertex 7.92681 -18.5334 120
      vertex 6.86827 -17.4749 115.01
    endloop
  endfacet
  facet normal -0.677285 0.677285 -0.287348
    outer loop
      vertex 5.65685 -30 115.01
      vertex 11.4666 -22.0732 120
      vertex 12.5251 -23.1317 115.01
    endloop
  endfacet
  facet normal -0.677285 0.677285 -0.287348
    outer loop
      vertex 11.4666 -22.0732 120
      vertex 5.65685 -30 115.01
      vertex 3.53978 -30 120
    endloop
  endfacet
  facet normal 0.677285 -0.677285 -0.287348
    outer loop
      vertex 7.92681 -18.5334 120
      vertex 0 -24.3431 115.01
      vertex 6.86827 -17.4749 115.01
    endloop
  endfacet
  facet normal 0.677285 -0.677285 -0.287348
    outer loop
      vertex 0 -24.3431 115.01
      vertex 7.92681 -18.5334 120
      vertex 0 -26.4602 120
    endloop
  endfacet
  facet normal -0.707122 0.707092 -6.39015e-06
    outer loop
      vertex 12.5251 -6.86827 115.01
      vertex 11.4553 -7.93812 120
      vertex 11.4666 -7.92681 120
    endloop
  endfacet
  facet normal -0.707107 0.707107 -5.11168e-08
    outer loop
      vertex 11.4553 -7.93812 120
      vertex 12.5251 -6.86827 115.01
      vertex 6.86827 -12.5251 115.01
    endloop
  endfacet
  facet normal 0 0 1
    outer loop
      vertex 5.65685 2.55374e-14 115.01
      vertex 6.86827 -12.5251 115.01
      vertex 12.5251 -6.86827 115.01
    endloop
  endfacet
  facet normal 0 0 1
    outer loop
      vertex 0 -5.65685 115.01
      vertex 5.65685 2.55374e-14 115.01
      vertex 0 2.55374e-14 115.01
    endloop
  endfacet
  facet normal 0 0 1
    outer loop
      vertex 5.65685 2.55374e-14 115.01
      vertex 0 -5.65685 115.01
      vertex 6.86827 -12.5251 115.01
    endloop
  endfacet
  facet normal -0.707107 0.707107 -2.70281e-07
    outer loop
      vertex 7.92681 -11.4666 120
      vertex 11.4553 -7.93812 120
      vertex 6.86827 -12.5251 115.01
    endloop
  endfacet
  facet normal 0.677285 0.677285 -0.287348
    outer loop
      vertex 6.86827 -12.5251 115.01
      vertex 0 -3.53978 120
      vertex 7.92681 -11.4666 120
    endloop
  endfacet
  facet normal 0.677285 0.677285 -0.287348
    outer loop
      vertex 0 -3.53978 120
      vertex 6.86827 -12.5251 115.01
      vertex 0 -5.65685 115.01
    endloop
  endfacet
  facet normal -0.677285 -0.677285 -0.287348
    outer loop
      vertex 12.5251 -6.86827 115.01
      vertex 3.53977 2.66454e-14 120
      vertex 5.65685 2.55374e-14 115.01
    endloop
  endfacet
  facet normal -0.677285 -0.677285 -0.287348
    outer loop
      vertex 3.53977 2.66454e-14 120
      vertex 12.5251 -6.86827 115.01
      vertex 11.4666 -7.92681 120
    endloop
  endfacet
  facet normal 0.707137 0.707077 1.25098e-05
    outer loop
      vertex 23.1317 -12.5251 115.01
      vertex 22.0619 -11.4553 120
      vertex 22.0732 -11.4666 120
    endloop
  endfacet
  facet normal 0.707107 0.707107 -2.19164e-07
    outer loop
      vertex 22.0619 -11.4553 120
      vertex 23.1317 -12.5251 115.01
      vertex 17.4749 -6.86827 115.01
    endloop
  endfacet
  facet normal 0.707107 0.707107 8.78412e-08
    outer loop
      vertex 18.5334 -7.92681 120
      vertex 22.0619 -11.4553 120
      vertex 17.4749 -6.86827 115.01
    endloop
  endfacet
  facet normal -0.677285 0.677285 -0.287348
    outer loop
      vertex 30 -5.65685 115.01
      vertex 22.0732 -11.4666 120
      vertex 30 -3.53978 120
    endloop
  endfacet
  facet normal -0.677285 0.677285 -0.287348
    outer loop
      vertex 22.0732 -11.4666 120
      vertex 30 -5.65685 115.01
      vertex 23.1317 -12.5251 115.01
    endloop
  endfacet
  facet normal -0 0 1
    outer loop
      vertex 24.3431 2.55374e-14 115.01
      vertex 30 -5.65685 115.01
      vertex 30 2.55374e-14 115.01
    endloop
  endfacet
  facet normal 0 0 1
    outer loop
      vertex 24.3431 2.55374e-14 115.01
      vertex 23.1317 -12.5251 115.01
      vertex 30 -5.65685 115.01
    endloop
  endfacet
  facet normal 0 -0 1
    outer loop
      vertex 23.1317 -12.5251 115.01
      vertex 24.3431 2.55374e-14 115.01
      vertex 17.4749 -6.86827 115.01
    endloop
  endfacet
  facet normal 0.677285 -0.677285 -0.287348
    outer loop
      vertex 24.3431 2.55374e-14 115.01
      vertex 18.5334 -7.92681 120
      vertex 17.4749 -6.86827 115.01
    endloop
  endfacet
  facet normal 0.677285 -0.677285 -0.287348
    outer loop
      vertex 18.5334 -7.92681 120
      vertex 24.3431 2.55374e-14 115.01
      vertex 26.4602 2.66454e-14 120
    endloop
  endfacet
  facet normal 0.957826 0.287348 0
    outer loop
      vertex 12.5 -30 120
      vertex 11 -25 90
      vertex 11 -25 120
    endloop
  endfacet
  facet normal 0.957826 0.287348 0
    outer loop
      vertex 11 -25 90
      vertex 12.5 -30 120
      vertex 11 -25 60
    endloop
  endfacet
  facet normal 0.957826 0.287348 -0
    outer loop
      vertex 12.5 -30 6.66134e-15
      vertex 11 -25 60
      vertex 12.5 -30 120
    endloop
  endfacet
  facet normal 0.957826 0.287348 0
    outer loop
      vertex 11 -25 60
      vertex 12.5 -30 6.66134e-15
      vertex 11 -25 30
    endloop
  endfacet
  facet normal 0.957826 0.287348 0
    outer loop
      vertex 11 -25 30
      vertex 12.5 -30 6.66134e-15
      vertex 11 -25 5.55112e-15
    endloop
  endfacet
  facet normal -0.957826 0.287348 0
    outer loop
      vertex 17.5 -30 6.66134e-15
      vertex 19 -25 120
      vertex 19 -25 5.55112e-15
    endloop
  endfacet
  facet normal -0.957826 0.287348 0
    outer loop
      vertex 19 -25 120
      vertex 17.5 -30 6.66134e-15
      vertex 17.5 -30 120
    endloop
  endfacet
  facet normal -0 -2.22045e-16 -1
    outer loop
      vertex 12.5 -30 6.66134e-15
      vertex 3.53978 -30 6.66134e-15
      vertex 11 -25 5.55112e-15
    endloop
  endfacet
  facet normal 0 -2.22045e-16 -1
    outer loop
      vertex 11.3594 -12.355 2.74335e-15
      vertex 11.4666 -7.92681 1.76011e-15
      vertex 12.75 -11.1029 2.46534e-15
    endloop
  endfacet
  facet normal 0 -2.22045e-16 -1
    outer loop
      vertex 7.93812 -11.4553 2.54358e-15
      vertex 11.3594 -12.355 2.74335e-15
      vertex 10.5983 -14.0644 3.12292e-15
    endloop
  endfacet
  facet normal 0 -2.22045e-16 -1
    outer loop
      vertex 11.3594 -12.355 2.74335e-15
      vertex 7.93812 -11.4553 2.54358e-15
      vertex 11.4666 -7.92681 1.76011e-15
    endloop
  endfacet
  facet normal 0 -2.22045e-16 -1
    outer loop
      vertex 11.4553 -22.0619 4.89872e-15
      vertex 12.75 -18.8971 4.196e-15
      vertex 11.4666 -22.0732 4.90123e-15
    endloop
  endfacet
  facet normal 0 -2.22045e-16 -1
    outer loop
      vertex 11.4553 -22.0619 4.89872e-15
      vertex 11.3594 -17.645 3.91798e-15
      vertex 12.75 -18.8971 4.196e-15
    endloop
  endfacet
  facet normal 0 -2.22045e-16 -1
    outer loop
      vertex 7.92681 -18.5334 4.11524e-15
      vertex 11.3594 -17.645 3.91798e-15
      vertex 11.4553 -22.0619 4.89872e-15
    endloop
  endfacet
  facet normal 0 -2.22045e-16 -1
    outer loop
      vertex 7.92681 -11.4666 2.54609e-15
      vertex 10.5983 -14.0644 3.12292e-15
      vertex 10.5983 -15.9356 3.53841e-15
    endloop
  endfacet
  facet normal 0 -2.22045e-16 -1
    outer loop
      vertex 11.3594 -17.645 3.91798e-15
      vertex 7.92681 -18.5334 4.11524e-15
      vertex 10.5983 -15.9356 3.53841e-15
    endloop
  endfacet
  facet normal 0 -2.22045e-16 -1
    outer loop
      vertex 7.92681 -11.4666 2.54609e-15
      vertex 10.5983 -15.9356 3.53841e-15
      vertex 7.92681 -18.5334 4.11524e-15
    endloop
  endfacet
  facet normal 0 -2.22045e-16 -1
    outer loop
      vertex 10.5983 -14.0644 3.12292e-15
      vertex 7.92681 -11.4666 2.54609e-15
      vertex 7.93812 -11.4553 2.54358e-15
    endloop
  endfacet
  facet normal 0 -2.22045e-16 -1
    outer loop
      vertex 7.92681 -18.5334 4.11524e-15
      vertex 5 -19 4.21885e-15
      vertex 7.92681 -11.4666 2.54609e-15
    endloop
  endfacet
  facet normal 0 -2.22045e-16 -1
    outer loop
      vertex 0 -26.4602 5.87535e-15
      vertex 5 -19 4.21885e-15
      vertex 7.92681 -18.5334 4.11524e-15
    endloop
  endfacet
  facet normal 0 -2.22045e-16 -1
    outer loop
      vertex 5 -19 4.21885e-15
      vertex 0 -26.4602 5.87535e-15
      vertex 0 -17.5 3.88578e-15
    endloop
  endfacet
  facet normal -0 -2.22045e-16 -1
    outer loop
      vertex 26.4602 -30 6.66134e-15
      vertex 17.5 -30 6.66134e-15
      vertex 19 -25 5.55112e-15
    endloop
  endfacet
  facet normal 0 -2.22045e-16 -1
    outer loop
      vertex 19 -25 5.55112e-15
      vertex 18.5334 -22.0732 4.90123e-15
      vertex 26.4602 -30 6.66134e-15
    endloop
  endfacet
  facet normal 0 -2.22045e-16 -1
    outer loop
      vertex 18.5334 -22.0732 4.90123e-15
      vertex 16.3906 -19.2798 4.28097e-15
      vertex 18.0111 -18.3442 4.07322e-15
    endloop
  endfacet
  facet normal 0 -2.22045e-16 -1
    outer loop
      vertex 11.4666 -22.0732 4.90123e-15
      vertex 18.5334 -22.0732 4.90123e-15
      vertex 19 -25 5.55112e-15
    endloop
  endfacet
  facet normal 0 -2.22045e-16 -1
    outer loop
      vertex 18.5334 -22.0732 4.90123e-15
      vertex 14.5296 -19.4753 4.3244e-15
      vertex 16.3906 -19.2798 4.28097e-15
    endloop
  endfacet
  facet normal -0 -2.22045e-16 -1
    outer loop
      vertex 18.5334 -22.0732 4.90123e-15
      vertex 11.4666 -22.0732 4.90123e-15
      vertex 14.5296 -19.4753 4.3244e-15
    endloop
  endfacet
  facet normal 0 -2.22045e-16 -1
    outer loop
      vertex 14.5296 -19.4753 4.3244e-15
      vertex 11.4666 -22.0732 4.90123e-15
      vertex 12.75 -18.8971 4.196e-15
    endloop
  endfacet
  facet normal 0 -2.22045e-16 -1
    outer loop
      vertex 11 -25 5.55112e-15
      vertex 11.4666 -22.0732 4.90123e-15
      vertex 19 -25 5.55112e-15
    endloop
  endfacet
  facet normal 0 -2.22045e-16 -1
    outer loop
      vertex 11.4666 -22.0732 4.90123e-15
      vertex 11 -25 5.55112e-15
      vertex 3.53978 -30 6.66134e-15
    endloop
  endfacet
  facet normal 0 -2.22045e-16 -1
    outer loop
      vertex 19.111 -13.1697 2.92426e-15
      vertex 22.0732 -11.4666 2.54609e-15
      vertex 19.3043 -14.0794 3.12624e-15
    endloop
  endfacet
  facet normal 0 -2.22045e-16 -1
    outer loop
      vertex 22.0732 -11.4666 2.54609e-15
      vertex 19.111 -13.1697 2.92426e-15
      vertex 22.0619 -11.4553 2.54358e-15
    endloop
  endfacet
  facet normal 0 -2.22045e-16 -1
    outer loop
      vertex 18.0111 -11.6558 2.58812e-15
      vertex 22.0619 -11.4553 2.54358e-15
      vertex 19.111 -13.1697 2.92426e-15
    endloop
  endfacet
  facet normal 0 -2.22045e-16 -1
    outer loop
      vertex 22.0619 -11.4553 2.54358e-15
      vertex 18.0111 -11.6558 2.58812e-15
      vertex 18.5334 -7.92681 1.76011e-15
    endloop
  endfacet
  facet normal 0 -2.22045e-16 -1
    outer loop
      vertex 30 -26.4602 5.87535e-15
      vertex 25 -19 4.21885e-15
      vertex 30 -17.5 3.88578e-15
    endloop
  endfacet
  facet normal 0 -2.22045e-16 -1
    outer loop
      vertex 25 -19 4.21885e-15
      vertex 22.0732 -18.5334 4.11524e-15
      vertex 25 -11 2.44249e-15
    endloop
  endfacet
  facet normal 0 -2.22045e-16 -1
    outer loop
      vertex 22.0732 -18.5334 4.11524e-15
      vertex 25 -19 4.21885e-15
      vertex 30 -26.4602 5.87535e-15
    endloop
  endfacet
  facet normal 0 -2.22045e-16 -1
    outer loop
      vertex 25 -11 2.44249e-15
      vertex 30 -3.53978 7.85988e-16
      vertex 30 -12.5 2.77556e-15
    endloop
  endfacet
  facet normal 0 -2.22045e-16 -1
    outer loop
      vertex 25 -11 2.44249e-15
      vertex 22.0732 -11.4666 2.54609e-15
      vertex 30 -3.53978 7.85988e-16
    endloop
  endfacet
  facet normal 0 -2.22045e-16 -1
    outer loop
      vertex 22.0732 -18.5334 4.11524e-15
      vertex 22.0732 -11.4666 2.54609e-15
      vertex 25 -11 2.44249e-15
    endloop
  endfacet
  facet normal 0 -2.22045e-16 -1
    outer loop
      vertex 19.5 -15 3.33067e-15
      vertex 22.0732 -11.4666 2.54609e-15
      vertex 22.0732 -18.5334 4.11524e-15
    endloop
  endfacet
  facet normal 0 -2.22045e-16 -1
    outer loop
      vertex 19.3043 -14.0794 3.12624e-15
      vertex 22.0732 -11.4666 2.54609e-15
      vertex 19.5 -15 3.33067e-15
    endloop
  endfacet
  facet normal 0 -2.22045e-16 -1
    outer loop
      vertex 22.0732 -18.5334 4.11524e-15
      vertex 19.3066 -15.9097 3.53266e-15
      vertex 19.5 -15 3.33067e-15
    endloop
  endfacet
  facet normal 0 -2.22045e-16 -1
    outer loop
      vertex 22.0732 -18.5334 4.11524e-15
      vertex 19.111 -16.8303 3.73708e-15
      vertex 19.3066 -15.9097 3.53266e-15
    endloop
  endfacet
  facet normal 0 -2.22045e-16 -1
    outer loop
      vertex 18.0111 -18.3442 4.07322e-15
      vertex 22.0732 -18.5334 4.11524e-15
      vertex 18.5334 -22.0732 4.90123e-15
    endloop
  endfacet
  facet normal 0 -2.22045e-16 -1
    outer loop
      vertex 22.0732 -18.5334 4.11524e-15
      vertex 18.0111 -18.3442 4.07322e-15
      vertex 19.111 -16.8303 3.73708e-15
    endloop
  endfacet
  facet normal 0 -2.22045e-16 -1
    outer loop
      vertex 18.5334 -7.92681 1.76011e-15
      vertex 19 -5 1.11022e-15
      vertex 26.4602 0 0
    endloop
  endfacet
  facet normal 0 -2.22045e-16 -1
    outer loop
      vertex 16.3906 -10.7202 2.38037e-15
      vertex 18.5334 -7.92681 1.76011e-15
      vertex 18.0111 -11.6558 2.58812e-15
    endloop
  endfacet
  facet normal 0 -2.22045e-16 -1
    outer loop
      vertex 14.5296 -10.5247 2.33694e-15
      vertex 18.5334 -7.92681 1.76011e-15
      vertex 16.3906 -10.7202 2.38037e-15
    endloop
  endfacet
  facet normal 0 -2.22045e-16 -1
    outer loop
      vertex 11.4666 -7.92681 1.76011e-15
      vertex 18.5334 -7.92681 1.76011e-15
      vertex 14.5296 -10.5247 2.33694e-15
    endloop
  endfacet
  facet normal 0 -2.22045e-16 -1
    outer loop
      vertex 11.4666 -7.92681 1.76011e-15
      vertex 14.5296 -10.5247 2.33694e-15
      vertex 12.75 -11.1029 2.46534e-15
    endloop
  endfacet
  facet normal 0 -2.22045e-16 -1
    outer loop
      vertex 18.5334 -7.92681 1.76011e-15
      vertex 11.4666 -7.92681 1.76011e-15
      vertex 19 -5 1.11022e-15
    endloop
  endfacet
  facet normal 0 -2.22045e-16 -1
    outer loop
      vertex 11.4666 -7.92681 1.76011e-15
      vertex 11 -5 1.11022e-15
      vertex 19 -5 1.11022e-15
    endloop
  endfacet
  facet normal 0 -2.22045e-16 -1
    outer loop
      vertex 11 -5 1.11022e-15
      vertex 11.4666 -7.92681 1.76011e-15
      vertex 3.53978 0 0
    endloop
  endfacet
  facet normal -0 -2.22045e-16 -1
    outer loop
      vertex 26.4602 0 0
      vertex 19 -5 1.11022e-15
      vertex 17.5 0 0
    endloop
  endfacet
  facet normal -0 -2.22045e-16 -1
    outer loop
      vertex 12.5 0 0
      vertex 11 -5 1.11022e-15
      vertex 3.53978 0 0
    endloop
  endfacet
  facet normal 0 -2.22045e-16 -1
    outer loop
      vertex 5 -11 2.44249e-15
      vertex 7.92681 -11.4666 2.54609e-15
      vertex 5 -19 4.21885e-15
    endloop
  endfacet
  facet normal 0 -2.22045e-16 -1
    outer loop
      vertex 5 -11 2.44249e-15
      vertex 0 -3.53977 7.85988e-16
      vertex 7.92681 -11.4666 2.54609e-15
    endloop
  endfacet
  facet normal 0 -2.22045e-16 -1
    outer loop
      vertex 0 -3.53977 7.85988e-16
      vertex 5 -11 2.44249e-15
      vertex 0 -12.5 2.77556e-15
    endloop
  endfacet
  facet normal 0 0 0
    outer loop
      vertex 19 -25 5.55112e-15
      vertex 19 -25 120
      vertex 19 -25 90
    endloop
  endfacet
  facet normal 0 0 0
    outer loop
      vertex 19 -25 5.55112e-15
      vertex 19 -25 90
      vertex 19 -25 60
    endloop
  endfacet
  facet normal 0 0 0
    outer loop
      vertex 19 -25 30
      vertex 19 -25 5.55112e-15
      vertex 19 -25 60
    endloop
  endfacet
  facet normal 0 -1 0
    outer loop
      vertex 0 -30 115.01
      vertex 0 -30 4.99
      vertex 5.65685 -30 115.01
    endloop
  endfacet
  facet normal 0 -1 0
    outer loop
      vertex 5.65685 -30 115.01
      vertex 12.5 -30 120
      vertex 3.53978 -30 120
    endloop
  endfacet
  facet normal 0 -1 0
    outer loop
      vertex 5.65685 -30 4.99
      vertex 5.65685 -30 115.01
      vertex 0 -30 4.99
    endloop
  endfacet
  facet normal 0 -1 0
    outer loop
      vertex 5.65685 -30 115.01
      vertex 5.65685 -30 4.99
      vertex 12.5 -30 120
    endloop
  endfacet
  facet normal 0 -1 0
    outer loop
      vertex 5.65685 -30 4.99
      vertex 12.5 -30 6.66134e-15
      vertex 12.5 -30 120
    endloop
  endfacet
  facet normal 0 -1 0
    outer loop
      vertex 12.5 -30 6.66134e-15
      vertex 5.65685 -30 4.99
      vertex 3.53978 -30 6.66134e-15
    endloop
  endfacet
  facet normal 0 -1 0
    outer loop
      vertex 17.5 -30 120
      vertex 24.3431 -30 115.01
      vertex 26.4602 -30 120
    endloop
  endfacet
  facet normal 0 -1 0
    outer loop
      vertex 24.3431 -30 115.01
      vertex 24.3431 -30 4.99
      vertex 30 -30 115.01
    endloop
  endfacet
  facet normal 0 -1 0
    outer loop
      vertex 17.5 -30 120
      vertex 24.3431 -30 4.99
      vertex 24.3431 -30 115.01
    endloop
  endfacet
  facet normal 0 -1 0
    outer loop
      vertex 17.5 -30 6.66134e-15
      vertex 24.3431 -30 4.99
      vertex 17.5 -30 120
    endloop
  endfacet
  facet normal 0 -1 -0
    outer loop
      vertex 24.3431 -30 4.99
      vertex 17.5 -30 6.66134e-15
      vertex 26.4602 -30 6.66134e-15
    endloop
  endfacet
  facet normal 0 -1 -0
    outer loop
      vertex 30 -30 115.01
      vertex 24.3431 -30 4.99
      vertex 30 -30 4.99
    endloop
  endfacet
  facet normal -0.287348 0.957826 0
    outer loop
      vertex 30 -17.5 120
      vertex 25 -19 4.21885e-15
      vertex 25 -19 120
    endloop
  endfacet
  facet normal -0.287348 0.957826 0
    outer loop
      vertex 25 -19 4.21885e-15
      vertex 30 -17.5 120
      vertex 30 -17.5 3.88578e-15
    endloop
  endfacet
  facet normal -0.287348 -0.957826 0
    outer loop
      vertex 25 -11 120
      vertex 30 -12.5 2.77556e-15
      vertex 30 -12.5 120
    endloop
  endfacet
  facet normal -0.287348 -0.957826 0
    outer loop
      vertex 30 -12.5 2.77556e-15
      vertex 25 -11 120
      vertex 25 -11 2.44249e-15
    endloop
  endfacet
  facet normal 1 -0 0
    outer loop
      vertex 25 -19 120
      vertex 25 -11 2.44249e-15
      vertex 25 -11 120
    endloop
  endfacet
  facet normal 1 0 0
    outer loop
      vertex 25 -11 2.44249e-15
      vertex 25 -19 120
      vertex 25 -19 4.21885e-15
    endloop
  endfacet
  facet normal 1 0 0
    outer loop
      vertex 30 -5.65685 115.01
      vertex 30 -12.5 120
      vertex 30 -5.65685 4.99
    endloop
  endfacet
  facet normal 1 -0 0
    outer loop
      vertex 30 -12.5 120
      vertex 30 -5.65685 115.01
      vertex 30 -3.53978 120
    endloop
  endfacet
  facet normal 1 -0 0
    outer loop
      vertex 30 -5.65685 115.01
      vertex 30 1.108e-15 4.99
      vertex 30 2.55374e-14 115.01
    endloop
  endfacet
  facet normal 1 0 0
    outer loop
      vertex 30 1.108e-15 4.99
      vertex 30 -5.65685 115.01
      vertex 30 -5.65685 4.99
    endloop
  endfacet
  facet normal 1 0 0
    outer loop
      vertex 30 -5.65685 4.99
      vertex 30 -12.5 2.77556e-15
      vertex 30 -3.53978 7.85988e-16
    endloop
  endfacet
  facet normal 1 0 0
    outer loop
      vertex 30 -12.5 2.77556e-15
      vertex 30 -5.65685 4.99
      vertex 30 -12.5 120
    endloop
  endfacet
  facet normal 1 -0 0
    outer loop
      vertex 30 -30 115.01
      vertex 30 -24.3431 4.99
      vertex 30 -24.3431 115.01
    endloop
  endfacet
  facet normal 1 0 0
    outer loop
      vertex 30 -24.3431 4.99
      vertex 30 -30 115.01
      vertex 30 -30 4.99
    endloop
  endfacet
  facet normal 1 0 0
    outer loop
      vertex 30 -17.5 120
      vertex 30 -24.3431 115.01
      vertex 30 -17.5 3.88578e-15
    endloop
  endfacet
  facet normal 1 0 -0
    outer loop
      vertex 30 -24.3431 115.01
      vertex 30 -17.5 120
      vertex 30 -26.4602 120
    endloop
  endfacet
  facet normal 1 -0 0
    outer loop
      vertex 30 -24.3431 4.99
      vertex 30 -17.5 3.88578e-15
      vertex 30 -24.3431 115.01
    endloop
  endfacet
  facet normal 1 0 0
    outer loop
      vertex 30 -17.5 3.88578e-15
      vertex 30 -24.3431 4.99
      vertex 30 -26.4602 5.87535e-15
    endloop
  endfacet
  facet normal -0.957826 -0.287348 6.3804e-17
    outer loop
      vertex 19 -5 1.11022e-15
      vertex 17.5 2.66454e-14 120
      vertex 17.5 0 0
    endloop
  endfacet
  facet normal -0.957826 -0.287348 0
    outer loop
      vertex 17.5 2.66454e-14 120
      vertex 19 -5 1.11022e-15
      vertex 19 -5 120
    endloop
  endfacet
  facet normal 0.957826 -0.287348 6.3804e-17
    outer loop
      vertex 11 -5 120
      vertex 12.5 0 0
      vertex 12.5 2.66454e-14 120
    endloop
  endfacet
  facet normal 0.957826 -0.287348 0
    outer loop
      vertex 12.5 0 0
      vertex 11 -5 120
      vertex 11 -5 1.11022e-15
    endloop
  endfacet
  facet normal 0 1 -0
    outer loop
      vertex 19 -5 1.11022e-15
      vertex 11 -5 120
      vertex 19 -5 120
    endloop
  endfacet
  facet normal 0 1 0
    outer loop
      vertex 11 -5 120
      vertex 19 -5 1.11022e-15
      vertex 11 -5 1.11022e-15
    endloop
  endfacet
  facet normal 0 1 -2.22045e-16
    outer loop
      vertex 12.5 2.66454e-14 120
      vertex 5.65685 2.55374e-14 115.01
      vertex 3.53977 2.66454e-14 120
    endloop
  endfacet
  facet normal 0 1 -2.22045e-16
    outer loop
      vertex 5.65685 2.55374e-14 115.01
      vertex 5.65685 1.108e-15 4.99
      vertex 0 2.55374e-14 115.01
    endloop
  endfacet
  facet normal 0 1 -2.22045e-16
    outer loop
      vertex 12.5 2.66454e-14 120
      vertex 5.65685 1.108e-15 4.99
      vertex 5.65685 2.55374e-14 115.01
    endloop
  endfacet
  facet normal 0 1 -2.22045e-16
    outer loop
      vertex 12.5 0 0
      vertex 5.65685 1.108e-15 4.99
      vertex 12.5 2.66454e-14 120
    endloop
  endfacet
  facet normal 0 1 -2.22045e-16
    outer loop
      vertex 5.65685 1.108e-15 4.99
      vertex 12.5 0 0
      vertex 3.53978 0 0
    endloop
  endfacet
  facet normal 0 1 -2.22045e-16
    outer loop
      vertex 0 2.55374e-14 115.01
      vertex 5.65685 1.108e-15 4.99
      vertex 0 1.108e-15 4.99
    endloop
  endfacet
  facet normal 0 1 -2.22045e-16
    outer loop
      vertex 30 2.55374e-14 115.01
      vertex 30 1.108e-15 4.99
      vertex 24.3431 2.55374e-14 115.01
    endloop
  endfacet
  facet normal 0 1 -2.22045e-16
    outer loop
      vertex 24.3431 2.55374e-14 115.01
      vertex 17.5 2.66454e-14 120
      vertex 26.4602 2.66454e-14 120
    endloop
  endfacet
  facet normal 0 1 -2.22045e-16
    outer loop
      vertex 24.3431 1.108e-15 4.99
      vertex 24.3431 2.55374e-14 115.01
      vertex 30 1.108e-15 4.99
    endloop
  endfacet
  facet normal 0 1 -2.22045e-16
    outer loop
      vertex 24.3431 2.55374e-14 115.01
      vertex 24.3431 1.108e-15 4.99
      vertex 17.5 2.66454e-14 120
    endloop
  endfacet
  facet normal 0 1 -2.22045e-16
    outer loop
      vertex 24.3431 1.108e-15 4.99
      vertex 17.5 0 0
      vertex 17.5 2.66454e-14 120
    endloop
  endfacet
  facet normal 0 1 -2.22045e-16
    outer loop
      vertex 17.5 0 0
      vertex 24.3431 1.108e-15 4.99
      vertex 26.4602 0 0
    endloop
  endfacet
  facet normal 0.287348 -0.957826 0
    outer loop
      vertex 0 -12.5 2.77556e-15
      vertex 5 -11 120
      vertex 0 -12.5 120
    endloop
  endfacet
  facet normal 0.287348 -0.957826 0
    outer loop
      vertex 5 -11 120
      vertex 0 -12.5 2.77556e-15
      vertex 5 -11 2.44249e-15
    endloop
  endfacet
  facet normal 0.287348 0.957826 -1.52242e-08
    outer loop
      vertex 5 -19 4.21885e-15
      vertex 0 -17.5 120
      vertex 5 -19 120
    endloop
  endfacet
  facet normal 0.287348 0.957826 -1.52242e-08
    outer loop
      vertex 0 -17.5 120
      vertex 5 -19 4.21885e-15
      vertex 0 -17.5 3.88578e-15
    endloop
  endfacet
  facet normal -1 0 0
    outer loop
      vertex 5 -11 2.44249e-15
      vertex 5 -19 120
      vertex 5 -11 120
    endloop
  endfacet
  facet normal -1 0 -0
    outer loop
      vertex 5 -19 120
      vertex 5 -11 2.44249e-15
      vertex 5 -19 4.21885e-15
    endloop
  endfacet
  facet normal -1 0 0
    outer loop
      vertex 0 -30 4.99
      vertex 0 -24.3431 115.01
      vertex 0 -24.3431 4.99
    endloop
  endfacet
  facet normal -1 -0 0
    outer loop
      vertex 0 -24.3431 115.01
      vertex 0 -30 4.99
      vertex 0 -30 115.01
    endloop
  endfacet
  facet normal -1 0 0
    outer loop
      vertex 0 -17.5 3.88578e-15
      vertex 0 -26.4602 5.87535e-15
      vertex 0 -24.3431 4.99
    endloop
  endfacet
  facet normal -1 0 0
    outer loop
      vertex 0 -24.3431 4.99
      vertex 0 -17.5 120
      vertex 0 -17.5 3.88578e-15
    endloop
  endfacet
  facet normal -1 0 0
    outer loop
      vertex 0 -24.3431 115.01
      vertex 0 -17.5 120
      vertex 0 -24.3431 4.99
    endloop
  endfacet
  facet normal -1 -0 0
    outer loop
      vertex 0 -17.5 120
      vertex 0 -24.3431 115.01
      vertex 0 -26.4602 120
    endloop
  endfacet
  facet normal -1 -0 0
    outer loop
      vertex 0 -5.65685 4.99
      vertex 0 -12.5 2.77556e-15
      vertex 0 -5.65685 115.01
    endloop
  endfacet
  facet normal -1 0 0
    outer loop
      vertex 0 -12.5 2.77556e-15
      vertex 0 -5.65685 4.99
      vertex 0 -3.53977 7.85988e-16
    endloop
  endfacet
  facet normal -1 0 0
    outer loop
      vertex 0 -5.65685 4.99
      vertex 0 2.55374e-14 115.01
      vertex 0 1.108e-15 4.99
    endloop
  endfacet
  facet normal -1 -0 0
    outer loop
      vertex 0 2.55374e-14 115.01
      vertex 0 -5.65685 4.99
      vertex 0 -5.65685 115.01
    endloop
  endfacet
  facet normal -1 0 0
    outer loop
      vertex 0 -5.65685 115.01
      vertex 0 -12.5 120
      vertex 0 -3.53978 120
    endloop
  endfacet
  facet normal -1 0 0
    outer loop
      vertex 0 -12.5 120
      vertex 0 -5.65685 115.01
      vertex 0 -12.5 2.77556e-15
    endloop
  endfacet
  facet normal 0 -1 0
    outer loop
      vertex 19 -25 5.55112e-15
      vertex 19 -25 30
      vertex 11 -25 5.55112e-15
    endloop
  endfacet
  facet normal -0 -1 0
    outer loop
      vertex 19 -25 30
      vertex 11 -25 30
      vertex 11 -25 5.55112e-15
    endloop
  endfacet
  facet normal -2.38419e-07 -1 0
    outer loop
      vertex 19 -25 30
      vertex 19 -25 60
      vertex 11 -25 30
    endloop
  endfacet
  facet normal -0 -1 -6.35783e-08
    outer loop
      vertex 19 -25 60
      vertex 11 -25 60
      vertex 11 -25 30
    endloop
  endfacet
  facet normal -2.38419e-07 -1 0
    outer loop
      vertex 19 -25 60
      vertex 19 -25 90
      vertex 11 -25 60
    endloop
  endfacet
  facet normal -0 -1 -6.35783e-08
    outer loop
      vertex 19 -25 90
      vertex 11 -25 90
      vertex 11 -25 60
    endloop
  endfacet
  facet normal 0 0 1
    outer loop
      vertex 12.5 2.66454e-14 120
      vertex 3.53977 2.66454e-14 120
      vertex 11 -5 120
    endloop
  endfacet
  facet normal 0 0 1
    outer loop
      vertex 26.4602 2.66454e-14 120
      vertex 17.5 2.66454e-14 120
      vertex 19 -5 120
    endloop
  endfacet
  facet normal -0 0 1
    outer loop
      vertex 19 -5 120
      vertex 18.5334 -7.92681 120
      vertex 26.4602 2.66454e-14 120
    endloop
  endfacet
  facet normal 0 0 1
    outer loop
      vertex 18.5334 -7.92681 120
      vertex 16.3906 -10.7202 120
      vertex 18.0111 -11.6558 120
    endloop
  endfacet
  facet normal 0 0 1
    outer loop
      vertex 11.4666 -7.92681 120
      vertex 18.5334 -7.92681 120
      vertex 19 -5 120
    endloop
  endfacet
  facet normal 0 0 1
    outer loop
      vertex 18.5334 -7.92681 120
      vertex 14.5296 -10.5247 120
      vertex 16.3906 -10.7202 120
    endloop
  endfacet
  facet normal 0 0 1
    outer loop
      vertex 18.5334 -7.92681 120
      vertex 11.4666 -7.92681 120
      vertex 14.5296 -10.5247 120
    endloop
  endfacet
  facet normal 0 0 1
    outer loop
      vertex 14.5296 -10.5247 120
      vertex 11.4666 -7.92681 120
      vertex 12.75 -11.1029 120
    endloop
  endfacet
  facet normal -0 0 1
    outer loop
      vertex 11 -5 120
      vertex 11.4666 -7.92681 120
      vertex 19 -5 120
    endloop
  endfacet
  facet normal 0 0 1
    outer loop
      vertex 11.4666 -7.92681 120
      vertex 11 -5 120
      vertex 3.53977 2.66454e-14 120
    endloop
  endfacet
  facet normal 0 0 1
    outer loop
      vertex 22.0732 -11.4666 120
      vertex 19.3136 -14.1233 120
      vertex 19.5 -15 120
    endloop
  endfacet
  facet normal 0 0 1
    outer loop
      vertex 22.0732 -11.4666 120
      vertex 19.111 -13.1697 120
      vertex 19.3136 -14.1233 120
    endloop
  endfacet
  facet normal 0 0 1
    outer loop
      vertex 18.0111 -11.6558 120
      vertex 22.0619 -11.4553 120
      vertex 18.5334 -7.92681 120
    endloop
  endfacet
  facet normal 0 0 1
    outer loop
      vertex 22.0619 -11.4553 120
      vertex 18.0111 -11.6558 120
      vertex 19.111 -13.1697 120
    endloop
  endfacet
  facet normal 0 0 1
    outer loop
      vertex 30 -3.53978 120
      vertex 25 -11 120
      vertex 30 -12.5 120
    endloop
  endfacet
  facet normal 0 0 1
    outer loop
      vertex 25 -11 120
      vertex 22.0732 -11.4666 120
      vertex 25 -19 120
    endloop
  endfacet
  facet normal 0 0 1
    outer loop
      vertex 22.0732 -11.4666 120
      vertex 25 -11 120
      vertex 30 -3.53978 120
    endloop
  endfacet
  facet normal -0 0 1
    outer loop
      vertex 25 -19 120
      vertex 30 -26.4602 120
      vertex 30 -17.5 120
    endloop
  endfacet
  facet normal 0 0 1
    outer loop
      vertex 25 -19 120
      vertex 22.0732 -18.5334 120
      vertex 30 -26.4602 120
    endloop
  endfacet
  facet normal 0 0 1
    outer loop
      vertex 22.0732 -11.4666 120
      vertex 22.0732 -18.5334 120
      vertex 25 -19 120
    endloop
  endfacet
  facet normal 0 0 1
    outer loop
      vertex 19.111 -13.1697 120
      vertex 22.0732 -11.4666 120
      vertex 22.0619 -11.4553 120
    endloop
  endfacet
  facet normal 0 0 1
    outer loop
      vertex 22.0732 -11.4666 120
      vertex 19.5 -15 120
      vertex 22.0732 -18.5334 120
    endloop
  endfacet
  facet normal -0 0 1
    outer loop
      vertex 19.2973 -15.9536 120
      vertex 22.0732 -18.5334 120
      vertex 19.5 -15 120
    endloop
  endfacet
  facet normal -0 0 1
    outer loop
      vertex 19.111 -16.8303 120
      vertex 22.0732 -18.5334 120
      vertex 19.2973 -15.9536 120
    endloop
  endfacet
  facet normal -0 0 1
    outer loop
      vertex 18.0111 -18.3442 120
      vertex 22.0732 -18.5334 120
      vertex 19.111 -16.8303 120
    endloop
  endfacet
  facet normal 0 0 1
    outer loop
      vertex 22.0732 -18.5334 120
      vertex 18.0111 -18.3442 120
      vertex 18.5334 -22.0732 120
    endloop
  endfacet
  facet normal 0 0 1
    outer loop
      vertex 18.5334 -22.0732 120
      vertex 19 -25 120
      vertex 26.4602 -30 120
    endloop
  endfacet
  facet normal -0 0 1
    outer loop
      vertex 16.3906 -19.2798 120
      vertex 18.5334 -22.0732 120
      vertex 18.0111 -18.3442 120
    endloop
  endfacet
  facet normal -0 0 1
    outer loop
      vertex 14.5296 -19.4753 120
      vertex 18.5334 -22.0732 120
      vertex 16.3906 -19.2798 120
    endloop
  endfacet
  facet normal 0 0 1
    outer loop
      vertex 11.4666 -22.0732 120
      vertex 18.5334 -22.0732 120
      vertex 14.5296 -19.4753 120
    endloop
  endfacet
  facet normal 0 0 1
    outer loop
      vertex 11.4666 -22.0732 120
      vertex 14.5296 -19.4753 120
      vertex 12.75 -18.8971 120
    endloop
  endfacet
  facet normal 0 0 1
    outer loop
      vertex 18.5334 -22.0732 120
      vertex 11.4666 -22.0732 120
      vertex 19 -25 120
    endloop
  endfacet
  facet normal 0 0 1
    outer loop
      vertex 11.4666 -22.0732 120
      vertex 11 -25 120
      vertex 19 -25 120
    endloop
  endfacet
  facet normal 0 -0 1
    outer loop
      vertex 11 -25 120
      vertex 11.4666 -22.0732 120
      vertex 3.53978 -30 120
    endloop
  endfacet
  facet normal 0 0 1
    outer loop
      vertex 26.4602 -30 120
      vertex 19 -25 120
      vertex 17.5 -30 120
    endloop
  endfacet
  facet normal 0 0 1
    outer loop
      vertex 12.75 -18.8971 120
      vertex 11.4553 -22.0619 120
      vertex 11.4666 -22.0732 120
    endloop
  endfacet
  facet normal 0 0 1
    outer loop
      vertex 11.3594 -17.645 120
      vertex 11.4553 -22.0619 120
      vertex 12.75 -18.8971 120
    endloop
  endfacet
  facet normal 0 0 1
    outer loop
      vertex 7.92681 -18.5334 120
      vertex 11.3594 -17.645 120
      vertex 10.5983 -15.9356 120
    endloop
  endfacet
  facet normal 0 0 1
    outer loop
      vertex 11.3594 -17.645 120
      vertex 7.92681 -18.5334 120
      vertex 11.4553 -22.0619 120
    endloop
  endfacet
  facet normal -0 0 1
    outer loop
      vertex 11.4553 -7.93812 120
      vertex 12.75 -11.1029 120
      vertex 11.4666 -7.92681 120
    endloop
  endfacet
  facet normal 0 0 1
    outer loop
      vertex 11.4553 -7.93812 120
      vertex 11.3594 -12.355 120
      vertex 12.75 -11.1029 120
    endloop
  endfacet
  facet normal -0 0 1
    outer loop
      vertex 7.92681 -11.4666 120
      vertex 11.3594 -12.355 120
      vertex 11.4553 -7.93812 120
    endloop
  endfacet
  facet normal 0 0 1
    outer loop
      vertex 10.5983 -14.0644 120
      vertex 7.92681 -18.5334 120
      vertex 10.5983 -15.9356 120
    endloop
  endfacet
  facet normal 0 0 1
    outer loop
      vertex 11.3594 -12.355 120
      vertex 7.92681 -11.4666 120
      vertex 10.5983 -14.0644 120
    endloop
  endfacet
  facet normal 0 0 1
    outer loop
      vertex 10.5983 -14.0644 120
      vertex 7.92681 -11.4666 120
      vertex 7.92681 -18.5334 120
    endloop
  endfacet
  facet normal 0 0 1
    outer loop
      vertex 5 -11 120
      vertex 7.92681 -18.5334 120
      vertex 7.92681 -11.4666 120
    endloop
  endfacet
  facet normal 0 0 1
    outer loop
      vertex 5 -19 120
      vertex 7.92681 -18.5334 120
      vertex 5 -11 120
    endloop
  endfacet
  facet normal -0 0 1
    outer loop
      vertex 5 -19 120
      vertex 0 -26.4602 120
      vertex 7.92681 -18.5334 120
    endloop
  endfacet
  facet normal 0 0 1
    outer loop
      vertex 0 -26.4602 120
      vertex 5 -19 120
      vertex 0 -17.5 120
    endloop
  endfacet
  facet normal 0 0 1
    outer loop
      vertex 12.5 -30 120
      vertex 11 -25 120
      vertex 3.53978 -30 120
    endloop
  endfacet
  facet normal 0 0 1
    outer loop
      vertex 0 -3.53978 120
      vertex 5 -11 120
      vertex 7.92681 -11.4666 120
    endloop
  endfacet
  facet normal 0 0 1
    outer loop
      vertex 5 -11 120
      vertex 0 -3.53978 120
      vertex 0 -12.5 120
    endloop
  endfacet
  facet normal -2.38419e-07 -1 0
    outer loop
      vertex 19 -25 90
      vertex 19 -25 120
      vertex 11 -25 90
    endloop
  endfacet
  facet normal -0 -1 -6.35783e-08
    outer loop
      vertex 19 -25 120
      vertex 11 -25 120
      vertex 11 -25 90
    endloop
  endfacet
  facet normal -0.978148 0.207912 6.167e-09
    outer loop
      vertex 19.111 -16.8303 3.73708e-15
      vertex 19.2973 -15.9536 120
      vertex 19.3066 -15.9097 3.53266e-15
    endloop
  endfacet
  facet normal -0.978147 0.207913 0
    outer loop
      vertex 19.2973 -15.9536 120
      vertex 19.111 -16.8303 3.73708e-15
      vertex 19.111 -16.8303 120
    endloop
  endfacet
  facet normal -0.809017 0.587785 0
    outer loop
      vertex 18.0111 -18.3442 4.07322e-15
      vertex 19.111 -16.8303 120
      vertex 19.111 -16.8303 3.73708e-15
    endloop
  endfacet
  facet normal -0.809017 0.587785 0
    outer loop
      vertex 19.111 -16.8303 120
      vertex 18.0111 -18.3442 4.07322e-15
      vertex 18.0111 -18.3442 120
    endloop
  endfacet
  facet normal -0.978148 0.207912 -1.65233e-09
    outer loop
      vertex 19.3066 -15.9097 3.53266e-15
      vertex 19.5 -15 120
      vertex 19.5 -15 3.33067e-15
    endloop
  endfacet
  facet normal -0.978148 0.207911 5.73683e-09
    outer loop
      vertex 19.5 -15 120
      vertex 19.3066 -15.9097 3.53266e-15
      vertex 19.2973 -15.9536 120
    endloop
  endfacet
  facet normal 1 -0 0
    outer loop
      vertex 10.5983 -15.9356 120
      vertex 10.5983 -14.0644 3.12292e-15
      vertex 10.5983 -14.0644 120
    endloop
  endfacet
  facet normal 1 0 0
    outer loop
      vertex 10.5983 -14.0644 3.12292e-15
      vertex 10.5983 -15.9356 120
      vertex 10.5983 -15.9356 3.53841e-15
    endloop
  endfacet
  facet normal 0.913545 -0.406737 0
    outer loop
      vertex 10.5983 -14.0644 120
      vertex 11.3594 -12.355 2.74335e-15
      vertex 11.3594 -12.355 120
    endloop
  endfacet
  facet normal 0.913545 -0.406737 0
    outer loop
      vertex 11.3594 -12.355 2.74335e-15
      vertex 10.5983 -14.0644 120
      vertex 10.5983 -14.0644 3.12292e-15
    endloop
  endfacet
  facet normal -0.104529 0.994522 -1.58075e-08
    outer loop
      vertex 16.3906 -19.2798 120
      vertex 14.5296 -19.4753 4.3244e-15
      vertex 14.5296 -19.4753 120
    endloop
  endfacet
  facet normal -0.104529 0.994522 -1.58075e-08
    outer loop
      vertex 14.5296 -19.4753 4.3244e-15
      vertex 16.3906 -19.2798 120
      vertex 16.3906 -19.2798 4.28097e-15
    endloop
  endfacet
  facet normal -0.978147 -0.207913 -6.476e-09
    outer loop
      vertex 19.3043 -14.0794 3.12624e-15
      vertex 19.5 -15 120
      vertex 19.3136 -14.1233 120
    endloop
  endfacet
  facet normal -0.978148 -0.207912 1.65233e-09
    outer loop
      vertex 19.5 -15 120
      vertex 19.3043 -14.0794 3.12624e-15
      vertex 19.5 -15 3.33067e-15
    endloop
  endfacet
  facet normal -0.5 0.866026 -1.37651e-08
    outer loop
      vertex 18.0111 -18.3442 120
      vertex 16.3906 -19.2798 4.28097e-15
      vertex 16.3906 -19.2798 120
    endloop
  endfacet
  facet normal -0.5 0.866025 0
    outer loop
      vertex 16.3906 -19.2798 4.28097e-15
      vertex 18.0111 -18.3442 120
      vertex 18.0111 -18.3442 4.07322e-15
    endloop
  endfacet
  facet normal 0.913545 0.406737 0
    outer loop
      vertex 11.3594 -17.645 120
      vertex 10.5983 -15.9356 3.53841e-15
      vertex 10.5983 -15.9356 120
    endloop
  endfacet
  facet normal 0.913545 0.406737 0
    outer loop
      vertex 10.5983 -15.9356 3.53841e-15
      vertex 11.3594 -17.645 120
      vertex 11.3594 -17.645 3.91798e-15
    endloop
  endfacet
  facet normal 0.309017 0.951057 -1.51166e-08
    outer loop
      vertex 14.5296 -19.4753 4.3244e-15
      vertex 12.75 -18.8971 120
      vertex 14.5296 -19.4753 120
    endloop
  endfacet
  facet normal 0.309018 0.951056 0
    outer loop
      vertex 12.75 -18.8971 120
      vertex 14.5296 -19.4753 4.3244e-15
      vertex 12.75 -18.8971 4.196e-15
    endloop
  endfacet
  facet normal 0.66913 0.743145 -0
    outer loop
      vertex 12.75 -18.8971 4.196e-15
      vertex 11.3594 -17.645 120
      vertex 12.75 -18.8971 120
    endloop
  endfacet
  facet normal 0.66913 0.743145 0
    outer loop
      vertex 11.3594 -17.645 120
      vertex 12.75 -18.8971 4.196e-15
      vertex 11.3594 -17.645 3.91798e-15
    endloop
  endfacet
  facet normal 0.309017 -0.951056 0
    outer loop
      vertex 12.75 -11.1029 2.46534e-15
      vertex 14.5296 -10.5247 120
      vertex 12.75 -11.1029 120
    endloop
  endfacet
  facet normal 0.309017 -0.951056 0
    outer loop
      vertex 14.5296 -10.5247 120
      vertex 12.75 -11.1029 2.46534e-15
      vertex 14.5296 -10.5247 2.33694e-15
    endloop
  endfacet
  facet normal 0.669131 -0.743145 0
    outer loop
      vertex 11.3594 -12.355 2.74335e-15
      vertex 12.75 -11.1029 120
      vertex 11.3594 -12.355 120
    endloop
  endfacet
  facet normal 0.669131 -0.743145 0
    outer loop
      vertex 12.75 -11.1029 120
      vertex 11.3594 -12.355 2.74335e-15
      vertex 12.75 -11.1029 2.46534e-15
    endloop
  endfacet
  facet normal -0.104529 -0.994522 0
    outer loop
      vertex 14.5296 -10.5247 120
      vertex 16.3906 -10.7202 2.38037e-15
      vertex 16.3906 -10.7202 120
    endloop
  endfacet
  facet normal -0.104529 -0.994522 0
    outer loop
      vertex 16.3906 -10.7202 2.38037e-15
      vertex 14.5296 -10.5247 120
      vertex 14.5296 -10.5247 2.33694e-15
    endloop
  endfacet
  facet normal -0.5 -0.866026 0
    outer loop
      vertex 16.3906 -10.7202 120
      vertex 18.0111 -11.6558 2.58812e-15
      vertex 18.0111 -11.6558 120
    endloop
  endfacet
  facet normal -0.5 -0.866026 0
    outer loop
      vertex 18.0111 -11.6558 2.58812e-15
      vertex 16.3906 -10.7202 120
      vertex 16.3906 -10.7202 2.38037e-15
    endloop
  endfacet
  facet normal -0.809017 -0.587785 0
    outer loop
      vertex 19.111 -13.1697 2.92426e-15
      vertex 18.0111 -11.6558 120
      vertex 18.0111 -11.6558 2.58812e-15
    endloop
  endfacet
  facet normal -0.809017 -0.587785 0
    outer loop
      vertex 18.0111 -11.6558 120
      vertex 19.111 -13.1697 2.92426e-15
      vertex 19.111 -13.1697 120
    endloop
  endfacet
  facet normal -0.978148 -0.207912 0
    outer loop
      vertex 19.3043 -14.0794 3.12624e-15
      vertex 19.111 -13.1697 120
      vertex 19.111 -13.1697 2.92426e-15
    endloop
  endfacet
  facet normal -0.978148 -0.207911 -5.81295e-09
    outer loop
      vertex 19.111 -13.1697 120
      vertex 19.3043 -14.0794 3.12624e-15
      vertex 19.3136 -14.1233 120
    endloop
  endfacet
endsolid OpenSCAD_Model
