solid OpenSCAD_Model
  facet normal -1 0 0
    outer loop
      vertex 0 0 0
      vertex 0 120 30
      vertex 0 120 0
    endloop
  endfacet
  facet normal -1 -0 0
    outer loop
      vertex 0 120 30
      vertex 0 0 0
      vertex 0 0 30
    endloop
  endfacet
  facet normal -0 0 1
    outer loop
      vertex 1.2 115.01 30
      vertex 5.65685 4.99 30
      vertex 5.65685 115.01 30
    endloop
  endfacet
  facet normal 0 0 1
    outer loop
      vertex 5.65685 4.99 30
      vertex 1.2 115.01 30
      vertex 1.2 4.99 30
    endloop
  endfacet
  facet normal 0 0 1
    outer loop
      vertex 12.5 120 30
      vertex 5.65685 115.01 30
      vertex 12.5 0 30
    endloop
  endfacet
  facet normal 0 -0 1
    outer loop
      vertex 5.65685 115.01 30
      vertex 12.5 120 30
      vertex 3.53978 120 30
    endloop
  endfacet
  facet normal -0 0 1
    outer loop
      vertex 5.65685 4.99 30
      vertex 12.5 0 30
      vertex 5.65685 115.01 30
    endloop
  endfacet
  facet normal 0 0 1
    outer loop
      vertex 12.5 0 30
      vertex 5.65685 4.99 30
      vertex 3.53978 0 30
    endloop
  endfacet
  facet normal -0 0 1
    outer loop
      vertex 0 120 30
      vertex 1.2 115.01 30
      vertex 1.2 120 30
    endloop
  endfacet
  facet normal 0 0 1
    outer loop
      vertex 1.2 115.01 30
      vertex 0 120 30
      vertex 1.2 4.99 30
    endloop
  endfacet
  facet normal 0 0 1
    outer loop
      vertex 0 0 30
      vertex 1.2 4.99 30
      vertex 0 120 30
    endloop
  endfacet
  facet normal 0 0 1
    outer loop
      vertex 1.2 4.99 30
      vertex 0 0 30
      vertex 1.2 0 30
    endloop
  endfacet
  facet normal 1 0 0
    outer loop
      vertex 1.2 0 25.2602
      vertex 1.2 4.99 30
      vertex 1.2 0 30
    endloop
  endfacet
  facet normal 1 0 0
    outer loop
      vertex 1.2 4.99 30
      vertex 1.2 0 25.2602
      vertex 1.2 4.99 23.1431
    endloop
  endfacet
  facet normal 1 -0 0
    outer loop
      vertex 1.2 115.01 30
      vertex 1.2 120 25.2602
      vertex 1.2 120 30
    endloop
  endfacet
  facet normal 1 0 0
    outer loop
      vertex 1.2 120 25.2602
      vertex 1.2 115.01 30
      vertex 1.2 115.01 23.1431
    endloop
  endfacet
  facet normal 1 -0 0
    outer loop
      vertex 1.2 0 4.73977
      vertex 1.2 4.99 0
      vertex 1.2 4.99 6.85685
    endloop
  endfacet
  facet normal 1 0 0
    outer loop
      vertex 1.2 4.99 0
      vertex 1.2 0 4.73977
      vertex 1.2 0 0
    endloop
  endfacet
  facet normal 1 0 0
    outer loop
      vertex 1.2 115.01 0
      vertex 1.2 120 4.73978
      vertex 1.2 115.01 6.85685
    endloop
  endfacet
  facet normal 1 0 0
    outer loop
      vertex 1.2 120 4.73978
      vertex 1.2 115.01 0
      vertex 1.2 120 0
    endloop
  endfacet
  facet normal 1 -0 0
    outer loop
      vertex 1.2 0 17.86
      vertex 1.2 120 12.14
      vertex 1.2 120 17.86
    endloop
  endfacet
  facet normal 1 0 0
    outer loop
      vertex 1.2 120 12.14
      vertex 1.2 0 17.86
      vertex 1.2 0 12.14
    endloop
  endfacet
  facet normal 0 1 0
    outer loop
      vertex 30 120 30
      vertex 28.8 120 25.2602
      vertex 28.8 120 30
    endloop
  endfacet
  facet normal 0 1 0
    outer loop
      vertex 28.8 120 25.2602
      vertex 28.8 120 17.86
      vertex 25 120 19
    endloop
  endfacet
  facet normal 0 1 0
    outer loop
      vertex 30 120 30
      vertex 28.8 120 17.86
      vertex 28.8 120 25.2602
    endloop
  endfacet
  facet normal 0 1 0
    outer loop
      vertex 30 120 30
      vertex 28.8 120 12.14
      vertex 28.8 120 17.86
    endloop
  endfacet
  facet normal 0 1 0
    outer loop
      vertex 28.8 120 12.14
      vertex 28.8 120 4.73978
      vertex 25 120 11
    endloop
  endfacet
  facet normal 0 1 -0
    outer loop
      vertex 30 120 0
      vertex 28.8 120 12.14
      vertex 30 120 30
    endloop
  endfacet
  facet normal 0 1 0
    outer loop
      vertex 28.8 120 12.14
      vertex 30 120 0
      vertex 28.8 120 4.73978
    endloop
  endfacet
  facet normal 0 1 0
    outer loop
      vertex 28.8 120 4.73978
      vertex 30 120 0
      vertex 28.8 120 0
    endloop
  endfacet
  facet normal 0 1 -0
    outer loop
      vertex 25 120 19
      vertex 22.0732 120 18.5334
      vertex 28.8 120 25.2602
    endloop
  endfacet
  facet normal 0 1 0
    outer loop
      vertex 22.0732 120 18.5334
      vertex 19.111 120 16.8303
      vertex 18.0111 120 18.3442
    endloop
  endfacet
  facet normal 0 1 0
    outer loop
      vertex 22.0732 120 11.4666
      vertex 22.0732 120 18.5334
      vertex 25 120 19
    endloop
  endfacet
  facet normal 0 1 0
    outer loop
      vertex 22.0732 120 18.5334
      vertex 19.2973 120 15.9536
      vertex 19.111 120 16.8303
    endloop
  endfacet
  facet normal 0 1 0
    outer loop
      vertex 22.0732 120 18.5334
      vertex 19.5 120 15
      vertex 19.2973 120 15.9536
    endloop
  endfacet
  facet normal 0 1 0
    outer loop
      vertex 22.0732 120 18.5334
      vertex 22.0732 120 11.4666
      vertex 19.5 120 15
    endloop
  endfacet
  facet normal 0 1 0
    outer loop
      vertex 19.5 120 15
      vertex 22.0732 120 11.4666
      vertex 19.3136 120 14.1233
    endloop
  endfacet
  facet normal 0 1 0
    outer loop
      vertex 19.3136 120 14.1233
      vertex 22.0732 120 11.4666
      vertex 19.111 120 13.1697
    endloop
  endfacet
  facet normal 0 1 -0
    outer loop
      vertex 22.0619 120 11.4553
      vertex 19.111 120 13.1697
      vertex 22.0732 120 11.4666
    endloop
  endfacet
  facet normal 0 1 -0
    outer loop
      vertex 25 120 11
      vertex 22.0732 120 11.4666
      vertex 25 120 19
    endloop
  endfacet
  facet normal 0 1 0
    outer loop
      vertex 22.0732 120 11.4666
      vertex 25 120 11
      vertex 28.8 120 4.73978
    endloop
  endfacet
  facet normal 0 1 0
    outer loop
      vertex 11.4666 120 22.0732
      vertex 12.75 120 18.8971
      vertex 11.4553 120 22.0619
    endloop
  endfacet
  facet normal 0 1 0
    outer loop
      vertex 11.3594 120 17.645
      vertex 11.4553 120 22.0619
      vertex 12.75 120 18.8971
    endloop
  endfacet
  facet normal 0 1 0
    outer loop
      vertex 11.4553 120 22.0619
      vertex 11.3594 120 17.645
      vertex 7.92681 120 18.5334
    endloop
  endfacet
  facet normal 0 1 0
    outer loop
      vertex 26.4602 120 30
      vertex 19 120 25
      vertex 17.5 120 30
    endloop
  endfacet
  facet normal 0 1 0
    outer loop
      vertex 19 120 25
      vertex 18.5334 120 22.0732
      vertex 11 120 25
    endloop
  endfacet
  facet normal 0 1 0
    outer loop
      vertex 18.5334 120 22.0732
      vertex 19 120 25
      vertex 26.4602 120 30
    endloop
  endfacet
  facet normal 0 1 -0
    outer loop
      vertex 11 120 25
      vertex 3.53978 120 30
      vertex 12.5 120 30
    endloop
  endfacet
  facet normal 0 1 0
    outer loop
      vertex 11 120 25
      vertex 11.4666 120 22.0732
      vertex 3.53978 120 30
    endloop
  endfacet
  facet normal 0 1 0
    outer loop
      vertex 18.5334 120 22.0732
      vertex 11.4666 120 22.0732
      vertex 11 120 25
    endloop
  endfacet
  facet normal 0 1 -0
    outer loop
      vertex 14.5296 120 19.4753
      vertex 11.4666 120 22.0732
      vertex 18.5334 120 22.0732
    endloop
  endfacet
  facet normal 0 1 -0
    outer loop
      vertex 12.75 120 18.8971
      vertex 11.4666 120 22.0732
      vertex 14.5296 120 19.4753
    endloop
  endfacet
  facet normal 0 1 0
    outer loop
      vertex 18.5334 120 22.0732
      vertex 16.3906 120 19.2798
      vertex 14.5296 120 19.4753
    endloop
  endfacet
  facet normal 0 1 0
    outer loop
      vertex 18.0111 120 18.3442
      vertex 18.5334 120 22.0732
      vertex 22.0732 120 18.5334
    endloop
  endfacet
  facet normal 0 1 0
    outer loop
      vertex 18.5334 120 22.0732
      vertex 18.0111 120 18.3442
      vertex 16.3906 120 19.2798
    endloop
  endfacet
  facet normal 0 1 0
    outer loop
      vertex 7.92681 120 18.5334
      vertex 5 120 19
      vertex 1.2 120 25.2602
    endloop
  endfacet
  facet normal 0 1 -0
    outer loop
      vertex 10.5983 120 15.9356
      vertex 7.92681 120 18.5334
      vertex 11.3594 120 17.645
    endloop
  endfacet
  facet normal 0 1 0
    outer loop
      vertex 7.92681 120 11.4666
      vertex 7.92681 120 18.5334
      vertex 10.5983 120 15.9356
    endloop
  endfacet
  facet normal 0 1 0
    outer loop
      vertex 7.92681 120 11.4666
      vertex 10.5983 120 15.9356
      vertex 10.5983 120 14.0644
    endloop
  endfacet
  facet normal 0 1 0
    outer loop
      vertex 7.92681 120 11.4666
      vertex 10.5983 120 14.0644
      vertex 11.3594 120 12.355
    endloop
  endfacet
  facet normal 0 1 0
    outer loop
      vertex 7.92681 120 18.5334
      vertex 7.92681 120 11.4666
      vertex 5 120 19
    endloop
  endfacet
  facet normal 0 1 0
    outer loop
      vertex 7.92681 120 11.4666
      vertex 5 120 11
      vertex 5 120 19
    endloop
  endfacet
  facet normal -0 1 0
    outer loop
      vertex 5 120 11
      vertex 7.92681 120 11.4666
      vertex 1.2 120 4.73978
    endloop
  endfacet
  facet normal 0 1 -0
    outer loop
      vertex 1.2 120 25.2602
      vertex 0 120 30
      vertex 1.2 120 30
    endloop
  endfacet
  facet normal 0 1 0
    outer loop
      vertex 1.2 120 17.86
      vertex 1.2 120 25.2602
      vertex 5 120 19
    endloop
  endfacet
  facet normal 0 1 -0
    outer loop
      vertex 1.2 120 17.86
      vertex 0 120 30
      vertex 1.2 120 25.2602
    endloop
  endfacet
  facet normal 0 1 -0
    outer loop
      vertex 1.2 120 12.14
      vertex 0 120 30
      vertex 1.2 120 17.86
    endloop
  endfacet
  facet normal 0 1 0
    outer loop
      vertex 1.2 120 4.73978
      vertex 1.2 120 12.14
      vertex 5 120 11
    endloop
  endfacet
  facet normal 0 1 0
    outer loop
      vertex 0 120 0
      vertex 1.2 120 12.14
      vertex 1.2 120 4.73978
    endloop
  endfacet
  facet normal 0 1 0
    outer loop
      vertex 0 120 0
      vertex 1.2 120 4.73978
      vertex 1.2 120 0
    endloop
  endfacet
  facet normal 0 1 0
    outer loop
      vertex 1.2 120 12.14
      vertex 0 120 0
      vertex 0 120 30
    endloop
  endfacet
  facet normal 0 1 0
    outer loop
      vertex 11 120 5
      vertex 11.4666 120 7.92681
      vertex 19 120 5
    endloop
  endfacet
  facet normal 0 1 -0
    outer loop
      vertex 11 120 5
      vertex 3.53977 120 0
      vertex 11.4666 120 7.92681
    endloop
  endfacet
  facet normal 0 1 0
    outer loop
      vertex 3.53977 120 0
      vertex 11 120 5
      vertex 12.5 120 0
    endloop
  endfacet
  facet normal 0 1 -0
    outer loop
      vertex 11.4553 120 7.93812
      vertex 11.3594 120 12.355
      vertex 12.75 120 11.1029
    endloop
  endfacet
  facet normal 0 1 0
    outer loop
      vertex 11.4666 120 7.92681
      vertex 12.75 120 11.1029
      vertex 14.5296 120 10.5247
    endloop
  endfacet
  facet normal 0 1 0
    outer loop
      vertex 11.3594 120 12.355
      vertex 11.4553 120 7.93812
      vertex 7.92681 120 11.4666
    endloop
  endfacet
  facet normal 0 1 0
    outer loop
      vertex 19.111 120 13.1697
      vertex 22.0619 120 11.4553
      vertex 18.0111 120 11.6558
    endloop
  endfacet
  facet normal 0 1 -0
    outer loop
      vertex 18.5334 120 7.92681
      vertex 18.0111 120 11.6558
      vertex 22.0619 120 11.4553
    endloop
  endfacet
  facet normal 0 1 0
    outer loop
      vertex 18.5334 120 7.92681
      vertex 14.5296 120 10.5247
      vertex 16.3906 120 10.7202
    endloop
  endfacet
  facet normal 0 1 0
    outer loop
      vertex 18.0111 120 11.6558
      vertex 18.5334 120 7.92681
      vertex 16.3906 120 10.7202
    endloop
  endfacet
  facet normal 0 1 0
    outer loop
      vertex 14.5296 120 10.5247
      vertex 18.5334 120 7.92681
      vertex 11.4666 120 7.92681
    endloop
  endfacet
  facet normal 0 1 0
    outer loop
      vertex 12.75 120 11.1029
      vertex 11.4666 120 7.92681
      vertex 11.4553 120 7.93812
    endloop
  endfacet
  facet normal 0 1 0
    outer loop
      vertex 18.5334 120 7.92681
      vertex 19 120 5
      vertex 11.4666 120 7.92681
    endloop
  endfacet
  facet normal 0 1 0
    outer loop
      vertex 26.4602 120 0
      vertex 19 120 5
      vertex 18.5334 120 7.92681
    endloop
  endfacet
  facet normal 0 1 0
    outer loop
      vertex 19 120 5
      vertex 26.4602 120 0
      vertex 17.5 120 0
    endloop
  endfacet
  facet normal 0 0 -1
    outer loop
      vertex 1.2 4.99 0
      vertex 5.65685 115.01 0
      vertex 5.65685 4.99 0
    endloop
  endfacet
  facet normal -0 0 -1
    outer loop
      vertex 5.65685 115.01 0
      vertex 1.2 4.99 0
      vertex 1.2 115.01 0
    endloop
  endfacet
  facet normal 0 0 -1
    outer loop
      vertex 12.5 0 0
      vertex 5.65685 4.99 0
      vertex 12.5 120 0
    endloop
  endfacet
  facet normal 0 -0 -1
    outer loop
      vertex 5.65685 4.99 0
      vertex 12.5 0 0
      vertex 3.53978 0 0
    endloop
  endfacet
  facet normal 0 0 -1
    outer loop
      vertex 5.65685 115.01 0
      vertex 12.5 120 0
      vertex 5.65685 4.99 0
    endloop
  endfacet
  facet normal -0 0 -1
    outer loop
      vertex 12.5 120 0
      vertex 5.65685 115.01 0
      vertex 3.53977 120 0
    endloop
  endfacet
  facet normal 0 0 -1
    outer loop
      vertex 0 0 0
      vertex 1.2 4.99 0
      vertex 1.2 0 0
    endloop
  endfacet
  facet normal -0 0 -1
    outer loop
      vertex 1.2 4.99 0
      vertex 0 0 0
      vertex 1.2 115.01 0
    endloop
  endfacet
  facet normal 0 0 -1
    outer loop
      vertex 0 120 0
      vertex 1.2 115.01 0
      vertex 0 0 0
    endloop
  endfacet
  facet normal 0 0 -1
    outer loop
      vertex 1.2 115.01 0
      vertex 0 120 0
      vertex 1.2 120 0
    endloop
  endfacet
  facet normal 0 -1 0
    outer loop
      vertex 0 0 30
      vertex 1.2 0 25.2602
      vertex 1.2 0 30
    endloop
  endfacet
  facet normal 0 -1 0
    outer loop
      vertex 1.2 0 25.2602
      vertex 1.2 0 17.86
      vertex 5 0 19
    endloop
  endfacet
  facet normal 0 -1 0
    outer loop
      vertex 0 0 30
      vertex 1.2 0 17.86
      vertex 1.2 0 25.2602
    endloop
  endfacet
  facet normal 0 -1 0
    outer loop
      vertex 0 0 30
      vertex 1.2 0 12.14
      vertex 1.2 0 17.86
    endloop
  endfacet
  facet normal 0 -1 0
    outer loop
      vertex 1.2 0 12.14
      vertex 1.2 0 4.73977
      vertex 5 0 11
    endloop
  endfacet
  facet normal 0 -1 0
    outer loop
      vertex 0 0 0
      vertex 1.2 0 12.14
      vertex 0 0 30
    endloop
  endfacet
  facet normal 0 -1 -0
    outer loop
      vertex 1.2 0 12.14
      vertex 0 0 0
      vertex 1.2 0 4.73977
    endloop
  endfacet
  facet normal 0 -1 -0
    outer loop
      vertex 1.2 0 4.73977
      vertex 0 0 0
      vertex 1.2 0 0
    endloop
  endfacet
  facet normal 0 -1 0
    outer loop
      vertex 5 0 19
      vertex 7.92681 0 18.5334
      vertex 1.2 0 25.2602
    endloop
  endfacet
  facet normal 0 -1 0
    outer loop
      vertex 7.92681 0 11.4666
      vertex 7.92681 0 18.5334
      vertex 5 0 19
    endloop
  endfacet
  facet normal 0 -1 0
    outer loop
      vertex 7.92681 0 18.5334
      vertex 10.5983 0 15.9356
      vertex 11.3594 0 17.645
    endloop
  endfacet
  facet normal 0 -1 0
    outer loop
      vertex 7.92681 0 18.5334
      vertex 7.92681 0 11.4666
      vertex 10.5983 0 15.9356
    endloop
  endfacet
  facet normal 0 -1 -0
    outer loop
      vertex 10.5983 0 15.9356
      vertex 7.92681 0 11.4666
      vertex 10.5983 0 14.0644
    endloop
  endfacet
  facet normal 0 -1 0
    outer loop
      vertex 7.93812 0 11.4553
      vertex 10.5983 0 14.0644
      vertex 7.92681 0 11.4666
    endloop
  endfacet
  facet normal 0 -1 0
    outer loop
      vertex 5 0 11
      vertex 7.92681 0 11.4666
      vertex 5 0 19
    endloop
  endfacet
  facet normal 0 -1 0
    outer loop
      vertex 7.92681 0 11.4666
      vertex 5 0 11
      vertex 1.2 0 4.73977
    endloop
  endfacet
  facet normal 0 -1 0
    outer loop
      vertex 11.4666 0 22.0732
      vertex 12.75 0 18.8971
      vertex 14.5296 0 19.4753
    endloop
  endfacet
  facet normal 0 -1 0
    outer loop
      vertex 11.3594 0 17.645
      vertex 11.4553 0 22.0619
      vertex 7.92681 0 18.5334
    endloop
  endfacet
  facet normal 0 -1 -0
    outer loop
      vertex 11.4553 0 22.0619
      vertex 11.3594 0 17.645
      vertex 12.75 0 18.8971
    endloop
  endfacet
  facet normal 0 -1 0
    outer loop
      vertex 3.53978 0 30
      vertex 11 0 25
      vertex 12.5 0 30
    endloop
  endfacet
  facet normal 0 -1 0
    outer loop
      vertex 11 0 25
      vertex 11.4666 0 22.0732
      vertex 19 0 25
    endloop
  endfacet
  facet normal 0 -1 0
    outer loop
      vertex 11.4666 0 22.0732
      vertex 11 0 25
      vertex 3.53978 0 30
    endloop
  endfacet
  facet normal 0 -1 0
    outer loop
      vertex 19 0 25
      vertex 26.4602 0 30
      vertex 17.5 0 30
    endloop
  endfacet
  facet normal 0 -1 -0
    outer loop
      vertex 19 0 25
      vertex 18.5334 0 22.0732
      vertex 26.4602 0 30
    endloop
  endfacet
  facet normal 0 -1 0
    outer loop
      vertex 11.4666 0 22.0732
      vertex 18.5334 0 22.0732
      vertex 19 0 25
    endloop
  endfacet
  facet normal 0 -1 0
    outer loop
      vertex 12.75 0 18.8971
      vertex 11.4666 0 22.0732
      vertex 11.4553 0 22.0619
    endloop
  endfacet
  facet normal 0 -1 0
    outer loop
      vertex 11.4666 0 22.0732
      vertex 14.5296 0 19.4753
      vertex 18.5334 0 22.0732
    endloop
  endfacet
  facet normal 0 -1 0
    outer loop
      vertex 16.3906 0 19.2798
      vertex 18.5334 0 22.0732
      vertex 14.5296 0 19.4753
    endloop
  endfacet
  facet normal 0 -1 0
    outer loop
      vertex 18.0111 0 18.3442
      vertex 18.5334 0 22.0732
      vertex 16.3906 0 19.2798
    endloop
  endfacet
  facet normal 0 -1 -0
    outer loop
      vertex 18.5334 0 22.0732
      vertex 18.0111 0 18.3442
      vertex 22.0732 0 18.5334
    endloop
  endfacet
  facet normal 0 -1 0
    outer loop
      vertex 22.0732 0 18.5334
      vertex 25 0 19
      vertex 28.8 0 25.2602
    endloop
  endfacet
  facet normal 0 -1 0
    outer loop
      vertex 19.111 0 16.8303
      vertex 22.0732 0 18.5334
      vertex 18.0111 0 18.3442
    endloop
  endfacet
  facet normal 0 -1 0
    outer loop
      vertex 19.3066 0 15.9097
      vertex 22.0732 0 18.5334
      vertex 19.111 0 16.8303
    endloop
  endfacet
  facet normal 0 -1 0
    outer loop
      vertex 19.5 0 15
      vertex 22.0732 0 18.5334
      vertex 19.3066 0 15.9097
    endloop
  endfacet
  facet normal 0 -1 0
    outer loop
      vertex 22.0732 0 11.4666
      vertex 22.0732 0 18.5334
      vertex 19.5 0 15
    endloop
  endfacet
  facet normal 0 -1 0
    outer loop
      vertex 22.0732 0 11.4666
      vertex 19.5 0 15
      vertex 19.3043 0 14.0794
    endloop
  endfacet
  facet normal 0 -1 0
    outer loop
      vertex 22.0732 0 11.4666
      vertex 19.3043 0 14.0794
      vertex 19.111 0 13.1697
    endloop
  endfacet
  facet normal 0 -1 0
    outer loop
      vertex 22.0619 0 11.4553
      vertex 19.111 0 13.1697
      vertex 18.0111 0 11.6558
    endloop
  endfacet
  facet normal 0 -1 0
    outer loop
      vertex 22.0732 0 18.5334
      vertex 22.0732 0 11.4666
      vertex 25 0 19
    endloop
  endfacet
  facet normal 0 -1 0
    outer loop
      vertex 22.0732 0 11.4666
      vertex 25 0 11
      vertex 25 0 19
    endloop
  endfacet
  facet normal -0 -1 -0
    outer loop
      vertex 25 0 11
      vertex 22.0732 0 11.4666
      vertex 28.8 0 4.73978
    endloop
  endfacet
  facet normal 0 -1 0
    outer loop
      vertex 28.8 0 25.2602
      vertex 30 0 30
      vertex 28.8 0 30
    endloop
  endfacet
  facet normal 0 -1 0
    outer loop
      vertex 28.8 0 17.86
      vertex 28.8 0 25.2602
      vertex 25 0 19
    endloop
  endfacet
  facet normal 0 -1 0
    outer loop
      vertex 28.8 0 17.86
      vertex 30 0 30
      vertex 28.8 0 25.2602
    endloop
  endfacet
  facet normal 0 -1 0
    outer loop
      vertex 28.8 0 12.14
      vertex 30 0 30
      vertex 28.8 0 17.86
    endloop
  endfacet
  facet normal 0 -1 0
    outer loop
      vertex 28.8 0 4.73978
      vertex 28.8 0 12.14
      vertex 25 0 11
    endloop
  endfacet
  facet normal 0 -1 0
    outer loop
      vertex 30 0 0
      vertex 28.8 0 12.14
      vertex 28.8 0 4.73978
    endloop
  endfacet
  facet normal 0 -1 0
    outer loop
      vertex 30 0 0
      vertex 28.8 0 4.73978
      vertex 28.8 0 0
    endloop
  endfacet
  facet normal 0 -1 0
    outer loop
      vertex 28.8 0 12.14
      vertex 30 0 0
      vertex 30 0 30
    endloop
  endfacet
  facet normal 0 -1 0
    outer loop
      vertex 3.53978 0 0
      vertex 11 0 5
      vertex 11.4666 0 7.92681
    endloop
  endfacet
  facet normal 0 -1 -0
    outer loop
      vertex 11 0 5
      vertex 3.53978 0 0
      vertex 12.5 0 0
    endloop
  endfacet
  facet normal 0 -1 0
    outer loop
      vertex 19.111 0 13.1697
      vertex 22.0619 0 11.4553
      vertex 22.0732 0 11.4666
    endloop
  endfacet
  facet normal 0 -1 0
    outer loop
      vertex 18.5334 0 7.92681
      vertex 18.0111 0 11.6558
      vertex 16.3906 0 10.7202
    endloop
  endfacet
  facet normal 0 -1 0
    outer loop
      vertex 18.0111 0 11.6558
      vertex 18.5334 0 7.92681
      vertex 22.0619 0 11.4553
    endloop
  endfacet
  facet normal 0 -1 0
    outer loop
      vertex 18.5334 0 7.92681
      vertex 16.3906 0 10.7202
      vertex 14.5296 0 10.5247
    endloop
  endfacet
  facet normal 0 -1 -0
    outer loop
      vertex 10.5983 0 14.0644
      vertex 7.93812 0 11.4553
      vertex 11.3594 0 12.355
    endloop
  endfacet
  facet normal 0 -1 0
    outer loop
      vertex 11.4666 0 7.92681
      vertex 11.3594 0 12.355
      vertex 7.93812 0 11.4553
    endloop
  endfacet
  facet normal 0 -1 0
    outer loop
      vertex 11.3594 0 12.355
      vertex 11.4666 0 7.92681
      vertex 12.75 0 11.1029
    endloop
  endfacet
  facet normal 0 -1 -0
    outer loop
      vertex 12.75 0 11.1029
      vertex 11.4666 0 7.92681
      vertex 14.5296 0 10.5247
    endloop
  endfacet
  facet normal 0 -1 -0
    outer loop
      vertex 14.5296 0 10.5247
      vertex 11.4666 0 7.92681
      vertex 18.5334 0 7.92681
    endloop
  endfacet
  facet normal 0 -1 0
    outer loop
      vertex 11 0 5
      vertex 18.5334 0 7.92681
      vertex 11.4666 0 7.92681
    endloop
  endfacet
  facet normal 0 -1 0
    outer loop
      vertex 19 0 5
      vertex 18.5334 0 7.92681
      vertex 11 0 5
    endloop
  endfacet
  facet normal 0 -1 0
    outer loop
      vertex 19 0 5
      vertex 26.4602 0 0
      vertex 18.5334 0 7.92681
    endloop
  endfacet
  facet normal 0 -1 0
    outer loop
      vertex 26.4602 0 0
      vertex 19 0 5
      vertex 17.5 0 0
    endloop
  endfacet
  facet normal -1 0 0
    outer loop
      vertex 28.8 0 25.2602
      vertex 28.8 4.99 30
      vertex 28.8 4.99 23.1431
    endloop
  endfacet
  facet normal -1 -0 0
    outer loop
      vertex 28.8 4.99 30
      vertex 28.8 0 25.2602
      vertex 28.8 0 30
    endloop
  endfacet
  facet normal -1 0 0
    outer loop
      vertex 28.8 115.01 0
      vertex 28.8 120 4.73978
      vertex 28.8 120 0
    endloop
  endfacet
  facet normal -1 -0 0
    outer loop
      vertex 28.8 120 4.73978
      vertex 28.8 115.01 0
      vertex 28.8 115.01 6.85685
    endloop
  endfacet
  facet normal -1 0 0
    outer loop
      vertex 28.8 0 4.73978
      vertex 28.8 4.99 0
      vertex 28.8 0 0
    endloop
  endfacet
  facet normal -1 0 0
    outer loop
      vertex 28.8 4.99 0
      vertex 28.8 0 4.73978
      vertex 28.8 4.99 6.85685
    endloop
  endfacet
  facet normal -1 0 0
    outer loop
      vertex 28.8 115.01 30
      vertex 28.8 120 25.2602
      vertex 28.8 115.01 23.1431
    endloop
  endfacet
  facet normal -1 0 0
    outer loop
      vertex 28.8 120 25.2602
      vertex 28.8 115.01 30
      vertex 28.8 120 30
    endloop
  endfacet
  facet normal -1 0 0
    outer loop
      vertex 28.8 0 12.14
      vertex 28.8 120 17.86
      vertex 28.8 120 12.14
    endloop
  endfacet
  facet normal -1 -0 0
    outer loop
      vertex 28.8 120 17.86
      vertex 28.8 0 12.14
      vertex 28.8 0 17.86
    endloop
  endfacet
  facet normal 0 0 1
    outer loop
      vertex 24.3431 115.01 30
      vertex 17.5 120 30
      vertex 24.3431 4.99 30
    endloop
  endfacet
  facet normal -0 0 1
    outer loop
      vertex 17.5 120 30
      vertex 24.3431 115.01 30
      vertex 26.4602 120 30
    endloop
  endfacet
  facet normal -0 0 1
    outer loop
      vertex 24.3431 115.01 30
      vertex 28.8 4.99 30
      vertex 28.8 115.01 30
    endloop
  endfacet
  facet normal 0 0 1
    outer loop
      vertex 28.8 4.99 30
      vertex 24.3431 115.01 30
      vertex 24.3431 4.99 30
    endloop
  endfacet
  facet normal 0 0 1
    outer loop
      vertex 28.8 115.01 30
      vertex 30 120 30
      vertex 28.8 120 30
    endloop
  endfacet
  facet normal 0 0 1
    outer loop
      vertex 30 120 30
      vertex 28.8 115.01 30
      vertex 30 0 30
    endloop
  endfacet
  facet normal -0 0 1
    outer loop
      vertex 28.8 4.99 30
      vertex 30 0 30
      vertex 28.8 115.01 30
    endloop
  endfacet
  facet normal 0 0 1
    outer loop
      vertex 30 0 30
      vertex 28.8 4.99 30
      vertex 28.8 0 30
    endloop
  endfacet
  facet normal 0 0 1
    outer loop
      vertex 24.3431 4.99 30
      vertex 17.5 0 30
      vertex 26.4602 0 30
    endloop
  endfacet
  facet normal 0 0 1
    outer loop
      vertex 17.5 0 30
      vertex 24.3431 4.99 30
      vertex 17.5 120 30
    endloop
  endfacet
  facet normal 1 -0 0
    outer loop
      vertex 30 0 30
      vertex 30 120 0
      vertex 30 120 30
    endloop
  endfacet
  facet normal 1 0 0
    outer loop
      vertex 30 120 0
      vertex 30 0 30
      vertex 30 0 0
    endloop
  endfacet
  facet normal -0 0 -1
    outer loop
      vertex 24.3431 4.99 0
      vertex 17.5 0 0
      vertex 24.3431 115.01 0
    endloop
  endfacet
  facet normal 0 0 -1
    outer loop
      vertex 17.5 0 0
      vertex 24.3431 4.99 0
      vertex 26.4602 0 0
    endloop
  endfacet
  facet normal 0 0 -1
    outer loop
      vertex 24.3431 4.99 0
      vertex 28.8 115.01 0
      vertex 28.8 4.99 0
    endloop
  endfacet
  facet normal -0 0 -1
    outer loop
      vertex 28.8 115.01 0
      vertex 24.3431 4.99 0
      vertex 24.3431 115.01 0
    endloop
  endfacet
  facet normal 0 0 -1
    outer loop
      vertex 28.8 4.99 0
      vertex 30 0 0
      vertex 28.8 0 0
    endloop
  endfacet
  facet normal 0 0 -1
    outer loop
      vertex 30 0 0
      vertex 28.8 4.99 0
      vertex 30 120 0
    endloop
  endfacet
  facet normal 0 0 -1
    outer loop
      vertex 28.8 115.01 0
      vertex 30 120 0
      vertex 28.8 4.99 0
    endloop
  endfacet
  facet normal -0 0 -1
    outer loop
      vertex 30 120 0
      vertex 28.8 115.01 0
      vertex 28.8 120 0
    endloop
  endfacet
  facet normal 0 0 -1
    outer loop
      vertex 24.3431 115.01 0
      vertex 17.5 120 0
      vertex 26.4602 120 0
    endloop
  endfacet
  facet normal 0 0 -1
    outer loop
      vertex 17.5 120 0
      vertex 24.3431 115.01 0
      vertex 17.5 0 0
    endloop
  endfacet
  facet normal 0.677286 0.287348 -0.677285
    outer loop
      vertex 26.4602 0 30
      vertex 17.4749 4.99 23.1317
      vertex 24.3431 4.99 30
    endloop
  endfacet
  facet normal 0.677285 0.287348 -0.677285
    outer loop
      vertex 17.4749 4.99 23.1317
      vertex 26.4602 0 30
      vertex 18.5334 0 22.0732
    endloop
  endfacet
  facet normal -0.677285 0.287348 0.677286
    outer loop
      vertex 22.0732 0 18.5334
      vertex 28.8 4.99 23.1431
      vertex 23.1317 4.99 17.4749
    endloop
  endfacet
  facet normal -0.677285 0.287348 0.677285
    outer loop
      vertex 28.8 4.99 23.1431
      vertex 22.0732 0 18.5334
      vertex 28.8 0 25.2602
    endloop
  endfacet
  facet normal 0.707107 0 0.707107
    outer loop
      vertex 18.5334 0 22.0732
      vertex 23.1317 4.99 17.4749
      vertex 17.4749 4.99 23.1317
    endloop
  endfacet
  facet normal 0.707107 0 0.707107
    outer loop
      vertex 23.1317 4.99 17.4749
      vertex 18.5334 0 22.0732
      vertex 22.0732 0 18.5334
    endloop
  endfacet
  facet normal 0 -1 0
    outer loop
      vertex 24.3431 4.99 30
      vertex 28.8 4.99 23.1431
      vertex 28.8 4.99 30
    endloop
  endfacet
  facet normal 0 -1 0
    outer loop
      vertex 17.4749 4.99 23.1317
      vertex 28.8 4.99 23.1431
      vertex 24.3431 4.99 30
    endloop
  endfacet
  facet normal 0 -1 0
    outer loop
      vertex 28.8 4.99 23.1431
      vertex 17.4749 4.99 23.1317
      vertex 23.1317 4.99 17.4749
    endloop
  endfacet
  facet normal 0.707137 -1.25098e-05 -0.707077
    outer loop
      vertex 22.0619 0 11.4553
      vertex 23.1317 4.99 12.5251
      vertex 22.0732 0 11.4666
    endloop
  endfacet
  facet normal 0.707107 2.19164e-07 -0.707107
    outer loop
      vertex 23.1317 4.99 12.5251
      vertex 22.0619 0 11.4553
      vertex 17.4749 4.99 6.86827
    endloop
  endfacet
  facet normal 0 -1 0
    outer loop
      vertex 17.4749 4.99 6.86827
      vertex 28.8 4.99 6.85685
      vertex 23.1317 4.99 12.5251
    endloop
  endfacet
  facet normal 0 -1 0
    outer loop
      vertex 24.3431 4.99 0
      vertex 28.8 4.99 6.85685
      vertex 17.4749 4.99 6.86827
    endloop
  endfacet
  facet normal 0 -1 -0
    outer loop
      vertex 28.8 4.99 6.85685
      vertex 24.3431 4.99 0
      vertex 28.8 4.99 0
    endloop
  endfacet
  facet normal 0.707107 -8.78411e-08 -0.707107
    outer loop
      vertex 22.0619 0 11.4553
      vertex 18.5334 0 7.92681
      vertex 17.4749 4.99 6.86827
    endloop
  endfacet
  facet normal -0.677285 0.287348 -0.677285
    outer loop
      vertex 22.0732 0 11.4666
      vertex 28.8 4.99 6.85685
      vertex 28.8 0 4.73978
    endloop
  endfacet
  facet normal -0.677285 0.287348 -0.677285
    outer loop
      vertex 28.8 4.99 6.85685
      vertex 22.0732 0 11.4666
      vertex 23.1317 4.99 12.5251
    endloop
  endfacet
  facet normal 0.677285 0.287348 0.677285
    outer loop
      vertex 24.3431 4.99 0
      vertex 18.5334 0 7.92681
      vertex 26.4602 0 0
    endloop
  endfacet
  facet normal 0.677285 0.287348 0.677285
    outer loop
      vertex 18.5334 0 7.92681
      vertex 24.3431 4.99 0
      vertex 17.4749 4.99 6.86827
    endloop
  endfacet
  facet normal -0.707092 6.39015e-06 -0.707122
    outer loop
      vertex 6.86827 4.99 12.5251
      vertex 7.93812 0 11.4553
      vertex 7.92681 0 11.4666
    endloop
  endfacet
  facet normal -0.707107 5.11168e-08 -0.707107
    outer loop
      vertex 7.93812 0 11.4553
      vertex 6.86827 4.99 12.5251
      vertex 12.5251 4.99 6.86827
    endloop
  endfacet
  facet normal 0 -1 0
    outer loop
      vertex 1.2 4.99 6.85685
      vertex 12.5251 4.99 6.86827
      vertex 6.86827 4.99 12.5251
    endloop
  endfacet
  facet normal 0 -1 0
    outer loop
      vertex 5.65685 4.99 0
      vertex 1.2 4.99 6.85685
      vertex 1.2 4.99 0
    endloop
  endfacet
  facet normal 0 -1 0
    outer loop
      vertex 1.2 4.99 6.85685
      vertex 5.65685 4.99 0
      vertex 12.5251 4.99 6.86827
    endloop
  endfacet
  facet normal -0.707107 2.7028e-07 -0.707107
    outer loop
      vertex 12.5251 4.99 6.86827
      vertex 11.4666 0 7.92681
      vertex 7.93812 0 11.4553
    endloop
  endfacet
  facet normal -0.677285 0.287348 0.677285
    outer loop
      vertex 3.53978 0 0
      vertex 12.5251 4.99 6.86827
      vertex 5.65685 4.99 0
    endloop
  endfacet
  facet normal -0.677285 0.287348 0.677285
    outer loop
      vertex 12.5251 4.99 6.86827
      vertex 3.53978 0 0
      vertex 11.4666 0 7.92681
    endloop
  endfacet
  facet normal 0.677285 0.287348 -0.677285
    outer loop
      vertex 1.2 0 4.73977
      vertex 6.86827 4.99 12.5251
      vertex 7.92681 0 11.4666
    endloop
  endfacet
  facet normal 0.677285 0.287348 -0.677285
    outer loop
      vertex 6.86827 4.99 12.5251
      vertex 1.2 0 4.73977
      vertex 1.2 4.99 6.85685
    endloop
  endfacet
  facet normal -0.707077 -1.25098e-05 0.707137
    outer loop
      vertex 12.5251 4.99 23.1317
      vertex 11.4553 0 22.0619
      vertex 11.4666 0 22.0732
    endloop
  endfacet
  facet normal -0.707107 2.19164e-07 0.707107
    outer loop
      vertex 11.4553 0 22.0619
      vertex 12.5251 4.99 23.1317
      vertex 6.86827 4.99 17.4749
    endloop
  endfacet
  facet normal -0.707107 -8.78411e-08 0.707107
    outer loop
      vertex 7.92681 0 18.5334
      vertex 11.4553 0 22.0619
      vertex 6.86827 4.99 17.4749
    endloop
  endfacet
  facet normal -0.677285 0.287348 -0.677285
    outer loop
      vertex 11.4666 0 22.0732
      vertex 5.65685 4.99 30
      vertex 12.5251 4.99 23.1317
    endloop
  endfacet
  facet normal -0.677285 0.287348 -0.677285
    outer loop
      vertex 5.65685 4.99 30
      vertex 11.4666 0 22.0732
      vertex 3.53978 0 30
    endloop
  endfacet
  facet normal 0 -1 0
    outer loop
      vertex 1.2 4.99 23.1431
      vertex 5.65685 4.99 30
      vertex 1.2 4.99 30
    endloop
  endfacet
  facet normal 0 -1 0
    outer loop
      vertex 1.2 4.99 23.1431
      vertex 12.5251 4.99 23.1317
      vertex 5.65685 4.99 30
    endloop
  endfacet
  facet normal -0 -1 0
    outer loop
      vertex 12.5251 4.99 23.1317
      vertex 1.2 4.99 23.1431
      vertex 6.86827 4.99 17.4749
    endloop
  endfacet
  facet normal 0.677285 0.287348 0.677285
    outer loop
      vertex 7.92681 0 18.5334
      vertex 1.2 4.99 23.1431
      vertex 1.2 0 25.2602
    endloop
  endfacet
  facet normal 0.677285 0.287348 0.677286
    outer loop
      vertex 1.2 4.99 23.1431
      vertex 7.92681 0 18.5334
      vertex 6.86827 4.99 17.4749
    endloop
  endfacet
  facet normal -0.677285 -0.287348 0.677286
    outer loop
      vertex 28.8 115.01 23.1431
      vertex 22.0732 120 18.5334
      vertex 23.1317 115.01 17.4749
    endloop
  endfacet
  facet normal -0.677285 -0.287348 0.677285
    outer loop
      vertex 22.0732 120 18.5334
      vertex 28.8 115.01 23.1431
      vertex 28.8 120 25.2602
    endloop
  endfacet
  facet normal 0.677285 -0.287348 -0.677285
    outer loop
      vertex 17.4749 115.01 23.1317
      vertex 26.4602 120 30
      vertex 24.3431 115.01 30
    endloop
  endfacet
  facet normal 0.677285 -0.287348 -0.677285
    outer loop
      vertex 26.4602 120 30
      vertex 17.4749 115.01 23.1317
      vertex 18.5334 120 22.0732
    endloop
  endfacet
  facet normal 0.707107 0 0.707107
    outer loop
      vertex 17.4749 115.01 23.1317
      vertex 22.0732 120 18.5334
      vertex 18.5334 120 22.0732
    endloop
  endfacet
  facet normal 0.707107 0 0.707107
    outer loop
      vertex 22.0732 120 18.5334
      vertex 17.4749 115.01 23.1317
      vertex 23.1317 115.01 17.4749
    endloop
  endfacet
  facet normal 0 1 -0
    outer loop
      vertex 28.8 115.01 23.1431
      vertex 24.3431 115.01 30
      vertex 28.8 115.01 30
    endloop
  endfacet
  facet normal 0 1 0
    outer loop
      vertex 28.8 115.01 23.1431
      vertex 17.4749 115.01 23.1317
      vertex 24.3431 115.01 30
    endloop
  endfacet
  facet normal -0 1 0
    outer loop
      vertex 17.4749 115.01 23.1317
      vertex 28.8 115.01 23.1431
      vertex 23.1317 115.01 17.4749
    endloop
  endfacet
  facet normal -0.707077 1.25098e-05 0.707137
    outer loop
      vertex 11.4553 120 22.0619
      vertex 12.5251 115.01 23.1317
      vertex 11.4666 120 22.0732
    endloop
  endfacet
  facet normal -0.707107 -2.19164e-07 0.707107
    outer loop
      vertex 12.5251 115.01 23.1317
      vertex 11.4553 120 22.0619
      vertex 6.86827 115.01 17.4749
    endloop
  endfacet
  facet normal 0 1 0
    outer loop
      vertex 5.65685 115.01 30
      vertex 1.2 115.01 23.1431
      vertex 1.2 115.01 30
    endloop
  endfacet
  facet normal 0 1 0
    outer loop
      vertex 12.5251 115.01 23.1317
      vertex 1.2 115.01 23.1431
      vertex 5.65685 115.01 30
    endloop
  endfacet
  facet normal 0 1 0
    outer loop
      vertex 1.2 115.01 23.1431
      vertex 12.5251 115.01 23.1317
      vertex 6.86827 115.01 17.4749
    endloop
  endfacet
  facet normal -0.707107 8.78412e-08 0.707107
    outer loop
      vertex 11.4553 120 22.0619
      vertex 7.92681 120 18.5334
      vertex 6.86827 115.01 17.4749
    endloop
  endfacet
  facet normal -0.677285 -0.287348 -0.677285
    outer loop
      vertex 5.65685 115.01 30
      vertex 11.4666 120 22.0732
      vertex 12.5251 115.01 23.1317
    endloop
  endfacet
  facet normal -0.677285 -0.287348 -0.677285
    outer loop
      vertex 11.4666 120 22.0732
      vertex 5.65685 115.01 30
      vertex 3.53978 120 30
    endloop
  endfacet
  facet normal 0.677285 -0.287348 0.677285
    outer loop
      vertex 1.2 115.01 23.1431
      vertex 7.92681 120 18.5334
      vertex 1.2 120 25.2602
    endloop
  endfacet
  facet normal 0.677285 -0.287348 0.677286
    outer loop
      vertex 7.92681 120 18.5334
      vertex 1.2 115.01 23.1431
      vertex 6.86827 115.01 17.4749
    endloop
  endfacet
  facet normal -0.707122 -6.39015e-06 -0.707092
    outer loop
      vertex 12.5251 115.01 6.86827
      vertex 11.4553 120 7.93812
      vertex 11.4666 120 7.92681
    endloop
  endfacet
  facet normal -0.707107 -5.11168e-08 -0.707107
    outer loop
      vertex 11.4553 120 7.93812
      vertex 12.5251 115.01 6.86827
      vertex 6.86827 115.01 12.5251
    endloop
  endfacet
  facet normal 0 1 0
    outer loop
      vertex 12.5251 115.01 6.86827
      vertex 1.2 115.01 6.85685
      vertex 6.86827 115.01 12.5251
    endloop
  endfacet
  facet normal 0 1 -0
    outer loop
      vertex 5.65685 115.01 0
      vertex 1.2 115.01 6.85685
      vertex 12.5251 115.01 6.86827
    endloop
  endfacet
  facet normal 0 1 0
    outer loop
      vertex 1.2 115.01 6.85685
      vertex 5.65685 115.01 0
      vertex 1.2 115.01 0
    endloop
  endfacet
  facet normal -0.707107 -2.70281e-07 -0.707107
    outer loop
      vertex 7.92681 120 11.4666
      vertex 11.4553 120 7.93812
      vertex 6.86827 115.01 12.5251
    endloop
  endfacet
  facet normal 0.677285 -0.287348 -0.677285
    outer loop
      vertex 1.2 115.01 6.85685
      vertex 7.92681 120 11.4666
      vertex 6.86827 115.01 12.5251
    endloop
  endfacet
  facet normal 0.677285 -0.287348 -0.677285
    outer loop
      vertex 7.92681 120 11.4666
      vertex 1.2 115.01 6.85685
      vertex 1.2 120 4.73978
    endloop
  endfacet
  facet normal -0.677285 -0.287348 0.677285
    outer loop
      vertex 12.5251 115.01 6.86827
      vertex 3.53977 120 0
      vertex 5.65685 115.01 0
    endloop
  endfacet
  facet normal -0.677285 -0.287348 0.677285
    outer loop
      vertex 3.53977 120 0
      vertex 12.5251 115.01 6.86827
      vertex 11.4666 120 7.92681
    endloop
  endfacet
  facet normal 0.707137 1.25098e-05 -0.707077
    outer loop
      vertex 23.1317 115.01 12.5251
      vertex 22.0619 120 11.4553
      vertex 22.0732 120 11.4666
    endloop
  endfacet
  facet normal 0.707107 -2.19164e-07 -0.707107
    outer loop
      vertex 22.0619 120 11.4553
      vertex 23.1317 115.01 12.5251
      vertex 17.4749 115.01 6.86827
    endloop
  endfacet
  facet normal 0.707107 8.78412e-08 -0.707107
    outer loop
      vertex 18.5334 120 7.92681
      vertex 22.0619 120 11.4553
      vertex 17.4749 115.01 6.86827
    endloop
  endfacet
  facet normal -0.677285 -0.287348 -0.677285
    outer loop
      vertex 28.8 115.01 6.85685
      vertex 22.0732 120 11.4666
      vertex 28.8 120 4.73978
    endloop
  endfacet
  facet normal -0.677285 -0.287348 -0.677285
    outer loop
      vertex 22.0732 120 11.4666
      vertex 28.8 115.01 6.85685
      vertex 23.1317 115.01 12.5251
    endloop
  endfacet
  facet normal 0 1 0
    outer loop
      vertex 28.8 115.01 6.85685
      vertex 17.4749 115.01 6.86827
      vertex 23.1317 115.01 12.5251
    endloop
  endfacet
  facet normal 0 1 0
    outer loop
      vertex 24.3431 115.01 0
      vertex 28.8 115.01 6.85685
      vertex 28.8 115.01 0
    endloop
  endfacet
  facet normal 0 1 0
    outer loop
      vertex 28.8 115.01 6.85685
      vertex 24.3431 115.01 0
      vertex 17.4749 115.01 6.86827
    endloop
  endfacet
  facet normal 0.677285 -0.287348 0.677285
    outer loop
      vertex 18.5334 120 7.92681
      vertex 24.3431 115.01 0
      vertex 26.4602 120 0
    endloop
  endfacet
  facet normal 0.677285 -0.287348 0.677285
    outer loop
      vertex 24.3431 115.01 0
      vertex 18.5334 120 7.92681
      vertex 17.4749 115.01 6.86827
    endloop
  endfacet
  facet normal 0.957826 0 -0.287348
    outer loop
      vertex 12.5 120 30
      vertex 11 90 25
      vertex 11 120 25
    endloop
  endfacet
  facet normal 0.957826 0 -0.287348
    outer loop
      vertex 12.5 120 30
      vertex 11 60 25
      vertex 11 90 25
    endloop
  endfacet
  facet normal 0.957826 0 -0.287348
    outer loop
      vertex 12.5 0 30
      vertex 11 60 25
      vertex 12.5 120 30
    endloop
  endfacet
  facet normal 0.957826 0 -0.287348
    outer loop
      vertex 11 60 25
      vertex 12.5 0 30
      vertex 11 30 25
    endloop
  endfacet
  facet normal 0.957826 0 -0.287348
    outer loop
      vertex 11 30 25
      vertex 12.5 0 30
      vertex 11 0 25
    endloop
  endfacet
  facet normal -0.957826 0 -0.287348
    outer loop
      vertex 19 0 25
      vertex 17.5 120 30
      vertex 19 120 25
    endloop
  endfacet
  facet normal -0.957826 -0 -0.287348
    outer loop
      vertex 17.5 120 30
      vertex 19 0 25
      vertex 17.5 0 30
    endloop
  endfacet
  facet normal 0 0 0
    outer loop
      vertex 19 30 25
      vertex 19 0 25
      vertex 19 120 25
    endloop
  endfacet
  facet normal 0 0 0
    outer loop
      vertex 19 30 25
      vertex 19 120 25
      vertex 19 90 25
    endloop
  endfacet
  facet normal 0 0 0
    outer loop
      vertex 19 30 25
      vertex 19 90 25
      vertex 19 60 25
    endloop
  endfacet
  facet normal -0.287348 0 -0.957826
    outer loop
      vertex 25 0 19
      vertex 28.8 120 17.86
      vertex 28.8 0 17.86
    endloop
  endfacet
  facet normal -0.287348 0 -0.957826
    outer loop
      vertex 28.8 120 17.86
      vertex 25 0 19
      vertex 25 120 19
    endloop
  endfacet
  facet normal -0.287348 0 0.957826
    outer loop
      vertex 25 120 11
      vertex 28.8 0 12.14
      vertex 28.8 120 12.14
    endloop
  endfacet
  facet normal -0.287348 0 0.957826
    outer loop
      vertex 28.8 0 12.14
      vertex 25 120 11
      vertex 25 0 11
    endloop
  endfacet
  facet normal 1 -0 0
    outer loop
      vertex 25 0 19
      vertex 25 120 11
      vertex 25 120 19
    endloop
  endfacet
  facet normal 1 0 0
    outer loop
      vertex 25 120 11
      vertex 25 0 19
      vertex 25 0 11
    endloop
  endfacet
  facet normal -0.957826 0 0.287348
    outer loop
      vertex 17.5 0 0
      vertex 19 120 5
      vertex 17.5 120 0
    endloop
  endfacet
  facet normal -0.957826 0 0.287348
    outer loop
      vertex 19 120 5
      vertex 17.5 0 0
      vertex 19 0 5
    endloop
  endfacet
  facet normal 0.957826 -0 0.287348
    outer loop
      vertex 11 0 5
      vertex 12.5 120 0
      vertex 11 120 5
    endloop
  endfacet
  facet normal 0.957826 0 0.287348
    outer loop
      vertex 12.5 120 0
      vertex 11 0 5
      vertex 12.5 0 0
    endloop
  endfacet
  facet normal 0 0 -1
    outer loop
      vertex 11 0 5
      vertex 19 120 5
      vertex 19 0 5
    endloop
  endfacet
  facet normal -0 0 -1
    outer loop
      vertex 19 120 5
      vertex 11 0 5
      vertex 11 120 5
    endloop
  endfacet
  facet normal 0.287348 0 0.957826
    outer loop
      vertex 1.2 120 12.14
      vertex 5 0 11
      vertex 5 120 11
    endloop
  endfacet
  facet normal 0.287348 0 0.957826
    outer loop
      vertex 5 0 11
      vertex 1.2 120 12.14
      vertex 1.2 0 12.14
    endloop
  endfacet
  facet normal 0.287348 0 -0.957826
    outer loop
      vertex 1.2 0 17.86
      vertex 5 120 19
      vertex 5 0 19
    endloop
  endfacet
  facet normal 0.287348 0 -0.957826
    outer loop
      vertex 5 120 19
      vertex 1.2 0 17.86
      vertex 1.2 120 17.86
    endloop
  endfacet
  facet normal -1 0 0
    outer loop
      vertex 5 0 11
      vertex 5 120 19
      vertex 5 120 11
    endloop
  endfacet
  facet normal -1 -0 0
    outer loop
      vertex 5 120 19
      vertex 5 0 11
      vertex 5 0 19
    endloop
  endfacet
  facet normal 0 -0 1
    outer loop
      vertex 19 0 25
      vertex 19 30 25
      vertex 11 0 25
    endloop
  endfacet
  facet normal 0 0 1
    outer loop
      vertex 19 30 25
      vertex 11 30 25
      vertex 11 0 25
    endloop
  endfacet
  facet normal 0 -0 1
    outer loop
      vertex 19 30 25
      vertex 19 60 25
      vertex 11 30 25
    endloop
  endfacet
  facet normal 0 0 1
    outer loop
      vertex 19 60 25
      vertex 11 60 25
      vertex 11 30 25
    endloop
  endfacet
  facet normal 0 -0 1
    outer loop
      vertex 19 60 25
      vertex 19 90 25
      vertex 11 60 25
    endloop
  endfacet
  facet normal 0 0 1
    outer loop
      vertex 19 90 25
      vertex 11 90 25
      vertex 11 60 25
    endloop
  endfacet
  facet normal 0 -0 1
    outer loop
      vertex 19 90 25
      vertex 19 120 25
      vertex 11 90 25
    endloop
  endfacet
  facet normal 0 0 1
    outer loop
      vertex 19 120 25
      vertex 11 120 25
      vertex 11 90 25
    endloop
  endfacet
  facet normal -0.978147 6.476e-09 -0.207913
    outer loop
      vertex 19.3066 0 15.9097
      vertex 19.111 120 16.8303
      vertex 19.2973 120 15.9536
    endloop
  endfacet
  facet normal -0.978148 -0 -0.207912
    outer loop
      vertex 19.111 120 16.8303
      vertex 19.3066 0 15.9097
      vertex 19.111 0 16.8303
    endloop
  endfacet
  facet normal -0.809017 0 -0.587785
    outer loop
      vertex 19.111 0 16.8303
      vertex 18.0111 120 18.3442
      vertex 19.111 120 16.8303
    endloop
  endfacet
  facet normal -0.809017 -0 -0.587785
    outer loop
      vertex 18.0111 120 18.3442
      vertex 19.111 0 16.8303
      vertex 18.0111 0 18.3442
    endloop
  endfacet
  facet normal -0.978148 -1.65233e-09 -0.207911
    outer loop
      vertex 19.5 0 15
      vertex 19.2973 120 15.9536
      vertex 19.5 120 15
    endloop
  endfacet
  facet normal -0.978148 6.09366e-09 -0.207912
    outer loop
      vertex 19.2973 120 15.9536
      vertex 19.5 0 15
      vertex 19.3066 0 15.9097
    endloop
  endfacet
  facet normal 1 -0 0
    outer loop
      vertex 10.5983 0 15.9356
      vertex 10.5983 120 14.0644
      vertex 10.5983 120 15.9356
    endloop
  endfacet
  facet normal 1 0 0
    outer loop
      vertex 10.5983 120 14.0644
      vertex 10.5983 0 15.9356
      vertex 10.5983 0 14.0644
    endloop
  endfacet
  facet normal 0.913545 -0 0.406737
    outer loop
      vertex 10.5983 0 14.0644
      vertex 11.3594 120 12.355
      vertex 10.5983 120 14.0644
    endloop
  endfacet
  facet normal 0.913545 0 0.406737
    outer loop
      vertex 11.3594 120 12.355
      vertex 10.5983 0 14.0644
      vertex 11.3594 0 12.355
    endloop
  endfacet
  facet normal -0.104529 0 -0.994522
    outer loop
      vertex 14.5296 0 19.4753
      vertex 16.3906 120 19.2798
      vertex 16.3906 0 19.2798
    endloop
  endfacet
  facet normal -0.104529 0 -0.994522
    outer loop
      vertex 16.3906 120 19.2798
      vertex 14.5296 0 19.4753
      vertex 14.5296 120 19.4753
    endloop
  endfacet
  facet normal 0.66913 0 -0.743145
    outer loop
      vertex 11.3594 0 17.645
      vertex 12.75 120 18.8971
      vertex 12.75 0 18.8971
    endloop
  endfacet
  facet normal 0.66913 0 -0.743145
    outer loop
      vertex 12.75 120 18.8971
      vertex 11.3594 0 17.645
      vertex 11.3594 120 17.645
    endloop
  endfacet
  facet normal -0.978147 -6.476e-09 0.207913
    outer loop
      vertex 19.3043 0 14.0794
      vertex 19.5 120 15
      vertex 19.3136 120 14.1233
    endloop
  endfacet
  facet normal -0.978148 1.65233e-09 0.207912
    outer loop
      vertex 19.5 120 15
      vertex 19.3043 0 14.0794
      vertex 19.5 0 15
    endloop
  endfacet
  facet normal -0.5 0 -0.866025
    outer loop
      vertex 16.3906 0 19.2798
      vertex 18.0111 120 18.3442
      vertex 18.0111 0 18.3442
    endloop
  endfacet
  facet normal -0.5 0 -0.866025
    outer loop
      vertex 18.0111 120 18.3442
      vertex 16.3906 0 19.2798
      vertex 16.3906 120 19.2798
    endloop
  endfacet
  facet normal 0.913545 0 -0.406737
    outer loop
      vertex 11.3594 0 17.645
      vertex 10.5983 120 15.9356
      vertex 11.3594 120 17.645
    endloop
  endfacet
  facet normal 0.913545 0 -0.406737
    outer loop
      vertex 10.5983 120 15.9356
      vertex 11.3594 0 17.645
      vertex 10.5983 0 15.9356
    endloop
  endfacet
  facet normal 0.309018 0 -0.951056
    outer loop
      vertex 12.75 0 18.8971
      vertex 14.5296 120 19.4753
      vertex 14.5296 0 19.4753
    endloop
  endfacet
  facet normal 0.309018 0 -0.951056
    outer loop
      vertex 14.5296 120 19.4753
      vertex 12.75 0 18.8971
      vertex 12.75 120 18.8971
    endloop
  endfacet
  facet normal 0.309017 0 0.951056
    outer loop
      vertex 12.75 120 11.1029
      vertex 14.5296 0 10.5247
      vertex 14.5296 120 10.5247
    endloop
  endfacet
  facet normal 0.309017 0 0.951056
    outer loop
      vertex 14.5296 0 10.5247
      vertex 12.75 120 11.1029
      vertex 12.75 0 11.1029
    endloop
  endfacet
  facet normal 0.669131 0 0.743145
    outer loop
      vertex 11.3594 120 12.355
      vertex 12.75 0 11.1029
      vertex 12.75 120 11.1029
    endloop
  endfacet
  facet normal 0.669131 0 0.743145
    outer loop
      vertex 12.75 0 11.1029
      vertex 11.3594 120 12.355
      vertex 11.3594 0 12.355
    endloop
  endfacet
  facet normal -0.104529 0 0.994522
    outer loop
      vertex 14.5296 120 10.5247
      vertex 16.3906 0 10.7202
      vertex 16.3906 120 10.7202
    endloop
  endfacet
  facet normal -0.104529 0 0.994522
    outer loop
      vertex 16.3906 0 10.7202
      vertex 14.5296 120 10.5247
      vertex 14.5296 0 10.5247
    endloop
  endfacet
  facet normal -0.5 0 0.866026
    outer loop
      vertex 16.3906 120 10.7202
      vertex 18.0111 0 11.6558
      vertex 18.0111 120 11.6558
    endloop
  endfacet
  facet normal -0.5 0 0.866026
    outer loop
      vertex 18.0111 0 11.6558
      vertex 16.3906 120 10.7202
      vertex 16.3906 0 10.7202
    endloop
  endfacet
  facet normal -0.809017 0 0.587785
    outer loop
      vertex 18.0111 0 11.6558
      vertex 19.111 120 13.1697
      vertex 18.0111 120 11.6558
    endloop
  endfacet
  facet normal -0.809017 0 0.587785
    outer loop
      vertex 19.111 120 13.1697
      vertex 18.0111 0 11.6558
      vertex 19.111 0 13.1697
    endloop
  endfacet
  facet normal -0.978148 0 0.207911
    outer loop
      vertex 19.111 0 13.1697
      vertex 19.3136 120 14.1233
      vertex 19.111 120 13.1697
    endloop
  endfacet
  facet normal -0.978148 -6.09366e-09 0.207912
    outer loop
      vertex 19.3136 120 14.1233
      vertex 19.111 0 13.1697
      vertex 19.3043 0 14.0794
    endloop
  endfacet
endsolid OpenSCAD_Model
