solid OpenSCAD_Model
  facet normal 0 1 -2.22045e-16
    outer loop
      vertex -3.6 1.11022e-15 5
      vertex 3.6 1.11022e-15 5
      vertex 2.25 0 0
    endloop
  endfacet
  facet normal 0 1 -2.22045e-16
    outer loop
      vertex -3.6 1.11022e-15 5
      vertex 2.25 0 0
      vertex -2.25 0 0
    endloop
  endfacet
  facet normal 0 -1 0
    outer loop
      vertex 2.25 -50 1.11022e-14
      vertex 3.6 -50 5
      vertex -3.6 -50 5
    endloop
  endfacet
  facet normal 0 -1 0
    outer loop
      vertex -2.25 -50 1.11022e-14
      vertex 2.25 -50 1.11022e-14
      vertex -3.6 -50 5
    endloop
  endfacet
  facet normal -0 2.13163e-16 1
    outer loop
      vertex -3.6 1.11022e-15 5
      vertex 3.6 -50 5
      vertex 3.6 1.11022e-15 5
    endloop
  endfacet
  facet normal 0 2.13163e-16 1
    outer loop
      vertex -3.6 1.11022e-15 5
      vertex -3.6 -50 5
      vertex 3.6 -50 5
    endloop
  endfacet
  facet normal -0.965429 -5.83082e-17 -0.260666
    outer loop
      vertex -2.25 0 0
      vertex -3.6 -50 5
      vertex -3.6 1.11022e-15 5
    endloop
  endfacet
  facet normal -0.965429 -5.78794e-17 -0.260666
    outer loop
      vertex -2.25 0 0
      vertex -2.25 -50 1.11022e-14
      vertex -3.6 -50 5
    endloop
  endfacet
  facet normal -0 -2.22045e-16 -1
    outer loop
      vertex 2.25 0 0
      vertex -2.25 -50 1.11022e-14
      vertex -2.25 0 0
    endloop
  endfacet
  facet normal 0 -2.22045e-16 -1
    outer loop
      vertex 2.25 0 0
      vertex 2.25 -50 1.11022e-14
      vertex -2.25 -50 1.11022e-14
    endloop
  endfacet
  facet normal 0.965429 -5.48783e-17 -0.260666
    outer loop
      vertex 3.6 1.11022e-15 5
      vertex 2.25 -50 1.11022e-14
      vertex 2.25 0 0
    endloop
  endfacet
  facet normal 0.965429 -5.55643e-17 -0.260666
    outer loop
      vertex 3.6 1.11022e-15 5
      vertex 3.6 -50 5
      vertex 2.25 -50 1.11022e-14
    endloop
  endfacet
endsolid OpenSCAD_Model
