  0
SECTION
  2
HEADER
  9
$ACADVER
  1
AC1014
  9
$HANDSEED
  5
FFFF
  9
$MEASUREMENT
 70
     1
  0
ENDSEC
  0
SECTION
  2
TABLES
  0
TABLE
  2
VPORT
  5
8
330
0
100
AcDbSymbolTable
 70
     4
  0
VPORT
  5
2E
330
8
100
AcDbSymbolTableRecord
100
AcDbViewportTableRecord
  2
*ACTIVE
 70
     0
 10
0.0
 20
0.0
 11
1.0
 21
1.0
 12
210.0
 22
148.5
 13
0.0
 23
0.0
 14
10.0
 24
10.0
 15
10.0
 25
10.0
 16
0.0
 26
0.0
 36
1.0
 17
0.0
 27
0.0
 37
0.0
 40
341.0
 41
1.24
 42
50.0
 43
0.0
 44
0.0
 50
0.0
 51
0.0
 71
     0
 72
   100
 73
     1
 74
     3
 75
     0
 76
     0
 77
     0
 78
     0
  0
ENDTAB
  0
TABLE
  2
LTYPE
  5
5
330
0
100
AcDbSymbolTable
 70
     1
  0
LTYPE
  5
14
330
5
100
AcDbSymbolTableRecord
100
AcDbLinetypeTableRecord
  2
BYBLOCK
 70
     0
  3

 72
    65
 73
     0
 40
0.0
  0
LTYPE
  5
15
330
5
100
AcDbSymbolTableRecord
100
AcDbLinetypeTableRecord
  2
BYLAYER
 70
     0
  3

 72
    65
 73
     0
 40
0.0
  0
LTYPE
  5
16
330
5
100
AcDbSymbolTableRecord
100
AcDbLinetypeTableRecord
  2
CONTINUOUS
 70
     0
  3
Solid line
 72
    65
 73
     0
 40
0.0
  0
ENDTAB
  0
TABLE
  2
LAYER
  5
2
100
AcDbSymbolTable
 70
2
  0
LAYER
  5
50
100
AcDbSymbolTableRecord
100
AcDbLayerTableRecord
  2
0
 70
0
  6
CONTINUOUS
  0
LAYER
  5
51
100
AcDbSymbolTableRecord
100
AcDbLayerTableRecord
  2
Layer_1
 70
0
  6
CONTINUOUS
  0
ENDTAB
  0
TABLE
  2
STYLE
  5
3
330
0
100
AcDbSymbolTable
 70
     1
  0
STYLE
  5
11
330
3
100
AcDbSymbolTableRecord
100
AcDbTextStyleTableRecord
  2
STANDARD
 70
     0
 40
0.0
 41
1.0
 50
0.0
 71
     0
 42
2.5
  3
txt
  4

  0
ENDTAB
  0
TABLE
  2
VIEW
  5
6
330
0
100
AcDbSymbolTable
 70
     0
  0
ENDTAB
  0
TABLE
  2
UCS
  5
7
330
0
100
AcDbSymbolTable
 70
     0
  0
ENDTAB
  0
TABLE
  2
APPID
  5
9
330
0
100
AcDbSymbolTable
 70
     2
  0
APPID
  5
12
330
9
100
AcDbSymbolTableRecord
100
AcDbRegAppTableRecord
  2
ACAD
 70
     0
  0
ENDTAB
  0
TABLE
  2
DIMSTYLE
  5
A
330
0
100
AcDbSymbolTable
 70
     1
  0
DIMSTYLE
105
27
330
A
100
AcDbSymbolTableRecord
100
AcDbDimStyleTableRecord
  2
ISO-25
 70
     0
  3

  4

  5

  6

  7

 40
1.0
 41
2.5
 42
0.625
 43
3.75
 44
1.25
 45
0.0
 46
0.0
 47
0.0
 48
0.0
140
2.5
141
2.5
142
0.0
143
0.03937007874016
144
1.0
145
0.0
146
1.0
147
0.625
 71
     0
 72
     0
 73
     0
 74
     0
 75
     0
 76
     0
 77
     1
 78
     8
170
     0
171
     3
172
     1
173
     0
174
     0
175
     0
176
     0
177
     0
178
     0
270
     2
271
     2
272
     2
273
     2
274
     3
340
11
275
     0
280
     0
281
     0
282
     0
283
     0
284
     8
285
     0
286
     0
287
     3
288
     0
  0
ENDTAB
  0
TABLE
  2
BLOCK_RECORD
  5
1
330
0
100
AcDbSymbolTable
 70
     1
  0
BLOCK_RECORD
  5
1F
330
1
100
AcDbSymbolTableRecord
100
AcDbBlockTableRecord
  2
*MODEL_SPACE
  0
BLOCK_RECORD
  5
1B
330
1
100
AcDbSymbolTableRecord
100
AcDbBlockTableRecord
  2
*PAPER_SPACE
  0
ENDTAB
  0
ENDSEC
  0
SECTION
  2
BLOCKS
  0
BLOCK
  5
20
330
1F
100
AcDbEntity
  8
0
100
AcDbBlockBegin
  2
*MODEL_SPACE
 70
     0
 10
0.0
 20
0.0
 30
0.0
  3
*MODEL_SPACE
  1

  0
ENDBLK
  5
21
330
1F
100
AcDbEntity
  8
0
100
AcDbBlockEnd
  0
BLOCK
  5
1C
330
1B
100
AcDbEntity
 67
     1
  8
0
100
AcDbBlockBegin
  2
*PAPER_SPACE
  1

  0
ENDBLK
  5
1D
330
1B
100
AcDbEntity
 67
     1
  8
0
100
AcDbBlockEnd
  0
ENDSEC
  0
SECTION
  2
ENTITIES
  0
LWPOLYLINE
  5
100
100
AcDbEntity
  8
Layer_1
 62
7
100
AcDbPolyline
 90
127
 70
1
 10
12.638193
 20
1.529928
 30
0.0
 10
14.038016
 20
1.057488
 30
0.0
 10
15.423727
 20
0.204048
 30
0.0
 10
15.423727
 20
-0.204045
 30
0.0
 10
14.038016
 20
-1.057485
 30
0.0
 10
12.638193
 20
-1.529925
 30
0.0
 10
12.524458
 20
-2.284305
 30
0.0
 10
13.722773
 20
-3.148470
 30
0.0
 10
14.795218
 20
-4.372468
 30
0.0
 10
14.675273
 20
-4.762216
 30
0.0
 10
13.099344
 20
-5.169181
 30
0.0
 10
11.622476
 20
-5.208128
 30
0.0
 10
11.291711
 20
-5.895339
 30
0.0
 10
12.181840
 20
-7.074463
 30
0.0
 10
12.846191
 20
-8.560081
 30
0.0
 10
12.616462
 20
-8.897054
 30
0.0
 10
10.990580
 20
-8.821701
 30
0.0
 10
9.567898
 20
-8.423768
 30
0.0
 10
9.049173
 20
-8.982850
 30
0.0
 10
9.552376
 20
-10.371948
 30
0.0
 10
9.749084
 20
-11.987388
 30
0.0
 10
9.430173
 20
-12.241670
 30
0.0
 10
7.898836
 20
-11.690208
 30
0.0
 10
6.656776
 20
-10.890672
 30
0.0
 10
5.996093
 20
-11.271954
 30
0.0
 10
6.067496
 20
-12.747694
 30
0.0
 10
5.779347
 20
-14.349305
 30
0.0
 10
5.399758
 20
-14.498319
 30
0.0
 10
4.098996
 20
-13.520419
 30
0.0
 10
3.147624
 20
-12.390119
 30
0.0
 10
2.404251
 20
-12.559734
 30
0.0
 10
2.037362
 20
-13.990883
 30
0.0
 10
1.289756
 20
-15.436425
 30
0.0
 10
0.883073
 20
-15.466905
 30
0.0
 10
-0.071402
 20
-14.148928
 30
0.0
 10
-0.647418
 20
-12.788334
 30
0.0
 10
-1.408007
 20
-12.731325
 30
0.0
 10
-2.180167
 20
-13.990883
 30
0.0
 10
-3.320627
 20
-15.151945
 30
0.0
 10
-3.718278
 20
-15.061070
 30
0.0
 10
-4.241800
 20
-13.520419
 30
0.0
 10
-4.391096
 20
-12.050605
 30
0.0
 10
-5.101167
 20
-11.771770
 30
0.0
 10
-6.210300
 20
-12.747694
 30
0.0
 10
-7.642296
 20
-13.520983
 30
0.0
 10
-7.995638
 20
-13.317219
 30
0.0
 10
-8.041640
 20
-11.690208
 30
0.0
 10
-7.751233
 20
-10.241843
 30
0.0
 10
-8.347569
 20
-9.766299
 30
0.0
 10
-9.695180
 20
-10.371948
 30
0.0
 10
-11.291429
 20
-10.688883
 30
0.0
 10
-11.568853
 20
-10.389728
 30
0.0
 10
-11.133384
 20
-8.821701
 30
0.0
 10
-10.428958
 20
-7.523196
 30
0.0
 10
-10.858500
 20
-6.892994
 30
0.0
 10
-12.324644
 20
-7.074463
 30
0.0
 10
-13.943471
 20
-6.906823
 30
0.0
 10
-14.120424
 20
-6.539370
 30
0.0
 10
-13.242149
 20
-5.169181
 30
0.0
 10
-12.186073
 20
-4.135965
 30
0.0
 10
-12.411004
 20
-3.407268
 30
0.0
 10
-13.865578
 20
-3.148470
 30
0.0
 10
-15.363049
 20
-2.510930
 30
0.0
 10
-15.423727
 20
-2.107916
 30
0.0
 10
-14.180820
 20
-1.057485
 30
0.0
 10
-12.867076
 20
-0.381281
 30
0.0
 10
-12.867076
 20
0.381284
 30
0.0
 10
-14.180820
 20
1.057488
 30
0.0
 10
-15.423727
 20
2.107919
 30
0.0
 10
-15.363049
 20
2.510932
 30
0.0
 10
-13.865578
 20
3.148472
 30
0.0
 10
-12.411004
 20
3.407270
 30
0.0
 10
-12.186073
 20
4.135968
 30
0.0
 10
-13.242149
 20
5.169184
 30
0.0
 10
-14.120424
 20
6.539372
 30
0.0
 10
-13.943471
 20
6.906826
 30
0.0
 10
-12.324644
 20
7.074466
 30
0.0
 10
-10.858500
 20
6.892997
 30
0.0
 10
-10.428958
 20
7.523199
 30
0.0
 10
-11.133384
 20
8.821704
 30
0.0
 10
-11.568853
 20
10.389730
 30
0.0
 10
-11.291429
 20
10.688886
 30
0.0
 10
-9.695180
 20
10.371950
 30
0.0
 10
-8.347569
 20
9.766301
 30
0.0
 10
-7.751233
 20
10.241846
 30
0.0
 10
-8.041640
 20
11.690210
 30
0.0
 10
-7.995638
 20
13.317221
 30
0.0
 10
-7.642296
 20
13.520986
 30
0.0
 10
-6.210300
 20
12.747697
 30
0.0
 10
-5.101167
 20
11.771772
 30
0.0
 10
-4.391096
 20
12.050608
 30
0.0
 10
-4.241800
 20
13.520421
 30
0.0
 10
-3.718278
 20
15.061072
 30
0.0
 10
-3.320627
 20
15.151948
 30
0.0
 10
-2.180167
 20
13.990886
 30
0.0
 10
-1.408007
 20
12.731328
 30
0.0
 10
-0.647418
 20
12.788337
 30
0.0
 10
-0.071402
 20
14.148930
 30
0.0
 10
0.883073
 20
15.466908
 30
0.0
 10
1.289756
 20
15.436428
 30
0.0
 10
2.037362
 20
13.990886
 30
0.0
 10
2.404251
 20
12.559737
 30
0.0
 10
3.147624
 20
12.390121
 30
0.0
 10
4.098996
 20
13.520421
 30
0.0
 10
5.399758
 20
14.498321
 30
0.0
 10
5.779347
 20
14.349308
 30
0.0
 10
6.067496
 20
12.747697
 30
0.0
 10
5.996093
 20
11.271957
 30
0.0
 10
6.656776
 20
10.890675
 30
0.0
 10
7.898836
 20
11.690210
 30
0.0
 10
9.430173
 20
12.241672
 30
0.0
 10
9.749084
 20
11.987390
 30
0.0
 10
9.552376
 20
10.371950
 30
0.0
 10
9.049173
 20
8.982852
 30
0.0
 10
9.567898
 20
8.423770
 30
0.0
 10
10.990580
 20
8.821704
 30
0.0
 10
12.616462
 20
8.897057
 30
0.0
 10
12.846191
 20
8.560084
 30
0.0
 10
12.181840
 20
7.074466
 30
0.0
 10
11.291711
 20
5.895341
 30
0.0
 10
11.622476
 20
5.208130
 30
0.0
 10
13.099344
 20
5.169184
 30
0.0
 10
14.675273
 20
4.762219
 30
0.0
 10
14.795218
 20
4.372470
 30
0.0
 10
13.722773
 20
3.148472
 30
0.0
 10
12.524458
 20
2.284308
 30
0.0
 10
12.638193
 20
1.529928
 30
0.0
  0
ENDSEC
  0
SECTION
  2
OBJECTS
  0
DICTIONARY
  5
C
330
0
100
AcDbDictionary
  3
ACAD_GROUP
350
D
  3
ACAD_MLINESTYLE
350
17
  0
DICTIONARY
  5
D
330
C
100
AcDbDictionary
  0
DICTIONARY
  5
1A
330
C
100
AcDbDictionary
  0
DICTIONARY
  5
17
330
C
100
AcDbDictionary
  3
STANDARD
350
18
  0
DICTIONARY
  5
19
330
C
100
AcDbDictionary
  0
ENDSEC
  0
EOF
