  0
SECTION
  2
BLOCKS
  0
ENDSEC
  0
SECTION
  2
ENTITIES
  0
LINE
  8
0
 10
155.917
 20
-0.353546
 11
155.563
 21
0
  0
LINE
  8
0
 10
155.563
 20
0
 11
155.917
 21
0.353546
  0
LINE
  8
0
 10
155.917
 20
0.353546
 11
0.353546
 21
155.917
  0
LINE
  8
0
 10
0.353546
 20
155.917
 11
0
 21
155.563
  0
LINE
  8
0
 10
0
 20
155.563
 11
-0.353546
 21
155.917
  0
LINE
  8
0
 10
-0.353546
 20
155.917
 11
-155.917
 21
0.353546
  0
LINE
  8
0
 10
-155.917
 20
0.353546
 11
-155.563
 21
0
  0
LINE
  8
0
 10
-155.563
 20
0
 11
-155.917
 21
-0.353546
  0
LINE
  8
0
 10
-155.917
 20
-0.353546
 11
-0.353546
 21
-155.917
  0
LINE
  8
0
 10
-0.353546
 20
-155.917
 11
0
 21
-155.563
  0
LINE
  8
0
 10
0
 20
-155.563
 11
0.353546
 21
-155.917
  0
LINE
  8
0
 10
0.353546
 20
-155.917
 11
155.917
 21
-0.353546
  0
LINE
  8
0
 10
-154.856
 20
0
 11
0
 21
154.856
  0
LINE
  8
0
 10
0
 20
154.856
 11
154.856
 21
0
  0
LINE
  8
0
 10
154.856
 20
0
 11
0
 21
-154.856
  0
LINE
  8
0
 10
0
 20
-154.856
 11
-154.856
 21
0
  0
LINE
  8
0
 10
0.156784
 20
149.068
 11
0.311859
 21
149.093
  0
LINE
  8
0
 10
0.311859
 20
149.093
 11
0.463516
 21
149.133
  0
LINE
  8
0
 10
0.463516
 20
149.133
 11
0.610092
 21
149.19
  0
LINE
  8
0
 10
0.610092
 20
149.19
 11
0.75
 21
149.261
  0
LINE
  8
0
 10
0.75
 20
149.261
 11
0.881668
 21
149.346
  0
LINE
  8
0
 10
0.881668
 20
149.346
 11
1.00369
 21
149.445
  0
LINE
  8
0
 10
1.00369
 20
149.445
 11
1.11472
 21
149.556
  0
LINE
  8
0
 10
1.11472
 20
149.556
 11
1.21352
 21
149.678
  0
LINE
  8
0
 10
1.21352
 20
149.678
 11
1.29903
 21
149.81
  0
LINE
  8
0
 10
1.29903
 20
149.81
 11
1.37032
 21
149.95
  0
LINE
  8
0
 10
1.37032
 20
149.95
 11
1.42657
 21
150.096
  0
LINE
  8
0
 10
1.42657
 20
150.096
 11
1.46721
 21
150.248
  0
LINE
  8
0
 10
1.46721
 20
150.248
 11
1.49178
 21
150.403
  0
LINE
  8
0
 10
1.49178
 20
150.403
 11
1.5
 21
150.56
  0
LINE
  8
0
 10
1.5
 20
150.56
 11
1.49178
 21
150.717
  0
LINE
  8
0
 10
1.49178
 20
150.717
 11
1.46721
 21
150.872
  0
LINE
  8
0
 10
1.46721
 20
150.872
 11
1.42657
 21
151.024
  0
LINE
  8
0
 10
1.42657
 20
151.024
 11
1.37032
 21
151.17
  0
LINE
  8
0
 10
1.37032
 20
151.17
 11
1.29903
 21
151.31
  0
LINE
  8
0
 10
1.29903
 20
151.31
 11
1.21352
 21
151.442
  0
LINE
  8
0
 10
1.21352
 20
151.442
 11
1.11472
 21
151.564
  0
LINE
  8
0
 10
1.11472
 20
151.564
 11
1.00369
 21
151.675
  0
LINE
  8
0
 10
1.00369
 20
151.675
 11
0.881668
 21
151.774
  0
LINE
  8
0
 10
0.881668
 20
151.774
 11
0.75
 21
151.859
  0
LINE
  8
0
 10
0.75
 20
151.859
 11
0.610092
 21
151.93
  0
LINE
  8
0
 10
0.610092
 20
151.93
 11
0.463516
 21
151.987
  0
LINE
  8
0
 10
0.463516
 20
151.987
 11
0.311859
 21
152.027
  0
LINE
  8
0
 10
0.311859
 20
152.027
 11
0.156784
 21
152.052
  0
LINE
  8
0
 10
0.156784
 20
152.052
 11
0
 21
152.06
  0
LINE
  8
0
 10
0
 20
152.06
 11
-0.156784
 21
152.052
  0
LINE
  8
0
 10
-0.156784
 20
152.052
 11
-0.311859
 21
152.027
  0
LINE
  8
0
 10
-0.311859
 20
152.027
 11
-0.463516
 21
151.987
  0
LINE
  8
0
 10
-0.463516
 20
151.987
 11
-0.610092
 21
151.93
  0
LINE
  8
0
 10
-0.610092
 20
151.93
 11
-0.749985
 21
151.859
  0
LINE
  8
0
 10
-0.749985
 20
151.859
 11
-0.881668
 21
151.774
  0
LINE
  8
0
 10
-0.881668
 20
151.774
 11
-1.00369
 21
151.675
  0
LINE
  8
0
 10
-1.00369
 20
151.675
 11
-1.11472
 21
151.564
  0
LINE
  8
0
 10
-1.11472
 20
151.564
 11
-1.21352
 21
151.442
  0
LINE
  8
0
 10
-1.21352
 20
151.442
 11
-1.29903
 21
151.31
  0
LINE
  8
0
 10
-1.29903
 20
151.31
 11
-1.37032
 21
151.17
  0
LINE
  8
0
 10
-1.37032
 20
151.17
 11
-1.42657
 21
151.024
  0
LINE
  8
0
 10
-1.42657
 20
151.024
 11
-1.46721
 21
150.872
  0
LINE
  8
0
 10
-1.46721
 20
150.872
 11
-1.49178
 21
150.717
  0
LINE
  8
0
 10
-1.49178
 20
150.717
 11
-1.49998
 21
150.56
  0
LINE
  8
0
 10
-1.49998
 20
150.56
 11
-1.49178
 21
150.403
  0
LINE
  8
0
 10
-1.49178
 20
150.403
 11
-1.46721
 21
150.248
  0
LINE
  8
0
 10
-1.46721
 20
150.248
 11
-1.42657
 21
150.096
  0
LINE
  8
0
 10
-1.42657
 20
150.096
 11
-1.37032
 21
149.95
  0
LINE
  8
0
 10
-1.37032
 20
149.95
 11
-1.29903
 21
149.81
  0
LINE
  8
0
 10
-1.29903
 20
149.81
 11
-1.21352
 21
149.678
  0
LINE
  8
0
 10
-1.21352
 20
149.678
 11
-1.11472
 21
149.556
  0
LINE
  8
0
 10
-1.11472
 20
149.556
 11
-1.00369
 21
149.445
  0
LINE
  8
0
 10
-1.00369
 20
149.445
 11
-0.881668
 21
149.346
  0
LINE
  8
0
 10
-0.881668
 20
149.346
 11
-0.749985
 21
149.261
  0
LINE
  8
0
 10
-0.749985
 20
149.261
 11
-0.610092
 21
149.19
  0
LINE
  8
0
 10
-0.610092
 20
149.19
 11
-0.463516
 21
149.133
  0
LINE
  8
0
 10
-0.463516
 20
149.133
 11
-0.311859
 21
149.093
  0
LINE
  8
0
 10
-0.311859
 20
149.093
 11
-0.156784
 21
149.068
  0
LINE
  8
0
 10
-0.156784
 20
149.068
 11
0
 21
149.06
  0
LINE
  8
0
 10
0
 20
149.06
 11
0.156784
 21
149.068
  0
LINE
  8
0
 10
0.680984
 20
85.3194
 11
1.06067
 21
85.5952
  0
LINE
  8
0
 10
1.06067
 20
85.5952
 11
1.33652
 21
85.9749
  0
LINE
  8
0
 10
1.33652
 20
85.9749
 11
1.48154
 21
86.4212
  0
LINE
  8
0
 10
1.48154
 20
86.4212
 11
1.48154
 21
86.8906
  0
LINE
  8
0
 10
1.48154
 20
86.8906
 11
1.33652
 21
87.3369
  0
LINE
  8
0
 10
1.33652
 20
87.3369
 11
1.06067
 21
87.7166
  0
LINE
  8
0
 10
1.06067
 20
87.7166
 11
0.680984
 21
87.9924
  0
LINE
  8
0
 10
0.680984
 20
87.9924
 11
0.23465
 21
88.1375
  0
LINE
  8
0
 10
0.23465
 20
88.1375
 11
-0.234634
 21
88.1375
  0
LINE
  8
0
 10
-0.234634
 20
88.1375
 11
-0.680969
 21
87.9924
  0
LINE
  8
0
 10
-0.680969
 20
87.9924
 11
-1.06064
 21
87.7166
  0
LINE
  8
0
 10
-1.06064
 20
87.7166
 11
-1.3365
 21
87.3369
  0
LINE
  8
0
 10
-1.3365
 20
87.3369
 11
-1.48152
 21
86.8906
  0
LINE
  8
0
 10
-1.48152
 20
86.8906
 11
-1.48152
 21
86.4212
  0
LINE
  8
0
 10
-1.48152
 20
86.4212
 11
-1.3365
 21
85.9749
  0
LINE
  8
0
 10
-1.3365
 20
85.9749
 11
-1.06064
 21
85.5952
  0
LINE
  8
0
 10
-1.06064
 20
85.5952
 11
-0.680969
 21
85.3194
  0
LINE
  8
0
 10
-0.680969
 20
85.3194
 11
-0.234634
 21
85.1744
  0
LINE
  8
0
 10
-0.234634
 20
85.1744
 11
0.23465
 21
85.1744
  0
LINE
  8
0
 10
0.23465
 20
85.1744
 11
0.680984
 21
85.3194
  0
LINE
  8
0
 10
61.7385
 20
59.8484
 11
62.1567
 21
60.0614
  0
LINE
  8
0
 10
62.1567
 20
60.0614
 11
62.4885
 21
60.3933
  0
LINE
  8
0
 10
62.4885
 20
60.3933
 11
62.7016
 21
60.8114
  0
LINE
  8
0
 10
62.7016
 20
60.8114
 11
62.775
 21
61.275
  0
LINE
  8
0
 10
62.775
 20
61.275
 11
62.7016
 21
61.7385
  0
LINE
  8
0
 10
62.7016
 20
61.7385
 11
62.4885
 21
62.1567
  0
LINE
  8
0
 10
62.4885
 20
62.1567
 11
62.1567
 21
62.4885
  0
LINE
  8
0
 10
62.1567
 20
62.4885
 11
61.7385
 21
62.7016
  0
LINE
  8
0
 10
61.7385
 20
62.7016
 11
61.275
 21
62.775
  0
LINE
  8
0
 10
61.275
 20
62.775
 11
60.8115
 21
62.7016
  0
LINE
  8
0
 10
60.8115
 20
62.7016
 11
60.3933
 21
62.4885
  0
LINE
  8
0
 10
60.3933
 20
62.4885
 11
60.0615
 21
62.1567
  0
LINE
  8
0
 10
60.0615
 20
62.1567
 11
59.8484
 21
61.7385
  0
LINE
  8
0
 10
59.8484
 20
61.7385
 11
59.775
 21
61.275
  0
LINE
  8
0
 10
59.775
 20
61.275
 11
59.8484
 21
60.8114
  0
LINE
  8
0
 10
59.8484
 20
60.8114
 11
60.0615
 21
60.3933
  0
LINE
  8
0
 10
60.0615
 20
60.3933
 11
60.3933
 21
60.0614
  0
LINE
  8
0
 10
60.3933
 20
60.0614
 11
60.8115
 21
59.8484
  0
LINE
  8
0
 10
60.8115
 20
59.8484
 11
61.275
 21
59.775
  0
LINE
  8
0
 10
61.275
 20
59.775
 11
61.7385
 21
59.8484
  0
LINE
  8
0
 10
-60.8115
 20
59.8484
 11
-60.3933
 21
60.0614
  0
LINE
  8
0
 10
-60.3933
 20
60.0614
 11
-60.0615
 21
60.3933
  0
LINE
  8
0
 10
-60.0615
 20
60.3933
 11
-59.8484
 21
60.8114
  0
LINE
  8
0
 10
-59.8484
 20
60.8114
 11
-59.775
 21
61.275
  0
LINE
  8
0
 10
-59.775
 20
61.275
 11
-59.8484
 21
61.7385
  0
LINE
  8
0
 10
-59.8484
 20
61.7385
 11
-60.0615
 21
62.1567
  0
LINE
  8
0
 10
-60.0615
 20
62.1567
 11
-60.3933
 21
62.4885
  0
LINE
  8
0
 10
-60.3933
 20
62.4885
 11
-60.8115
 21
62.7016
  0
LINE
  8
0
 10
-60.8115
 20
62.7016
 11
-61.275
 21
62.775
  0
LINE
  8
0
 10
-61.275
 20
62.775
 11
-61.7385
 21
62.7016
  0
LINE
  8
0
 10
-61.7385
 20
62.7016
 11
-62.1567
 21
62.4885
  0
LINE
  8
0
 10
-62.1567
 20
62.4885
 11
-62.4885
 21
62.1567
  0
LINE
  8
0
 10
-62.4885
 20
62.1567
 11
-62.7016
 21
61.7385
  0
LINE
  8
0
 10
-62.7016
 20
61.7385
 11
-62.775
 21
61.275
  0
LINE
  8
0
 10
-62.775
 20
61.275
 11
-62.7016
 21
60.8114
  0
LINE
  8
0
 10
-62.7016
 20
60.8114
 11
-62.4885
 21
60.3933
  0
LINE
  8
0
 10
-62.4885
 20
60.3933
 11
-62.1567
 21
60.0614
  0
LINE
  8
0
 10
-62.1567
 20
60.0614
 11
-61.7385
 21
59.8484
  0
LINE
  8
0
 10
-61.7385
 20
59.8484
 11
-61.275
 21
59.775
  0
LINE
  8
0
 10
-61.275
 20
59.775
 11
-60.8115
 21
59.8484
  0
LINE
  8
0
 10
0.680984
 20
33.6653
 11
1.06067
 21
33.9411
  0
LINE
  8
0
 10
1.06067
 20
33.9411
 11
1.33652
 21
34.3208
  0
LINE
  8
0
 10
1.33652
 20
34.3208
 11
1.48154
 21
34.7671
  0
LINE
  8
0
 10
1.48154
 20
34.7671
 11
1.48154
 21
35.2364
  0
LINE
  8
0
 10
1.48154
 20
35.2364
 11
1.33652
 21
35.6827
  0
LINE
  8
0
 10
1.33652
 20
35.6827
 11
1.06067
 21
36.0624
  0
LINE
  8
0
 10
1.06067
 20
36.0624
 11
0.680984
 21
36.3383
  0
LINE
  8
0
 10
0.680984
 20
36.3383
 11
0.23465
 21
36.4833
  0
LINE
  8
0
 10
0.23465
 20
36.4833
 11
-0.234634
 21
36.4833
  0
LINE
  8
0
 10
-0.234634
 20
36.4833
 11
-0.680969
 21
36.3383
  0
LINE
  8
0
 10
-0.680969
 20
36.3383
 11
-1.06064
 21
36.0624
  0
LINE
  8
0
 10
-1.06064
 20
36.0624
 11
-1.33649
 21
35.6827
  0
LINE
  8
0
 10
-1.33649
 20
35.6827
 11
-1.48151
 21
35.2364
  0
LINE
  8
0
 10
-1.48151
 20
35.2364
 11
-1.48151
 21
34.7671
  0
LINE
  8
0
 10
-1.48151
 20
34.7671
 11
-1.33649
 21
34.3208
  0
LINE
  8
0
 10
-1.33649
 20
34.3208
 11
-1.06064
 21
33.9411
  0
LINE
  8
0
 10
-1.06064
 20
33.9411
 11
-0.680969
 21
33.6653
  0
LINE
  8
0
 10
-0.680969
 20
33.6653
 11
-0.234634
 21
33.5202
  0
LINE
  8
0
 10
-0.234634
 20
33.5202
 11
0.23465
 21
33.5202
  0
LINE
  8
0
 10
0.23465
 20
33.5202
 11
0.680984
 21
33.6653
  0
LINE
  8
0
 10
-30.7865
 20
29.8234
 11
-30.3683
 21
30.0365
  0
LINE
  8
0
 10
-30.3683
 20
30.0365
 11
-30.0365
 21
30.3683
  0
LINE
  8
0
 10
-30.0365
 20
30.3683
 11
-29.8234
 21
30.7865
  0
LINE
  8
0
 10
-29.8234
 20
30.7865
 11
-29.75
 21
31.25
  0
LINE
  8
0
 10
-29.75
 20
31.25
 11
-29.8234
 21
31.7135
  0
LINE
  8
0
 10
-29.8234
 20
31.7135
 11
-30.0365
 21
32.1317
  0
LINE
  8
0
 10
-30.0365
 20
32.1317
 11
-30.3683
 21
32.4635
  0
LINE
  8
0
 10
-30.3683
 20
32.4635
 11
-30.7865
 21
32.6766
  0
LINE
  8
0
 10
-30.7865
 20
32.6766
 11
-31.25
 21
32.75
  0
LINE
  8
0
 10
-31.25
 20
32.75
 11
-31.7135
 21
32.6766
  0
LINE
  8
0
 10
-31.7135
 20
32.6766
 11
-32.1317
 21
32.4635
  0
LINE
  8
0
 10
-32.1317
 20
32.4635
 11
-32.4635
 21
32.1317
  0
LINE
  8
0
 10
-32.4635
 20
32.1317
 11
-32.6766
 21
31.7135
  0
LINE
  8
0
 10
-32.6766
 20
31.7135
 11
-32.75
 21
31.25
  0
LINE
  8
0
 10
-32.75
 20
31.25
 11
-32.6766
 21
30.7865
  0
LINE
  8
0
 10
-32.6766
 20
30.7865
 11
-32.4635
 21
30.3683
  0
LINE
  8
0
 10
-32.4635
 20
30.3683
 11
-32.1317
 21
30.0365
  0
LINE
  8
0
 10
-32.1317
 20
30.0365
 11
-31.7135
 21
29.8234
  0
LINE
  8
0
 10
-31.7135
 20
29.8234
 11
-31.25
 21
29.75
  0
LINE
  8
0
 10
-31.25
 20
29.75
 11
-30.7865
 21
29.8234
  0
LINE
  8
0
 10
31.7135
 20
29.8234
 11
32.1317
 21
30.0365
  0
LINE
  8
0
 10
32.1317
 20
30.0365
 11
32.4635
 21
30.3683
  0
LINE
  8
0
 10
32.4635
 20
30.3683
 11
32.6766
 21
30.7865
  0
LINE
  8
0
 10
32.6766
 20
30.7865
 11
32.75
 21
31.25
  0
LINE
  8
0
 10
32.75
 20
31.25
 11
32.6766
 21
31.7135
  0
LINE
  8
0
 10
32.6766
 20
31.7135
 11
32.4635
 21
32.1317
  0
LINE
  8
0
 10
32.4635
 20
32.1317
 11
32.1317
 21
32.4635
  0
LINE
  8
0
 10
32.1317
 20
32.4635
 11
31.7135
 21
32.6766
  0
LINE
  8
0
 10
31.7135
 20
32.6766
 11
31.25
 21
32.75
  0
LINE
  8
0
 10
31.25
 20
32.75
 11
30.7865
 21
32.6766
  0
LINE
  8
0
 10
30.7865
 20
32.6766
 11
30.3683
 21
32.4635
  0
LINE
  8
0
 10
30.3683
 20
32.4635
 11
30.0365
 21
32.1317
  0
LINE
  8
0
 10
30.0365
 20
32.1317
 11
29.8234
 21
31.7135
  0
LINE
  8
0
 10
29.8234
 20
31.7135
 11
29.75
 21
31.25
  0
LINE
  8
0
 10
29.75
 20
31.25
 11
29.8234
 21
30.7865
  0
LINE
  8
0
 10
29.8234
 20
30.7865
 11
30.0365
 21
30.3683
  0
LINE
  8
0
 10
30.0365
 20
30.3683
 11
30.3683
 21
30.0365
  0
LINE
  8
0
 10
30.3683
 20
30.0365
 11
30.7865
 21
29.8234
  0
LINE
  8
0
 10
30.7865
 20
29.8234
 11
31.25
 21
29.75
  0
LINE
  8
0
 10
31.25
 20
29.75
 11
31.7135
 21
29.8234
  0
LINE
  8
0
 10
25.2135
 20
23.3234
 11
25.6317
 21
23.5365
  0
LINE
  8
0
 10
25.6317
 20
23.5365
 11
25.9635
 21
23.8683
  0
LINE
  8
0
 10
25.9635
 20
23.8683
 11
26.1766
 21
24.2865
  0
LINE
  8
0
 10
26.1766
 20
24.2865
 11
26.25
 21
24.75
  0
LINE
  8
0
 10
26.25
 20
24.75
 11
26.1766
 21
25.2135
  0
LINE
  8
0
 10
26.1766
 20
25.2135
 11
25.9635
 21
25.6317
  0
LINE
  8
0
 10
25.9635
 20
25.6317
 11
25.6317
 21
25.9635
  0
LINE
  8
0
 10
25.6317
 20
25.9635
 11
25.2135
 21
26.1766
  0
LINE
  8
0
 10
25.2135
 20
26.1766
 11
24.75
 21
26.25
  0
LINE
  8
0
 10
24.75
 20
26.25
 11
24.2865
 21
26.1766
  0
LINE
  8
0
 10
24.2865
 20
26.1766
 11
23.8683
 21
25.9635
  0
LINE
  8
0
 10
23.8683
 20
25.9635
 11
23.5365
 21
25.6317
  0
LINE
  8
0
 10
23.5365
 20
25.6317
 11
23.3234
 21
25.2135
  0
LINE
  8
0
 10
23.3234
 20
25.2135
 11
23.25
 21
24.75
  0
LINE
  8
0
 10
23.25
 20
24.75
 11
23.3234
 21
24.2865
  0
LINE
  8
0
 10
23.3234
 20
24.2865
 11
23.5365
 21
23.8683
  0
LINE
  8
0
 10
23.5365
 20
23.8683
 11
23.8683
 21
23.5365
  0
LINE
  8
0
 10
23.8683
 20
23.5365
 11
24.2865
 21
23.3234
  0
LINE
  8
0
 10
24.2865
 20
23.3234
 11
24.75
 21
23.25
  0
LINE
  8
0
 10
24.75
 20
23.25
 11
25.2135
 21
23.3234
  0
LINE
  8
0
 10
-24.2865
 20
23.3234
 11
-23.8683
 21
23.5365
  0
LINE
  8
0
 10
-23.8683
 20
23.5365
 11
-23.5365
 21
23.8683
  0
LINE
  8
0
 10
-23.5365
 20
23.8683
 11
-23.3234
 21
24.2865
  0
LINE
  8
0
 10
-23.3234
 20
24.2865
 11
-23.25
 21
24.75
  0
LINE
  8
0
 10
-23.25
 20
24.75
 11
-23.3234
 21
25.2135
  0
LINE
  8
0
 10
-23.3234
 20
25.2135
 11
-23.5365
 21
25.6317
  0
LINE
  8
0
 10
-23.5365
 20
25.6317
 11
-23.8683
 21
25.9635
  0
LINE
  8
0
 10
-23.8683
 20
25.9635
 11
-24.2865
 21
26.1766
  0
LINE
  8
0
 10
-24.2865
 20
26.1766
 11
-24.75
 21
26.25
  0
LINE
  8
0
 10
-24.75
 20
26.25
 11
-25.2135
 21
26.1766
  0
LINE
  8
0
 10
-25.2135
 20
26.1766
 11
-25.6317
 21
25.9635
  0
LINE
  8
0
 10
-25.6317
 20
25.9635
 11
-25.9635
 21
25.6317
  0
LINE
  8
0
 10
-25.9635
 20
25.6317
 11
-26.1766
 21
25.2135
  0
LINE
  8
0
 10
-26.1766
 20
25.2135
 11
-26.25
 21
24.75
  0
LINE
  8
0
 10
-26.25
 20
24.75
 11
-26.1766
 21
24.2865
  0
LINE
  8
0
 10
-26.1766
 20
24.2865
 11
-25.9635
 21
23.8683
  0
LINE
  8
0
 10
-25.9635
 20
23.8683
 11
-25.6317
 21
23.5365
  0
LINE
  8
0
 10
-25.6317
 20
23.5365
 11
-25.2135
 21
23.3234
  0
LINE
  8
0
 10
-25.2135
 20
23.3234
 11
-24.75
 21
23.25
  0
LINE
  8
0
 10
-24.75
 20
23.25
 11
-24.2865
 21
23.3234
  0
LINE
  8
0
 10
0.463516
 20
20.4934
 11
0.881668
 21
20.7065
  0
LINE
  8
0
 10
0.881668
 20
20.7065
 11
1.21352
 21
21.0383
  0
LINE
  8
0
 10
1.21352
 20
21.0383
 11
1.42657
 21
21.4565
  0
LINE
  8
0
 10
1.42657
 20
21.4565
 11
1.5
 21
21.92
  0
LINE
  8
0
 10
1.5
 20
21.92
 11
1.42657
 21
22.3835
  0
LINE
  8
0
 10
1.42657
 20
22.3835
 11
1.21352
 21
22.8017
  0
LINE
  8
0
 10
1.21352
 20
22.8017
 11
0.881668
 21
23.1335
  0
LINE
  8
0
 10
0.881668
 20
23.1335
 11
0.463516
 21
23.3466
  0
LINE
  8
0
 10
0.463516
 20
23.3466
 11
0
 21
23.42
  0
LINE
  8
0
 10
0
 20
23.42
 11
-0.463516
 21
23.3466
  0
LINE
  8
0
 10
-0.463516
 20
23.3466
 11
-0.881668
 21
23.1335
  0
LINE
  8
0
 10
-0.881668
 20
23.1335
 11
-1.21352
 21
22.8017
  0
LINE
  8
0
 10
-1.21352
 20
22.8017
 11
-1.42657
 21
22.3835
  0
LINE
  8
0
 10
-1.42657
 20
22.3835
 11
-1.5
 21
21.92
  0
LINE
  8
0
 10
-1.5
 20
21.92
 11
-1.42657
 21
21.4565
  0
LINE
  8
0
 10
-1.42657
 20
21.4565
 11
-1.21352
 21
21.0383
  0
LINE
  8
0
 10
-1.21352
 20
21.0383
 11
-0.881668
 21
20.7065
  0
LINE
  8
0
 10
-0.881668
 20
20.7065
 11
-0.463516
 21
20.4934
  0
LINE
  8
0
 10
-0.463516
 20
20.4934
 11
0
 21
20.42
  0
LINE
  8
0
 10
0
 20
20.42
 11
0.463516
 21
20.4934
  0
LINE
  8
0
 10
18.7135
 20
16.8234
 11
19.1317
 21
17.0365
  0
LINE
  8
0
 10
19.1317
 20
17.0365
 11
19.4635
 21
17.3683
  0
LINE
  8
0
 10
19.4635
 20
17.3683
 11
19.6766
 21
17.7865
  0
LINE
  8
0
 10
19.6766
 20
17.7865
 11
19.75
 21
18.25
  0
LINE
  8
0
 10
19.75
 20
18.25
 11
19.6766
 21
18.7135
  0
LINE
  8
0
 10
19.6766
 20
18.7135
 11
19.4635
 21
19.1317
  0
LINE
  8
0
 10
19.4635
 20
19.1317
 11
19.1317
 21
19.4635
  0
LINE
  8
0
 10
19.1317
 20
19.4635
 11
18.7135
 21
19.6766
  0
LINE
  8
0
 10
18.7135
 20
19.6766
 11
18.25
 21
19.75
  0
LINE
  8
0
 10
18.25
 20
19.75
 11
17.7865
 21
19.6766
  0
LINE
  8
0
 10
17.7865
 20
19.6766
 11
17.3683
 21
19.4635
  0
LINE
  8
0
 10
17.3683
 20
19.4635
 11
17.0365
 21
19.1317
  0
LINE
  8
0
 10
17.0365
 20
19.1317
 11
16.8234
 21
18.7135
  0
LINE
  8
0
 10
16.8234
 20
18.7135
 11
16.75
 21
18.25
  0
LINE
  8
0
 10
16.75
 20
18.25
 11
16.8234
 21
17.7865
  0
LINE
  8
0
 10
16.8234
 20
17.7865
 11
17.0365
 21
17.3683
  0
LINE
  8
0
 10
17.0365
 20
17.3683
 11
17.3683
 21
17.0365
  0
LINE
  8
0
 10
17.3683
 20
17.0365
 11
17.7865
 21
16.8234
  0
LINE
  8
0
 10
17.7865
 20
16.8234
 11
18.25
 21
16.75
  0
LINE
  8
0
 10
18.25
 20
16.75
 11
18.7135
 21
16.8234
  0
LINE
  8
0
 10
-17.7865
 20
16.8234
 11
-17.3683
 21
17.0365
  0
LINE
  8
0
 10
-17.3683
 20
17.0365
 11
-17.0365
 21
17.3683
  0
LINE
  8
0
 10
-17.0365
 20
17.3683
 11
-16.8234
 21
17.7865
  0
LINE
  8
0
 10
-16.8234
 20
17.7865
 11
-16.75
 21
18.25
  0
LINE
  8
0
 10
-16.75
 20
18.25
 11
-16.8234
 21
18.7135
  0
LINE
  8
0
 10
-16.8234
 20
18.7135
 11
-17.0365
 21
19.1317
  0
LINE
  8
0
 10
-17.0365
 20
19.1317
 11
-17.3683
 21
19.4635
  0
LINE
  8
0
 10
-17.3683
 20
19.4635
 11
-17.7865
 21
19.6766
  0
LINE
  8
0
 10
-17.7865
 20
19.6766
 11
-18.25
 21
19.75
  0
LINE
  8
0
 10
-18.25
 20
19.75
 11
-18.7135
 21
19.6766
  0
LINE
  8
0
 10
-18.7135
 20
19.6766
 11
-19.1317
 21
19.4635
  0
LINE
  8
0
 10
-19.1317
 20
19.4635
 11
-19.4635
 21
19.1317
  0
LINE
  8
0
 10
-19.4635
 20
19.1317
 11
-19.6766
 21
18.7135
  0
LINE
  8
0
 10
-19.6766
 20
18.7135
 11
-19.75
 21
18.25
  0
LINE
  8
0
 10
-19.75
 20
18.25
 11
-19.6766
 21
17.7865
  0
LINE
  8
0
 10
-19.6766
 20
17.7865
 11
-19.4635
 21
17.3683
  0
LINE
  8
0
 10
-19.4635
 20
17.3683
 11
-19.1317
 21
17.0365
  0
LINE
  8
0
 10
-19.1317
 20
17.0365
 11
-18.7135
 21
16.8234
  0
LINE
  8
0
 10
-18.7135
 20
16.8234
 11
-18.25
 21
16.75
  0
LINE
  8
0
 10
-18.25
 20
16.75
 11
-17.7865
 21
16.8234
  0
LINE
  8
0
 10
16.1807
 20
14.1633
 11
16.5604
 21
14.4391
  0
LINE
  8
0
 10
16.5604
 20
14.4391
 11
16.8363
 21
14.8188
  0
LINE
  8
0
 10
16.8363
 20
14.8188
 11
16.9813
 21
15.2651
  0
LINE
  8
0
 10
16.9813
 20
15.2651
 11
16.9813
 21
15.7344
  0
LINE
  8
0
 10
16.9813
 20
15.7344
 11
16.8363
 21
16.1808
  0
LINE
  8
0
 10
16.8363
 20
16.1808
 11
16.5604
 21
16.5604
  0
LINE
  8
0
 10
16.5604
 20
16.5604
 11
16.1808
 21
16.8363
  0
LINE
  8
0
 10
16.1808
 20
16.8363
 11
15.7344
 21
16.9813
  0
LINE
  8
0
 10
15.7344
 20
16.9813
 11
15.2651
 21
16.9813
  0
LINE
  8
0
 10
15.2651
 20
16.9813
 11
14.8188
 21
16.8363
  0
LINE
  8
0
 10
14.8188
 20
16.8363
 11
14.4391
 21
16.5604
  0
LINE
  8
0
 10
14.4391
 20
16.5604
 11
14.1633
 21
16.1807
  0
LINE
  8
0
 10
14.1633
 20
16.1807
 11
14.0182
 21
15.7344
  0
LINE
  8
0
 10
14.0182
 20
15.7344
 11
14.0182
 21
15.2651
  0
LINE
  8
0
 10
14.0182
 20
15.2651
 11
14.1633
 21
14.8188
  0
LINE
  8
0
 10
14.1633
 20
14.8188
 11
14.4391
 21
14.4391
  0
LINE
  8
0
 10
14.4391
 20
14.4391
 11
14.8188
 21
14.1633
  0
LINE
  8
0
 10
14.8188
 20
14.1633
 11
15.2651
 21
14.0182
  0
LINE
  8
0
 10
15.2651
 20
14.0182
 11
15.7344
 21
14.0182
  0
LINE
  8
0
 10
15.7344
 20
14.0182
 11
16.1807
 21
14.1633
  0
LINE
  8
0
 10
-14.8188
 20
14.1633
 11
-14.4391
 21
14.4391
  0
LINE
  8
0
 10
-14.4391
 20
14.4391
 11
-14.1633
 21
14.8188
  0
LINE
  8
0
 10
-14.1633
 20
14.8188
 11
-14.0182
 21
15.2651
  0
LINE
  8
0
 10
-14.0182
 20
15.2651
 11
-14.0182
 21
15.7344
  0
LINE
  8
0
 10
-14.0182
 20
15.7344
 11
-14.1633
 21
16.1807
  0
LINE
  8
0
 10
-14.1633
 20
16.1807
 11
-14.4391
 21
16.5604
  0
LINE
  8
0
 10
-14.4391
 20
16.5604
 11
-14.8188
 21
16.8363
  0
LINE
  8
0
 10
-14.8188
 20
16.8363
 11
-15.2651
 21
16.9813
  0
LINE
  8
0
 10
-15.2651
 20
16.9813
 11
-15.7344
 21
16.9813
  0
LINE
  8
0
 10
-15.7344
 20
16.9813
 11
-16.1808
 21
16.8363
  0
LINE
  8
0
 10
-16.1808
 20
16.8363
 11
-16.5604
 21
16.5604
  0
LINE
  8
0
 10
-16.5604
 20
16.5604
 11
-16.8363
 21
16.1808
  0
LINE
  8
0
 10
-16.8363
 20
16.1808
 11
-16.9813
 21
15.7344
  0
LINE
  8
0
 10
-16.9813
 20
15.7344
 11
-16.9813
 21
15.2651
  0
LINE
  8
0
 10
-16.9813
 20
15.2651
 11
-16.8363
 21
14.8188
  0
LINE
  8
0
 10
-16.8363
 20
14.8188
 11
-16.5604
 21
14.4391
  0
LINE
  8
0
 10
-16.5604
 20
14.4391
 11
-16.1807
 21
14.1633
  0
LINE
  8
0
 10
-16.1807
 20
14.1633
 11
-15.7344
 21
14.0182
  0
LINE
  8
0
 10
-15.7344
 20
14.0182
 11
-15.2651
 21
14.0182
  0
LINE
  8
0
 10
-15.2651
 20
14.0182
 11
-14.8188
 21
14.1633
  0
LINE
  8
0
 10
150.717
 20
-1.49178
 11
150.872
 21
-1.46721
  0
LINE
  8
0
 10
150.872
 20
-1.46721
 11
151.024
 21
-1.42657
  0
LINE
  8
0
 10
151.024
 20
-1.42657
 11
151.17
 21
-1.37032
  0
LINE
  8
0
 10
151.17
 20
-1.37032
 11
151.31
 21
-1.29903
  0
LINE
  8
0
 10
151.31
 20
-1.29903
 11
151.442
 21
-1.21352
  0
LINE
  8
0
 10
151.442
 20
-1.21352
 11
151.564
 21
-1.11472
  0
LINE
  8
0
 10
151.564
 20
-1.11472
 11
151.675
 21
-1.00369
  0
LINE
  8
0
 10
151.675
 20
-1.00369
 11
151.774
 21
-0.881668
  0
LINE
  8
0
 10
151.774
 20
-0.881668
 11
151.859
 21
-0.749985
  0
LINE
  8
0
 10
151.859
 20
-0.749985
 11
151.93
 21
-0.610092
  0
LINE
  8
0
 10
151.93
 20
-0.610092
 11
151.987
 21
-0.463516
  0
LINE
  8
0
 10
151.987
 20
-0.463516
 11
152.027
 21
-0.311859
  0
LINE
  8
0
 10
152.027
 20
-0.311859
 11
152.052
 21
-0.156784
  0
LINE
  8
0
 10
152.052
 20
-0.156784
 11
152.06
 21
0
  0
LINE
  8
0
 10
152.06
 20
0
 11
152.052
 21
0.156784
  0
LINE
  8
0
 10
152.052
 20
0.156784
 11
152.027
 21
0.311859
  0
LINE
  8
0
 10
152.027
 20
0.311859
 11
151.987
 21
0.463516
  0
LINE
  8
0
 10
151.987
 20
0.463516
 11
151.93
 21
0.610092
  0
LINE
  8
0
 10
151.93
 20
0.610092
 11
151.859
 21
0.749985
  0
LINE
  8
0
 10
151.859
 20
0.749985
 11
151.774
 21
0.881668
  0
LINE
  8
0
 10
151.774
 20
0.881668
 11
151.675
 21
1.00369
  0
LINE
  8
0
 10
151.675
 20
1.00369
 11
151.564
 21
1.11472
  0
LINE
  8
0
 10
151.564
 20
1.11472
 11
151.442
 21
1.21352
  0
LINE
  8
0
 10
151.442
 20
1.21352
 11
151.31
 21
1.29903
  0
LINE
  8
0
 10
151.31
 20
1.29903
 11
151.17
 21
1.37032
  0
LINE
  8
0
 10
151.17
 20
1.37032
 11
151.024
 21
1.42657
  0
LINE
  8
0
 10
151.024
 20
1.42657
 11
150.872
 21
1.46721
  0
LINE
  8
0
 10
150.872
 20
1.46721
 11
150.717
 21
1.49178
  0
LINE
  8
0
 10
150.717
 20
1.49178
 11
150.56
 21
1.5
  0
LINE
  8
0
 10
150.56
 20
1.5
 11
150.403
 21
1.49178
  0
LINE
  8
0
 10
150.403
 20
1.49178
 11
150.248
 21
1.46721
  0
LINE
  8
0
 10
150.248
 20
1.46721
 11
150.096
 21
1.42657
  0
LINE
  8
0
 10
150.096
 20
1.42657
 11
149.95
 21
1.37032
  0
LINE
  8
0
 10
149.95
 20
1.37032
 11
149.81
 21
1.29903
  0
LINE
  8
0
 10
149.81
 20
1.29903
 11
149.678
 21
1.21352
  0
LINE
  8
0
 10
149.678
 20
1.21352
 11
149.556
 21
1.11472
  0
LINE
  8
0
 10
149.556
 20
1.11472
 11
149.445
 21
1.00369
  0
LINE
  8
0
 10
149.445
 20
1.00369
 11
149.346
 21
0.881668
  0
LINE
  8
0
 10
149.346
 20
0.881668
 11
149.261
 21
0.749985
  0
LINE
  8
0
 10
149.261
 20
0.749985
 11
149.19
 21
0.610092
  0
LINE
  8
0
 10
149.19
 20
0.610092
 11
149.133
 21
0.463516
  0
LINE
  8
0
 10
149.133
 20
0.463516
 11
149.093
 21
0.311859
  0
LINE
  8
0
 10
149.093
 20
0.311859
 11
149.068
 21
0.156784
  0
LINE
  8
0
 10
149.068
 20
0.156784
 11
149.06
 21
0
  0
LINE
  8
0
 10
149.06
 20
0
 11
149.068
 21
-0.156784
  0
LINE
  8
0
 10
149.068
 20
-0.156784
 11
149.093
 21
-0.311859
  0
LINE
  8
0
 10
149.093
 20
-0.311859
 11
149.133
 21
-0.463516
  0
LINE
  8
0
 10
149.133
 20
-0.463516
 11
149.19
 21
-0.610092
  0
LINE
  8
0
 10
149.19
 20
-0.610092
 11
149.261
 21
-0.749985
  0
LINE
  8
0
 10
149.261
 20
-0.749985
 11
149.346
 21
-0.881668
  0
LINE
  8
0
 10
149.346
 20
-0.881668
 11
149.445
 21
-1.00369
  0
LINE
  8
0
 10
149.445
 20
-1.00369
 11
149.556
 21
-1.11472
  0
LINE
  8
0
 10
149.556
 20
-1.11472
 11
149.678
 21
-1.21352
  0
LINE
  8
0
 10
149.678
 20
-1.21352
 11
149.81
 21
-1.29903
  0
LINE
  8
0
 10
149.81
 20
-1.29903
 11
149.95
 21
-1.37032
  0
LINE
  8
0
 10
149.95
 20
-1.37032
 11
150.096
 21
-1.42657
  0
LINE
  8
0
 10
150.096
 20
-1.42657
 11
150.248
 21
-1.46721
  0
LINE
  8
0
 10
150.248
 20
-1.46721
 11
150.403
 21
-1.49178
  0
LINE
  8
0
 10
150.403
 20
-1.49178
 11
150.56
 21
-1.5
  0
LINE
  8
0
 10
150.56
 20
-1.5
 11
150.717
 21
-1.49178
  0
LINE
  8
0
 10
-150.403
 20
-1.49178
 11
-150.248
 21
-1.46721
  0
LINE
  8
0
 10
-150.248
 20
-1.46721
 11
-150.096
 21
-1.42657
  0
LINE
  8
0
 10
-150.096
 20
-1.42657
 11
-149.95
 21
-1.37032
  0
LINE
  8
0
 10
-149.95
 20
-1.37032
 11
-149.81
 21
-1.29903
  0
LINE
  8
0
 10
-149.81
 20
-1.29903
 11
-149.678
 21
-1.21352
  0
LINE
  8
0
 10
-149.678
 20
-1.21352
 11
-149.556
 21
-1.11472
  0
LINE
  8
0
 10
-149.556
 20
-1.11472
 11
-149.445
 21
-1.00369
  0
LINE
  8
0
 10
-149.445
 20
-1.00369
 11
-149.346
 21
-0.881668
  0
LINE
  8
0
 10
-149.346
 20
-0.881668
 11
-149.261
 21
-0.749985
  0
LINE
  8
0
 10
-149.261
 20
-0.749985
 11
-149.19
 21
-0.610092
  0
LINE
  8
0
 10
-149.19
 20
-0.610092
 11
-149.133
 21
-0.463516
  0
LINE
  8
0
 10
-149.133
 20
-0.463516
 11
-149.093
 21
-0.311859
  0
LINE
  8
0
 10
-149.093
 20
-0.311859
 11
-149.068
 21
-0.156784
  0
LINE
  8
0
 10
-149.068
 20
-0.156784
 11
-149.06
 21
0
  0
LINE
  8
0
 10
-149.06
 20
0
 11
-149.068
 21
0.156784
  0
LINE
  8
0
 10
-149.068
 20
0.156784
 11
-149.093
 21
0.311859
  0
LINE
  8
0
 10
-149.093
 20
0.311859
 11
-149.133
 21
0.463516
  0
LINE
  8
0
 10
-149.133
 20
0.463516
 11
-149.19
 21
0.610092
  0
LINE
  8
0
 10
-149.19
 20
0.610092
 11
-149.261
 21
0.75
  0
LINE
  8
0
 10
-149.261
 20
0.75
 11
-149.346
 21
0.881668
  0
LINE
  8
0
 10
-149.346
 20
0.881668
 11
-149.445
 21
1.00369
  0
LINE
  8
0
 10
-149.445
 20
1.00369
 11
-149.556
 21
1.11472
  0
LINE
  8
0
 10
-149.556
 20
1.11472
 11
-149.678
 21
1.21352
  0
LINE
  8
0
 10
-149.678
 20
1.21352
 11
-149.81
 21
1.29903
  0
LINE
  8
0
 10
-149.81
 20
1.29903
 11
-149.95
 21
1.37032
  0
LINE
  8
0
 10
-149.95
 20
1.37032
 11
-150.096
 21
1.42657
  0
LINE
  8
0
 10
-150.096
 20
1.42657
 11
-150.248
 21
1.46721
  0
LINE
  8
0
 10
-150.248
 20
1.46721
 11
-150.403
 21
1.49178
  0
LINE
  8
0
 10
-150.403
 20
1.49178
 11
-150.56
 21
1.5
  0
LINE
  8
0
 10
-150.56
 20
1.5
 11
-150.717
 21
1.49178
  0
LINE
  8
0
 10
-150.717
 20
1.49178
 11
-150.872
 21
1.46721
  0
LINE
  8
0
 10
-150.872
 20
1.46721
 11
-151.024
 21
1.42657
  0
LINE
  8
0
 10
-151.024
 20
1.42657
 11
-151.17
 21
1.37032
  0
LINE
  8
0
 10
-151.17
 20
1.37032
 11
-151.31
 21
1.29903
  0
LINE
  8
0
 10
-151.31
 20
1.29903
 11
-151.442
 21
1.21352
  0
LINE
  8
0
 10
-151.442
 20
1.21352
 11
-151.564
 21
1.11472
  0
LINE
  8
0
 10
-151.564
 20
1.11472
 11
-151.675
 21
1.00369
  0
LINE
  8
0
 10
-151.675
 20
1.00369
 11
-151.774
 21
0.881668
  0
LINE
  8
0
 10
-151.774
 20
0.881668
 11
-151.859
 21
0.75
  0
LINE
  8
0
 10
-151.859
 20
0.75
 11
-151.93
 21
0.610092
  0
LINE
  8
0
 10
-151.93
 20
0.610092
 11
-151.987
 21
0.463516
  0
LINE
  8
0
 10
-151.987
 20
0.463516
 11
-152.027
 21
0.311859
  0
LINE
  8
0
 10
-152.027
 20
0.311859
 11
-152.052
 21
0.156784
  0
LINE
  8
0
 10
-152.052
 20
0.156784
 11
-152.06
 21
0
  0
LINE
  8
0
 10
-152.06
 20
0
 11
-152.052
 21
-0.156784
  0
LINE
  8
0
 10
-152.052
 20
-0.156784
 11
-152.027
 21
-0.311859
  0
LINE
  8
0
 10
-152.027
 20
-0.311859
 11
-151.987
 21
-0.463516
  0
LINE
  8
0
 10
-151.987
 20
-0.463516
 11
-151.93
 21
-0.610092
  0
LINE
  8
0
 10
-151.93
 20
-0.610092
 11
-151.859
 21
-0.749985
  0
LINE
  8
0
 10
-151.859
 20
-0.749985
 11
-151.774
 21
-0.881668
  0
LINE
  8
0
 10
-151.774
 20
-0.881668
 11
-151.675
 21
-1.00369
  0
LINE
  8
0
 10
-151.675
 20
-1.00369
 11
-151.564
 21
-1.11472
  0
LINE
  8
0
 10
-151.564
 20
-1.11472
 11
-151.442
 21
-1.21352
  0
LINE
  8
0
 10
-151.442
 20
-1.21352
 11
-151.31
 21
-1.29903
  0
LINE
  8
0
 10
-151.31
 20
-1.29903
 11
-151.17
 21
-1.37032
  0
LINE
  8
0
 10
-151.17
 20
-1.37032
 11
-151.024
 21
-1.42657
  0
LINE
  8
0
 10
-151.024
 20
-1.42657
 11
-150.872
 21
-1.46721
  0
LINE
  8
0
 10
-150.872
 20
-1.46721
 11
-150.717
 21
-1.49178
  0
LINE
  8
0
 10
-150.717
 20
-1.49178
 11
-150.56
 21
-1.49998
  0
LINE
  8
0
 10
-150.56
 20
-1.49998
 11
-150.403
 21
-1.49178
  0
LINE
  8
0
 10
-21.4565
 20
-1.42657
 11
-21.0383
 21
-1.21352
  0
LINE
  8
0
 10
-21.0383
 20
-1.21352
 11
-20.7065
 21
-0.881668
  0
LINE
  8
0
 10
-20.7065
 20
-0.881668
 11
-20.4934
 21
-0.463516
  0
LINE
  8
0
 10
-20.4934
 20
-0.463516
 11
-20.42
 21
0
  0
LINE
  8
0
 10
-20.42
 20
0
 11
-20.4934
 21
0.463516
  0
LINE
  8
0
 10
-20.4934
 20
0.463516
 11
-20.7065
 21
0.881668
  0
LINE
  8
0
 10
-20.7065
 20
0.881668
 11
-21.0383
 21
1.21352
  0
LINE
  8
0
 10
-21.0383
 20
1.21352
 11
-21.4565
 21
1.42657
  0
LINE
  8
0
 10
-21.4565
 20
1.42657
 11
-21.92
 21
1.5
  0
LINE
  8
0
 10
-21.92
 20
1.5
 11
-22.3835
 21
1.42657
  0
LINE
  8
0
 10
-22.3835
 20
1.42657
 11
-22.8017
 21
1.21352
  0
LINE
  8
0
 10
-22.8017
 20
1.21352
 11
-23.1335
 21
0.881668
  0
LINE
  8
0
 10
-23.1335
 20
0.881668
 11
-23.3466
 21
0.463516
  0
LINE
  8
0
 10
-23.3466
 20
0.463516
 11
-23.42
 21
0
  0
LINE
  8
0
 10
-23.42
 20
0
 11
-23.3466
 21
-0.463516
  0
LINE
  8
0
 10
-23.3466
 20
-0.463516
 11
-23.1335
 21
-0.881668
  0
LINE
  8
0
 10
-23.1335
 20
-0.881668
 11
-22.8017
 21
-1.21352
  0
LINE
  8
0
 10
-22.8017
 20
-1.21352
 11
-22.3835
 21
-1.42657
  0
LINE
  8
0
 10
-22.3835
 20
-1.42657
 11
-21.92
 21
-1.5
  0
LINE
  8
0
 10
-21.92
 20
-1.5
 11
-21.4565
 21
-1.42657
  0
LINE
  8
0
 10
22.3835
 20
-1.42657
 11
22.8017
 21
-1.21352
  0
LINE
  8
0
 10
22.8017
 20
-1.21352
 11
23.1335
 21
-0.881668
  0
LINE
  8
0
 10
23.1335
 20
-0.881668
 11
23.3466
 21
-0.463516
  0
LINE
  8
0
 10
23.3466
 20
-0.463516
 11
23.42
 21
0
  0
LINE
  8
0
 10
23.42
 20
0
 11
23.3466
 21
0.463516
  0
LINE
  8
0
 10
23.3466
 20
0.463516
 11
23.1335
 21
0.881668
  0
LINE
  8
0
 10
23.1335
 20
0.881668
 11
22.8017
 21
1.21352
  0
LINE
  8
0
 10
22.8017
 20
1.21352
 11
22.3835
 21
1.42657
  0
LINE
  8
0
 10
22.3835
 20
1.42657
 11
21.92
 21
1.5
  0
LINE
  8
0
 10
21.92
 20
1.5
 11
21.4565
 21
1.42657
  0
LINE
  8
0
 10
21.4565
 20
1.42657
 11
21.0383
 21
1.21352
  0
LINE
  8
0
 10
21.0383
 20
1.21352
 11
20.7065
 21
0.881668
  0
LINE
  8
0
 10
20.7065
 20
0.881668
 11
20.4934
 21
0.463516
  0
LINE
  8
0
 10
20.4934
 20
0.463516
 11
20.42
 21
0
  0
LINE
  8
0
 10
20.42
 20
0
 11
20.4934
 21
-0.463516
  0
LINE
  8
0
 10
20.4934
 20
-0.463516
 11
20.7065
 21
-0.881668
  0
LINE
  8
0
 10
20.7065
 20
-0.881668
 11
21.0383
 21
-1.21352
  0
LINE
  8
0
 10
21.0383
 20
-1.21352
 11
21.4565
 21
-1.42657
  0
LINE
  8
0
 10
21.4565
 20
-1.42657
 11
21.92
 21
-1.5
  0
LINE
  8
0
 10
21.92
 20
-1.5
 11
22.3835
 21
-1.42657
  0
LINE
  8
0
 10
0.463516
 20
-1.42657
 11
0.881668
 21
-1.21352
  0
LINE
  8
0
 10
0.881668
 20
-1.21352
 11
1.21352
 21
-0.881668
  0
LINE
  8
0
 10
1.21352
 20
-0.881668
 11
1.42657
 21
-0.463516
  0
LINE
  8
0
 10
1.42657
 20
-0.463516
 11
1.5
 21
0
  0
LINE
  8
0
 10
1.5
 20
0
 11
1.42657
 21
0.463516
  0
LINE
  8
0
 10
1.42657
 20
0.463516
 11
1.21352
 21
0.881668
  0
LINE
  8
0
 10
1.21352
 20
0.881668
 11
0.881668
 21
1.21352
  0
LINE
  8
0
 10
0.881668
 20
1.21352
 11
0.463516
 21
1.42657
  0
LINE
  8
0
 10
0.463516
 20
1.42657
 11
0
 21
1.5
  0
LINE
  8
0
 10
0
 20
1.5
 11
-0.463516
 21
1.42657
  0
LINE
  8
0
 10
-0.463516
 20
1.42657
 11
-0.881668
 21
1.21352
  0
LINE
  8
0
 10
-0.881668
 20
1.21352
 11
-1.21352
 21
0.881668
  0
LINE
  8
0
 10
-1.21352
 20
0.881668
 11
-1.42657
 21
0.463516
  0
LINE
  8
0
 10
-1.42657
 20
0.463516
 11
-1.5
 21
0
  0
LINE
  8
0
 10
-1.5
 20
0
 11
-1.42657
 21
-0.463516
  0
LINE
  8
0
 10
-1.42657
 20
-0.463516
 11
-1.21352
 21
-0.881668
  0
LINE
  8
0
 10
-1.21352
 20
-0.881668
 11
-0.881668
 21
-1.21352
  0
LINE
  8
0
 10
-0.881668
 20
-1.21352
 11
-0.463516
 21
-1.42657
  0
LINE
  8
0
 10
-0.463516
 20
-1.42657
 11
0
 21
-1.5
  0
LINE
  8
0
 10
0
 20
-1.5
 11
0.463516
 21
-1.42657
  0
LINE
  8
0
 10
-85.9749
 20
-1.33652
 11
-85.5952
 21
-1.06067
  0
LINE
  8
0
 10
-85.5952
 20
-1.06067
 11
-85.3194
 21
-0.680984
  0
LINE
  8
0
 10
-85.3194
 20
-0.680984
 11
-85.1744
 21
-0.23465
  0
LINE
  8
0
 10
-85.1744
 20
-0.23465
 11
-85.1744
 21
0.234634
  0
LINE
  8
0
 10
-85.1744
 20
0.234634
 11
-85.3194
 21
0.680969
  0
LINE
  8
0
 10
-85.3194
 20
0.680969
 11
-85.5952
 21
1.06064
  0
LINE
  8
0
 10
-85.5952
 20
1.06064
 11
-85.9749
 21
1.3365
  0
LINE
  8
0
 10
-85.9749
 20
1.3365
 11
-86.4212
 21
1.48152
  0
LINE
  8
0
 10
-86.4212
 20
1.48152
 11
-86.8906
 21
1.48152
  0
LINE
  8
0
 10
-86.8906
 20
1.48152
 11
-87.3369
 21
1.3365
  0
LINE
  8
0
 10
-87.3369
 20
1.3365
 11
-87.7166
 21
1.06064
  0
LINE
  8
0
 10
-87.7166
 20
1.06064
 11
-87.9924
 21
0.680969
  0
LINE
  8
0
 10
-87.9924
 20
0.680969
 11
-88.1375
 21
0.234634
  0
LINE
  8
0
 10
-88.1375
 20
0.234634
 11
-88.1375
 21
-0.23465
  0
LINE
  8
0
 10
-88.1375
 20
-0.23465
 11
-87.9924
 21
-0.680984
  0
LINE
  8
0
 10
-87.9924
 20
-0.680984
 11
-87.7166
 21
-1.06067
  0
LINE
  8
0
 10
-87.7166
 20
-1.06067
 11
-87.3369
 21
-1.33652
  0
LINE
  8
0
 10
-87.3369
 20
-1.33652
 11
-86.8906
 21
-1.48154
  0
LINE
  8
0
 10
-86.8906
 20
-1.48154
 11
-86.4212
 21
-1.48154
  0
LINE
  8
0
 10
-86.4212
 20
-1.48154
 11
-85.9749
 21
-1.33652
  0
LINE
  8
0
 10
87.3369
 20
-1.33652
 11
87.7166
 21
-1.06067
  0
LINE
  8
0
 10
87.7166
 20
-1.06067
 11
87.9924
 21
-0.680984
  0
LINE
  8
0
 10
87.9924
 20
-0.680984
 11
88.1375
 21
-0.23465
  0
LINE
  8
0
 10
88.1375
 20
-0.23465
 11
88.1375
 21
0.234634
  0
LINE
  8
0
 10
88.1375
 20
0.234634
 11
87.9924
 21
0.680969
  0
LINE
  8
0
 10
87.9924
 20
0.680969
 11
87.7166
 21
1.06064
  0
LINE
  8
0
 10
87.7166
 20
1.06064
 11
87.3369
 21
1.3365
  0
LINE
  8
0
 10
87.3369
 20
1.3365
 11
86.8906
 21
1.48152
  0
LINE
  8
0
 10
86.8906
 20
1.48152
 11
86.4212
 21
1.48152
  0
LINE
  8
0
 10
86.4212
 20
1.48152
 11
85.9749
 21
1.3365
  0
LINE
  8
0
 10
85.9749
 20
1.3365
 11
85.5952
 21
1.06064
  0
LINE
  8
0
 10
85.5952
 20
1.06064
 11
85.3194
 21
0.680969
  0
LINE
  8
0
 10
85.3194
 20
0.680969
 11
85.1744
 21
0.234634
  0
LINE
  8
0
 10
85.1744
 20
0.234634
 11
85.1744
 21
-0.23465
  0
LINE
  8
0
 10
85.1744
 20
-0.23465
 11
85.3194
 21
-0.680984
  0
LINE
  8
0
 10
85.3194
 20
-0.680984
 11
85.5952
 21
-1.06067
  0
LINE
  8
0
 10
85.5952
 20
-1.06067
 11
85.9749
 21
-1.33652
  0
LINE
  8
0
 10
85.9749
 20
-1.33652
 11
86.4212
 21
-1.48154
  0
LINE
  8
0
 10
86.4212
 20
-1.48154
 11
86.8906
 21
-1.48154
  0
LINE
  8
0
 10
86.8906
 20
-1.48154
 11
87.3369
 21
-1.33652
  0
LINE
  8
0
 10
35.6827
 20
-1.33652
 11
36.0624
 21
-1.06067
  0
LINE
  8
0
 10
36.0624
 20
-1.06067
 11
36.3383
 21
-0.680984
  0
LINE
  8
0
 10
36.3383
 20
-0.680984
 11
36.4833
 21
-0.23465
  0
LINE
  8
0
 10
36.4833
 20
-0.23465
 11
36.4833
 21
0.234634
  0
LINE
  8
0
 10
36.4833
 20
0.234634
 11
36.3383
 21
0.680969
  0
LINE
  8
0
 10
36.3383
 20
0.680969
 11
36.0624
 21
1.06064
  0
LINE
  8
0
 10
36.0624
 20
1.06064
 11
35.6827
 21
1.33649
  0
LINE
  8
0
 10
35.6827
 20
1.33649
 11
35.2364
 21
1.48151
  0
LINE
  8
0
 10
35.2364
 20
1.48151
 11
34.7671
 21
1.48151
  0
LINE
  8
0
 10
34.7671
 20
1.48151
 11
34.3208
 21
1.33649
  0
LINE
  8
0
 10
34.3208
 20
1.33649
 11
33.9411
 21
1.06064
  0
LINE
  8
0
 10
33.9411
 20
1.06064
 11
33.6653
 21
0.680969
  0
LINE
  8
0
 10
33.6653
 20
0.680969
 11
33.5202
 21
0.234634
  0
LINE
  8
0
 10
33.5202
 20
0.234634
 11
33.5202
 21
-0.23465
  0
LINE
  8
0
 10
33.5202
 20
-0.23465
 11
33.6653
 21
-0.680984
  0
LINE
  8
0
 10
33.6653
 20
-0.680984
 11
33.9411
 21
-1.06067
  0
LINE
  8
0
 10
33.9411
 20
-1.06067
 11
34.3208
 21
-1.33652
  0
LINE
  8
0
 10
34.3208
 20
-1.33652
 11
34.7671
 21
-1.48154
  0
LINE
  8
0
 10
34.7671
 20
-1.48154
 11
35.2364
 21
-1.48154
  0
LINE
  8
0
 10
35.2364
 20
-1.48154
 11
35.6827
 21
-1.33652
  0
LINE
  8
0
 10
-34.3208
 20
-1.33652
 11
-33.9411
 21
-1.06067
  0
LINE
  8
0
 10
-33.9411
 20
-1.06067
 11
-33.6653
 21
-0.680984
  0
LINE
  8
0
 10
-33.6653
 20
-0.680984
 11
-33.5202
 21
-0.23465
  0
LINE
  8
0
 10
-33.5202
 20
-0.23465
 11
-33.5202
 21
0.234634
  0
LINE
  8
0
 10
-33.5202
 20
0.234634
 11
-33.6653
 21
0.680969
  0
LINE
  8
0
 10
-33.6653
 20
0.680969
 11
-33.9411
 21
1.06064
  0
LINE
  8
0
 10
-33.9411
 20
1.06064
 11
-34.3208
 21
1.33649
  0
LINE
  8
0
 10
-34.3208
 20
1.33649
 11
-34.7671
 21
1.48151
  0
LINE
  8
0
 10
-34.7671
 20
1.48151
 11
-35.2364
 21
1.48151
  0
LINE
  8
0
 10
-35.2364
 20
1.48151
 11
-35.6827
 21
1.33649
  0
LINE
  8
0
 10
-35.6827
 20
1.33649
 11
-36.0624
 21
1.06064
  0
LINE
  8
0
 10
-36.0624
 20
1.06064
 11
-36.3383
 21
0.680969
  0
LINE
  8
0
 10
-36.3383
 20
0.680969
 11
-36.4833
 21
0.234634
  0
LINE
  8
0
 10
-36.4833
 20
0.234634
 11
-36.4833
 21
-0.23465
  0
LINE
  8
0
 10
-36.4833
 20
-0.23465
 11
-36.3383
 21
-0.680984
  0
LINE
  8
0
 10
-36.3383
 20
-0.680984
 11
-36.0624
 21
-1.06067
  0
LINE
  8
0
 10
-36.0624
 20
-1.06067
 11
-35.6827
 21
-1.33652
  0
LINE
  8
0
 10
-35.6827
 20
-1.33652
 11
-35.2364
 21
-1.48154
  0
LINE
  8
0
 10
-35.2364
 20
-1.48154
 11
-34.7671
 21
-1.48154
  0
LINE
  8
0
 10
-34.7671
 20
-1.48154
 11
-34.3208
 21
-1.33652
  0
LINE
  8
0
 10
16.1808
 20
-16.8363
 11
16.5604
 21
-16.5604
  0
LINE
  8
0
 10
16.5604
 20
-16.5604
 11
16.8363
 21
-16.1808
  0
LINE
  8
0
 10
16.8363
 20
-16.1808
 11
16.9813
 21
-15.7344
  0
LINE
  8
0
 10
16.9813
 20
-15.7344
 11
16.9813
 21
-15.2651
  0
LINE
  8
0
 10
16.9813
 20
-15.2651
 11
16.8363
 21
-14.8188
  0
LINE
  8
0
 10
16.8363
 20
-14.8188
 11
16.5604
 21
-14.4391
  0
LINE
  8
0
 10
16.5604
 20
-14.4391
 11
16.1807
 21
-14.1633
  0
LINE
  8
0
 10
16.1807
 20
-14.1633
 11
15.7344
 21
-14.0182
  0
LINE
  8
0
 10
15.7344
 20
-14.0182
 11
15.2651
 21
-14.0182
  0
LINE
  8
0
 10
15.2651
 20
-14.0182
 11
14.8188
 21
-14.1633
  0
LINE
  8
0
 10
14.8188
 20
-14.1633
 11
14.4391
 21
-14.4391
  0
LINE
  8
0
 10
14.4391
 20
-14.4391
 11
14.1633
 21
-14.8188
  0
LINE
  8
0
 10
14.1633
 20
-14.8188
 11
14.0182
 21
-15.2651
  0
LINE
  8
0
 10
14.0182
 20
-15.2651
 11
14.0182
 21
-15.7344
  0
LINE
  8
0
 10
14.0182
 20
-15.7344
 11
14.1633
 21
-16.1807
  0
LINE
  8
0
 10
14.1633
 20
-16.1807
 11
14.4391
 21
-16.5604
  0
LINE
  8
0
 10
14.4391
 20
-16.5604
 11
14.8188
 21
-16.8363
  0
LINE
  8
0
 10
14.8188
 20
-16.8363
 11
15.2651
 21
-16.9813
  0
LINE
  8
0
 10
15.2651
 20
-16.9813
 11
15.7344
 21
-16.9813
  0
LINE
  8
0
 10
15.7344
 20
-16.9813
 11
16.1808
 21
-16.8363
  0
LINE
  8
0
 10
-14.8188
 20
-16.8363
 11
-14.4391
 21
-16.5604
  0
LINE
  8
0
 10
-14.4391
 20
-16.5604
 11
-14.1633
 21
-16.1807
  0
LINE
  8
0
 10
-14.1633
 20
-16.1807
 11
-14.0182
 21
-15.7344
  0
LINE
  8
0
 10
-14.0182
 20
-15.7344
 11
-14.0182
 21
-15.2651
  0
LINE
  8
0
 10
-14.0182
 20
-15.2651
 11
-14.1633
 21
-14.8188
  0
LINE
  8
0
 10
-14.1633
 20
-14.8188
 11
-14.4391
 21
-14.4391
  0
LINE
  8
0
 10
-14.4391
 20
-14.4391
 11
-14.8188
 21
-14.1633
  0
LINE
  8
0
 10
-14.8188
 20
-14.1633
 11
-15.2651
 21
-14.0182
  0
LINE
  8
0
 10
-15.2651
 20
-14.0182
 11
-15.7344
 21
-14.0182
  0
LINE
  8
0
 10
-15.7344
 20
-14.0182
 11
-16.1807
 21
-14.1633
  0
LINE
  8
0
 10
-16.1807
 20
-14.1633
 11
-16.5604
 21
-14.4391
  0
LINE
  8
0
 10
-16.5604
 20
-14.4391
 11
-16.8363
 21
-14.8188
  0
LINE
  8
0
 10
-16.8363
 20
-14.8188
 11
-16.9813
 21
-15.2651
  0
LINE
  8
0
 10
-16.9813
 20
-15.2651
 11
-16.9813
 21
-15.7344
  0
LINE
  8
0
 10
-16.9813
 20
-15.7344
 11
-16.8363
 21
-16.1808
  0
LINE
  8
0
 10
-16.8363
 20
-16.1808
 11
-16.5604
 21
-16.5604
  0
LINE
  8
0
 10
-16.5604
 20
-16.5604
 11
-16.1808
 21
-16.8363
  0
LINE
  8
0
 10
-16.1808
 20
-16.8363
 11
-15.7344
 21
-16.9813
  0
LINE
  8
0
 10
-15.7344
 20
-16.9813
 11
-15.2651
 21
-16.9813
  0
LINE
  8
0
 10
-15.2651
 20
-16.9813
 11
-14.8188
 21
-16.8363
  0
LINE
  8
0
 10
-17.7865
 20
-19.6766
 11
-17.3683
 21
-19.4635
  0
LINE
  8
0
 10
-17.3683
 20
-19.4635
 11
-17.0365
 21
-19.1317
  0
LINE
  8
0
 10
-17.0365
 20
-19.1317
 11
-16.8234
 21
-18.7135
  0
LINE
  8
0
 10
-16.8234
 20
-18.7135
 11
-16.75
 21
-18.25
  0
LINE
  8
0
 10
-16.75
 20
-18.25
 11
-16.8234
 21
-17.7865
  0
LINE
  8
0
 10
-16.8234
 20
-17.7865
 11
-17.0365
 21
-17.3683
  0
LINE
  8
0
 10
-17.0365
 20
-17.3683
 11
-17.3683
 21
-17.0365
  0
LINE
  8
0
 10
-17.3683
 20
-17.0365
 11
-17.7865
 21
-16.8234
  0
LINE
  8
0
 10
-17.7865
 20
-16.8234
 11
-18.25
 21
-16.75
  0
LINE
  8
0
 10
-18.25
 20
-16.75
 11
-18.7135
 21
-16.8234
  0
LINE
  8
0
 10
-18.7135
 20
-16.8234
 11
-19.1317
 21
-17.0365
  0
LINE
  8
0
 10
-19.1317
 20
-17.0365
 11
-19.4635
 21
-17.3683
  0
LINE
  8
0
 10
-19.4635
 20
-17.3683
 11
-19.6766
 21
-17.7865
  0
LINE
  8
0
 10
-19.6766
 20
-17.7865
 11
-19.75
 21
-18.25
  0
LINE
  8
0
 10
-19.75
 20
-18.25
 11
-19.6766
 21
-18.7135
  0
LINE
  8
0
 10
-19.6766
 20
-18.7135
 11
-19.4635
 21
-19.1317
  0
LINE
  8
0
 10
-19.4635
 20
-19.1317
 11
-19.1317
 21
-19.4635
  0
LINE
  8
0
 10
-19.1317
 20
-19.4635
 11
-18.7135
 21
-19.6766
  0
LINE
  8
0
 10
-18.7135
 20
-19.6766
 11
-18.25
 21
-19.75
  0
LINE
  8
0
 10
-18.25
 20
-19.75
 11
-17.7865
 21
-19.6766
  0
LINE
  8
0
 10
18.7135
 20
-19.6766
 11
19.1317
 21
-19.4635
  0
LINE
  8
0
 10
19.1317
 20
-19.4635
 11
19.4635
 21
-19.1317
  0
LINE
  8
0
 10
19.4635
 20
-19.1317
 11
19.6766
 21
-18.7135
  0
LINE
  8
0
 10
19.6766
 20
-18.7135
 11
19.75
 21
-18.25
  0
LINE
  8
0
 10
19.75
 20
-18.25
 11
19.6766
 21
-17.7865
  0
LINE
  8
0
 10
19.6766
 20
-17.7865
 11
19.4635
 21
-17.3683
  0
LINE
  8
0
 10
19.4635
 20
-17.3683
 11
19.1317
 21
-17.0365
  0
LINE
  8
0
 10
19.1317
 20
-17.0365
 11
18.7135
 21
-16.8234
  0
LINE
  8
0
 10
18.7135
 20
-16.8234
 11
18.25
 21
-16.75
  0
LINE
  8
0
 10
18.25
 20
-16.75
 11
17.7865
 21
-16.8234
  0
LINE
  8
0
 10
17.7865
 20
-16.8234
 11
17.3683
 21
-17.0365
  0
LINE
  8
0
 10
17.3683
 20
-17.0365
 11
17.0365
 21
-17.3683
  0
LINE
  8
0
 10
17.0365
 20
-17.3683
 11
16.8234
 21
-17.7865
  0
LINE
  8
0
 10
16.8234
 20
-17.7865
 11
16.75
 21
-18.25
  0
LINE
  8
0
 10
16.75
 20
-18.25
 11
16.8234
 21
-18.7135
  0
LINE
  8
0
 10
16.8234
 20
-18.7135
 11
17.0365
 21
-19.1317
  0
LINE
  8
0
 10
17.0365
 20
-19.1317
 11
17.3683
 21
-19.4635
  0
LINE
  8
0
 10
17.3683
 20
-19.4635
 11
17.7865
 21
-19.6766
  0
LINE
  8
0
 10
17.7865
 20
-19.6766
 11
18.25
 21
-19.75
  0
LINE
  8
0
 10
18.25
 20
-19.75
 11
18.7135
 21
-19.6766
  0
LINE
  8
0
 10
0.463516
 20
-23.3466
 11
0.881668
 21
-23.1335
  0
LINE
  8
0
 10
0.881668
 20
-23.1335
 11
1.21352
 21
-22.8017
  0
LINE
  8
0
 10
1.21352
 20
-22.8017
 11
1.42657
 21
-22.3835
  0
LINE
  8
0
 10
1.42657
 20
-22.3835
 11
1.5
 21
-21.92
  0
LINE
  8
0
 10
1.5
 20
-21.92
 11
1.42657
 21
-21.4565
  0
LINE
  8
0
 10
1.42657
 20
-21.4565
 11
1.21352
 21
-21.0383
  0
LINE
  8
0
 10
1.21352
 20
-21.0383
 11
0.881668
 21
-20.7065
  0
LINE
  8
0
 10
0.881668
 20
-20.7065
 11
0.463516
 21
-20.4934
  0
LINE
  8
0
 10
0.463516
 20
-20.4934
 11
0
 21
-20.42
  0
LINE
  8
0
 10
0
 20
-20.42
 11
-0.463516
 21
-20.4934
  0
LINE
  8
0
 10
-0.463516
 20
-20.4934
 11
-0.881668
 21
-20.7065
  0
LINE
  8
0
 10
-0.881668
 20
-20.7065
 11
-1.21352
 21
-21.0383
  0
LINE
  8
0
 10
-1.21352
 20
-21.0383
 11
-1.42657
 21
-21.4565
  0
LINE
  8
0
 10
-1.42657
 20
-21.4565
 11
-1.5
 21
-21.92
  0
LINE
  8
0
 10
-1.5
 20
-21.92
 11
-1.42657
 21
-22.3835
  0
LINE
  8
0
 10
-1.42657
 20
-22.3835
 11
-1.21352
 21
-22.8017
  0
LINE
  8
0
 10
-1.21352
 20
-22.8017
 11
-0.881668
 21
-23.1335
  0
LINE
  8
0
 10
-0.881668
 20
-23.1335
 11
-0.463516
 21
-23.3466
  0
LINE
  8
0
 10
-0.463516
 20
-23.3466
 11
0
 21
-23.42
  0
LINE
  8
0
 10
0
 20
-23.42
 11
0.463516
 21
-23.3466
  0
LINE
  8
0
 10
-24.2865
 20
-26.1766
 11
-23.8683
 21
-25.9635
  0
LINE
  8
0
 10
-23.8683
 20
-25.9635
 11
-23.5365
 21
-25.6317
  0
LINE
  8
0
 10
-23.5365
 20
-25.6317
 11
-23.3234
 21
-25.2135
  0
LINE
  8
0
 10
-23.3234
 20
-25.2135
 11
-23.25
 21
-24.75
  0
LINE
  8
0
 10
-23.25
 20
-24.75
 11
-23.3234
 21
-24.2865
  0
LINE
  8
0
 10
-23.3234
 20
-24.2865
 11
-23.5365
 21
-23.8683
  0
LINE
  8
0
 10
-23.5365
 20
-23.8683
 11
-23.8683
 21
-23.5365
  0
LINE
  8
0
 10
-23.8683
 20
-23.5365
 11
-24.2865
 21
-23.3234
  0
LINE
  8
0
 10
-24.2865
 20
-23.3234
 11
-24.75
 21
-23.25
  0
LINE
  8
0
 10
-24.75
 20
-23.25
 11
-25.2135
 21
-23.3234
  0
LINE
  8
0
 10
-25.2135
 20
-23.3234
 11
-25.6317
 21
-23.5365
  0
LINE
  8
0
 10
-25.6317
 20
-23.5365
 11
-25.9635
 21
-23.8683
  0
LINE
  8
0
 10
-25.9635
 20
-23.8683
 11
-26.1766
 21
-24.2865
  0
LINE
  8
0
 10
-26.1766
 20
-24.2865
 11
-26.25
 21
-24.75
  0
LINE
  8
0
 10
-26.25
 20
-24.75
 11
-26.1766
 21
-25.2135
  0
LINE
  8
0
 10
-26.1766
 20
-25.2135
 11
-25.9635
 21
-25.6317
  0
LINE
  8
0
 10
-25.9635
 20
-25.6317
 11
-25.6317
 21
-25.9635
  0
LINE
  8
0
 10
-25.6317
 20
-25.9635
 11
-25.2135
 21
-26.1766
  0
LINE
  8
0
 10
-25.2135
 20
-26.1766
 11
-24.75
 21
-26.25
  0
LINE
  8
0
 10
-24.75
 20
-26.25
 11
-24.2865
 21
-26.1766
  0
LINE
  8
0
 10
25.2135
 20
-26.1766
 11
25.6317
 21
-25.9635
  0
LINE
  8
0
 10
25.6317
 20
-25.9635
 11
25.9635
 21
-25.6317
  0
LINE
  8
0
 10
25.9635
 20
-25.6317
 11
26.1766
 21
-25.2135
  0
LINE
  8
0
 10
26.1766
 20
-25.2135
 11
26.25
 21
-24.75
  0
LINE
  8
0
 10
26.25
 20
-24.75
 11
26.1766
 21
-24.2865
  0
LINE
  8
0
 10
26.1766
 20
-24.2865
 11
25.9635
 21
-23.8683
  0
LINE
  8
0
 10
25.9635
 20
-23.8683
 11
25.6317
 21
-23.5365
  0
LINE
  8
0
 10
25.6317
 20
-23.5365
 11
25.2135
 21
-23.3234
  0
LINE
  8
0
 10
25.2135
 20
-23.3234
 11
24.75
 21
-23.25
  0
LINE
  8
0
 10
24.75
 20
-23.25
 11
24.2865
 21
-23.3234
  0
LINE
  8
0
 10
24.2865
 20
-23.3234
 11
23.8683
 21
-23.5365
  0
LINE
  8
0
 10
23.8683
 20
-23.5365
 11
23.5365
 21
-23.8683
  0
LINE
  8
0
 10
23.5365
 20
-23.8683
 11
23.3234
 21
-24.2865
  0
LINE
  8
0
 10
23.3234
 20
-24.2865
 11
23.25
 21
-24.75
  0
LINE
  8
0
 10
23.25
 20
-24.75
 11
23.3234
 21
-25.2135
  0
LINE
  8
0
 10
23.3234
 20
-25.2135
 11
23.5365
 21
-25.6317
  0
LINE
  8
0
 10
23.5365
 20
-25.6317
 11
23.8683
 21
-25.9635
  0
LINE
  8
0
 10
23.8683
 20
-25.9635
 11
24.2865
 21
-26.1766
  0
LINE
  8
0
 10
24.2865
 20
-26.1766
 11
24.75
 21
-26.25
  0
LINE
  8
0
 10
24.75
 20
-26.25
 11
25.2135
 21
-26.1766
  0
LINE
  8
0
 10
31.7135
 20
-32.6766
 11
32.1317
 21
-32.4635
  0
LINE
  8
0
 10
32.1317
 20
-32.4635
 11
32.4635
 21
-32.1317
  0
LINE
  8
0
 10
32.4635
 20
-32.1317
 11
32.6766
 21
-31.7135
  0
LINE
  8
0
 10
32.6766
 20
-31.7135
 11
32.75
 21
-31.25
  0
LINE
  8
0
 10
32.75
 20
-31.25
 11
32.6766
 21
-30.7865
  0
LINE
  8
0
 10
32.6766
 20
-30.7865
 11
32.4635
 21
-30.3683
  0
LINE
  8
0
 10
32.4635
 20
-30.3683
 11
32.1317
 21
-30.0365
  0
LINE
  8
0
 10
32.1317
 20
-30.0365
 11
31.7135
 21
-29.8234
  0
LINE
  8
0
 10
31.7135
 20
-29.8234
 11
31.25
 21
-29.75
  0
LINE
  8
0
 10
31.25
 20
-29.75
 11
30.7865
 21
-29.8234
  0
LINE
  8
0
 10
30.7865
 20
-29.8234
 11
30.3683
 21
-30.0365
  0
LINE
  8
0
 10
30.3683
 20
-30.0365
 11
30.0365
 21
-30.3683
  0
LINE
  8
0
 10
30.0365
 20
-30.3683
 11
29.8234
 21
-30.7865
  0
LINE
  8
0
 10
29.8234
 20
-30.7865
 11
29.75
 21
-31.25
  0
LINE
  8
0
 10
29.75
 20
-31.25
 11
29.8234
 21
-31.7135
  0
LINE
  8
0
 10
29.8234
 20
-31.7135
 11
30.0365
 21
-32.1317
  0
LINE
  8
0
 10
30.0365
 20
-32.1317
 11
30.3683
 21
-32.4635
  0
LINE
  8
0
 10
30.3683
 20
-32.4635
 11
30.7865
 21
-32.6766
  0
LINE
  8
0
 10
30.7865
 20
-32.6766
 11
31.25
 21
-32.75
  0
LINE
  8
0
 10
31.25
 20
-32.75
 11
31.7135
 21
-32.6766
  0
LINE
  8
0
 10
-30.7865
 20
-32.6766
 11
-30.3683
 21
-32.4635
  0
LINE
  8
0
 10
-30.3683
 20
-32.4635
 11
-30.0365
 21
-32.1317
  0
LINE
  8
0
 10
-30.0365
 20
-32.1317
 11
-29.8234
 21
-31.7135
  0
LINE
  8
0
 10
-29.8234
 20
-31.7135
 11
-29.75
 21
-31.25
  0
LINE
  8
0
 10
-29.75
 20
-31.25
 11
-29.8234
 21
-30.7865
  0
LINE
  8
0
 10
-29.8234
 20
-30.7865
 11
-30.0365
 21
-30.3683
  0
LINE
  8
0
 10
-30.0365
 20
-30.3683
 11
-30.3683
 21
-30.0365
  0
LINE
  8
0
 10
-30.3683
 20
-30.0365
 11
-30.7865
 21
-29.8234
  0
LINE
  8
0
 10
-30.7865
 20
-29.8234
 11
-31.25
 21
-29.75
  0
LINE
  8
0
 10
-31.25
 20
-29.75
 11
-31.7135
 21
-29.8234
  0
LINE
  8
0
 10
-31.7135
 20
-29.8234
 11
-32.1317
 21
-30.0365
  0
LINE
  8
0
 10
-32.1317
 20
-30.0365
 11
-32.4635
 21
-30.3683
  0
LINE
  8
0
 10
-32.4635
 20
-30.3683
 11
-32.6766
 21
-30.7865
  0
LINE
  8
0
 10
-32.6766
 20
-30.7865
 11
-32.75
 21
-31.25
  0
LINE
  8
0
 10
-32.75
 20
-31.25
 11
-32.6766
 21
-31.7135
  0
LINE
  8
0
 10
-32.6766
 20
-31.7135
 11
-32.4635
 21
-32.1317
  0
LINE
  8
0
 10
-32.4635
 20
-32.1317
 11
-32.1317
 21
-32.4635
  0
LINE
  8
0
 10
-32.1317
 20
-32.4635
 11
-31.7135
 21
-32.6766
  0
LINE
  8
0
 10
-31.7135
 20
-32.6766
 11
-31.25
 21
-32.75
  0
LINE
  8
0
 10
-31.25
 20
-32.75
 11
-30.7865
 21
-32.6766
  0
LINE
  8
0
 10
0.680984
 20
-36.3383
 11
1.06065
 21
-36.0624
  0
LINE
  8
0
 10
1.06065
 20
-36.0624
 11
1.3365
 21
-35.6828
  0
LINE
  8
0
 10
1.3365
 20
-35.6828
 11
1.48152
 21
-35.2364
  0
LINE
  8
0
 10
1.48152
 20
-35.2364
 11
1.48152
 21
-34.7671
  0
LINE
  8
0
 10
1.48152
 20
-34.7671
 11
1.3365
 21
-34.3208
  0
LINE
  8
0
 10
1.3365
 20
-34.3208
 11
1.06065
 21
-33.9411
  0
LINE
  8
0
 10
1.06065
 20
-33.9411
 11
0.680984
 21
-33.6653
  0
LINE
  8
0
 10
0.680984
 20
-33.6653
 11
0.23465
 21
-33.5202
  0
LINE
  8
0
 10
0.23465
 20
-33.5202
 11
-0.23465
 21
-33.5202
  0
LINE
  8
0
 10
-0.23465
 20
-33.5202
 11
-0.680984
 21
-33.6653
  0
LINE
  8
0
 10
-0.680984
 20
-33.6653
 11
-1.06065
 21
-33.9411
  0
LINE
  8
0
 10
-1.06065
 20
-33.9411
 11
-1.3365
 21
-34.3208
  0
LINE
  8
0
 10
-1.3365
 20
-34.3208
 11
-1.48152
 21
-34.7671
  0
LINE
  8
0
 10
-1.48152
 20
-34.7671
 11
-1.48152
 21
-35.2364
  0
LINE
  8
0
 10
-1.48152
 20
-35.2364
 11
-1.3365
 21
-35.6828
  0
LINE
  8
0
 10
-1.3365
 20
-35.6828
 11
-1.06065
 21
-36.0624
  0
LINE
  8
0
 10
-1.06065
 20
-36.0624
 11
-0.680984
 21
-36.3383
  0
LINE
  8
0
 10
-0.680984
 20
-36.3383
 11
-0.23465
 21
-36.4833
  0
LINE
  8
0
 10
-0.23465
 20
-36.4833
 11
0.23465
 21
-36.4833
  0
LINE
  8
0
 10
0.23465
 20
-36.4833
 11
0.680984
 21
-36.3383
  0
LINE
  8
0
 10
61.7385
 20
-62.7016
 11
62.1567
 21
-62.4885
  0
LINE
  8
0
 10
62.1567
 20
-62.4885
 11
62.4885
 21
-62.1567
  0
LINE
  8
0
 10
62.4885
 20
-62.1567
 11
62.7016
 21
-61.7385
  0
LINE
  8
0
 10
62.7016
 20
-61.7385
 11
62.775
 21
-61.275
  0
LINE
  8
0
 10
62.775
 20
-61.275
 11
62.7016
 21
-60.8115
  0
LINE
  8
0
 10
62.7016
 20
-60.8115
 11
62.4885
 21
-60.3933
  0
LINE
  8
0
 10
62.4885
 20
-60.3933
 11
62.1567
 21
-60.0615
  0
LINE
  8
0
 10
62.1567
 20
-60.0615
 11
61.7385
 21
-59.8484
  0
LINE
  8
0
 10
61.7385
 20
-59.8484
 11
61.275
 21
-59.775
  0
LINE
  8
0
 10
61.275
 20
-59.775
 11
60.8114
 21
-59.8484
  0
LINE
  8
0
 10
60.8114
 20
-59.8484
 11
60.3933
 21
-60.0615
  0
LINE
  8
0
 10
60.3933
 20
-60.0615
 11
60.0614
 21
-60.3933
  0
LINE
  8
0
 10
60.0614
 20
-60.3933
 11
59.8484
 21
-60.8115
  0
LINE
  8
0
 10
59.8484
 20
-60.8115
 11
59.775
 21
-61.275
  0
LINE
  8
0
 10
59.775
 20
-61.275
 11
59.8484
 21
-61.7385
  0
LINE
  8
0
 10
59.8484
 20
-61.7385
 11
60.0614
 21
-62.1567
  0
LINE
  8
0
 10
60.0614
 20
-62.1567
 11
60.3933
 21
-62.4885
  0
LINE
  8
0
 10
60.3933
 20
-62.4885
 11
60.8114
 21
-62.7016
  0
LINE
  8
0
 10
60.8114
 20
-62.7016
 11
61.275
 21
-62.775
  0
LINE
  8
0
 10
61.275
 20
-62.775
 11
61.7385
 21
-62.7016
  0
LINE
  8
0
 10
-60.8115
 20
-62.7016
 11
-60.3933
 21
-62.4885
  0
LINE
  8
0
 10
-60.3933
 20
-62.4885
 11
-60.0615
 21
-62.1567
  0
LINE
  8
0
 10
-60.0615
 20
-62.1567
 11
-59.8484
 21
-61.7385
  0
LINE
  8
0
 10
-59.8484
 20
-61.7385
 11
-59.775
 21
-61.275
  0
LINE
  8
0
 10
-59.775
 20
-61.275
 11
-59.8484
 21
-60.8115
  0
LINE
  8
0
 10
-59.8484
 20
-60.8115
 11
-60.0615
 21
-60.3933
  0
LINE
  8
0
 10
-60.0615
 20
-60.3933
 11
-60.3933
 21
-60.0615
  0
LINE
  8
0
 10
-60.3933
 20
-60.0615
 11
-60.8115
 21
-59.8484
  0
LINE
  8
0
 10
-60.8115
 20
-59.8484
 11
-61.275
 21
-59.775
  0
LINE
  8
0
 10
-61.275
 20
-59.775
 11
-61.7385
 21
-59.8484
  0
LINE
  8
0
 10
-61.7385
 20
-59.8484
 11
-62.1567
 21
-60.0615
  0
LINE
  8
0
 10
-62.1567
 20
-60.0615
 11
-62.4885
 21
-60.3933
  0
LINE
  8
0
 10
-62.4885
 20
-60.3933
 11
-62.7016
 21
-60.8115
  0
LINE
  8
0
 10
-62.7016
 20
-60.8115
 11
-62.775
 21
-61.275
  0
LINE
  8
0
 10
-62.775
 20
-61.275
 11
-62.7016
 21
-61.7385
  0
LINE
  8
0
 10
-62.7016
 20
-61.7385
 11
-62.4885
 21
-62.1567
  0
LINE
  8
0
 10
-62.4885
 20
-62.1567
 11
-62.1567
 21
-62.4885
  0
LINE
  8
0
 10
-62.1567
 20
-62.4885
 11
-61.7385
 21
-62.7016
  0
LINE
  8
0
 10
-61.7385
 20
-62.7016
 11
-61.275
 21
-62.775
  0
LINE
  8
0
 10
-61.275
 20
-62.775
 11
-60.8115
 21
-62.7016
  0
LINE
  8
0
 10
0.680984
 20
-87.9924
 11
1.06065
 21
-87.7166
  0
LINE
  8
0
 10
1.06065
 20
-87.7166
 11
1.33652
 21
-87.3369
  0
LINE
  8
0
 10
1.33652
 20
-87.3369
 11
1.48154
 21
-86.8906
  0
LINE
  8
0
 10
1.48154
 20
-86.8906
 11
1.48154
 21
-86.4213
  0
LINE
  8
0
 10
1.48154
 20
-86.4213
 11
1.33652
 21
-85.9749
  0
LINE
  8
0
 10
1.33652
 20
-85.9749
 11
1.06065
 21
-85.5953
  0
LINE
  8
0
 10
1.06065
 20
-85.5953
 11
0.680984
 21
-85.3194
  0
LINE
  8
0
 10
0.680984
 20
-85.3194
 11
0.23465
 21
-85.1744
  0
LINE
  8
0
 10
0.23465
 20
-85.1744
 11
-0.23465
 21
-85.1744
  0
LINE
  8
0
 10
-0.23465
 20
-85.1744
 11
-0.680984
 21
-85.3194
  0
LINE
  8
0
 10
-0.680984
 20
-85.3194
 11
-1.06065
 21
-85.5953
  0
LINE
  8
0
 10
-1.06065
 20
-85.5953
 11
-1.33652
 21
-85.9749
  0
LINE
  8
0
 10
-1.33652
 20
-85.9749
 11
-1.48154
 21
-86.4213
  0
LINE
  8
0
 10
-1.48154
 20
-86.4213
 11
-1.48154
 21
-86.8906
  0
LINE
  8
0
 10
-1.48154
 20
-86.8906
 11
-1.33652
 21
-87.3369
  0
LINE
  8
0
 10
-1.33652
 20
-87.3369
 11
-1.06065
 21
-87.7166
  0
LINE
  8
0
 10
-1.06065
 20
-87.7166
 11
-0.680984
 21
-87.9924
  0
LINE
  8
0
 10
-0.680984
 20
-87.9924
 11
-0.23465
 21
-88.1375
  0
LINE
  8
0
 10
-0.23465
 20
-88.1375
 11
0.23465
 21
-88.1375
  0
LINE
  8
0
 10
0.23465
 20
-88.1375
 11
0.680984
 21
-87.9924
  0
LINE
  8
0
 10
0.156784
 20
-152.052
 11
0.311859
 21
-152.027
  0
LINE
  8
0
 10
0.311859
 20
-152.027
 11
0.463516
 21
-151.987
  0
LINE
  8
0
 10
0.463516
 20
-151.987
 11
0.610092
 21
-151.93
  0
LINE
  8
0
 10
0.610092
 20
-151.93
 11
0.749985
 21
-151.859
  0
LINE
  8
0
 10
0.749985
 20
-151.859
 11
0.881668
 21
-151.774
  0
LINE
  8
0
 10
0.881668
 20
-151.774
 11
1.00369
 21
-151.675
  0
LINE
  8
0
 10
1.00369
 20
-151.675
 11
1.11472
 21
-151.564
  0
LINE
  8
0
 10
1.11472
 20
-151.564
 11
1.21352
 21
-151.442
  0
LINE
  8
0
 10
1.21352
 20
-151.442
 11
1.29903
 21
-151.31
  0
LINE
  8
0
 10
1.29903
 20
-151.31
 11
1.37032
 21
-151.17
  0
LINE
  8
0
 10
1.37032
 20
-151.17
 11
1.42657
 21
-151.024
  0
LINE
  8
0
 10
1.42657
 20
-151.024
 11
1.46721
 21
-150.872
  0
LINE
  8
0
 10
1.46721
 20
-150.872
 11
1.49178
 21
-150.717
  0
LINE
  8
0
 10
1.49178
 20
-150.717
 11
1.49998
 21
-150.56
  0
LINE
  8
0
 10
1.49998
 20
-150.56
 11
1.49178
 21
-150.403
  0
LINE
  8
0
 10
1.49178
 20
-150.403
 11
1.46721
 21
-150.248
  0
LINE
  8
0
 10
1.46721
 20
-150.248
 11
1.42657
 21
-150.096
  0
LINE
  8
0
 10
1.42657
 20
-150.096
 11
1.37032
 21
-149.95
  0
LINE
  8
0
 10
1.37032
 20
-149.95
 11
1.29903
 21
-149.81
  0
LINE
  8
0
 10
1.29903
 20
-149.81
 11
1.21352
 21
-149.678
  0
LINE
  8
0
 10
1.21352
 20
-149.678
 11
1.11472
 21
-149.556
  0
LINE
  8
0
 10
1.11472
 20
-149.556
 11
1.00369
 21
-149.445
  0
LINE
  8
0
 10
1.00369
 20
-149.445
 11
0.881668
 21
-149.346
  0
LINE
  8
0
 10
0.881668
 20
-149.346
 11
0.749985
 21
-149.261
  0
LINE
  8
0
 10
0.749985
 20
-149.261
 11
0.610092
 21
-149.19
  0
LINE
  8
0
 10
0.610092
 20
-149.19
 11
0.463516
 21
-149.133
  0
LINE
  8
0
 10
0.463516
 20
-149.133
 11
0.311859
 21
-149.093
  0
LINE
  8
0
 10
0.311859
 20
-149.093
 11
0.156784
 21
-149.068
  0
LINE
  8
0
 10
0.156784
 20
-149.068
 11
0
 21
-149.06
  0
LINE
  8
0
 10
0
 20
-149.06
 11
-0.156784
 21
-149.068
  0
LINE
  8
0
 10
-0.156784
 20
-149.068
 11
-0.311859
 21
-149.093
  0
LINE
  8
0
 10
-0.311859
 20
-149.093
 11
-0.463516
 21
-149.133
  0
LINE
  8
0
 10
-0.463516
 20
-149.133
 11
-0.610092
 21
-149.19
  0
LINE
  8
0
 10
-0.610092
 20
-149.19
 11
-0.75
 21
-149.261
  0
LINE
  8
0
 10
-0.75
 20
-149.261
 11
-0.881668
 21
-149.346
  0
LINE
  8
0
 10
-0.881668
 20
-149.346
 11
-1.00369
 21
-149.445
  0
LINE
  8
0
 10
-1.00369
 20
-149.445
 11
-1.11472
 21
-149.556
  0
LINE
  8
0
 10
-1.11472
 20
-149.556
 11
-1.21352
 21
-149.678
  0
LINE
  8
0
 10
-1.21352
 20
-149.678
 11
-1.29903
 21
-149.81
  0
LINE
  8
0
 10
-1.29903
 20
-149.81
 11
-1.37032
 21
-149.95
  0
LINE
  8
0
 10
-1.37032
 20
-149.95
 11
-1.42657
 21
-150.096
  0
LINE
  8
0
 10
-1.42657
 20
-150.096
 11
-1.46721
 21
-150.248
  0
LINE
  8
0
 10
-1.46721
 20
-150.248
 11
-1.49178
 21
-150.403
  0
LINE
  8
0
 10
-1.49178
 20
-150.403
 11
-1.5
 21
-150.56
  0
LINE
  8
0
 10
-1.5
 20
-150.56
 11
-1.49178
 21
-150.717
  0
LINE
  8
0
 10
-1.49178
 20
-150.717
 11
-1.46721
 21
-150.872
  0
LINE
  8
0
 10
-1.46721
 20
-150.872
 11
-1.42657
 21
-151.024
  0
LINE
  8
0
 10
-1.42657
 20
-151.024
 11
-1.37032
 21
-151.17
  0
LINE
  8
0
 10
-1.37032
 20
-151.17
 11
-1.29903
 21
-151.31
  0
LINE
  8
0
 10
-1.29903
 20
-151.31
 11
-1.21352
 21
-151.442
  0
LINE
  8
0
 10
-1.21352
 20
-151.442
 11
-1.11472
 21
-151.564
  0
LINE
  8
0
 10
-1.11472
 20
-151.564
 11
-1.00369
 21
-151.675
  0
LINE
  8
0
 10
-1.00369
 20
-151.675
 11
-0.881668
 21
-151.774
  0
LINE
  8
0
 10
-0.881668
 20
-151.774
 11
-0.75
 21
-151.859
  0
LINE
  8
0
 10
-0.75
 20
-151.859
 11
-0.610092
 21
-151.93
  0
LINE
  8
0
 10
-0.610092
 20
-151.93
 11
-0.463516
 21
-151.987
  0
LINE
  8
0
 10
-0.463516
 20
-151.987
 11
-0.311859
 21
-152.027
  0
LINE
  8
0
 10
-0.311859
 20
-152.027
 11
-0.156784
 21
-152.052
  0
LINE
  8
0
 10
-0.156784
 20
-152.052
 11
0
 21
-152.06
  0
LINE
  8
0
 10
0
 20
-152.06
 11
0.156784
 21
-152.052
  0
ENDSEC
  0
SECTION
  2
OBJECTS
  0
DICTIONARY
  0
ENDSEC
  0
EOF
