  0
SECTION
  2
BLOCKS
  0
ENDSEC
  0
SECTION
  2
ENTITIES
  0
LINE
  8
0
 10
155.917
 20
-0.353546
 11
155.563
 21
0
  0
LINE
  8
0
 10
155.563
 20
0
 11
155.917
 21
0.353546
  0
LINE
  8
0
 10
155.917
 20
0.353546
 11
0.353546
 21
155.917
  0
LINE
  8
0
 10
0.353546
 20
155.917
 11
0
 21
155.563
  0
LINE
  8
0
 10
0
 20
155.563
 11
-0.353546
 21
155.917
  0
LINE
  8
0
 10
-0.353546
 20
155.917
 11
-155.917
 21
0.353546
  0
LINE
  8
0
 10
-155.917
 20
0.353546
 11
-155.563
 21
0
  0
LINE
  8
0
 10
-155.563
 20
0
 11
-155.917
 21
-0.353546
  0
LINE
  8
0
 10
-155.917
 20
-0.353546
 11
-0.353546
 21
-155.917
  0
LINE
  8
0
 10
-0.353546
 20
-155.917
 11
0
 21
-155.563
  0
LINE
  8
0
 10
0
 20
-155.563
 11
0.353546
 21
-155.917
  0
LINE
  8
0
 10
0.353546
 20
-155.917
 11
155.917
 21
-0.353546
  0
LINE
  8
0
 10
-154.856
 20
0
 11
0
 21
154.856
  0
LINE
  8
0
 10
0
 20
154.856
 11
154.856
 21
0
  0
LINE
  8
0
 10
154.856
 20
0
 11
0
 21
-154.856
  0
LINE
  8
0
 10
0
 20
-154.856
 11
-154.856
 21
0
  0
LINE
  8
0
 10
61.7385
 20
59.8484
 11
62.1567
 21
60.0614
  0
LINE
  8
0
 10
62.1567
 20
60.0614
 11
62.4885
 21
60.3933
  0
LINE
  8
0
 10
62.4885
 20
60.3933
 11
62.7016
 21
60.8114
  0
LINE
  8
0
 10
62.7016
 20
60.8114
 11
62.775
 21
61.275
  0
LINE
  8
0
 10
62.775
 20
61.275
 11
62.7016
 21
61.7385
  0
LINE
  8
0
 10
62.7016
 20
61.7385
 11
62.4885
 21
62.1567
  0
LINE
  8
0
 10
62.4885
 20
62.1567
 11
62.1567
 21
62.4885
  0
LINE
  8
0
 10
62.1567
 20
62.4885
 11
61.7385
 21
62.7016
  0
LINE
  8
0
 10
61.7385
 20
62.7016
 11
61.275
 21
62.775
  0
LINE
  8
0
 10
61.275
 20
62.775
 11
60.8115
 21
62.7016
  0
LINE
  8
0
 10
60.8115
 20
62.7016
 11
60.3933
 21
62.4885
  0
LINE
  8
0
 10
60.3933
 20
62.4885
 11
60.0615
 21
62.1567
  0
LINE
  8
0
 10
60.0615
 20
62.1567
 11
59.8484
 21
61.7385
  0
LINE
  8
0
 10
59.8484
 20
61.7385
 11
59.775
 21
61.275
  0
LINE
  8
0
 10
59.775
 20
61.275
 11
59.8484
 21
60.8114
  0
LINE
  8
0
 10
59.8484
 20
60.8114
 11
60.0615
 21
60.3933
  0
LINE
  8
0
 10
60.0615
 20
60.3933
 11
60.3933
 21
60.0614
  0
LINE
  8
0
 10
60.3933
 20
60.0614
 11
60.8115
 21
59.8484
  0
LINE
  8
0
 10
60.8115
 20
59.8484
 11
61.275
 21
59.775
  0
LINE
  8
0
 10
61.275
 20
59.775
 11
61.7385
 21
59.8484
  0
LINE
  8
0
 10
-60.8115
 20
59.8484
 11
-60.3933
 21
60.0614
  0
LINE
  8
0
 10
-60.3933
 20
60.0614
 11
-60.0615
 21
60.3933
  0
LINE
  8
0
 10
-60.0615
 20
60.3933
 11
-59.8484
 21
60.8114
  0
LINE
  8
0
 10
-59.8484
 20
60.8114
 11
-59.775
 21
61.275
  0
LINE
  8
0
 10
-59.775
 20
61.275
 11
-59.8484
 21
61.7385
  0
LINE
  8
0
 10
-59.8484
 20
61.7385
 11
-60.0615
 21
62.1567
  0
LINE
  8
0
 10
-60.0615
 20
62.1567
 11
-60.3933
 21
62.4885
  0
LINE
  8
0
 10
-60.3933
 20
62.4885
 11
-60.8115
 21
62.7016
  0
LINE
  8
0
 10
-60.8115
 20
62.7016
 11
-61.275
 21
62.775
  0
LINE
  8
0
 10
-61.275
 20
62.775
 11
-61.7385
 21
62.7016
  0
LINE
  8
0
 10
-61.7385
 20
62.7016
 11
-62.1567
 21
62.4885
  0
LINE
  8
0
 10
-62.1567
 20
62.4885
 11
-62.4885
 21
62.1567
  0
LINE
  8
0
 10
-62.4885
 20
62.1567
 11
-62.7016
 21
61.7385
  0
LINE
  8
0
 10
-62.7016
 20
61.7385
 11
-62.775
 21
61.275
  0
LINE
  8
0
 10
-62.775
 20
61.275
 11
-62.7016
 21
60.8114
  0
LINE
  8
0
 10
-62.7016
 20
60.8114
 11
-62.4885
 21
60.3933
  0
LINE
  8
0
 10
-62.4885
 20
60.3933
 11
-62.1567
 21
60.0614
  0
LINE
  8
0
 10
-62.1567
 20
60.0614
 11
-61.7385
 21
59.8484
  0
LINE
  8
0
 10
-61.7385
 20
59.8484
 11
-61.275
 21
59.775
  0
LINE
  8
0
 10
-61.275
 20
59.775
 11
-60.8115
 21
59.8484
  0
LINE
  8
0
 10
31.7135
 20
29.8234
 11
32.1317
 21
30.0365
  0
LINE
  8
0
 10
32.1317
 20
30.0365
 11
32.4635
 21
30.3683
  0
LINE
  8
0
 10
32.4635
 20
30.3683
 11
32.6766
 21
30.7865
  0
LINE
  8
0
 10
32.6766
 20
30.7865
 11
32.75
 21
31.25
  0
LINE
  8
0
 10
32.75
 20
31.25
 11
32.6766
 21
31.7135
  0
LINE
  8
0
 10
32.6766
 20
31.7135
 11
32.4635
 21
32.1317
  0
LINE
  8
0
 10
32.4635
 20
32.1317
 11
32.1317
 21
32.4635
  0
LINE
  8
0
 10
32.1317
 20
32.4635
 11
31.7135
 21
32.6766
  0
LINE
  8
0
 10
31.7135
 20
32.6766
 11
31.25
 21
32.75
  0
LINE
  8
0
 10
31.25
 20
32.75
 11
30.7865
 21
32.6766
  0
LINE
  8
0
 10
30.7865
 20
32.6766
 11
30.3683
 21
32.4635
  0
LINE
  8
0
 10
30.3683
 20
32.4635
 11
30.0365
 21
32.1317
  0
LINE
  8
0
 10
30.0365
 20
32.1317
 11
29.8234
 21
31.7135
  0
LINE
  8
0
 10
29.8234
 20
31.7135
 11
29.75
 21
31.25
  0
LINE
  8
0
 10
29.75
 20
31.25
 11
29.8234
 21
30.7865
  0
LINE
  8
0
 10
29.8234
 20
30.7865
 11
30.0365
 21
30.3683
  0
LINE
  8
0
 10
30.0365
 20
30.3683
 11
30.3683
 21
30.0365
  0
LINE
  8
0
 10
30.3683
 20
30.0365
 11
30.7865
 21
29.8234
  0
LINE
  8
0
 10
30.7865
 20
29.8234
 11
31.25
 21
29.75
  0
LINE
  8
0
 10
31.25
 20
29.75
 11
31.7135
 21
29.8234
  0
LINE
  8
0
 10
-30.7865
 20
29.8234
 11
-30.3683
 21
30.0365
  0
LINE
  8
0
 10
-30.3683
 20
30.0365
 11
-30.0365
 21
30.3683
  0
LINE
  8
0
 10
-30.0365
 20
30.3683
 11
-29.8234
 21
30.7865
  0
LINE
  8
0
 10
-29.8234
 20
30.7865
 11
-29.75
 21
31.25
  0
LINE
  8
0
 10
-29.75
 20
31.25
 11
-29.8234
 21
31.7135
  0
LINE
  8
0
 10
-29.8234
 20
31.7135
 11
-30.0365
 21
32.1317
  0
LINE
  8
0
 10
-30.0365
 20
32.1317
 11
-30.3683
 21
32.4635
  0
LINE
  8
0
 10
-30.3683
 20
32.4635
 11
-30.7865
 21
32.6766
  0
LINE
  8
0
 10
-30.7865
 20
32.6766
 11
-31.25
 21
32.75
  0
LINE
  8
0
 10
-31.25
 20
32.75
 11
-31.7135
 21
32.6766
  0
LINE
  8
0
 10
-31.7135
 20
32.6766
 11
-32.1317
 21
32.4635
  0
LINE
  8
0
 10
-32.1317
 20
32.4635
 11
-32.4635
 21
32.1317
  0
LINE
  8
0
 10
-32.4635
 20
32.1317
 11
-32.6766
 21
31.7135
  0
LINE
  8
0
 10
-32.6766
 20
31.7135
 11
-32.75
 21
31.25
  0
LINE
  8
0
 10
-32.75
 20
31.25
 11
-32.6766
 21
30.7865
  0
LINE
  8
0
 10
-32.6766
 20
30.7865
 11
-32.4635
 21
30.3683
  0
LINE
  8
0
 10
-32.4635
 20
30.3683
 11
-32.1317
 21
30.0365
  0
LINE
  8
0
 10
-32.1317
 20
30.0365
 11
-31.7135
 21
29.8234
  0
LINE
  8
0
 10
-31.7135
 20
29.8234
 11
-31.25
 21
29.75
  0
LINE
  8
0
 10
-31.25
 20
29.75
 11
-30.7865
 21
29.8234
  0
LINE
  8
0
 10
25.2135
 20
23.3234
 11
25.6317
 21
23.5365
  0
LINE
  8
0
 10
25.6317
 20
23.5365
 11
25.9635
 21
23.8683
  0
LINE
  8
0
 10
25.9635
 20
23.8683
 11
26.1766
 21
24.2865
  0
LINE
  8
0
 10
26.1766
 20
24.2865
 11
26.25
 21
24.75
  0
LINE
  8
0
 10
26.25
 20
24.75
 11
26.1766
 21
25.2135
  0
LINE
  8
0
 10
26.1766
 20
25.2135
 11
25.9635
 21
25.6317
  0
LINE
  8
0
 10
25.9635
 20
25.6317
 11
25.6317
 21
25.9635
  0
LINE
  8
0
 10
25.6317
 20
25.9635
 11
25.2135
 21
26.1766
  0
LINE
  8
0
 10
25.2135
 20
26.1766
 11
24.75
 21
26.25
  0
LINE
  8
0
 10
24.75
 20
26.25
 11
24.2865
 21
26.1766
  0
LINE
  8
0
 10
24.2865
 20
26.1766
 11
23.8683
 21
25.9635
  0
LINE
  8
0
 10
23.8683
 20
25.9635
 11
23.5365
 21
25.6317
  0
LINE
  8
0
 10
23.5365
 20
25.6317
 11
23.3234
 21
25.2135
  0
LINE
  8
0
 10
23.3234
 20
25.2135
 11
23.25
 21
24.75
  0
LINE
  8
0
 10
23.25
 20
24.75
 11
23.3234
 21
24.2865
  0
LINE
  8
0
 10
23.3234
 20
24.2865
 11
23.5365
 21
23.8683
  0
LINE
  8
0
 10
23.5365
 20
23.8683
 11
23.8683
 21
23.5365
  0
LINE
  8
0
 10
23.8683
 20
23.5365
 11
24.2865
 21
23.3234
  0
LINE
  8
0
 10
24.2865
 20
23.3234
 11
24.75
 21
23.25
  0
LINE
  8
0
 10
24.75
 20
23.25
 11
25.2135
 21
23.3234
  0
LINE
  8
0
 10
-24.2865
 20
23.3234
 11
-23.8683
 21
23.5365
  0
LINE
  8
0
 10
-23.8683
 20
23.5365
 11
-23.5365
 21
23.8683
  0
LINE
  8
0
 10
-23.5365
 20
23.8683
 11
-23.3234
 21
24.2865
  0
LINE
  8
0
 10
-23.3234
 20
24.2865
 11
-23.25
 21
24.75
  0
LINE
  8
0
 10
-23.25
 20
24.75
 11
-23.3234
 21
25.2135
  0
LINE
  8
0
 10
-23.3234
 20
25.2135
 11
-23.5365
 21
25.6317
  0
LINE
  8
0
 10
-23.5365
 20
25.6317
 11
-23.8683
 21
25.9635
  0
LINE
  8
0
 10
-23.8683
 20
25.9635
 11
-24.2865
 21
26.1766
  0
LINE
  8
0
 10
-24.2865
 20
26.1766
 11
-24.75
 21
26.25
  0
LINE
  8
0
 10
-24.75
 20
26.25
 11
-25.2135
 21
26.1766
  0
LINE
  8
0
 10
-25.2135
 20
26.1766
 11
-25.6317
 21
25.9635
  0
LINE
  8
0
 10
-25.6317
 20
25.9635
 11
-25.9635
 21
25.6317
  0
LINE
  8
0
 10
-25.9635
 20
25.6317
 11
-26.1766
 21
25.2135
  0
LINE
  8
0
 10
-26.1766
 20
25.2135
 11
-26.25
 21
24.75
  0
LINE
  8
0
 10
-26.25
 20
24.75
 11
-26.1766
 21
24.2865
  0
LINE
  8
0
 10
-26.1766
 20
24.2865
 11
-25.9635
 21
23.8683
  0
LINE
  8
0
 10
-25.9635
 20
23.8683
 11
-25.6317
 21
23.5365
  0
LINE
  8
0
 10
-25.6317
 20
23.5365
 11
-25.2135
 21
23.3234
  0
LINE
  8
0
 10
-25.2135
 20
23.3234
 11
-24.75
 21
23.25
  0
LINE
  8
0
 10
-24.75
 20
23.25
 11
-24.2865
 21
23.3234
  0
LINE
  8
0
 10
0.463516
 20
20.4934
 11
0.881668
 21
20.7065
  0
LINE
  8
0
 10
0.881668
 20
20.7065
 11
1.21352
 21
21.0383
  0
LINE
  8
0
 10
1.21352
 20
21.0383
 11
1.42657
 21
21.4565
  0
LINE
  8
0
 10
1.42657
 20
21.4565
 11
1.5
 21
21.92
  0
LINE
  8
0
 10
1.5
 20
21.92
 11
1.42657
 21
22.3835
  0
LINE
  8
0
 10
1.42657
 20
22.3835
 11
1.21352
 21
22.8017
  0
LINE
  8
0
 10
1.21352
 20
22.8017
 11
0.881668
 21
23.1335
  0
LINE
  8
0
 10
0.881668
 20
23.1335
 11
0.463516
 21
23.3466
  0
LINE
  8
0
 10
0.463516
 20
23.3466
 11
0
 21
23.42
  0
LINE
  8
0
 10
0
 20
23.42
 11
-0.463516
 21
23.3466
  0
LINE
  8
0
 10
-0.463516
 20
23.3466
 11
-0.881668
 21
23.1335
  0
LINE
  8
0
 10
-0.881668
 20
23.1335
 11
-1.21352
 21
22.8017
  0
LINE
  8
0
 10
-1.21352
 20
22.8017
 11
-1.42657
 21
22.3835
  0
LINE
  8
0
 10
-1.42657
 20
22.3835
 11
-1.5
 21
21.92
  0
LINE
  8
0
 10
-1.5
 20
21.92
 11
-1.42657
 21
21.4565
  0
LINE
  8
0
 10
-1.42657
 20
21.4565
 11
-1.21352
 21
21.0383
  0
LINE
  8
0
 10
-1.21352
 20
21.0383
 11
-0.881668
 21
20.7065
  0
LINE
  8
0
 10
-0.881668
 20
20.7065
 11
-0.463516
 21
20.4934
  0
LINE
  8
0
 10
-0.463516
 20
20.4934
 11
0
 21
20.42
  0
LINE
  8
0
 10
0
 20
20.42
 11
0.463516
 21
20.4934
  0
LINE
  8
0
 10
18.7135
 20
16.8234
 11
19.1317
 21
17.0365
  0
LINE
  8
0
 10
19.1317
 20
17.0365
 11
19.4635
 21
17.3683
  0
LINE
  8
0
 10
19.4635
 20
17.3683
 11
19.6766
 21
17.7865
  0
LINE
  8
0
 10
19.6766
 20
17.7865
 11
19.75
 21
18.25
  0
LINE
  8
0
 10
19.75
 20
18.25
 11
19.6766
 21
18.7135
  0
LINE
  8
0
 10
19.6766
 20
18.7135
 11
19.4635
 21
19.1317
  0
LINE
  8
0
 10
19.4635
 20
19.1317
 11
19.1317
 21
19.4635
  0
LINE
  8
0
 10
19.1317
 20
19.4635
 11
18.7135
 21
19.6766
  0
LINE
  8
0
 10
18.7135
 20
19.6766
 11
18.25
 21
19.75
  0
LINE
  8
0
 10
18.25
 20
19.75
 11
17.7865
 21
19.6766
  0
LINE
  8
0
 10
17.7865
 20
19.6766
 11
17.3683
 21
19.4635
  0
LINE
  8
0
 10
17.3683
 20
19.4635
 11
17.0365
 21
19.1317
  0
LINE
  8
0
 10
17.0365
 20
19.1317
 11
16.8234
 21
18.7135
  0
LINE
  8
0
 10
16.8234
 20
18.7135
 11
16.75
 21
18.25
  0
LINE
  8
0
 10
16.75
 20
18.25
 11
16.8234
 21
17.7865
  0
LINE
  8
0
 10
16.8234
 20
17.7865
 11
17.0365
 21
17.3683
  0
LINE
  8
0
 10
17.0365
 20
17.3683
 11
17.3683
 21
17.0365
  0
LINE
  8
0
 10
17.3683
 20
17.0365
 11
17.7865
 21
16.8234
  0
LINE
  8
0
 10
17.7865
 20
16.8234
 11
18.25
 21
16.75
  0
LINE
  8
0
 10
18.25
 20
16.75
 11
18.7135
 21
16.8234
  0
LINE
  8
0
 10
-17.7865
 20
16.8234
 11
-17.3683
 21
17.0365
  0
LINE
  8
0
 10
-17.3683
 20
17.0365
 11
-17.0365
 21
17.3683
  0
LINE
  8
0
 10
-17.0365
 20
17.3683
 11
-16.8234
 21
17.7865
  0
LINE
  8
0
 10
-16.8234
 20
17.7865
 11
-16.75
 21
18.25
  0
LINE
  8
0
 10
-16.75
 20
18.25
 11
-16.8234
 21
18.7135
  0
LINE
  8
0
 10
-16.8234
 20
18.7135
 11
-17.0365
 21
19.1317
  0
LINE
  8
0
 10
-17.0365
 20
19.1317
 11
-17.3683
 21
19.4635
  0
LINE
  8
0
 10
-17.3683
 20
19.4635
 11
-17.7865
 21
19.6766
  0
LINE
  8
0
 10
-17.7865
 20
19.6766
 11
-18.25
 21
19.75
  0
LINE
  8
0
 10
-18.25
 20
19.75
 11
-18.7135
 21
19.6766
  0
LINE
  8
0
 10
-18.7135
 20
19.6766
 11
-19.1317
 21
19.4635
  0
LINE
  8
0
 10
-19.1317
 20
19.4635
 11
-19.4635
 21
19.1317
  0
LINE
  8
0
 10
-19.4635
 20
19.1317
 11
-19.6766
 21
18.7135
  0
LINE
  8
0
 10
-19.6766
 20
18.7135
 11
-19.75
 21
18.25
  0
LINE
  8
0
 10
-19.75
 20
18.25
 11
-19.6766
 21
17.7865
  0
LINE
  8
0
 10
-19.6766
 20
17.7865
 11
-19.4635
 21
17.3683
  0
LINE
  8
0
 10
-19.4635
 20
17.3683
 11
-19.1317
 21
17.0365
  0
LINE
  8
0
 10
-19.1317
 20
17.0365
 11
-18.7135
 21
16.8234
  0
LINE
  8
0
 10
-18.7135
 20
16.8234
 11
-18.25
 21
16.75
  0
LINE
  8
0
 10
-18.25
 20
16.75
 11
-17.7865
 21
16.8234
  0
LINE
  8
0
 10
-21.4565
 20
-1.42657
 11
-21.0383
 21
-1.21352
  0
LINE
  8
0
 10
-21.0383
 20
-1.21352
 11
-20.7065
 21
-0.881668
  0
LINE
  8
0
 10
-20.7065
 20
-0.881668
 11
-20.4934
 21
-0.463516
  0
LINE
  8
0
 10
-20.4934
 20
-0.463516
 11
-20.42
 21
0
  0
LINE
  8
0
 10
-20.42
 20
0
 11
-20.4934
 21
0.463516
  0
LINE
  8
0
 10
-20.4934
 20
0.463516
 11
-20.7065
 21
0.881668
  0
LINE
  8
0
 10
-20.7065
 20
0.881668
 11
-21.0383
 21
1.21352
  0
LINE
  8
0
 10
-21.0383
 20
1.21352
 11
-21.4565
 21
1.42657
  0
LINE
  8
0
 10
-21.4565
 20
1.42657
 11
-21.92
 21
1.5
  0
LINE
  8
0
 10
-21.92
 20
1.5
 11
-22.3835
 21
1.42657
  0
LINE
  8
0
 10
-22.3835
 20
1.42657
 11
-22.8017
 21
1.21352
  0
LINE
  8
0
 10
-22.8017
 20
1.21352
 11
-23.1335
 21
0.881668
  0
LINE
  8
0
 10
-23.1335
 20
0.881668
 11
-23.3466
 21
0.463516
  0
LINE
  8
0
 10
-23.3466
 20
0.463516
 11
-23.42
 21
0
  0
LINE
  8
0
 10
-23.42
 20
0
 11
-23.3466
 21
-0.463516
  0
LINE
  8
0
 10
-23.3466
 20
-0.463516
 11
-23.1335
 21
-0.881668
  0
LINE
  8
0
 10
-23.1335
 20
-0.881668
 11
-22.8017
 21
-1.21352
  0
LINE
  8
0
 10
-22.8017
 20
-1.21352
 11
-22.3835
 21
-1.42657
  0
LINE
  8
0
 10
-22.3835
 20
-1.42657
 11
-21.92
 21
-1.5
  0
LINE
  8
0
 10
-21.92
 20
-1.5
 11
-21.4565
 21
-1.42657
  0
LINE
  8
0
 10
22.3835
 20
-1.42657
 11
22.8017
 21
-1.21352
  0
LINE
  8
0
 10
22.8017
 20
-1.21352
 11
23.1335
 21
-0.881668
  0
LINE
  8
0
 10
23.1335
 20
-0.881668
 11
23.3466
 21
-0.463516
  0
LINE
  8
0
 10
23.3466
 20
-0.463516
 11
23.42
 21
0
  0
LINE
  8
0
 10
23.42
 20
0
 11
23.3466
 21
0.463516
  0
LINE
  8
0
 10
23.3466
 20
0.463516
 11
23.1335
 21
0.881668
  0
LINE
  8
0
 10
23.1335
 20
0.881668
 11
22.8017
 21
1.21352
  0
LINE
  8
0
 10
22.8017
 20
1.21352
 11
22.3835
 21
1.42657
  0
LINE
  8
0
 10
22.3835
 20
1.42657
 11
21.92
 21
1.5
  0
LINE
  8
0
 10
21.92
 20
1.5
 11
21.4565
 21
1.42657
  0
LINE
  8
0
 10
21.4565
 20
1.42657
 11
21.0383
 21
1.21352
  0
LINE
  8
0
 10
21.0383
 20
1.21352
 11
20.7065
 21
0.881668
  0
LINE
  8
0
 10
20.7065
 20
0.881668
 11
20.4934
 21
0.463516
  0
LINE
  8
0
 10
20.4934
 20
0.463516
 11
20.42
 21
0
  0
LINE
  8
0
 10
20.42
 20
0
 11
20.4934
 21
-0.463516
  0
LINE
  8
0
 10
20.4934
 20
-0.463516
 11
20.7065
 21
-0.881668
  0
LINE
  8
0
 10
20.7065
 20
-0.881668
 11
21.0383
 21
-1.21352
  0
LINE
  8
0
 10
21.0383
 20
-1.21352
 11
21.4565
 21
-1.42657
  0
LINE
  8
0
 10
21.4565
 20
-1.42657
 11
21.92
 21
-1.5
  0
LINE
  8
0
 10
21.92
 20
-1.5
 11
22.3835
 21
-1.42657
  0
LINE
  8
0
 10
0.463516
 20
-1.42657
 11
0.881668
 21
-1.21352
  0
LINE
  8
0
 10
0.881668
 20
-1.21352
 11
1.21352
 21
-0.881668
  0
LINE
  8
0
 10
1.21352
 20
-0.881668
 11
1.42657
 21
-0.463516
  0
LINE
  8
0
 10
1.42657
 20
-0.463516
 11
1.5
 21
0
  0
LINE
  8
0
 10
1.5
 20
0
 11
1.42657
 21
0.463516
  0
LINE
  8
0
 10
1.42657
 20
0.463516
 11
1.21352
 21
0.881668
  0
LINE
  8
0
 10
1.21352
 20
0.881668
 11
0.881668
 21
1.21352
  0
LINE
  8
0
 10
0.881668
 20
1.21352
 11
0.463516
 21
1.42657
  0
LINE
  8
0
 10
0.463516
 20
1.42657
 11
0
 21
1.5
  0
LINE
  8
0
 10
0
 20
1.5
 11
-0.463516
 21
1.42657
  0
LINE
  8
0
 10
-0.463516
 20
1.42657
 11
-0.881668
 21
1.21352
  0
LINE
  8
0
 10
-0.881668
 20
1.21352
 11
-1.21352
 21
0.881668
  0
LINE
  8
0
 10
-1.21352
 20
0.881668
 11
-1.42657
 21
0.463516
  0
LINE
  8
0
 10
-1.42657
 20
0.463516
 11
-1.5
 21
0
  0
LINE
  8
0
 10
-1.5
 20
0
 11
-1.42657
 21
-0.463516
  0
LINE
  8
0
 10
-1.42657
 20
-0.463516
 11
-1.21352
 21
-0.881668
  0
LINE
  8
0
 10
-1.21352
 20
-0.881668
 11
-0.881668
 21
-1.21352
  0
LINE
  8
0
 10
-0.881668
 20
-1.21352
 11
-0.463516
 21
-1.42657
  0
LINE
  8
0
 10
-0.463516
 20
-1.42657
 11
0
 21
-1.5
  0
LINE
  8
0
 10
0
 20
-1.5
 11
0.463516
 21
-1.42657
  0
LINE
  8
0
 10
-17.7865
 20
-19.6766
 11
-17.3683
 21
-19.4635
  0
LINE
  8
0
 10
-17.3683
 20
-19.4635
 11
-17.0365
 21
-19.1317
  0
LINE
  8
0
 10
-17.0365
 20
-19.1317
 11
-16.8234
 21
-18.7135
  0
LINE
  8
0
 10
-16.8234
 20
-18.7135
 11
-16.75
 21
-18.25
  0
LINE
  8
0
 10
-16.75
 20
-18.25
 11
-16.8234
 21
-17.7865
  0
LINE
  8
0
 10
-16.8234
 20
-17.7865
 11
-17.0365
 21
-17.3683
  0
LINE
  8
0
 10
-17.0365
 20
-17.3683
 11
-17.3683
 21
-17.0365
  0
LINE
  8
0
 10
-17.3683
 20
-17.0365
 11
-17.7865
 21
-16.8234
  0
LINE
  8
0
 10
-17.7865
 20
-16.8234
 11
-18.25
 21
-16.75
  0
LINE
  8
0
 10
-18.25
 20
-16.75
 11
-18.7135
 21
-16.8234
  0
LINE
  8
0
 10
-18.7135
 20
-16.8234
 11
-19.1317
 21
-17.0365
  0
LINE
  8
0
 10
-19.1317
 20
-17.0365
 11
-19.4635
 21
-17.3683
  0
LINE
  8
0
 10
-19.4635
 20
-17.3683
 11
-19.6766
 21
-17.7865
  0
LINE
  8
0
 10
-19.6766
 20
-17.7865
 11
-19.75
 21
-18.25
  0
LINE
  8
0
 10
-19.75
 20
-18.25
 11
-19.6766
 21
-18.7135
  0
LINE
  8
0
 10
-19.6766
 20
-18.7135
 11
-19.4635
 21
-19.1317
  0
LINE
  8
0
 10
-19.4635
 20
-19.1317
 11
-19.1317
 21
-19.4635
  0
LINE
  8
0
 10
-19.1317
 20
-19.4635
 11
-18.7135
 21
-19.6766
  0
LINE
  8
0
 10
-18.7135
 20
-19.6766
 11
-18.25
 21
-19.75
  0
LINE
  8
0
 10
-18.25
 20
-19.75
 11
-17.7865
 21
-19.6766
  0
LINE
  8
0
 10
18.7135
 20
-19.6766
 11
19.1317
 21
-19.4635
  0
LINE
  8
0
 10
19.1317
 20
-19.4635
 11
19.4635
 21
-19.1317
  0
LINE
  8
0
 10
19.4635
 20
-19.1317
 11
19.6766
 21
-18.7135
  0
LINE
  8
0
 10
19.6766
 20
-18.7135
 11
19.75
 21
-18.25
  0
LINE
  8
0
 10
19.75
 20
-18.25
 11
19.6766
 21
-17.7865
  0
LINE
  8
0
 10
19.6766
 20
-17.7865
 11
19.4635
 21
-17.3683
  0
LINE
  8
0
 10
19.4635
 20
-17.3683
 11
19.1317
 21
-17.0365
  0
LINE
  8
0
 10
19.1317
 20
-17.0365
 11
18.7135
 21
-16.8234
  0
LINE
  8
0
 10
18.7135
 20
-16.8234
 11
18.25
 21
-16.75
  0
LINE
  8
0
 10
18.25
 20
-16.75
 11
17.7865
 21
-16.8234
  0
LINE
  8
0
 10
17.7865
 20
-16.8234
 11
17.3683
 21
-17.0365
  0
LINE
  8
0
 10
17.3683
 20
-17.0365
 11
17.0365
 21
-17.3683
  0
LINE
  8
0
 10
17.0365
 20
-17.3683
 11
16.8234
 21
-17.7865
  0
LINE
  8
0
 10
16.8234
 20
-17.7865
 11
16.75
 21
-18.25
  0
LINE
  8
0
 10
16.75
 20
-18.25
 11
16.8234
 21
-18.7135
  0
LINE
  8
0
 10
16.8234
 20
-18.7135
 11
17.0365
 21
-19.1317
  0
LINE
  8
0
 10
17.0365
 20
-19.1317
 11
17.3683
 21
-19.4635
  0
LINE
  8
0
 10
17.3683
 20
-19.4635
 11
17.7865
 21
-19.6766
  0
LINE
  8
0
 10
17.7865
 20
-19.6766
 11
18.25
 21
-19.75
  0
LINE
  8
0
 10
18.25
 20
-19.75
 11
18.7135
 21
-19.6766
  0
LINE
  8
0
 10
0.463516
 20
-23.3466
 11
0.881668
 21
-23.1335
  0
LINE
  8
0
 10
0.881668
 20
-23.1335
 11
1.21352
 21
-22.8017
  0
LINE
  8
0
 10
1.21352
 20
-22.8017
 11
1.42657
 21
-22.3835
  0
LINE
  8
0
 10
1.42657
 20
-22.3835
 11
1.5
 21
-21.92
  0
LINE
  8
0
 10
1.5
 20
-21.92
 11
1.42657
 21
-21.4565
  0
LINE
  8
0
 10
1.42657
 20
-21.4565
 11
1.21352
 21
-21.0383
  0
LINE
  8
0
 10
1.21352
 20
-21.0383
 11
0.881668
 21
-20.7065
  0
LINE
  8
0
 10
0.881668
 20
-20.7065
 11
0.463516
 21
-20.4934
  0
LINE
  8
0
 10
0.463516
 20
-20.4934
 11
0
 21
-20.42
  0
LINE
  8
0
 10
0
 20
-20.42
 11
-0.463516
 21
-20.4934
  0
LINE
  8
0
 10
-0.463516
 20
-20.4934
 11
-0.881668
 21
-20.7065
  0
LINE
  8
0
 10
-0.881668
 20
-20.7065
 11
-1.21352
 21
-21.0383
  0
LINE
  8
0
 10
-1.21352
 20
-21.0383
 11
-1.42657
 21
-21.4565
  0
LINE
  8
0
 10
-1.42657
 20
-21.4565
 11
-1.5
 21
-21.92
  0
LINE
  8
0
 10
-1.5
 20
-21.92
 11
-1.42657
 21
-22.3835
  0
LINE
  8
0
 10
-1.42657
 20
-22.3835
 11
-1.21352
 21
-22.8017
  0
LINE
  8
0
 10
-1.21352
 20
-22.8017
 11
-0.881668
 21
-23.1335
  0
LINE
  8
0
 10
-0.881668
 20
-23.1335
 11
-0.463516
 21
-23.3466
  0
LINE
  8
0
 10
-0.463516
 20
-23.3466
 11
0
 21
-23.42
  0
LINE
  8
0
 10
0
 20
-23.42
 11
0.463516
 21
-23.3466
  0
LINE
  8
0
 10
25.2135
 20
-26.1766
 11
25.6317
 21
-25.9635
  0
LINE
  8
0
 10
25.6317
 20
-25.9635
 11
25.9635
 21
-25.6317
  0
LINE
  8
0
 10
25.9635
 20
-25.6317
 11
26.1766
 21
-25.2135
  0
LINE
  8
0
 10
26.1766
 20
-25.2135
 11
26.25
 21
-24.75
  0
LINE
  8
0
 10
26.25
 20
-24.75
 11
26.1766
 21
-24.2865
  0
LINE
  8
0
 10
26.1766
 20
-24.2865
 11
25.9635
 21
-23.8683
  0
LINE
  8
0
 10
25.9635
 20
-23.8683
 11
25.6317
 21
-23.5365
  0
LINE
  8
0
 10
25.6317
 20
-23.5365
 11
25.2135
 21
-23.3234
  0
LINE
  8
0
 10
25.2135
 20
-23.3234
 11
24.75
 21
-23.25
  0
LINE
  8
0
 10
24.75
 20
-23.25
 11
24.2865
 21
-23.3234
  0
LINE
  8
0
 10
24.2865
 20
-23.3234
 11
23.8683
 21
-23.5365
  0
LINE
  8
0
 10
23.8683
 20
-23.5365
 11
23.5365
 21
-23.8683
  0
LINE
  8
0
 10
23.5365
 20
-23.8683
 11
23.3234
 21
-24.2865
  0
LINE
  8
0
 10
23.3234
 20
-24.2865
 11
23.25
 21
-24.75
  0
LINE
  8
0
 10
23.25
 20
-24.75
 11
23.3234
 21
-25.2135
  0
LINE
  8
0
 10
23.3234
 20
-25.2135
 11
23.5365
 21
-25.6317
  0
LINE
  8
0
 10
23.5365
 20
-25.6317
 11
23.8683
 21
-25.9635
  0
LINE
  8
0
 10
23.8683
 20
-25.9635
 11
24.2865
 21
-26.1766
  0
LINE
  8
0
 10
24.2865
 20
-26.1766
 11
24.75
 21
-26.25
  0
LINE
  8
0
 10
24.75
 20
-26.25
 11
25.2135
 21
-26.1766
  0
LINE
  8
0
 10
-24.2865
 20
-26.1766
 11
-23.8683
 21
-25.9635
  0
LINE
  8
0
 10
-23.8683
 20
-25.9635
 11
-23.5365
 21
-25.6317
  0
LINE
  8
0
 10
-23.5365
 20
-25.6317
 11
-23.3234
 21
-25.2135
  0
LINE
  8
0
 10
-23.3234
 20
-25.2135
 11
-23.25
 21
-24.75
  0
LINE
  8
0
 10
-23.25
 20
-24.75
 11
-23.3234
 21
-24.2865
  0
LINE
  8
0
 10
-23.3234
 20
-24.2865
 11
-23.5365
 21
-23.8683
  0
LINE
  8
0
 10
-23.5365
 20
-23.8683
 11
-23.8683
 21
-23.5365
  0
LINE
  8
0
 10
-23.8683
 20
-23.5365
 11
-24.2865
 21
-23.3234
  0
LINE
  8
0
 10
-24.2865
 20
-23.3234
 11
-24.75
 21
-23.25
  0
LINE
  8
0
 10
-24.75
 20
-23.25
 11
-25.2135
 21
-23.3234
  0
LINE
  8
0
 10
-25.2135
 20
-23.3234
 11
-25.6317
 21
-23.5365
  0
LINE
  8
0
 10
-25.6317
 20
-23.5365
 11
-25.9635
 21
-23.8683
  0
LINE
  8
0
 10
-25.9635
 20
-23.8683
 11
-26.1766
 21
-24.2865
  0
LINE
  8
0
 10
-26.1766
 20
-24.2865
 11
-26.25
 21
-24.75
  0
LINE
  8
0
 10
-26.25
 20
-24.75
 11
-26.1766
 21
-25.2135
  0
LINE
  8
0
 10
-26.1766
 20
-25.2135
 11
-25.9635
 21
-25.6317
  0
LINE
  8
0
 10
-25.9635
 20
-25.6317
 11
-25.6317
 21
-25.9635
  0
LINE
  8
0
 10
-25.6317
 20
-25.9635
 11
-25.2135
 21
-26.1766
  0
LINE
  8
0
 10
-25.2135
 20
-26.1766
 11
-24.75
 21
-26.25
  0
LINE
  8
0
 10
-24.75
 20
-26.25
 11
-24.2865
 21
-26.1766
  0
LINE
  8
0
 10
-30.7865
 20
-32.6766
 11
-30.3683
 21
-32.4635
  0
LINE
  8
0
 10
-30.3683
 20
-32.4635
 11
-30.0365
 21
-32.1317
  0
LINE
  8
0
 10
-30.0365
 20
-32.1317
 11
-29.8234
 21
-31.7135
  0
LINE
  8
0
 10
-29.8234
 20
-31.7135
 11
-29.75
 21
-31.25
  0
LINE
  8
0
 10
-29.75
 20
-31.25
 11
-29.8234
 21
-30.7865
  0
LINE
  8
0
 10
-29.8234
 20
-30.7865
 11
-30.0365
 21
-30.3683
  0
LINE
  8
0
 10
-30.0365
 20
-30.3683
 11
-30.3683
 21
-30.0365
  0
LINE
  8
0
 10
-30.3683
 20
-30.0365
 11
-30.7865
 21
-29.8234
  0
LINE
  8
0
 10
-30.7865
 20
-29.8234
 11
-31.25
 21
-29.75
  0
LINE
  8
0
 10
-31.25
 20
-29.75
 11
-31.7135
 21
-29.8234
  0
LINE
  8
0
 10
-31.7135
 20
-29.8234
 11
-32.1317
 21
-30.0365
  0
LINE
  8
0
 10
-32.1317
 20
-30.0365
 11
-32.4635
 21
-30.3683
  0
LINE
  8
0
 10
-32.4635
 20
-30.3683
 11
-32.6766
 21
-30.7865
  0
LINE
  8
0
 10
-32.6766
 20
-30.7865
 11
-32.75
 21
-31.25
  0
LINE
  8
0
 10
-32.75
 20
-31.25
 11
-32.6766
 21
-31.7135
  0
LINE
  8
0
 10
-32.6766
 20
-31.7135
 11
-32.4635
 21
-32.1317
  0
LINE
  8
0
 10
-32.4635
 20
-32.1317
 11
-32.1317
 21
-32.4635
  0
LINE
  8
0
 10
-32.1317
 20
-32.4635
 11
-31.7135
 21
-32.6766
  0
LINE
  8
0
 10
-31.7135
 20
-32.6766
 11
-31.25
 21
-32.75
  0
LINE
  8
0
 10
-31.25
 20
-32.75
 11
-30.7865
 21
-32.6766
  0
LINE
  8
0
 10
31.7135
 20
-32.6766
 11
32.1317
 21
-32.4635
  0
LINE
  8
0
 10
32.1317
 20
-32.4635
 11
32.4635
 21
-32.1317
  0
LINE
  8
0
 10
32.4635
 20
-32.1317
 11
32.6766
 21
-31.7135
  0
LINE
  8
0
 10
32.6766
 20
-31.7135
 11
32.75
 21
-31.25
  0
LINE
  8
0
 10
32.75
 20
-31.25
 11
32.6766
 21
-30.7865
  0
LINE
  8
0
 10
32.6766
 20
-30.7865
 11
32.4635
 21
-30.3683
  0
LINE
  8
0
 10
32.4635
 20
-30.3683
 11
32.1317
 21
-30.0365
  0
LINE
  8
0
 10
32.1317
 20
-30.0365
 11
31.7135
 21
-29.8234
  0
LINE
  8
0
 10
31.7135
 20
-29.8234
 11
31.25
 21
-29.75
  0
LINE
  8
0
 10
31.25
 20
-29.75
 11
30.7865
 21
-29.8234
  0
LINE
  8
0
 10
30.7865
 20
-29.8234
 11
30.3683
 21
-30.0365
  0
LINE
  8
0
 10
30.3683
 20
-30.0365
 11
30.0365
 21
-30.3683
  0
LINE
  8
0
 10
30.0365
 20
-30.3683
 11
29.8234
 21
-30.7865
  0
LINE
  8
0
 10
29.8234
 20
-30.7865
 11
29.75
 21
-31.25
  0
LINE
  8
0
 10
29.75
 20
-31.25
 11
29.8234
 21
-31.7135
  0
LINE
  8
0
 10
29.8234
 20
-31.7135
 11
30.0365
 21
-32.1317
  0
LINE
  8
0
 10
30.0365
 20
-32.1317
 11
30.3683
 21
-32.4635
  0
LINE
  8
0
 10
30.3683
 20
-32.4635
 11
30.7865
 21
-32.6766
  0
LINE
  8
0
 10
30.7865
 20
-32.6766
 11
31.25
 21
-32.75
  0
LINE
  8
0
 10
31.25
 20
-32.75
 11
31.7135
 21
-32.6766
  0
LINE
  8
0
 10
61.7385
 20
-62.7016
 11
62.1567
 21
-62.4885
  0
LINE
  8
0
 10
62.1567
 20
-62.4885
 11
62.4885
 21
-62.1567
  0
LINE
  8
0
 10
62.4885
 20
-62.1567
 11
62.7016
 21
-61.7385
  0
LINE
  8
0
 10
62.7016
 20
-61.7385
 11
62.775
 21
-61.275
  0
LINE
  8
0
 10
62.775
 20
-61.275
 11
62.7016
 21
-60.8115
  0
LINE
  8
0
 10
62.7016
 20
-60.8115
 11
62.4885
 21
-60.3933
  0
LINE
  8
0
 10
62.4885
 20
-60.3933
 11
62.1567
 21
-60.0615
  0
LINE
  8
0
 10
62.1567
 20
-60.0615
 11
61.7385
 21
-59.8484
  0
LINE
  8
0
 10
61.7385
 20
-59.8484
 11
61.275
 21
-59.775
  0
LINE
  8
0
 10
61.275
 20
-59.775
 11
60.8114
 21
-59.8484
  0
LINE
  8
0
 10
60.8114
 20
-59.8484
 11
60.3933
 21
-60.0615
  0
LINE
  8
0
 10
60.3933
 20
-60.0615
 11
60.0614
 21
-60.3933
  0
LINE
  8
0
 10
60.0614
 20
-60.3933
 11
59.8484
 21
-60.8115
  0
LINE
  8
0
 10
59.8484
 20
-60.8115
 11
59.775
 21
-61.275
  0
LINE
  8
0
 10
59.775
 20
-61.275
 11
59.8484
 21
-61.7385
  0
LINE
  8
0
 10
59.8484
 20
-61.7385
 11
60.0614
 21
-62.1567
  0
LINE
  8
0
 10
60.0614
 20
-62.1567
 11
60.3933
 21
-62.4885
  0
LINE
  8
0
 10
60.3933
 20
-62.4885
 11
60.8114
 21
-62.7016
  0
LINE
  8
0
 10
60.8114
 20
-62.7016
 11
61.275
 21
-62.775
  0
LINE
  8
0
 10
61.275
 20
-62.775
 11
61.7385
 21
-62.7016
  0
LINE
  8
0
 10
-60.8115
 20
-62.7016
 11
-60.3933
 21
-62.4885
  0
LINE
  8
0
 10
-60.3933
 20
-62.4885
 11
-60.0615
 21
-62.1567
  0
LINE
  8
0
 10
-60.0615
 20
-62.1567
 11
-59.8484
 21
-61.7385
  0
LINE
  8
0
 10
-59.8484
 20
-61.7385
 11
-59.775
 21
-61.275
  0
LINE
  8
0
 10
-59.775
 20
-61.275
 11
-59.8484
 21
-60.8115
  0
LINE
  8
0
 10
-59.8484
 20
-60.8115
 11
-60.0615
 21
-60.3933
  0
LINE
  8
0
 10
-60.0615
 20
-60.3933
 11
-60.3933
 21
-60.0615
  0
LINE
  8
0
 10
-60.3933
 20
-60.0615
 11
-60.8115
 21
-59.8484
  0
LINE
  8
0
 10
-60.8115
 20
-59.8484
 11
-61.275
 21
-59.775
  0
LINE
  8
0
 10
-61.275
 20
-59.775
 11
-61.7385
 21
-59.8484
  0
LINE
  8
0
 10
-61.7385
 20
-59.8484
 11
-62.1567
 21
-60.0615
  0
LINE
  8
0
 10
-62.1567
 20
-60.0615
 11
-62.4885
 21
-60.3933
  0
LINE
  8
0
 10
-62.4885
 20
-60.3933
 11
-62.7016
 21
-60.8115
  0
LINE
  8
0
 10
-62.7016
 20
-60.8115
 11
-62.775
 21
-61.275
  0
LINE
  8
0
 10
-62.775
 20
-61.275
 11
-62.7016
 21
-61.7385
  0
LINE
  8
0
 10
-62.7016
 20
-61.7385
 11
-62.4885
 21
-62.1567
  0
LINE
  8
0
 10
-62.4885
 20
-62.1567
 11
-62.1567
 21
-62.4885
  0
LINE
  8
0
 10
-62.1567
 20
-62.4885
 11
-61.7385
 21
-62.7016
  0
LINE
  8
0
 10
-61.7385
 20
-62.7016
 11
-61.275
 21
-62.775
  0
LINE
  8
0
 10
-61.275
 20
-62.775
 11
-60.8115
 21
-62.7016
  0
ENDSEC
  0
SECTION
  2
OBJECTS
  0
DICTIONARY
  0
ENDSEC
  0
EOF
