solid OpenSCAD_Model
  facet normal -0.45399 0.891007 0
    outer loop
      vertex 20.2939 0.0954914 2
      vertex 20.1545 0.0244713 2.03693
      vertex 20.2939 0.0954914 2.03693
    endloop
  endfacet
  facet normal -0.45399 0.891007 0
    outer loop
      vertex 20.1545 0.0244713 2.03693
      vertex 20.2939 0.0954914 2
      vertex 20.1545 0.0244713 2
    endloop
  endfacet
  facet normal 0.156437 -0.987688 0
    outer loop
      vertex 0.5 11 2
      vertex 0.345491 10.9755 2.20142
      vertex 0.345491 10.9755 2
    endloop
  endfacet
  facet normal 0.156437 -0.987688 0
    outer loop
      vertex 0.345491 10.9755 2.20142
      vertex 0.5 11 2
      vertex 0.5 11 2.20937
    endloop
  endfacet
  facet normal 0 1 0
    outer loop
      vertex 20 0 2.03693
      vertex 20 0 2
      vertex 4.5307 0 2.03693
    endloop
  endfacet
  facet normal 0 1 -0
    outer loop
      vertex 2.03693 0 4.5307
      vertex 1 0 8
      vertex 2.03693 0 8
    endloop
  endfacet
  facet normal 0 1 0
    outer loop
      vertex 1 0 8
      vertex 2.03693 0 4.5307
      vertex 0.499999 0 8
    endloop
  endfacet
  facet normal 0 1 0
    outer loop
      vertex 0.499999 0 2
      vertex 2.03693 0 4.5307
      vertex 2.32698 0 3.63803
    endloop
  endfacet
  facet normal 0 1 0
    outer loop
      vertex 2.03693 0 4.5307
      vertex 0.499999 0 2
      vertex 0.499999 0 8
    endloop
  endfacet
  facet normal 0 1 0
    outer loop
      vertex 2.87868 0 2.87868
      vertex 0.499999 0 2
      vertex 2.32698 0 3.63803
    endloop
  endfacet
  facet normal 0 1 0
    outer loop
      vertex 3.63803 0 2.32698
      vertex 0.499999 0 2
      vertex 2.87868 0 2.87868
    endloop
  endfacet
  facet normal 0 1 0
    outer loop
      vertex 4.5307 0 2.03693
      vertex 0.499999 0 2
      vertex 3.63803 0 2.32698
    endloop
  endfacet
  facet normal 0 1 0
    outer loop
      vertex 0.499999 0 2
      vertex 4.5307 0 2.03693
      vertex 20 0 2
    endloop
  endfacet
  facet normal 0 0 1
    outer loop
      vertex 20 11 2
      vertex 20.5 10.5 2
      vertex 20.4755 10.6545 2
    endloop
  endfacet
  facet normal 0 0 1
    outer loop
      vertex 20.5 10.5 2
      vertex 20 11 2
      vertex 20.5 0.5 2
    endloop
  endfacet
  facet normal 0 0 1
    outer loop
      vertex 20 11 2
      vertex 20.4755 10.6545 2
      vertex 20.4045 10.7939 2
    endloop
  endfacet
  facet normal 0 0 1
    outer loop
      vertex 20 0 2
      vertex 20.5 0.5 2
      vertex 20 11 2
    endloop
  endfacet
  facet normal 0 0 1
    outer loop
      vertex 20 11 2
      vertex 20.4045 10.7939 2
      vertex 20.2939 10.9045 2
    endloop
  endfacet
  facet normal 0 0 1
    outer loop
      vertex 20.5 0.5 2
      vertex 20 0 2
      vertex 20.4755 0.345491 2
    endloop
  endfacet
  facet normal 0 0 1
    outer loop
      vertex 20 11 2
      vertex 20.2939 10.9045 2
      vertex 20.1545 10.9755 2
    endloop
  endfacet
  facet normal 0 0 1
    outer loop
      vertex 20.4755 0.345491 2
      vertex 20 0 2
      vertex 20.4045 0.206107 2
    endloop
  endfacet
  facet normal 0 0 1
    outer loop
      vertex 20.4045 0.206107 2
      vertex 20 0 2
      vertex 20.2939 0.0954914 2
    endloop
  endfacet
  facet normal 0 0 1
    outer loop
      vertex 20.2939 0.0954914 2
      vertex 20 0 2
      vertex 20.1545 0.0244713 2
    endloop
  endfacet
  facet normal -0 0 1
    outer loop
      vertex 0.5 11 2
      vertex 20 0 2
      vertex 20 11 2
    endloop
  endfacet
  facet normal 0 0 1
    outer loop
      vertex 0.5 11 2
      vertex 0.499999 0 2
      vertex 20 0 2
    endloop
  endfacet
  facet normal 0 0 1
    outer loop
      vertex 0 10.5 2
      vertex 0.5 11 2
      vertex 0.345491 10.9755 2
    endloop
  endfacet
  facet normal 0 0 1
    outer loop
      vertex 0.5 11 2
      vertex 0 10.5 2
      vertex 0.499999 0 2
    endloop
  endfacet
  facet normal 0 0 1
    outer loop
      vertex 0 10.5 2
      vertex 0.345491 10.9755 2
      vertex 0.206107 10.9045 2
    endloop
  endfacet
  facet normal -0 0 1
    outer loop
      vertex 0 0.5 2
      vertex 0.499999 0 2
      vertex 0 10.5 2
    endloop
  endfacet
  facet normal 0 0 1
    outer loop
      vertex 0 10.5 2
      vertex 0.206107 10.9045 2
      vertex 0.0954914 10.7939 2
    endloop
  endfacet
  facet normal 0 0 1
    outer loop
      vertex 0.499999 0 2
      vertex 0 0.5 2
      vertex 0.345491 0.0244713 2
    endloop
  endfacet
  facet normal 0 0 1
    outer loop
      vertex 0 10.5 2
      vertex 0.0954914 10.7939 2
      vertex 0.0244713 10.6545 2
    endloop
  endfacet
  facet normal 0 0 1
    outer loop
      vertex 0.345491 0.0244713 2
      vertex 0 0.5 2
      vertex 0.206107 0.0954914 2
    endloop
  endfacet
  facet normal 0 0 1
    outer loop
      vertex 0.206107 0.0954914 2
      vertex 0 0.5 2
      vertex 0.0954914 0.206107 2
    endloop
  endfacet
  facet normal 0 0 1
    outer loop
      vertex 0.0954914 0.206107 2
      vertex 0 0.5 2
      vertex 0.0244713 0.345491 2
    endloop
  endfacet
  facet normal 0.707107 -0.707107 0
    outer loop
      vertex 0.0954914 10.7939 2.1424
      vertex 0.206107 10.9045 2
      vertex 0.206107 10.9045 2.17834
    endloop
  endfacet
  facet normal 0.707107 -0.707107 0
    outer loop
      vertex 0.206107 10.9045 2
      vertex 0.0954914 10.7939 2.1424
      vertex 0.0954914 10.7939 2
    endloop
  endfacet
  facet normal 0.453992 0.891006 -0
    outer loop
      vertex 0.345491 0.0244713 2
      vertex 0.206107 0.0954914 8
      vertex 0.345491 0.0244713 8
    endloop
  endfacet
  facet normal 0.453992 0.891006 0
    outer loop
      vertex 0.206107 0.0954914 8
      vertex 0.345491 0.0244713 2
      vertex 0.206107 0.0954914 2
    endloop
  endfacet
  facet normal 1 0 0
    outer loop
      vertex 0 7.03693 8
      vertex 0 7 8
      vertex 0 7.03693 4.5307
    endloop
  endfacet
  facet normal 1 -0 0
    outer loop
      vertex 0 10.4693 2.03693
      vertex 0 10.5 2
      vertex 0 10.5 2.04691
    endloop
  endfacet
  facet normal 1 -0 0
    outer loop
      vertex 0 9.5307 2.03693
      vertex 0 10.5 2
      vertex 0 10.4693 2.03693
    endloop
  endfacet
  facet normal 1 -0 0
    outer loop
      vertex 0 0.5 8
      vertex 0 7.03693 4.5307
      vertex 0 7 8
    endloop
  endfacet
  facet normal 1 0 0
    outer loop
      vertex 0 0.5 2
      vertex 0 7.03693 4.5307
      vertex 0 0.5 8
    endloop
  endfacet
  facet normal 1 0 0
    outer loop
      vertex 0 7.03693 4.5307
      vertex 0 0.5 2
      vertex 0 7.32698 3.63803
    endloop
  endfacet
  facet normal 1 0 0
    outer loop
      vertex 0 7.32698 3.63803
      vertex 0 0.5 2
      vertex 0 7.87868 2.87868
    endloop
  endfacet
  facet normal 1 0 0
    outer loop
      vertex 0 9.5307 2.03693
      vertex 0 0.5 2
      vertex 0 10.5 2
    endloop
  endfacet
  facet normal 1 0 0
    outer loop
      vertex 0 8.63803 2.32698
      vertex 0 0.5 2
      vertex 0 9.5307 2.03693
    endloop
  endfacet
  facet normal 1 0 0
    outer loop
      vertex 0 7.87868 2.87868
      vertex 0 0.5 2
      vertex 0 8.63803 2.32698
    endloop
  endfacet
  facet normal 0.987689 0.156432 0
    outer loop
      vertex 0.0244713 0.345491 8
      vertex 0 0.5 2
      vertex 0 0.5 8
    endloop
  endfacet
  facet normal 0.987689 0.156432 0
    outer loop
      vertex 0 0.5 2
      vertex 0.0244713 0.345491 8
      vertex 0.0244713 0.345491 2
    endloop
  endfacet
  facet normal -0.987689 0.156432 0
    outer loop
      vertex 20.5 0.5 2
      vertex 20.4951 0.469303 2.03693
      vertex 20.5 0.5 2.04691
    endloop
  endfacet
  facet normal -0.987689 0.156432 -5.18193e-07
    outer loop
      vertex 20.4755 0.345491 2
      vertex 20.4951 0.469303 2.03693
      vertex 20.5 0.5 2
    endloop
  endfacet
  facet normal -0.987689 0.156431 0
    outer loop
      vertex 20.4951 0.469303 2.03693
      vertex 20.4755 0.345491 2
      vertex 20.4755 0.345491 2.03693
    endloop
  endfacet
  facet normal 0.987689 -0.156432 0
    outer loop
      vertex 0 10.5 2.04691
      vertex 0.0244713 10.6545 2
      vertex 0.0244713 10.6545 2.09711
    endloop
  endfacet
  facet normal 0.987689 -0.156432 0
    outer loop
      vertex 0.0244713 10.6545 2
      vertex 0 10.5 2.04691
      vertex 0 10.5 2
    endloop
  endfacet
  facet normal 0 0 1
    outer loop
      vertex 23.5 12 8
      vertex 20.5 10.5 8
      vertex 23.5 2.96306 8
    endloop
  endfacet
  facet normal 0 0 1
    outer loop
      vertex 23.5 12 8
      vertex 20.4755 10.6545 8
      vertex 20.5 10.5 8
    endloop
  endfacet
  facet normal 0 0 1
    outer loop
      vertex 23.5 12 8
      vertex 20.4045 10.7939 8
      vertex 20.4755 10.6545 8
    endloop
  endfacet
  facet normal 0 0 1
    outer loop
      vertex 23.5 12 8
      vertex 20.2939 10.9045 8
      vertex 20.4045 10.7939 8
    endloop
  endfacet
  facet normal 0 0 1
    outer loop
      vertex 23.5 12 8
      vertex 20.1545 10.9755 8
      vertex 20.2939 10.9045 8
    endloop
  endfacet
  facet normal -0 0 1
    outer loop
      vertex 18.1388 12 8
      vertex 20.1545 10.9755 8
      vertex 23.5 12 8
    endloop
  endfacet
  facet normal 0 0 1
    outer loop
      vertex 20.1545 10.9755 8
      vertex 18.1388 12 8
      vertex 20 11 8
    endloop
  endfacet
  facet normal 0 0 1
    outer loop
      vertex 20 11 8
      vertex 18.3972 11.7416 8
      vertex 18.7751 11 8
    endloop
  endfacet
  facet normal 0 0 1
    outer loop
      vertex 20 11 8
      vertex 18.1388 12 8
      vertex 18.3972 11.7416 8
    endloop
  endfacet
  facet normal 0 0 1
    outer loop
      vertex 23.5 2.96306 8
      vertex 20.5 10.5 8
      vertex 20.5 2.96306 8
    endloop
  endfacet
  facet normal 0 0 -1
    outer loop
      vertex 0 0.5 8
      vertex 1 0 8
      vertex 0.499999 0 8
    endloop
  endfacet
  facet normal 0 0 -1
    outer loop
      vertex 0 0.5 8
      vertex 0.499999 0 8
      vertex 0.345491 0.0244713 8
    endloop
  endfacet
  facet normal 0 0 -1
    outer loop
      vertex 0 0.5 8
      vertex 0.345491 0.0244713 8
      vertex 0.206107 0.0954914 8
    endloop
  endfacet
  facet normal 0 0 -1
    outer loop
      vertex 0 0.5 8
      vertex 0.206107 0.0954914 8
      vertex 0.0954914 0.206107 8
    endloop
  endfacet
  facet normal 0 0 -1
    outer loop
      vertex 0 0.5 8
      vertex 0.0954914 0.206107 8
      vertex 0.0244713 0.345491 8
    endloop
  endfacet
  facet normal 0 0 -1
    outer loop
      vertex 1 0 8
      vertex 0 0.5 8
      vertex 1 7 8
    endloop
  endfacet
  facet normal -0 0 -1
    outer loop
      vertex 1 7 8
      vertex 0 0.5 8
      vertex 0 7 8
    endloop
  endfacet
  facet normal -0 0 1
    outer loop
      vertex -3 7.03693 8
      vertex 0 7 8
      vertex 0 7.03693 8
    endloop
  endfacet
  facet normal 0 0 1
    outer loop
      vertex 0 7 8
      vertex -3 7.03693 8
      vertex -3 7 8
    endloop
  endfacet
  facet normal -0 0 1
    outer loop
      vertex 1 0 8
      vertex 2.18196 -0.915637 8
      vertex 2.03693 0 8
    endloop
  endfacet
  facet normal 0 0 1
    outer loop
      vertex 1 -2 8
      vertex 2.18196 -0.915637 8
      vertex 1 0 8
    endloop
  endfacet
  facet normal 0 0 1
    outer loop
      vertex 2.60283 -1.74165 8
      vertex 1 -2 8
      vertex 2.86118 -2 8
    endloop
  endfacet
  facet normal 0 0 1
    outer loop
      vertex 2.18196 -0.915637 8
      vertex 1 -2 8
      vertex 2.60283 -1.74165 8
    endloop
  endfacet
  facet normal -1 0 0
    outer loop
      vertex 20.5 10.5 2
      vertex 20.5 2.96306 4.5307
      vertex 20.5 10.5 8
    endloop
  endfacet
  facet normal -1 0 0
    outer loop
      vertex 20.5 10.5 2
      vertex 20.5 2.67302 3.63803
      vertex 20.5 2.96306 4.5307
    endloop
  endfacet
  facet normal -1 0 0
    outer loop
      vertex 20.5 10.5 2
      vertex 20.5 2.12132 2.87868
      vertex 20.5 2.67302 3.63803
    endloop
  endfacet
  facet normal -1 0 0
    outer loop
      vertex 20.5 10.5 2
      vertex 20.5 1.36197 2.32698
      vertex 20.5 2.12132 2.87868
    endloop
  endfacet
  facet normal -1 0 0
    outer loop
      vertex 20.5 0.5 2
      vertex 20.5 1.36197 2.32698
      vertex 20.5 10.5 2
    endloop
  endfacet
  facet normal -1 0 0
    outer loop
      vertex 20.5 1.36197 2.32698
      vertex 20.5 0.5 2
      vertex 20.5 0.5 2.04691
    endloop
  endfacet
  facet normal -1 -0 0
    outer loop
      vertex 20.5 10.5 8
      vertex 20.5 2.96306 4.5307
      vertex 20.5 2.96306 8
    endloop
  endfacet
  facet normal -0.70711 -0.707104 0
    outer loop
      vertex 20.4045 10.7939 2
      vertex 20.2939 10.9045 8
      vertex 20.2939 10.9045 2
    endloop
  endfacet
  facet normal -0.70711 -0.707104 0
    outer loop
      vertex 20.2939 10.9045 8
      vertex 20.4045 10.7939 2
      vertex 20.4045 10.7939 8
    endloop
  endfacet
  facet normal -0.156433 0.987689 0
    outer loop
      vertex 20.1545 0.0244713 2
      vertex 20 0 2.03693
      vertex 20.1545 0.0244713 2.03693
    endloop
  endfacet
  facet normal -0.156433 0.987689 0
    outer loop
      vertex 20 0 2.03693
      vertex 20.1545 0.0244713 2
      vertex 20 0 2
    endloop
  endfacet
  facet normal 0.891006 -0.453992 0
    outer loop
      vertex 0.0244713 10.6545 2.09711
      vertex 0.0954914 10.7939 2
      vertex 0.0954914 10.7939 2.1424
    endloop
  endfacet
  facet normal 0.891006 -0.453992 0
    outer loop
      vertex 0.0954914 10.7939 2
      vertex 0.0244713 10.6545 2.09711
      vertex 0.0244713 10.6545 2
    endloop
  endfacet
  facet normal 0.453992 -0.891006 0
    outer loop
      vertex 0.345491 10.9755 2
      vertex 0.206107 10.9045 2.17834
      vertex 0.206107 10.9045 2
    endloop
  endfacet
  facet normal 0.453992 -0.891006 0
    outer loop
      vertex 0.206107 10.9045 2.17834
      vertex 0.345491 10.9755 2
      vertex 0.345491 10.9755 2.20142
    endloop
  endfacet
  facet normal 0 -1 0
    outer loop
      vertex 0.5 11 2.20937
      vertex 0.5 11 2
      vertex 16 11 2.20937
    endloop
  endfacet
  facet normal 0 -1 0
    outer loop
      vertex 18.7751 11 4.5307
      vertex 20 11 8
      vertex 18.7751 11 8
    endloop
  endfacet
  facet normal 0 -1 0
    outer loop
      vertex 20 11 2
      vertex 16.6987 11 2.28191
      vertex 16.3249 11 2.22609
    endloop
  endfacet
  facet normal 0 -1 0
    outer loop
      vertex 18.7751 11 4.5307
      vertex 20 11 2
      vertex 20 11 8
    endloop
  endfacet
  facet normal 0 -1 0
    outer loop
      vertex 18.5146 11 3.80766
      vertex 20 11 2
      vertex 18.7751 11 4.5307
    endloop
  endfacet
  facet normal 0 -1 0
    outer loop
      vertex 18.4535 11 3.63803
      vertex 20 11 2
      vertex 18.5146 11 3.80766
    endloop
  endfacet
  facet normal 0 -1 0
    outer loop
      vertex 18.2007 11 3.32411
      vertex 20 11 2
      vertex 18.4535 11 3.63803
    endloop
  endfacet
  facet normal 0 -1 0
    outer loop
      vertex 17.842 11 2.87868
      vertex 20 11 2
      vertex 18.2007 11 3.32411
    endloop
  endfacet
  facet normal 0 -1 0
    outer loop
      vertex 17.3764 11 2.57352
      vertex 20 11 2
      vertex 17.842 11 2.87868
    endloop
  endfacet
  facet normal 0 -1 0
    outer loop
      vertex 16.9024 11 2.32698
      vertex 20 11 2
      vertex 17.3764 11 2.57352
    endloop
  endfacet
  facet normal 0 -1 0
    outer loop
      vertex 16.7265 11 2.28607
      vertex 20 11 2
      vertex 16.9024 11 2.32698
    endloop
  endfacet
  facet normal 0 -1 0
    outer loop
      vertex 16.6987 11 2.28191
      vertex 20 11 2
      vertex 16.7265 11 2.28607
    endloop
  endfacet
  facet normal 0 -1 0
    outer loop
      vertex 16.0573 11 2.21232
      vertex 20 11 2
      vertex 16.3249 11 2.22609
    endloop
  endfacet
  facet normal 0 -1 0
    outer loop
      vertex 16 11 2.20937
      vertex 20 11 2
      vertex 16.0573 11 2.21232
    endloop
  endfacet
  facet normal 0 -1 0
    outer loop
      vertex 20 11 2
      vertex 16 11 2.20937
      vertex 0.5 11 2
    endloop
  endfacet
  facet normal -0.156439 -0.987688 0
    outer loop
      vertex 20 11 2
      vertex 20.1545 10.9755 8
      vertex 20 11 8
    endloop
  endfacet
  facet normal -0.156439 -0.987688 -0
    outer loop
      vertex 20.1545 10.9755 8
      vertex 20 11 2
      vertex 20.1545 10.9755 2
    endloop
  endfacet
  facet normal -0.891001 0.454002 0
    outer loop
      vertex 20.4045 0.206107 2
      vertex 20.4755 0.345491 2.03693
      vertex 20.4755 0.345491 2
    endloop
  endfacet
  facet normal -0.891001 0.454002 0
    outer loop
      vertex 20.4755 0.345491 2.03693
      vertex 20.4045 0.206107 2
      vertex 20.4045 0.206107 2.03693
    endloop
  endfacet
  facet normal -0.70711 0.707104 0
    outer loop
      vertex 20.2939 0.0954914 2
      vertex 20.4045 0.206107 2.03693
      vertex 20.4045 0.206107 2
    endloop
  endfacet
  facet normal -0.70711 0.707104 0
    outer loop
      vertex 20.4045 0.206107 2.03693
      vertex 20.2939 0.0954914 2
      vertex 20.2939 0.0954914 2.03693
    endloop
  endfacet
  facet normal 0.156432 0.987689 -0
    outer loop
      vertex 0.499999 0 2
      vertex 0.345491 0.0244713 8
      vertex 0.499999 0 8
    endloop
  endfacet
  facet normal 0.156432 0.987689 0
    outer loop
      vertex 0.345491 0.0244713 8
      vertex 0.499999 0 2
      vertex 0.345491 0.0244713 2
    endloop
  endfacet
  facet normal 0.707107 0.707107 0
    outer loop
      vertex 0.206107 0.0954914 8
      vertex 0.0954914 0.206107 2
      vertex 0.0954914 0.206107 8
    endloop
  endfacet
  facet normal 0.707107 0.707107 0
    outer loop
      vertex 0.0954914 0.206107 2
      vertex 0.206107 0.0954914 8
      vertex 0.206107 0.0954914 2
    endloop
  endfacet
  facet normal 0.891006 0.453992 0
    outer loop
      vertex 0.0954914 0.206107 8
      vertex 0.0244713 0.345491 2
      vertex 0.0244713 0.345491 8
    endloop
  endfacet
  facet normal 0.891006 0.453992 0
    outer loop
      vertex 0.0244713 0.345491 2
      vertex 0.0954914 0.206107 8
      vertex 0.0954914 0.206107 2
    endloop
  endfacet
  facet normal -0.45399 -0.891007 0
    outer loop
      vertex 20.1545 10.9755 2
      vertex 20.2939 10.9045 8
      vertex 20.1545 10.9755 8
    endloop
  endfacet
  facet normal -0.45399 -0.891007 -0
    outer loop
      vertex 20.2939 10.9045 8
      vertex 20.1545 10.9755 2
      vertex 20.2939 10.9045 2
    endloop
  endfacet
  facet normal -0.891001 -0.454002 0
    outer loop
      vertex 20.4755 10.6545 2
      vertex 20.4045 10.7939 8
      vertex 20.4045 10.7939 2
    endloop
  endfacet
  facet normal -0.891001 -0.454002 0
    outer loop
      vertex 20.4045 10.7939 8
      vertex 20.4755 10.6545 2
      vertex 20.4755 10.6545 8
    endloop
  endfacet
  facet normal -0.987689 -0.156432 0
    outer loop
      vertex 20.5 10.5 2
      vertex 20.4755 10.6545 8
      vertex 20.4755 10.6545 2
    endloop
  endfacet
  facet normal -0.987689 -0.156432 0
    outer loop
      vertex 20.4755 10.6545 8
      vertex 20.5 10.5 2
      vertex 20.5 10.5 8
    endloop
  endfacet
  facet normal -0.723905 -0.36885 0.583019
    outer loop
      vertex 18.2007 11 3.32411
      vertex 18.1625 11.5712 3.63803
      vertex 17.7162 11.2469 2.87868
    endloop
  endfacet
  facet normal -0.723907 -0.368849 0.583018
    outer loop
      vertex 18.1625 11.5712 3.63803
      vertex 18.2007 11 3.32411
      vertex 18.4535 11 3.63803
    endloop
  endfacet
  facet normal -0.891006 -0.453991 0
    outer loop
      vertex 18.7751 11 4.5307
      vertex 18.3972 11.7416 8
      vertex 18.3972 11.7416 4.5307
    endloop
  endfacet
  facet normal -0.891006 -0.453991 0
    outer loop
      vertex 18.3972 11.7416 8
      vertex 18.7751 11 4.5307
      vertex 18.7751 11 8
    endloop
  endfacet
  facet normal -0.723905 -0.368853 0.583017
    outer loop
      vertex 17.842 11 2.87868
      vertex 18.2007 11 3.32411
      vertex 17.7162 11.2469 2.87868
    endloop
  endfacet
  facet normal -0.368849 -0.723906 0.583019
    outer loop
      vertex 17.2469 11.7162 2.87868
      vertex 17.1023 12 3.13959
      vertex 16.6899 12 2.87868
    endloop
  endfacet
  facet normal 0 1 -0
    outer loop
      vertex 0 7.03693 4.5307
      vertex -3 7.03693 8
      vertex 0 7.03693 8
    endloop
  endfacet
  facet normal 0 1 0
    outer loop
      vertex -3 7.03693 8
      vertex 0 7.03693 4.5307
      vertex -3 7.03693 4.5307
    endloop
  endfacet
  facet normal 0 0.809017 0.587786
    outer loop
      vertex 0 7.87868 2.87868
      vertex -3 7.32698 3.63803
      vertex 0 7.32698 3.63803
    endloop
  endfacet
  facet normal 0 0.809017 0.587786
    outer loop
      vertex -3 7.32698 3.63803
      vertex 0 7.87868 2.87868
      vertex -3 7.87868 2.87868
    endloop
  endfacet
  facet normal -0 0.587786 0.809017
    outer loop
      vertex -3 8.63803 2.32698
      vertex 0 7.87868 2.87868
      vertex 0 8.63803 2.32698
    endloop
  endfacet
  facet normal 0 0.587786 0.809017
    outer loop
      vertex 0 7.87868 2.87868
      vertex -3 8.63803 2.32698
      vertex -3 7.87868 2.87868
    endloop
  endfacet
  facet normal -0.0927074 -0.585251 0.805535
    outer loop
      vertex 16.638 12 2.86396
      vertex 16.4209 11.2953 2.32698
      vertex 16.6498 12 2.86531
    endloop
  endfacet
  facet normal -0.0926957 -0.585254 0.805534
    outer loop
      vertex 16.4209 11.2953 2.32698
      vertex 16.638 12 2.86396
      vertex 16 11.362 2.32698
    endloop
  endfacet
  facet normal 0 -0.309016 0.951057
    outer loop
      vertex 16 11.362 2.32698
      vertex 0.5 11 2.20937
      vertex 16 11 2.20937
    endloop
  endfacet
  facet normal 0 -0.309016 0.951057
    outer loop
      vertex -3 11.362 2.32698
      vertex 0.5 11 2.20937
      vertex 16 11.362 2.32698
    endloop
  endfacet
  facet normal -1.70103e-08 -0.309016 0.951057
    outer loop
      vertex -3 11.362 2.32698
      vertex 0.345491 10.9755 2.20142
      vertex 0.5 11 2.20937
    endloop
  endfacet
  facet normal -5.01882e-08 -0.309017 0.951057
    outer loop
      vertex -3 11.362 2.32698
      vertex 0.206107 10.9045 2.17834
      vertex 0.345491 10.9755 2.20142
    endloop
  endfacet
  facet normal 2.55253e-08 -0.309016 0.951057
    outer loop
      vertex -3 11.362 2.32698
      vertex 0.0954914 10.7939 2.1424
      vertex 0.206107 10.9045 2.17834
    endloop
  endfacet
  facet normal -2.46723e-07 -0.309018 0.951056
    outer loop
      vertex -3 11.362 2.32698
      vertex 0.0244713 10.6545 2.09711
      vertex 0.0954914 10.7939 2.1424
    endloop
  endfacet
  facet normal 3.26626e-08 -0.309016 0.951057
    outer loop
      vertex -3 10.4693 2.03693
      vertex 0.0244713 10.6545 2.09711
      vertex -3 11.362 2.32698
    endloop
  endfacet
  facet normal -8.32231e-09 -0.309016 0.951057
    outer loop
      vertex 0.0244713 10.6545 2.09711
      vertex -3 10.4693 2.03693
      vertex 0 10.5 2.04691
    endloop
  endfacet
  facet normal 0 -0.309017 0.951057
    outer loop
      vertex 0 10.5 2.04691
      vertex -3 10.4693 2.03693
      vertex 0 10.4693 2.03693
    endloop
  endfacet
  facet normal -0.707107 -0.707107 0
    outer loop
      vertex 18.3972 11.7416 4.5307
      vertex 18.1388 12 8
      vertex 18.1388 12 4.5307
    endloop
  endfacet
  facet normal -0.707107 -0.707107 0
    outer loop
      vertex 18.1388 12 8
      vertex 18.3972 11.7416 4.5307
      vertex 18.3972 11.7416 8
    endloop
  endfacet
  facet normal -0.848389 -0.432276 0.305572
    outer loop
      vertex 18.5146 11 3.80766
      vertex 18.1625 11.5712 3.63803
      vertex 18.4535 11 3.63803
    endloop
  endfacet
  facet normal -0.848389 -0.432277 0.30557
    outer loop
      vertex 18.1625 11.5712 3.63803
      vertex 18.5146 11 3.80766
      vertex 18.3972 11.7416 4.5307
    endloop
  endfacet
  facet normal -0.269012 -0.527966 0.805534
    outer loop
      vertex 16.6899 12 2.87868
      vertex 16.8005 11.1019 2.32698
      vertex 17.2469 11.7162 2.87868
    endloop
  endfacet
  facet normal -0.269018 -0.527966 0.805532
    outer loop
      vertex 16.8005 11.1019 2.32698
      vertex 16.6899 12 2.87868
      vertex 16.6583 12 2.86814
    endloop
  endfacet
  facet normal -0.848389 -0.432276 0.305569
    outer loop
      vertex 18.5146 11 3.80766
      vertex 18.7751 11 4.5307
      vertex 18.3972 11.7416 4.5307
    endloop
  endfacet
  facet normal 0 0.951057 0.309016
    outer loop
      vertex 0 7.32698 3.63803
      vertex -3 7.03693 4.5307
      vertex 0 7.03693 4.5307
    endloop
  endfacet
  facet normal 0 0.951057 0.309016
    outer loop
      vertex -3 7.03693 4.5307
      vertex 0 7.32698 3.63803
      vertex -3 7.32698 3.63803
    endloop
  endfacet
  facet normal -0.673286 -0.673286 0.30557
    outer loop
      vertex 17.7337 12 3.63803
      vertex 18.3972 11.7416 4.5307
      vertex 18.1388 12 4.5307
    endloop
  endfacet
  facet normal -0.673286 -0.673286 0.30557
    outer loop
      vertex 18.3972 11.7416 4.5307
      vertex 17.7337 12 3.63803
      vertex 18.1625 11.5712 3.63803
    endloop
  endfacet
  facet normal -0.0488856 -0.308647 0.94992
    outer loop
      vertex 16.4209 11.2953 2.32698
      vertex 16.0573 11 2.21232
      vertex 16.3249 11 2.22609
    endloop
  endfacet
  facet normal -0.0488852 -0.308647 0.94992
    outer loop
      vertex 16.0573 11 2.21232
      vertex 16.4209 11.2953 2.32698
      vertex 16 11.362 2.32698
    endloop
  endfacet
  facet normal -0.269004 -0.527969 0.805534
    outer loop
      vertex 16.4209 11.2953 2.32698
      vertex 16.6583 12 2.86814
      vertex 16.6498 12 2.86531
    endloop
  endfacet
  facet normal -0.269012 -0.527966 0.805534
    outer loop
      vertex 16.6583 12 2.86814
      vertex 16.4209 11.2953 2.32698
      vertex 16.8005 11.1019 2.32698
    endloop
  endfacet
  facet normal -0.418996 -0.418996 0.805533
    outer loop
      vertex 17.2469 11.7162 2.87868
      vertex 17.3764 11 2.57352
      vertex 17.7162 11.2469 2.87868
    endloop
  endfacet
  facet normal -0.418997 -0.418996 0.805533
    outer loop
      vertex 17.2469 11.7162 2.87868
      vertex 16.9024 11 2.32698
      vertex 17.3764 11 2.57352
    endloop
  endfacet
  facet normal -0.418994 -0.418998 0.805534
    outer loop
      vertex 16.9024 11 2.32698
      vertex 17.2469 11.7162 2.87868
      vertex 16.8005 11.1019 2.32698
    endloop
  endfacet
  facet normal -0.092695 -0.585255 0.805534
    outer loop
      vertex 16.638 12 2.86396
      vertex 16 12 2.79054
      vertex 16 11.362 2.32698
    endloop
  endfacet
  facet normal -0 0.309016 0.951057
    outer loop
      vertex -3 9.5307 2.03693
      vertex 0 8.63803 2.32698
      vertex 0 9.5307 2.03693
    endloop
  endfacet
  facet normal 0 0.309016 0.951057
    outer loop
      vertex 0 8.63803 2.32698
      vertex -3 9.5307 2.03693
      vertex -3 8.63803 2.32698
    endloop
  endfacet
  facet normal -0.141869 -0.278434 0.94992
    outer loop
      vertex 16.4209 11.2953 2.32698
      vertex 16.6987 11 2.28191
      vertex 16.8005 11.1019 2.32698
    endloop
  endfacet
  facet normal -0.14187 -0.278434 0.94992
    outer loop
      vertex 16.6987 11 2.28191
      vertex 16.4209 11.2953 2.32698
      vertex 16.3249 11 2.22609
    endloop
  endfacet
  facet normal -0.220966 -0.220968 0.949919
    outer loop
      vertex 16.9024 11 2.32698
      vertex 16.8005 11.1019 2.32698
      vertex 16.7265 11 2.28607
    endloop
  endfacet
  facet normal -0.368849 -0.723906 0.583019
    outer loop
      vertex 17.2469 11.7162 2.87868
      vertex 17.4531 12 3.36154
      vertex 17.1023 12 3.13959
    endloop
  endfacet
  facet normal -0.574495 -0.574495 0.583019
    outer loop
      vertex 17.7337 12 3.63803
      vertex 17.7162 11.2469 2.87868
      vertex 18.1625 11.5712 3.63803
    endloop
  endfacet
  facet normal -0.574495 -0.574495 0.583019
    outer loop
      vertex 17.2469 11.7162 2.87868
      vertex 17.7337 12 3.63803
      vertex 17.4531 12 3.36154
    endloop
  endfacet
  facet normal -0.574495 -0.574495 0.583019
    outer loop
      vertex 17.7337 12 3.63803
      vertex 17.2469 11.7162 2.87868
      vertex 17.7162 11.2469 2.87868
    endloop
  endfacet
  facet normal -0.0488818 -0.308647 0.94992
    outer loop
      vertex 16.0573 11 2.21232
      vertex 16 11.362 2.32698
      vertex 16 11 2.20937
    endloop
  endfacet
  facet normal 0 -0.587786 0.809017
    outer loop
      vertex -3 12 2.79054
      vertex 16 11.362 2.32698
      vertex 16 12 2.79054
    endloop
  endfacet
  facet normal 0 -0.587786 0.809017
    outer loop
      vertex 16 11.362 2.32698
      vertex -3 12 2.79054
      vertex -3 11.362 2.32698
    endloop
  endfacet
  facet normal -0.141863 -0.278439 0.949919
    outer loop
      vertex 16.7265 11 2.28607
      vertex 16.8005 11.1019 2.32698
      vertex 16.6987 11 2.28191
    endloop
  endfacet
  facet normal -0.527965 -0.269015 0.805534
    outer loop
      vertex 17.842 11 2.87868
      vertex 17.7162 11.2469 2.87868
      vertex 17.3764 11 2.57352
    endloop
  endfacet
  facet normal -0 0 1
    outer loop
      vertex -3 10.4693 2.03693
      vertex 0 9.5307 2.03693
      vertex 0 10.4693 2.03693
    endloop
  endfacet
  facet normal 0 0 1
    outer loop
      vertex 0 9.5307 2.03693
      vertex -3 10.4693 2.03693
      vertex -3 9.5307 2.03693
    endloop
  endfacet
  facet normal 0.418996 0.418996 0.805534
    outer loop
      vertex 3.89814 -0.800547 2.32698
      vertex 3.75312 -1.71618 2.87868
      vertex 4.19945 -1.10186 2.32698
    endloop
  endfacet
  facet normal 0.418996 0.418996 0.805534
    outer loop
      vertex 3.75312 -1.71618 2.87868
      vertex 3.89814 -0.800547 2.32698
      vertex 3.28382 -1.24688 2.87868
    endloop
  endfacet
  facet normal 0.14187 0.278434 0.94992
    outer loop
      vertex 4.85498 -0.446334 2.03693
      vertex 4.72415 -0.379674 2.03693
      vertex 4.19945 -1.10186 2.32698
    endloop
  endfacet
  facet normal 0.0926955 0.585254 0.805534
    outer loop
      vertex 4.57913 -1.29531 2.32698
      vertex 4.36197 -2 2.86396
      vertex 5 -1.36197 2.32698
    endloop
  endfacet
  facet normal 0.0927036 0.585252 0.805534
    outer loop
      vertex 4.36197 -2 2.86396
      vertex 4.57913 -1.29531 2.32698
      vertex 4.35016 -2 2.86531
    endloop
  endfacet
  facet normal 0.574495 0.574495 0.583018
    outer loop
      vertex 3.26632 -2 3.63803
      vertex 3.75312 -1.71618 2.87868
      vertex 3.28382 -1.24688 2.87868
    endloop
  endfacet
  facet normal 0.574495 0.574496 0.583018
    outer loop
      vertex 3.75312 -1.71618 2.87868
      vertex 3.26632 -2 3.63803
      vertex 3.54691 -2 3.36154
    endloop
  endfacet
  facet normal 0.574495 0.574495 0.583018
    outer loop
      vertex 3.26632 -2 3.63803
      vertex 3.28382 -1.24688 2.87868
      vertex 2.83748 -1.57116 3.63803
    endloop
  endfacet
  facet normal 0.673286 0.673286 0.30557
    outer loop
      vertex 3.26632 -2 3.63803
      vertex 2.60283 -1.74165 4.5307
      vertex 2.86118 -2 4.5307
    endloop
  endfacet
  facet normal 0.673286 0.673286 0.30557
    outer loop
      vertex 2.60283 -1.74165 4.5307
      vertex 3.26632 -2 3.63803
      vertex 2.83748 -1.57116 3.63803
    endloop
  endfacet
  facet normal 0 -1 0
    outer loop
      vertex 20.5 2.96306 4.5307
      vertex 23.5 2.96306 8
      vertex 20.5 2.96306 8
    endloop
  endfacet
  facet normal 0 -1 -0
    outer loop
      vertex 23.5 2.96306 8
      vertex 20.5 2.96306 4.5307
      vertex 23.5 2.96306 4.5307
    endloop
  endfacet
  facet normal 0.0488851 0.308647 0.94992
    outer loop
      vertex 5 -1.36197 2.32698
      vertex 4.85498 -0.446334 2.03693
      vertex 4.57913 -1.29531 2.32698
    endloop
  endfacet
  facet normal 0.092695 0.585255 0.805534
    outer loop
      vertex 5 -2 2.79054
      vertex 5 -1.36197 2.32698
      vertex 4.36197 -2 2.86396
    endloop
  endfacet
  facet normal 0.848389 0.432276 0.30557
    outer loop
      vertex 2.60283 -1.74165 4.5307
      vertex 2.83748 -1.57116 3.63803
      vertex 2.45781 -0.826008 3.63803
    endloop
  endfacet
  facet normal 0.368849 0.723906 0.583018
    outer loop
      vertex 3.89773 -2 3.13959
      vertex 3.75312 -1.71618 2.87868
      vertex 3.54691 -2 3.36154
    endloop
  endfacet
  facet normal 0.220967 0.220967 0.94992
    outer loop
      vertex 4.62033 -0.275849 2.03693
      vertex 4.19945 -1.10186 2.32698
      vertex 4.72415 -0.379674 2.03693
    endloop
  endfacet
  facet normal 0.220967 0.220967 0.94992
    outer loop
      vertex 4.19945 -1.10186 2.32698
      vertex 4.62033 -0.275849 2.03693
      vertex 3.89814 -0.800547 2.32698
    endloop
  endfacet
  facet normal 0.848389 0.432276 0.30557
    outer loop
      vertex 2.60283 -1.74165 4.5307
      vertex 2.45781 -0.826008 3.63803
      vertex 2.18196 -0.915637 4.5307
    endloop
  endfacet
  facet normal 0.269014 0.527966 0.805533
    outer loop
      vertex 4.19945 -1.10186 2.32698
      vertex 4.31014 -2 2.87868
      vertex 4.3417 -2 2.86814
    endloop
  endfacet
  facet normal 0.269012 0.527966 0.805534
    outer loop
      vertex 4.31014 -2 2.87868
      vertex 4.19945 -1.10186 2.32698
      vertex 3.75312 -1.71618 2.87868
    endloop
  endfacet
  facet normal 0.269004 0.527969 0.805534
    outer loop
      vertex 4.57913 -1.29531 2.32698
      vertex 4.3417 -2 2.86814
      vertex 4.35016 -2 2.86531
    endloop
  endfacet
  facet normal 0.269012 0.527966 0.805534
    outer loop
      vertex 4.3417 -2 2.86814
      vertex 4.57913 -1.29531 2.32698
      vertex 4.19945 -1.10186 2.32698
    endloop
  endfacet
  facet normal 0.707107 0.707107 0
    outer loop
      vertex 2.86118 -2 8
      vertex 2.60283 -1.74165 4.5307
      vertex 2.60283 -1.74165 8
    endloop
  endfacet
  facet normal 0.707107 0.707107 0
    outer loop
      vertex 2.60283 -1.74165 4.5307
      vertex 2.86118 -2 8
      vertex 2.86118 -2 4.5307
    endloop
  endfacet
  facet normal 0.723906 0.368849 0.583018
    outer loop
      vertex 2.83748 -1.57116 3.63803
      vertex 3.28382 -1.24688 2.87868
      vertex 2.45781 -0.826008 3.63803
    endloop
  endfacet
  facet normal 0.141869 0.278435 0.94992
    outer loop
      vertex 4.57913 -1.29531 2.32698
      vertex 4.85498 -0.446334 2.03693
      vertex 4.19945 -1.10186 2.32698
    endloop
  endfacet
  facet normal 0.940447 0.148952 0.30557
    outer loop
      vertex 2.45781 -0.826008 3.63803
      vertex 2.32698 0 3.63803
      vertex 2.18196 -0.915637 4.5307
    endloop
  endfacet
  facet normal -0 0.587786 0.809017
    outer loop
      vertex 5 -1.36197 2.32698
      vertex 23.5 -2 2.79054
      vertex 23.5 -1.36197 2.32698
    endloop
  endfacet
  facet normal 0 0.587786 0.809017
    outer loop
      vertex 23.5 -2 2.79054
      vertex 5 -1.36197 2.32698
      vertex 5 -2 2.79054
    endloop
  endfacet
  facet normal 0.368848 0.723906 0.583019
    outer loop
      vertex 3.89773 -2 3.13959
      vertex 4.31014 -2 2.87868
      vertex 3.75312 -1.71618 2.87868
    endloop
  endfacet
  facet normal 0.891006 0.453991 0
    outer loop
      vertex 2.60283 -1.74165 8
      vertex 2.18196 -0.915637 4.5307
      vertex 2.18196 -0.915637 8
    endloop
  endfacet
  facet normal 0.891006 0.453991 0
    outer loop
      vertex 2.18196 -0.915637 4.5307
      vertex 2.60283 -1.74165 8
      vertex 2.60283 -1.74165 4.5307
    endloop
  endfacet
  facet normal 0.940447 0.148952 0.305569
    outer loop
      vertex 2.18196 -0.915637 4.5307
      vertex 2.32698 0 3.63803
      vertex 2.03693 0 4.5307
    endloop
  endfacet
  facet normal 0 -0.309016 0.951057
    outer loop
      vertex 20.5 0.5 2.04691
      vertex 23.5 1.36197 2.32698
      vertex 20.5 1.36197 2.32698
    endloop
  endfacet
  facet normal 1.47383e-09 -0.309016 0.951057
    outer loop
      vertex 23.5 1.36197 2.32698
      vertex 20.5 0.5 2.04691
      vertex 23.5 0.469303 2.03693
    endloop
  endfacet
  facet normal 0 -0.309017 0.951057
    outer loop
      vertex 23.5 0.469303 2.03693
      vertex 20.5 0.5 2.04691
      vertex 20.4951 0.469303 2.03693
    endloop
  endfacet
  facet normal 0 -0.951057 0.309016
    outer loop
      vertex 20.5 2.67302 3.63803
      vertex 23.5 2.96306 4.5307
      vertex 20.5 2.96306 4.5307
    endloop
  endfacet
  facet normal 0 -0.951057 0.309016
    outer loop
      vertex 23.5 2.96306 4.5307
      vertex 20.5 2.67302 3.63803
      vertex 23.5 2.67302 3.63803
    endloop
  endfacet
  facet normal 0.987688 0.156434 0
    outer loop
      vertex 2.18196 -0.915637 8
      vertex 2.03693 0 4.5307
      vertex 2.03693 0 8
    endloop
  endfacet
  facet normal 0.987688 0.156434 0
    outer loop
      vertex 2.03693 0 4.5307
      vertex 2.18196 -0.915637 8
      vertex 2.18196 -0.915637 4.5307
    endloop
  endfacet
  facet normal -0 0.309016 0.951057
    outer loop
      vertex 5 -0.469303 2.03693
      vertex 23.5 -1.36197 2.32698
      vertex 23.5 -0.469303 2.03693
    endloop
  endfacet
  facet normal 0 0.309016 0.951057
    outer loop
      vertex 23.5 -1.36197 2.32698
      vertex 5 -0.469303 2.03693
      vertex 5 -1.36197 2.32698
    endloop
  endfacet
  facet normal 0.0488845 0.308647 0.94992
    outer loop
      vertex 5 -1.36197 2.32698
      vertex 5 -0.469303 2.03693
      vertex 4.85498 -0.446334 2.03693
    endloop
  endfacet
  facet normal 0.308647 0.0488848 0.94992
    outer loop
      vertex 4.55367 -0.145022 2.03693
      vertex 4.5307 0 2.03693
      vertex 3.63803 0 2.32698
    endloop
  endfacet
  facet normal 0.723906 0.368849 0.583019
    outer loop
      vertex 3.28382 -1.24688 2.87868
      vertex 2.9825 -0.655523 2.87868
      vertex 2.45781 -0.826008 3.63803
    endloop
  endfacet
  facet normal 0 -0.809017 0.587786
    outer loop
      vertex 20.5 2.12132 2.87868
      vertex 23.5 2.67302 3.63803
      vertex 20.5 2.67302 3.63803
    endloop
  endfacet
  facet normal 0 -0.809017 0.587786
    outer loop
      vertex 23.5 2.67302 3.63803
      vertex 20.5 2.12132 2.87868
      vertex 23.5 2.12132 2.87868
    endloop
  endfacet
  facet normal 0.308647 0.0488852 0.94992
    outer loop
      vertex 3.70469 -0.420872 2.32698
      vertex 4.55367 -0.145022 2.03693
      vertex 3.63803 0 2.32698
    endloop
  endfacet
  facet normal 0.527966 0.269012 0.805534
    outer loop
      vertex 3.28382 -1.24688 2.87868
      vertex 3.89814 -0.800547 2.32698
      vertex 2.9825 -0.655523 2.87868
    endloop
  endfacet
  facet normal 0.527966 0.269012 0.805534
    outer loop
      vertex 3.89814 -0.800547 2.32698
      vertex 3.70469 -0.420872 2.32698
      vertex 2.9825 -0.655523 2.87868
    endloop
  endfacet
  facet normal 0.278435 0.141869 0.94992
    outer loop
      vertex 3.89814 -0.800547 2.32698
      vertex 4.55367 -0.145022 2.03693
      vertex 3.70469 -0.420872 2.32698
    endloop
  endfacet
  facet normal 0.585254 0.0926957 0.805534
    outer loop
      vertex 3.70469 -0.420872 2.32698
      vertex 3.63803 0 2.32698
      vertex 2.9825 -0.655523 2.87868
    endloop
  endfacet
  facet normal 0.802456 0.127096 0.583019
    outer loop
      vertex 2.9825 -0.655523 2.87868
      vertex 2.87868 0 2.87868
      vertex 2.32698 0 3.63803
    endloop
  endfacet
  facet normal 0 -0.587786 0.809017
    outer loop
      vertex 20.5 2.12132 2.87868
      vertex 23.5 1.36197 2.32698
      vertex 23.5 2.12132 2.87868
    endloop
  endfacet
  facet normal 0 -0.587786 0.809017
    outer loop
      vertex 23.5 1.36197 2.32698
      vertex 20.5 2.12132 2.87868
      vertex 20.5 1.36197 2.32698
    endloop
  endfacet
  facet normal 0.585255 0.0926952 0.805534
    outer loop
      vertex 2.9825 -0.655523 2.87868
      vertex 3.63803 0 2.32698
      vertex 2.87868 0 2.87868
    endloop
  endfacet
  facet normal 0.802456 0.127097 0.583019
    outer loop
      vertex 2.45781 -0.826008 3.63803
      vertex 2.9825 -0.655523 2.87868
      vertex 2.32698 0 3.63803
    endloop
  endfacet
  facet normal 0 0 1
    outer loop
      vertex 20.4755 0.345491 2.03693
      vertex 23.5 0.469303 2.03693
      vertex 20.4951 0.469303 2.03693
    endloop
  endfacet
  facet normal 0 0 1
    outer loop
      vertex 23.5 0.469303 2.03693
      vertex 20.4755 0.345491 2.03693
      vertex 23.5 -0.469303 2.03693
    endloop
  endfacet
  facet normal -0 0 1
    outer loop
      vertex 20.4045 0.206107 2.03693
      vertex 23.5 -0.469303 2.03693
      vertex 20.4755 0.345491 2.03693
    endloop
  endfacet
  facet normal -0 0 1
    outer loop
      vertex 20.2939 0.0954914 2.03693
      vertex 23.5 -0.469303 2.03693
      vertex 20.4045 0.206107 2.03693
    endloop
  endfacet
  facet normal -0 0 1
    outer loop
      vertex 20.1545 0.0244713 2.03693
      vertex 23.5 -0.469303 2.03693
      vertex 20.2939 0.0954914 2.03693
    endloop
  endfacet
  facet normal -0 0 1
    outer loop
      vertex 20 0 2.03693
      vertex 23.5 -0.469303 2.03693
      vertex 20.1545 0.0244713 2.03693
    endloop
  endfacet
  facet normal 0 0 1
    outer loop
      vertex 20 0 2.03693
      vertex 5 -0.469303 2.03693
      vertex 23.5 -0.469303 2.03693
    endloop
  endfacet
  facet normal -0 0 1
    outer loop
      vertex 4.5307 0 2.03693
      vertex 5 -0.469303 2.03693
      vertex 20 0 2.03693
    endloop
  endfacet
  facet normal 0 0 1
    outer loop
      vertex 5 -0.469303 2.03693
      vertex 4.5307 0 2.03693
      vertex 4.85498 -0.446334 2.03693
    endloop
  endfacet
  facet normal 0 0 1
    outer loop
      vertex 4.85498 -0.446334 2.03693
      vertex 4.5307 0 2.03693
      vertex 4.72415 -0.379674 2.03693
    endloop
  endfacet
  facet normal 0 0 1
    outer loop
      vertex 4.72415 -0.379674 2.03693
      vertex 4.5307 0 2.03693
      vertex 4.62033 -0.275849 2.03693
    endloop
  endfacet
  facet normal 0 0 1
    outer loop
      vertex 4.62033 -0.275849 2.03693
      vertex 4.5307 0 2.03693
      vertex 4.55367 -0.145022 2.03693
    endloop
  endfacet
  facet normal 0.278434 0.14187 0.94992
    outer loop
      vertex 4.62033 -0.275849 2.03693
      vertex 4.55367 -0.145022 2.03693
      vertex 3.89814 -0.800547 2.32698
    endloop
  endfacet
  facet normal -1 0 0
    outer loop
      vertex -3 12 -5
      vertex -3 11.362 2.32698
      vertex -3 12 2.79054
    endloop
  endfacet
  facet normal -1 0 0
    outer loop
      vertex -3 12 -5
      vertex -3 10.4693 2.03693
      vertex -3 11.362 2.32698
    endloop
  endfacet
  facet normal -1 0 0
    outer loop
      vertex -3 12 -5
      vertex -3 9.5307 2.03693
      vertex -3 10.4693 2.03693
    endloop
  endfacet
  facet normal -1 0 0
    outer loop
      vertex -3 12 -5
      vertex -3 8.63803 2.32698
      vertex -3 9.5307 2.03693
    endloop
  endfacet
  facet normal -1 0 0
    outer loop
      vertex -3 -2 -5
      vertex -3 8.63803 2.32698
      vertex -3 12 -5
    endloop
  endfacet
  facet normal -1 -0 0
    outer loop
      vertex -3 8.63803 2.32698
      vertex -3 -2 -5
      vertex -3 7.87868 2.87868
    endloop
  endfacet
  facet normal -1 0 0
    outer loop
      vertex -3 7.03693 4.5307
      vertex -3 7 8
      vertex -3 7.03693 8
    endloop
  endfacet
  facet normal -1 -0 0
    outer loop
      vertex -3 7.87868 2.87868
      vertex -3 -2 -5
      vertex -3 7.32698 3.63803
    endloop
  endfacet
  facet normal -1 0 0
    outer loop
      vertex -3 -2 -5
      vertex -3 7.03693 4.5307
      vertex -3 7.32698 3.63803
    endloop
  endfacet
  facet normal -1 0 0
    outer loop
      vertex -3 -2 9
      vertex -3 7.03693 4.5307
      vertex -3 -2 -5
    endloop
  endfacet
  facet normal -1 0 0
    outer loop
      vertex -3 7.03693 4.5307
      vertex -3 -2 9
      vertex -3 7 8
    endloop
  endfacet
  facet normal -1 0 0
    outer loop
      vertex -3 7 8
      vertex -3 -2 9
      vertex -3 7 9
    endloop
  endfacet
  facet normal 1 0 0
    outer loop
      vertex 23.5 2.96306 4.5307
      vertex 23.5 12 8
      vertex 23.5 2.96306 8
    endloop
  endfacet
  facet normal 1 0 0
    outer loop
      vertex 23.5 2.67302 3.63803
      vertex 23.5 12 8
      vertex 23.5 2.96306 4.5307
    endloop
  endfacet
  facet normal 1 0 0
    outer loop
      vertex 23.5 12 8
      vertex 23.5 2.67302 3.63803
      vertex 23.5 12 -5
    endloop
  endfacet
  facet normal 1 -0 0
    outer loop
      vertex 23.5 2.12132 2.87868
      vertex 23.5 12 -5
      vertex 23.5 2.67302 3.63803
    endloop
  endfacet
  facet normal 1 -0 0
    outer loop
      vertex 23.5 1.36197 2.32698
      vertex 23.5 12 -5
      vertex 23.5 2.12132 2.87868
    endloop
  endfacet
  facet normal 1 0 0
    outer loop
      vertex 23.5 -2 -5
      vertex 23.5 1.36197 2.32698
      vertex 23.5 0.469303 2.03693
    endloop
  endfacet
  facet normal 1 0 0
    outer loop
      vertex 23.5 -2 -5
      vertex 23.5 0.469303 2.03693
      vertex 23.5 -0.469303 2.03693
    endloop
  endfacet
  facet normal 1 0 0
    outer loop
      vertex 23.5 -2 -5
      vertex 23.5 -0.469303 2.03693
      vertex 23.5 -1.36197 2.32698
    endloop
  endfacet
  facet normal 1 0 0
    outer loop
      vertex 23.5 1.36197 2.32698
      vertex 23.5 -2 -5
      vertex 23.5 12 -5
    endloop
  endfacet
  facet normal 1 0 0
    outer loop
      vertex 23.5 -2 -5
      vertex 23.5 -1.36197 2.32698
      vertex 23.5 -2 2.79054
    endloop
  endfacet
  facet normal 0 1 0
    outer loop
      vertex 23.5 12 8
      vertex 18.1388 12 4.5307
      vertex 18.1388 12 8
    endloop
  endfacet
  facet normal 0 1 -0
    outer loop
      vertex 23.5 12 -5
      vertex 18.1388 12 4.5307
      vertex 23.5 12 8
    endloop
  endfacet
  facet normal 0 1 0
    outer loop
      vertex 18.1388 12 4.5307
      vertex 23.5 12 -5
      vertex 17.7337 12 3.63803
    endloop
  endfacet
  facet normal 0 1 0
    outer loop
      vertex 6 12 0
      vertex 16 12 2.79054
      vertex 16 12 0
    endloop
  endfacet
  facet normal 0 1 0
    outer loop
      vertex 16.638 12 2.86396
      vertex 16 12 0
      vertex 16 12 2.79054
    endloop
  endfacet
  facet normal 0 1 0
    outer loop
      vertex 16.6498 12 2.86531
      vertex 16 12 0
      vertex 16.638 12 2.86396
    endloop
  endfacet
  facet normal 0 1 0
    outer loop
      vertex 16.6583 12 2.86814
      vertex 16 12 0
      vertex 16.6498 12 2.86531
    endloop
  endfacet
  facet normal 0 1 0
    outer loop
      vertex 16.6899 12 2.87868
      vertex 16 12 0
      vertex 16.6583 12 2.86814
    endloop
  endfacet
  facet normal 0 1 0
    outer loop
      vertex 17.1023 12 3.13959
      vertex 16 12 0
      vertex 16.6899 12 2.87868
    endloop
  endfacet
  facet normal 0 1 0
    outer loop
      vertex 17.4531 12 3.36154
      vertex 16 12 0
      vertex 17.1023 12 3.13959
    endloop
  endfacet
  facet normal 0 1 0
    outer loop
      vertex 17.7337 12 3.63803
      vertex 23.5 12 -5
      vertex 17.4531 12 3.36154
    endloop
  endfacet
  facet normal 0 1 0
    outer loop
      vertex 17.4531 12 3.36154
      vertex 23.5 12 -5
      vertex 16 12 0
    endloop
  endfacet
  facet normal 0 1 0
    outer loop
      vertex 16 12 0
      vertex 23.5 12 -5
      vertex 13.5 12 -5
    endloop
  endfacet
  facet normal 0 1 0
    outer loop
      vertex 16 12 2.79054
      vertex 6 12 0
      vertex -3 12 2.79054
    endloop
  endfacet
  facet normal 0 1 0
    outer loop
      vertex -3 12 -5
      vertex 6 12 0
      vertex 8.5 12 -5
    endloop
  endfacet
  facet normal 0 1 0
    outer loop
      vertex 6 12 0
      vertex -3 12 -5
      vertex -3 12 2.79054
    endloop
  endfacet
  facet normal 0 0 -1
    outer loop
      vertex -3 -2 -5
      vertex 8.5 12 -5
      vertex 8.5 -2 -5
    endloop
  endfacet
  facet normal -0 0 -1
    outer loop
      vertex 8.5 12 -5
      vertex -3 -2 -5
      vertex -3 12 -5
    endloop
  endfacet
  facet normal 0 0 -1
    outer loop
      vertex 13.5 -2 -5
      vertex 23.5 12 -5
      vertex 23.5 -2 -5
    endloop
  endfacet
  facet normal -0 0 -1
    outer loop
      vertex 23.5 12 -5
      vertex 13.5 -2 -5
      vertex 13.5 12 -5
    endloop
  endfacet
  facet normal 0 -1 0
    outer loop
      vertex -3 -2 9
      vertex 1 -2 8
      vertex 1 -2 9
    endloop
  endfacet
  facet normal 0 -1 0
    outer loop
      vertex 1 -2 8
      vertex 2.86118 -2 4.5307
      vertex 2.86118 -2 8
    endloop
  endfacet
  facet normal 0 -1 0
    outer loop
      vertex -3 -2 9
      vertex 2.86118 -2 4.5307
      vertex 1 -2 8
    endloop
  endfacet
  facet normal 0 -1 0
    outer loop
      vertex -3 -2 -5
      vertex 2.86118 -2 4.5307
      vertex -3 -2 9
    endloop
  endfacet
  facet normal 0 -1 -0
    outer loop
      vertex 2.86118 -2 4.5307
      vertex -3 -2 -5
      vertex 3.26632 -2 3.63803
    endloop
  endfacet
  facet normal 0 -1 0
    outer loop
      vertex 16 -2 0
      vertex 5 -2 2.79054
      vertex 6 -2 0
    endloop
  endfacet
  facet normal 0 -1 0
    outer loop
      vertex 4.36197 -2 2.86396
      vertex 6 -2 0
      vertex 5 -2 2.79054
    endloop
  endfacet
  facet normal 0 -1 0
    outer loop
      vertex 4.35016 -2 2.86531
      vertex 6 -2 0
      vertex 4.36197 -2 2.86396
    endloop
  endfacet
  facet normal 0 -1 0
    outer loop
      vertex 4.3417 -2 2.86814
      vertex 6 -2 0
      vertex 4.35016 -2 2.86531
    endloop
  endfacet
  facet normal 0 -1 0
    outer loop
      vertex 4.31014 -2 2.87868
      vertex 6 -2 0
      vertex 4.3417 -2 2.86814
    endloop
  endfacet
  facet normal 0 -1 0
    outer loop
      vertex 3.89773 -2 3.13959
      vertex 6 -2 0
      vertex 4.31014 -2 2.87868
    endloop
  endfacet
  facet normal 0 -1 0
    outer loop
      vertex 3.54691 -2 3.36154
      vertex 6 -2 0
      vertex 3.89773 -2 3.13959
    endloop
  endfacet
  facet normal 0 -1 -0
    outer loop
      vertex 3.26632 -2 3.63803
      vertex -3 -2 -5
      vertex 3.54691 -2 3.36154
    endloop
  endfacet
  facet normal 0 -1 -0
    outer loop
      vertex 3.54691 -2 3.36154
      vertex -3 -2 -5
      vertex 6 -2 0
    endloop
  endfacet
  facet normal 0 -1 -0
    outer loop
      vertex 6 -2 0
      vertex -3 -2 -5
      vertex 8.5 -2 -5
    endloop
  endfacet
  facet normal 0 -1 0
    outer loop
      vertex 5 -2 2.79054
      vertex 16 -2 0
      vertex 23.5 -2 2.79054
    endloop
  endfacet
  facet normal 0 -1 0
    outer loop
      vertex 23.5 -2 -5
      vertex 16 -2 0
      vertex 13.5 -2 -5
    endloop
  endfacet
  facet normal 0 -1 0
    outer loop
      vertex 16 -2 0
      vertex 23.5 -2 -5
      vertex 23.5 -2 2.79054
    endloop
  endfacet
  facet normal -0.894427 0 0.447214
    outer loop
      vertex 13.5 -2 -5
      vertex 16 12 0
      vertex 13.5 12 -5
    endloop
  endfacet
  facet normal -0.894427 0 0.447214
    outer loop
      vertex 16 12 0
      vertex 13.5 -2 -5
      vertex 16 -2 0
    endloop
  endfacet
  facet normal 0.894427 -0 0.447214
    outer loop
      vertex 6 -2 0
      vertex 8.5 12 -5
      vertex 6 12 0
    endloop
  endfacet
  facet normal 0.894427 0 0.447214
    outer loop
      vertex 8.5 12 -5
      vertex 6 -2 0
      vertex 8.5 -2 -5
    endloop
  endfacet
  facet normal 0 0 -1
    outer loop
      vertex 6 -2 0
      vertex 16 12 0
      vertex 16 -2 0
    endloop
  endfacet
  facet normal -0 0 -1
    outer loop
      vertex 16 12 0
      vertex 6 -2 0
      vertex 6 12 0
    endloop
  endfacet
  facet normal -0 0 1
    outer loop
      vertex -3 7 9
      vertex 1 -2 9
      vertex 1 7 9
    endloop
  endfacet
  facet normal 0 0 1
    outer loop
      vertex 1 -2 9
      vertex -3 7 9
      vertex -3 -2 9
    endloop
  endfacet
  facet normal 1 0 0
    outer loop
      vertex 1 7 9
      vertex 1 0 8
      vertex 1 7 8
    endloop
  endfacet
  facet normal 1 -0 0
    outer loop
      vertex 1 -2 9
      vertex 1 0 8
      vertex 1 7 9
    endloop
  endfacet
  facet normal 1 0 0
    outer loop
      vertex 1 0 8
      vertex 1 -2 9
      vertex 1 -2 8
    endloop
  endfacet
  facet normal 0 1 0
    outer loop
      vertex 0 7 8
      vertex 1 7 9
      vertex 1 7 8
    endloop
  endfacet
  facet normal 0 1 0
    outer loop
      vertex 1 7 9
      vertex 0 7 8
      vertex -3 7 9
    endloop
  endfacet
  facet normal 0 1 0
    outer loop
      vertex -3 7 9
      vertex 0 7 8
      vertex -3 7 8
    endloop
  endfacet
endsolid OpenSCAD_Model
