solid OpenSCAD_Model
  facet normal -1 0 0
    outer loop
      vertex -10 2.88769e-15 -13.005
      vertex -10 8 17.5
      vertex -10 8 -13.005
    endloop
  endfacet
  facet normal -1 -0 0
    outer loop
      vertex -10 8 17.5
      vertex -10 2.88769e-15 -13.005
      vertex -10 -3.88578e-15 17.5
    endloop
  endfacet
  facet normal -1 0 0
    outer loop
      vertex -10 3.88578e-15 -17.5
      vertex -10 8 -17.305
      vertex -10 8 -17.5
    endloop
  endfacet
  facet normal -1 -0 0
    outer loop
      vertex -10 8 -17.305
      vertex -10 3.88578e-15 -17.5
      vertex -10 3.84248e-15 -17.305
    endloop
  endfacet
  facet normal 0 1 0
    outer loop
      vertex 5.3975 8 -17.5
      vertex -3.15 8 -13.005
      vertex 3.15 8 -13.005
    endloop
  endfacet
  facet normal 0 1 0
    outer loop
      vertex -3.15 8 -13.005
      vertex 5.3975 8 -17.5
      vertex -5.3975 8 -17.5
    endloop
  endfacet
  facet normal 0 1 0
    outer loop
      vertex 3.15 8 -13.005
      vertex 10 8 17.5
      vertex 10 8 -13.005
    endloop
  endfacet
  facet normal 0 1 0
    outer loop
      vertex 10 8 17.5
      vertex 3.15 8 -13.005
      vertex -10 8 17.5
    endloop
  endfacet
  facet normal 0 1 -0
    outer loop
      vertex -3.15 8 -13.005
      vertex -10 8 17.5
      vertex 3.15 8 -13.005
    endloop
  endfacet
  facet normal 0 1 0
    outer loop
      vertex -10 8 17.5
      vertex -3.15 8 -13.005
      vertex -10 8 -13.005
    endloop
  endfacet
  facet normal 0 1 -0
    outer loop
      vertex 10 8 -17.5
      vertex 9.9025 8 -17.5
      vertex 10 8 -17.305
    endloop
  endfacet
  facet normal 0 1 0
    outer loop
      vertex -10 8 -17.5
      vertex -10 8 -17.305
      vertex -9.9025 8 -17.5
    endloop
  endfacet
  facet normal 1 0 0
    outer loop
      vertex 10 8 17.5
      vertex 10 2.88769e-15 -13.005
      vertex 10 8 -13.005
    endloop
  endfacet
  facet normal 1 0 -0
    outer loop
      vertex 10 2.88769e-15 -13.005
      vertex 10 8 17.5
      vertex 10 -3.88578e-15 17.5
    endloop
  endfacet
  facet normal 1 0 0
    outer loop
      vertex 10 8 -17.305
      vertex 10 3.88578e-15 -17.5
      vertex 10 8 -17.5
    endloop
  endfacet
  facet normal 1 0 -0
    outer loop
      vertex 10 3.88578e-15 -17.5
      vertex 10 8 -17.305
      vertex 10 3.84248e-15 -17.305
    endloop
  endfacet
  facet normal 0 -1 -2.22045e-16
    outer loop
      vertex 5.4 3.88689e-15 -17.505
      vertex 9.9025 3.88578e-15 -17.5
      vertex 5.3975 3.88578e-15 -17.5
    endloop
  endfacet
  facet normal 0 -1 -2.22045e-16
    outer loop
      vertex 9.9025 3.88578e-15 -17.5
      vertex 5.4 3.88689e-15 -17.505
      vertex 9.9 3.88689e-15 -17.505
    endloop
  endfacet
  facet normal 0 -1 -2.22045e-16
    outer loop
      vertex -9.9 3.88689e-15 -17.505
      vertex -5.3975 3.88578e-15 -17.5
      vertex -9.9025 3.88578e-15 -17.5
    endloop
  endfacet
  facet normal 0 -1 -2.22045e-16
    outer loop
      vertex -5.3975 3.88578e-15 -17.5
      vertex -9.9 3.88689e-15 -17.505
      vertex -5.4 3.88689e-15 -17.505
    endloop
  endfacet
  facet normal 0 -1 -2.22045e-16
    outer loop
      vertex -10 3.84248e-15 -17.305
      vertex -10 2.88769e-15 -13.005
      vertex -12.15 2.88769e-15 -13.005
    endloop
  endfacet
  facet normal 0 -1 -2.22045e-16
    outer loop
      vertex -10 2.88769e-15 -13.005
      vertex -5.3975 3.88578e-15 -17.5
      vertex 10 2.88769e-15 -13.005
    endloop
  endfacet
  facet normal 0 -1 -2.22045e-16
    outer loop
      vertex -10 2.88769e-15 -13.005
      vertex -10 3.84248e-15 -17.305
      vertex -5.3975 3.88578e-15 -17.5
    endloop
  endfacet
  facet normal -0 -1 -2.22045e-16
    outer loop
      vertex 5.3975 3.88578e-15 -17.5
      vertex 10 2.88769e-15 -13.005
      vertex -5.3975 3.88578e-15 -17.5
    endloop
  endfacet
  facet normal -0 -1 -2.22045e-16
    outer loop
      vertex -9.9025 3.88578e-15 -17.5
      vertex -10 3.84248e-15 -17.305
      vertex -10 3.88578e-15 -17.5
    endloop
  endfacet
  facet normal -0 -1 -2.22045e-16
    outer loop
      vertex -5.3975 3.88578e-15 -17.5
      vertex -10 3.84248e-15 -17.305
      vertex -9.9025 3.88578e-15 -17.5
    endloop
  endfacet
  facet normal 0 -1 -2.22045e-16
    outer loop
      vertex 10 3.84248e-15 -17.305
      vertex 10 2.88769e-15 -13.005
      vertex 5.3975 3.88578e-15 -17.5
    endloop
  endfacet
  facet normal 0 -1 -2.22045e-16
    outer loop
      vertex 10 2.88769e-15 -13.005
      vertex 10 3.84248e-15 -17.305
      vertex 12.15 2.88769e-15 -13.005
    endloop
  endfacet
  facet normal -0 -1 -2.22045e-16
    outer loop
      vertex 9.9025 3.88578e-15 -17.5
      vertex 10 3.84248e-15 -17.305
      vertex 5.3975 3.88578e-15 -17.5
    endloop
  endfacet
  facet normal 0 -1 -2.22045e-16
    outer loop
      vertex 10 3.84248e-15 -17.305
      vertex 9.9025 3.88578e-15 -17.5
      vertex 10 3.88578e-15 -17.5
    endloop
  endfacet
  facet normal 0 -1 -2.22045e-16
    outer loop
      vertex -10 -3.88578e-15 17.5
      vertex -2.5 0 0
      vertex -2.5 -3.88578e-15 17.5
    endloop
  endfacet
  facet normal 0 -1 -2.22045e-16
    outer loop
      vertex -2.5 0 0
      vertex -10 2.88769e-15 -13.005
      vertex 2.5 0 0
    endloop
  endfacet
  facet normal 0 -1 -2.22045e-16
    outer loop
      vertex -10 2.88769e-15 -13.005
      vertex -2.5 0 0
      vertex -10 -3.88578e-15 17.5
    endloop
  endfacet
  facet normal 0 -1 -2.22045e-16
    outer loop
      vertex 2.5 0 0
      vertex 10 -3.88578e-15 17.5
      vertex 2.5 -3.88578e-15 17.5
    endloop
  endfacet
  facet normal 0 -1 -2.22045e-16
    outer loop
      vertex 2.5 0 0
      vertex 10 2.88769e-15 -13.005
      vertex 10 -3.88578e-15 17.5
    endloop
  endfacet
  facet normal -0 -1 -2.22045e-16
    outer loop
      vertex 10 2.88769e-15 -13.005
      vertex 2.5 0 0
      vertex -10 2.88769e-15 -13.005
    endloop
  endfacet
  facet normal 0 0 1
    outer loop
      vertex 10 8 17.5
      vertex 5 5 17.5
      vertex 10 -3.88578e-15 17.5
    endloop
  endfacet
  facet normal 0 0 1
    outer loop
      vertex 10 8 17.5
      vertex -5 5 17.5
      vertex 5 5 17.5
    endloop
  endfacet
  facet normal 0 -0 1
    outer loop
      vertex -5 5 17.5
      vertex 10 8 17.5
      vertex -10 8 17.5
    endloop
  endfacet
  facet normal 0 0 1
    outer loop
      vertex 10 -3.88578e-15 17.5
      vertex 5 5 17.5
      vertex 2.5 -3.88578e-15 17.5
    endloop
  endfacet
  facet normal 0 0 1
    outer loop
      vertex -10 -3.88578e-15 17.5
      vertex -5 5 17.5
      vertex -10 8 17.5
    endloop
  endfacet
  facet normal 0 0 1
    outer loop
      vertex -5 5 17.5
      vertex -10 -3.88578e-15 17.5
      vertex -2.5 -3.88578e-15 17.5
    endloop
  endfacet
  facet normal 0 0 -1
    outer loop
      vertex 9.9025 3.88578e-15 -17.5
      vertex 10 8 -17.5
      vertex 10 3.88578e-15 -17.5
    endloop
  endfacet
  facet normal -0 0 -1
    outer loop
      vertex 10 8 -17.5
      vertex 9.9025 3.88578e-15 -17.5
      vertex 9.9025 8 -17.5
    endloop
  endfacet
  facet normal 0 0 -1
    outer loop
      vertex -10 3.88578e-15 -17.5
      vertex -9.9025 8 -17.5
      vertex -9.9025 3.88578e-15 -17.5
    endloop
  endfacet
  facet normal -0 0 -1
    outer loop
      vertex -9.9025 8 -17.5
      vertex -10 3.88578e-15 -17.5
      vertex -10 8 -17.5
    endloop
  endfacet
  facet normal 0 0 -1
    outer loop
      vertex -5.3975 3.88578e-15 -17.5
      vertex 5.3975 8 -17.5
      vertex 5.3975 3.88578e-15 -17.5
    endloop
  endfacet
  facet normal -0 0 -1
    outer loop
      vertex 5.3975 8 -17.5
      vertex -5.3975 3.88578e-15 -17.5
      vertex -5.3975 8 -17.5
    endloop
  endfacet
  facet normal 0 -2.22045e-16 1
    outer loop
      vertex 5 5 1.11022e-15
      vertex -2.5 0 0
      vertex 2.5 0 0
    endloop
  endfacet
  facet normal 0 -2.22045e-16 1
    outer loop
      vertex -2.5 0 0
      vertex 5 5 1.11022e-15
      vertex -5 5 1.11022e-15
    endloop
  endfacet
  facet normal -0.894427 0.447214 0
    outer loop
      vertex 2.5 0 0
      vertex 5 5 17.5
      vertex 5 5 1.11022e-15
    endloop
  endfacet
  facet normal -0.894427 0.447214 9.07898e-17
    outer loop
      vertex 5 5 17.5
      vertex 2.5 0 0
      vertex 2.5 -3.88578e-15 17.5
    endloop
  endfacet
  facet normal 0 -1 0
    outer loop
      vertex -5 5 1.11022e-15
      vertex 5 5 17.5
      vertex -5 5 17.5
    endloop
  endfacet
  facet normal 0 -1 -0
    outer loop
      vertex 5 5 17.5
      vertex -5 5 1.11022e-15
      vertex 5 5 1.11022e-15
    endloop
  endfacet
  facet normal 0.894427 0.447214 0
    outer loop
      vertex -5 5 17.5
      vertex -2.5 0 0
      vertex -5 5 1.11022e-15
    endloop
  endfacet
  facet normal 0.894427 0.447214 9.93014e-17
    outer loop
      vertex -2.5 0 0
      vertex -5 5 17.5
      vertex -2.5 -3.88578e-15 17.5
    endloop
  endfacet
  facet normal 0.894427 0 -0.447214
    outer loop
      vertex 12.15 22.5 -13.005
      vertex 10 8 -17.305
      vertex 9.9 22.5 -17.505
    endloop
  endfacet
  facet normal 0.894427 0 -0.447214
    outer loop
      vertex 12.15 2.88769e-15 -13.005
      vertex 10 8 -17.305
      vertex 12.15 22.5 -13.005
    endloop
  endfacet
  facet normal 0.894427 0 -0.447214
    outer loop
      vertex 10 8 -17.305
      vertex 12.15 2.88769e-15 -13.005
      vertex 10 3.84248e-15 -17.305
    endloop
  endfacet
  facet normal 0.894427 0 -0.447214
    outer loop
      vertex 9.9025 8 -17.5
      vertex 9.9 22.5 -17.505
      vertex 10 8 -17.305
    endloop
  endfacet
  facet normal 0.894427 0 -0.447214
    outer loop
      vertex 9.9025 8 -17.5
      vertex 9.9 3.88689e-15 -17.505
      vertex 9.9 22.5 -17.505
    endloop
  endfacet
  facet normal 0.894427 0 -0.447214
    outer loop
      vertex 9.9 3.88689e-15 -17.505
      vertex 9.9025 8 -17.5
      vertex 9.9025 3.88578e-15 -17.5
    endloop
  endfacet
  facet normal -0.894427 0 -0.447214
    outer loop
      vertex 5.4 22.5 -17.505
      vertex 5.3975 8 -17.5
      vertex 3.15 22.5 -13.005
    endloop
  endfacet
  facet normal -0.894427 0 -0.447214
    outer loop
      vertex 5.4 3.88689e-15 -17.505
      vertex 5.3975 8 -17.5
      vertex 5.4 22.5 -17.505
    endloop
  endfacet
  facet normal -0.894427 -0 -0.447214
    outer loop
      vertex 5.3975 8 -17.5
      vertex 5.4 3.88689e-15 -17.505
      vertex 5.3975 3.88578e-15 -17.5
    endloop
  endfacet
  facet normal -0.894427 -0 -0.447214
    outer loop
      vertex 3.15 22.5 -13.005
      vertex 5.3975 8 -17.5
      vertex 3.15 8 -13.005
    endloop
  endfacet
  facet normal 0 0 1
    outer loop
      vertex 12.15 22.5 -13.005
      vertex 10 8 -13.005
      vertex 12.15 2.88769e-15 -13.005
    endloop
  endfacet
  facet normal -0 0 1
    outer loop
      vertex 3.15 22.5 -13.005
      vertex 10 8 -13.005
      vertex 12.15 22.5 -13.005
    endloop
  endfacet
  facet normal 0 0 1
    outer loop
      vertex 10 8 -13.005
      vertex 3.15 22.5 -13.005
      vertex 3.15 8 -13.005
    endloop
  endfacet
  facet normal 0 0 1
    outer loop
      vertex 12.15 2.88769e-15 -13.005
      vertex 10 8 -13.005
      vertex 10 2.88769e-15 -13.005
    endloop
  endfacet
  facet normal 0 0 -1
    outer loop
      vertex 5.4 3.88689e-15 -17.505
      vertex 9.9 22.5 -17.505
      vertex 9.9 3.88689e-15 -17.505
    endloop
  endfacet
  facet normal -0 0 -1
    outer loop
      vertex 9.9 22.5 -17.505
      vertex 5.4 3.88689e-15 -17.505
      vertex 5.4 22.5 -17.505
    endloop
  endfacet
  facet normal 0 1 -0
    outer loop
      vertex 9.9 22.5 -17.505
      vertex 3.15 22.5 -13.005
      vertex 12.15 22.5 -13.005
    endloop
  endfacet
  facet normal 0 1 0
    outer loop
      vertex 3.15 22.5 -13.005
      vertex 9.9 22.5 -17.505
      vertex 5.4 22.5 -17.505
    endloop
  endfacet
  facet normal 0.894427 0 -0.447214
    outer loop
      vertex -3.15 8 -13.005
      vertex -5.4 22.5 -17.505
      vertex -3.15 22.5 -13.005
    endloop
  endfacet
  facet normal 0.894427 0 -0.447214
    outer loop
      vertex -5.3975 8 -17.5
      vertex -5.4 22.5 -17.505
      vertex -3.15 8 -13.005
    endloop
  endfacet
  facet normal 0.894427 0 -0.447214
    outer loop
      vertex -5.3975 8 -17.5
      vertex -5.4 3.88689e-15 -17.505
      vertex -5.4 22.5 -17.505
    endloop
  endfacet
  facet normal 0.894427 0 -0.447214
    outer loop
      vertex -5.4 3.88689e-15 -17.505
      vertex -5.3975 8 -17.5
      vertex -5.3975 3.88578e-15 -17.5
    endloop
  endfacet
  facet normal -0.894427 0 -0.447214
    outer loop
      vertex -10 8 -17.305
      vertex -9.9 22.5 -17.505
      vertex -9.9025 8 -17.5
    endloop
  endfacet
  facet normal -0.894427 0 -0.447214
    outer loop
      vertex -9.9 3.88689e-15 -17.505
      vertex -9.9025 8 -17.5
      vertex -9.9 22.5 -17.505
    endloop
  endfacet
  facet normal -0.894427 -0 -0.447214
    outer loop
      vertex -9.9025 8 -17.5
      vertex -9.9 3.88689e-15 -17.505
      vertex -9.9025 3.88578e-15 -17.5
    endloop
  endfacet
  facet normal -0.894427 0 -0.447214
    outer loop
      vertex -9.9 22.5 -17.505
      vertex -10 8 -17.305
      vertex -12.15 22.5 -13.005
    endloop
  endfacet
  facet normal -0.894427 0 -0.447214
    outer loop
      vertex -12.15 2.88769e-15 -13.005
      vertex -10 8 -17.305
      vertex -10 3.84248e-15 -17.305
    endloop
  endfacet
  facet normal -0.894427 0 -0.447214
    outer loop
      vertex -10 8 -17.305
      vertex -12.15 2.88769e-15 -13.005
      vertex -12.15 22.5 -13.005
    endloop
  endfacet
  facet normal 0 0 1
    outer loop
      vertex -3.15 22.5 -13.005
      vertex -10 8 -13.005
      vertex -3.15 8 -13.005
    endloop
  endfacet
  facet normal -0 0 1
    outer loop
      vertex -12.15 22.5 -13.005
      vertex -10 8 -13.005
      vertex -3.15 22.5 -13.005
    endloop
  endfacet
  facet normal 0 0 1
    outer loop
      vertex -12.15 2.88769e-15 -13.005
      vertex -10 8 -13.005
      vertex -12.15 22.5 -13.005
    endloop
  endfacet
  facet normal 0 0 1
    outer loop
      vertex -10 8 -13.005
      vertex -12.15 2.88769e-15 -13.005
      vertex -10 2.88769e-15 -13.005
    endloop
  endfacet
  facet normal 0 0 -1
    outer loop
      vertex -9.9 3.88689e-15 -17.505
      vertex -5.4 22.5 -17.505
      vertex -5.4 3.88689e-15 -17.505
    endloop
  endfacet
  facet normal -0 0 -1
    outer loop
      vertex -5.4 22.5 -17.505
      vertex -9.9 3.88689e-15 -17.505
      vertex -9.9 22.5 -17.505
    endloop
  endfacet
  facet normal 0 1 -0
    outer loop
      vertex -5.4 22.5 -17.505
      vertex -12.15 22.5 -13.005
      vertex -3.15 22.5 -13.005
    endloop
  endfacet
  facet normal 0 1 0
    outer loop
      vertex -12.15 22.5 -13.005
      vertex -5.4 22.5 -17.505
      vertex -9.9 22.5 -17.505
    endloop
  endfacet
endsolid OpenSCAD_Model
