solid OpenSCAD_Model
  facet normal 0.866025 0.5 0
    outer loop
      vertex 9.9 0 6
      vertex 4.95 8.57365 -6
      vertex 4.95 8.57365 6
    endloop
  endfacet
  facet normal 0.866025 0.5 0
    outer loop
      vertex 4.95 8.57365 -6
      vertex 9.9 0 6
      vertex 9.9 0 -6
    endloop
  endfacet
  facet normal -0.866025 0.5 0
    outer loop
      vertex -5.33893 7.9 -3
      vertex -4.95 8.57365 -6
      vertex -5.33893 7.9 -6
    endloop
  endfacet
  facet normal -0.866025 0.5 0
    outer loop
      vertex -4.95 8.57365 -6
      vertex -5.33893 7.9 -3
      vertex -4.95 8.57365 6
    endloop
  endfacet
  facet normal -0.866025 0.5 0
    outer loop
      vertex -9.9 0 6
      vertex -5.33893 7.9 -3
      vertex -9.9 0 -3
    endloop
  endfacet
  facet normal -0.866025 0.5 1.93242e-08
    outer loop
      vertex -5.33893 7.9 -3
      vertex -9.9 0 6
      vertex -4.95 8.57365 6
    endloop
  endfacet
  facet normal 0 1 -0
    outer loop
      vertex 4.95 8.57365 -6
      vertex -4.95 8.57365 6
      vertex 4.95 8.57365 6
    endloop
  endfacet
  facet normal 0 1 0
    outer loop
      vertex -4.95 8.57365 6
      vertex 4.95 8.57365 -6
      vertex -4.95 8.57365 -6
    endloop
  endfacet
  facet normal 0 0 1
    outer loop
      vertex 4.95 8.57365 6
      vertex 7.9 0 6
      vertex 9.9 0 6
    endloop
  endfacet
  facet normal 0 0 1
    outer loop
      vertex 4.95 8.57365 6
      vertex 3.95 6.8416 6
      vertex 7.9 0 6
    endloop
  endfacet
  facet normal 0 0 1
    outer loop
      vertex 4.95 8.57365 6
      vertex -3.95 6.8416 6
      vertex 3.95 6.8416 6
    endloop
  endfacet
  facet normal -0 0 1
    outer loop
      vertex -4.95 8.57365 6
      vertex -3.95 6.8416 6
      vertex 4.95 8.57365 6
    endloop
  endfacet
  facet normal 0 0 1
    outer loop
      vertex -4.95 8.57365 6
      vertex -7.9 0 6
      vertex -3.95 6.8416 6
    endloop
  endfacet
  facet normal 0 -0 1
    outer loop
      vertex -7.9 0 6
      vertex -4.95 8.57365 6
      vertex -9.9 0 6
    endloop
  endfacet
  facet normal -0 0 1
    outer loop
      vertex 7.9 0 6
      vertex 4.95 -8.57365 6
      vertex 9.9 0 6
    endloop
  endfacet
  facet normal -0 0 1
    outer loop
      vertex 3.95 -6.8416 6
      vertex 4.95 -8.57365 6
      vertex 7.9 0 6
    endloop
  endfacet
  facet normal -0 0 1
    outer loop
      vertex -3.95 -6.8416 6
      vertex 4.95 -8.57365 6
      vertex 3.95 -6.8416 6
    endloop
  endfacet
  facet normal 0 0 1
    outer loop
      vertex -3.95 -6.8416 6
      vertex -4.95 -8.57365 6
      vertex 4.95 -8.57365 6
    endloop
  endfacet
  facet normal 0 0 1
    outer loop
      vertex -7.9 0 6
      vertex -4.95 -8.57365 6
      vertex -3.95 -6.8416 6
    endloop
  endfacet
  facet normal 0 0 1
    outer loop
      vertex -4.95 -8.57365 6
      vertex -7.9 0 6
      vertex -9.9 0 6
    endloop
  endfacet
  facet normal 0 0 -1
    outer loop
      vertex 4.95 -8.57365 -6
      vertex 7.9 0 -6
      vertex 9.9 0 -6
    endloop
  endfacet
  facet normal 0 0 -1
    outer loop
      vertex 4.95 -8.57365 -6
      vertex 3.95 -6.8416 -6
      vertex 7.9 0 -6
    endloop
  endfacet
  facet normal 0 0 -1
    outer loop
      vertex 4.95 -8.57365 -6
      vertex -3.95 -6.8416 -6
      vertex 3.95 -6.8416 -6
    endloop
  endfacet
  facet normal 0 0 -1
    outer loop
      vertex -4.95 -8.57365 -6
      vertex -3.95 -6.8416 -6
      vertex 4.95 -8.57365 -6
    endloop
  endfacet
  facet normal 0 0 -1
    outer loop
      vertex -5.33893 -7.9 -6
      vertex -3.95 -6.8416 -6
      vertex -4.95 -8.57365 -6
    endloop
  endfacet
  facet normal 0 0 -1
    outer loop
      vertex -5.33893 -7.9 -6
      vertex -7.9 0 -6
      vertex -3.95 -6.8416 -6
    endloop
  endfacet
  facet normal 0 -0 -1
    outer loop
      vertex -7.9 0 -6
      vertex -5.33893 -7.9 -6
      vertex -31.6 -7.9 -6
    endloop
  endfacet
  facet normal 0 0 -1
    outer loop
      vertex 7.9 0 -6
      vertex 4.95 8.57365 -6
      vertex 9.9 0 -6
    endloop
  endfacet
  facet normal 0 0 -1
    outer loop
      vertex 3.95 6.8416 -6
      vertex 4.95 8.57365 -6
      vertex 7.9 0 -6
    endloop
  endfacet
  facet normal 0 0 -1
    outer loop
      vertex -3.95 6.8416 -6
      vertex 4.95 8.57365 -6
      vertex 3.95 6.8416 -6
    endloop
  endfacet
  facet normal 0 0 -1
    outer loop
      vertex -3.95 6.8416 -6
      vertex -4.95 8.57365 -6
      vertex 4.95 8.57365 -6
    endloop
  endfacet
  facet normal 0 0 -1
    outer loop
      vertex -3.95 6.8416 -6
      vertex -5.33893 7.9 -6
      vertex -4.95 8.57365 -6
    endloop
  endfacet
  facet normal 0 0 -1
    outer loop
      vertex -7.9 0 -6
      vertex -5.33893 7.9 -6
      vertex -3.95 6.8416 -6
    endloop
  endfacet
  facet normal 0 0 -1
    outer loop
      vertex -31.6 7.9 -6
      vertex -7.9 0 -6
      vertex -31.6 -7.9 -6
    endloop
  endfacet
  facet normal 0 0 -1
    outer loop
      vertex -7.9 0 -6
      vertex -31.6 7.9 -6
      vertex -5.33893 7.9 -6
    endloop
  endfacet
  facet normal 0 -1 0
    outer loop
      vertex -4.95 -8.57365 -6
      vertex 4.95 -8.57365 6
      vertex -4.95 -8.57365 6
    endloop
  endfacet
  facet normal 0 -1 -0
    outer loop
      vertex 4.95 -8.57365 6
      vertex -4.95 -8.57365 -6
      vertex 4.95 -8.57365 -6
    endloop
  endfacet
  facet normal -0.866025 -0.5 0
    outer loop
      vertex -5.33893 -7.9 -6
      vertex -4.95 -8.57365 -6
      vertex -5.33893 -7.9 -3
    endloop
  endfacet
  facet normal -0.866025 -0.5 0
    outer loop
      vertex -5.33893 -7.9 -3
      vertex -9.9 0 6
      vertex -9.9 0 -3
    endloop
  endfacet
  facet normal -0.866025 -0.5 1.93242e-08
    outer loop
      vertex -5.33893 -7.9 -3
      vertex -4.95 -8.57365 6
      vertex -9.9 0 6
    endloop
  endfacet
  facet normal -0.866025 -0.5 -0
    outer loop
      vertex -4.95 -8.57365 6
      vertex -5.33893 -7.9 -3
      vertex -4.95 -8.57365 -6
    endloop
  endfacet
  facet normal 0.866025 -0.5 0
    outer loop
      vertex 4.95 -8.57365 6
      vertex 9.9 0 -6
      vertex 9.9 0 6
    endloop
  endfacet
  facet normal 0.866025 -0.5 0
    outer loop
      vertex 9.9 0 -6
      vertex 4.95 -8.57365 6
      vertex 4.95 -8.57365 -6
    endloop
  endfacet
  facet normal -1 0 0
    outer loop
      vertex -31.6 -7.9 -6
      vertex -31.6 7.9 -3
      vertex -31.6 7.9 -6
    endloop
  endfacet
  facet normal -1 -0 0
    outer loop
      vertex -31.6 7.9 -3
      vertex -31.6 -7.9 -6
      vertex -31.6 -7.9 -3
    endloop
  endfacet
  facet normal 0 0 1
    outer loop
      vertex -5.33893 7.9 -3
      vertex -31.6 7.9 -3
      vertex -9.9 0 -3
    endloop
  endfacet
  facet normal 0 0 1
    outer loop
      vertex -31.6 -7.9 -3
      vertex -9.9 0 -3
      vertex -31.6 7.9 -3
    endloop
  endfacet
  facet normal 0 0 1
    outer loop
      vertex -9.9 0 -3
      vertex -31.6 -7.9 -3
      vertex -5.33893 -7.9 -3
    endloop
  endfacet
  facet normal 0 1 -0
    outer loop
      vertex -5.33893 7.9 -6
      vertex -31.6 7.9 -3
      vertex -5.33893 7.9 -3
    endloop
  endfacet
  facet normal 0 1 0
    outer loop
      vertex -31.6 7.9 -3
      vertex -5.33893 7.9 -6
      vertex -31.6 7.9 -6
    endloop
  endfacet
  facet normal 0 -1 0
    outer loop
      vertex -31.6 -7.9 -6
      vertex -5.33893 -7.9 -3
      vertex -31.6 -7.9 -3
    endloop
  endfacet
  facet normal 0 -1 -0
    outer loop
      vertex -5.33893 -7.9 -3
      vertex -31.6 -7.9 -6
      vertex -5.33893 -7.9 -6
    endloop
  endfacet
  facet normal -0.866025 -0.5 0
    outer loop
      vertex 3.95 6.8416 -6
      vertex 4.49363 5.9 -0.5
      vertex 3.95 6.8416 -0.5
    endloop
  endfacet
  facet normal -0.866025 -0.5 0
    outer loop
      vertex 4.49363 5.9 -0.5
      vertex 5.9 3.4641 -0.5
      vertex 4.49363 5.9 0.5
    endloop
  endfacet
  facet normal -0.866025 -0.5 1.16489e-09
    outer loop
      vertex 3.95 6.8416 -6
      vertex 5.9 3.4641 -0.5
      vertex 4.49363 5.9 -0.5
    endloop
  endfacet
  facet normal -0.866025 -0.5 -8.34757e-09
    outer loop
      vertex 7.9 0 -6
      vertex 5.9 3.4641 -0.5
      vertex 3.95 6.8416 -6
    endloop
  endfacet
  facet normal -0.866025 -0.5 0
    outer loop
      vertex 5.9 3.4641 -0.5
      vertex 7.9 0 -6
      vertex 7.9 0 -0.5
    endloop
  endfacet
  facet normal -0.866025 -0.5 0
    outer loop
      vertex 4.49363 5.9 0.5
      vertex 3.95 6.8416 6
      vertex 3.95 6.8416 0.5
    endloop
  endfacet
  facet normal -0.866025 -0.5 -0
    outer loop
      vertex 5.9 3.4641 0.5
      vertex 4.49363 5.9 0.5
      vertex 5.9 3.4641 -0.5
    endloop
  endfacet
  facet normal -0.866025 -0.5 -1.16489e-09
    outer loop
      vertex 4.49363 5.9 0.5
      vertex 5.9 3.4641 0.5
      vertex 3.95 6.8416 6
    endloop
  endfacet
  facet normal -0.866025 -0.5 -0
    outer loop
      vertex 7.9 0 6
      vertex 5.9 3.4641 0.5
      vertex 7.9 0 0.5
    endloop
  endfacet
  facet normal -0.866025 -0.5 8.34757e-09
    outer loop
      vertex 5.9 3.4641 0.5
      vertex 7.9 0 6
      vertex 3.95 6.8416 6
    endloop
  endfacet
  facet normal 0.866025 -0.5 0
    outer loop
      vertex -3.95 6.8416 6
      vertex -4.49363 5.9 0.5
      vertex -3.95 6.8416 0.5
    endloop
  endfacet
  facet normal 0.866025 -0.5 0
    outer loop
      vertex -4.49363 5.9 0.5
      vertex -5.9 3.4641 0.5
      vertex -4.49363 5.9 -0.5
    endloop
  endfacet
  facet normal 0.866025 -0.5 -1.16489e-09
    outer loop
      vertex -3.95 6.8416 6
      vertex -5.9 3.4641 0.5
      vertex -4.49363 5.9 0.5
    endloop
  endfacet
  facet normal 0.866025 -0.5 8.34757e-09
    outer loop
      vertex -7.9 0 6
      vertex -5.9 3.4641 0.5
      vertex -3.95 6.8416 6
    endloop
  endfacet
  facet normal 0.866025 -0.5 0
    outer loop
      vertex -5.9 3.4641 0.5
      vertex -7.9 0 6
      vertex -7.9 0 0.5
    endloop
  endfacet
  facet normal 0.866025 -0.5 0
    outer loop
      vertex -4.49363 5.9 -0.5
      vertex -3.95 6.8416 -6
      vertex -3.95 6.8416 -0.5
    endloop
  endfacet
  facet normal 0.866025 -0.5 0
    outer loop
      vertex -5.9 3.4641 -0.5
      vertex -4.49363 5.9 -0.5
      vertex -5.9 3.4641 0.5
    endloop
  endfacet
  facet normal 0.866025 -0.5 1.16489e-09
    outer loop
      vertex -4.49363 5.9 -0.5
      vertex -5.9 3.4641 -0.5
      vertex -3.95 6.8416 -6
    endloop
  endfacet
  facet normal 0.866025 -0.5 0
    outer loop
      vertex -7.9 0 -6
      vertex -5.9 3.4641 -0.5
      vertex -7.9 0 -0.5
    endloop
  endfacet
  facet normal 0.866025 -0.5 -8.34757e-09
    outer loop
      vertex -5.9 3.4641 -0.5
      vertex -7.9 0 -6
      vertex -3.95 6.8416 -6
    endloop
  endfacet
  facet normal 0 -1 0
    outer loop
      vertex -3.95 6.8416 0.5
      vertex 3.95 6.8416 6
      vertex -3.95 6.8416 6
    endloop
  endfacet
  facet normal 0 -1 -0
    outer loop
      vertex 3.95 6.8416 6
      vertex -3.95 6.8416 0.5
      vertex 3.95 6.8416 0.5
    endloop
  endfacet
  facet normal 0 -1 0
    outer loop
      vertex -3.95 6.8416 -6
      vertex 3.95 6.8416 -0.5
      vertex -3.95 6.8416 -0.5
    endloop
  endfacet
  facet normal 0 -1 -0
    outer loop
      vertex 3.95 6.8416 -0.5
      vertex -3.95 6.8416 -6
      vertex 3.95 6.8416 -6
    endloop
  endfacet
  facet normal -0.866025 0.5 0
    outer loop
      vertex 7.9 0 -6
      vertex 5.9 -3.4641 -0.5
      vertex 7.9 0 -0.5
    endloop
  endfacet
  facet normal -0.866025 0.5 0
    outer loop
      vertex 5.9 -3.4641 -0.5
      vertex 4.49363 -5.9 -0.5
      vertex 5.9 -3.4641 0.5
    endloop
  endfacet
  facet normal -0.866025 0.5 -8.34757e-09
    outer loop
      vertex 3.95 -6.8416 -6
      vertex 5.9 -3.4641 -0.5
      vertex 7.9 0 -6
    endloop
  endfacet
  facet normal -0.866025 0.5 1.16489e-09
    outer loop
      vertex 5.9 -3.4641 -0.5
      vertex 3.95 -6.8416 -6
      vertex 4.49363 -5.9 -0.5
    endloop
  endfacet
  facet normal -0.866025 0.5 0
    outer loop
      vertex 4.49363 -5.9 -0.5
      vertex 3.95 -6.8416 -6
      vertex 3.95 -6.8416 -0.5
    endloop
  endfacet
  facet normal -0.866025 0.5 0
    outer loop
      vertex 5.9 -3.4641 0.5
      vertex 7.9 0 6
      vertex 7.9 0 0.5
    endloop
  endfacet
  facet normal -0.866025 0.5 0
    outer loop
      vertex 4.49363 -5.9 0.5
      vertex 5.9 -3.4641 0.5
      vertex 4.49363 -5.9 -0.5
    endloop
  endfacet
  facet normal -0.866025 0.5 -1.16489e-09
    outer loop
      vertex 3.95 -6.8416 6
      vertex 5.9 -3.4641 0.5
      vertex 4.49363 -5.9 0.5
    endloop
  endfacet
  facet normal -0.866025 0.5 0
    outer loop
      vertex 3.95 -6.8416 6
      vertex 4.49363 -5.9 0.5
      vertex 3.95 -6.8416 0.5
    endloop
  endfacet
  facet normal -0.866025 0.5 8.34757e-09
    outer loop
      vertex 5.9 -3.4641 0.5
      vertex 3.95 -6.8416 6
      vertex 7.9 0 6
    endloop
  endfacet
  facet normal 0 1 -0
    outer loop
      vertex 3.95 -6.8416 0.5
      vertex -3.95 -6.8416 6
      vertex 3.95 -6.8416 6
    endloop
  endfacet
  facet normal 0 1 0
    outer loop
      vertex -3.95 -6.8416 6
      vertex 3.95 -6.8416 0.5
      vertex -3.95 -6.8416 0.5
    endloop
  endfacet
  facet normal 0 1 -0
    outer loop
      vertex 3.95 -6.8416 -6
      vertex -3.95 -6.8416 -0.5
      vertex 3.95 -6.8416 -0.5
    endloop
  endfacet
  facet normal 0 1 0
    outer loop
      vertex -3.95 -6.8416 -0.5
      vertex 3.95 -6.8416 -6
      vertex -3.95 -6.8416 -6
    endloop
  endfacet
  facet normal 0.866025 0.5 0
    outer loop
      vertex -7.9 0 6
      vertex -5.9 -3.4641 0.5
      vertex -7.9 0 0.5
    endloop
  endfacet
  facet normal 0.866025 0.5 0
    outer loop
      vertex -5.9 -3.4641 0.5
      vertex -4.49363 -5.9 0.5
      vertex -5.9 -3.4641 -0.5
    endloop
  endfacet
  facet normal 0.866025 0.5 8.34757e-09
    outer loop
      vertex -3.95 -6.8416 6
      vertex -5.9 -3.4641 0.5
      vertex -7.9 0 6
    endloop
  endfacet
  facet normal 0.866025 0.5 -1.16489e-09
    outer loop
      vertex -5.9 -3.4641 0.5
      vertex -3.95 -6.8416 6
      vertex -4.49363 -5.9 0.5
    endloop
  endfacet
  facet normal 0.866025 0.5 0
    outer loop
      vertex -4.49363 -5.9 0.5
      vertex -3.95 -6.8416 6
      vertex -3.95 -6.8416 0.5
    endloop
  endfacet
  facet normal 0.866025 0.5 0
    outer loop
      vertex -5.9 -3.4641 -0.5
      vertex -7.9 0 -6
      vertex -7.9 0 -0.5
    endloop
  endfacet
  facet normal 0.866025 0.5 -0
    outer loop
      vertex -4.49363 -5.9 -0.5
      vertex -5.9 -3.4641 -0.5
      vertex -4.49363 -5.9 0.5
    endloop
  endfacet
  facet normal 0.866025 0.5 1.16489e-09
    outer loop
      vertex -3.95 -6.8416 -6
      vertex -5.9 -3.4641 -0.5
      vertex -4.49363 -5.9 -0.5
    endloop
  endfacet
  facet normal 0.866025 0.5 -0
    outer loop
      vertex -3.95 -6.8416 -6
      vertex -4.49363 -5.9 -0.5
      vertex -3.95 -6.8416 -0.5
    endloop
  endfacet
  facet normal 0.866025 0.5 -8.34757e-09
    outer loop
      vertex -5.9 -3.4641 -0.5
      vertex -3.95 -6.8416 -6
      vertex -7.9 0 -6
    endloop
  endfacet
  facet normal 0 0 1
    outer loop
      vertex -5.9 3.4641 0.5
      vertex -7.9 0 0.5
      vertex -5.9 -3.4641 0.5
    endloop
  endfacet
  facet normal 0 0 1
    outer loop
      vertex 5.9 3.4641 0.5
      vertex 5.9 -3.4641 0.5
      vertex 7.9 0 0.5
    endloop
  endfacet
  facet normal -0 0 1
    outer loop
      vertex -3.95 6.8416 0.5
      vertex 4.49363 5.9 0.5
      vertex 3.95 6.8416 0.5
    endloop
  endfacet
  facet normal 0 0 1
    outer loop
      vertex 4.49363 5.9 0.5
      vertex -3.95 6.8416 0.5
      vertex -4.49363 5.9 0.5
    endloop
  endfacet
  facet normal 0 0 1
    outer loop
      vertex 4.49363 -5.9 0.5
      vertex -3.95 -6.8416 0.5
      vertex 3.95 -6.8416 0.5
    endloop
  endfacet
  facet normal 0 -0 1
    outer loop
      vertex -3.95 -6.8416 0.5
      vertex 4.49363 -5.9 0.5
      vertex -4.49363 -5.9 0.5
    endloop
  endfacet
  facet normal 0 0 -1
    outer loop
      vertex -5.9 -3.4641 -0.5
      vertex -7.9 0 -0.5
      vertex -5.9 3.4641 -0.5
    endloop
  endfacet
  facet normal -0 0 -1
    outer loop
      vertex 7.9 0 -0.5
      vertex 5.9 -3.4641 -0.5
      vertex 5.9 3.4641 -0.5
    endloop
  endfacet
  facet normal 0 0 -1
    outer loop
      vertex 4.49363 5.9 -0.5
      vertex -3.95 6.8416 -0.5
      vertex 3.95 6.8416 -0.5
    endloop
  endfacet
  facet normal 0 -0 -1
    outer loop
      vertex -3.95 6.8416 -0.5
      vertex 4.49363 5.9 -0.5
      vertex -4.49363 5.9 -0.5
    endloop
  endfacet
  facet normal 0 0 -1
    outer loop
      vertex -3.95 -6.8416 -0.5
      vertex 4.49363 -5.9 -0.5
      vertex 3.95 -6.8416 -0.5
    endloop
  endfacet
  facet normal -0 0 -1
    outer loop
      vertex 4.49363 -5.9 -0.5
      vertex -3.95 -6.8416 -0.5
      vertex -4.49363 -5.9 -0.5
    endloop
  endfacet
  facet normal 1 -0 0
    outer loop
      vertex -5.9 -3.4641 0.5
      vertex -5.9 3.4641 -0.5
      vertex -5.9 3.4641 0.5
    endloop
  endfacet
  facet normal 1 0 0
    outer loop
      vertex -5.9 3.4641 -0.5
      vertex -5.9 -3.4641 0.5
      vertex -5.9 -3.4641 -0.5
    endloop
  endfacet
  facet normal -1 0 0
    outer loop
      vertex 5.9 -3.4641 -0.5
      vertex 5.9 3.4641 0.5
      vertex 5.9 3.4641 -0.5
    endloop
  endfacet
  facet normal -1 -0 0
    outer loop
      vertex 5.9 3.4641 0.5
      vertex 5.9 -3.4641 -0.5
      vertex 5.9 -3.4641 0.5
    endloop
  endfacet
  facet normal 0 -1 0
    outer loop
      vertex -4.49363 5.9 -0.5
      vertex 4.49363 5.9 0.5
      vertex -4.49363 5.9 0.5
    endloop
  endfacet
  facet normal 0 -1 -0
    outer loop
      vertex 4.49363 5.9 0.5
      vertex -4.49363 5.9 -0.5
      vertex 4.49363 5.9 -0.5
    endloop
  endfacet
  facet normal 0 1 -0
    outer loop
      vertex 4.49363 -5.9 -0.5
      vertex -4.49363 -5.9 0.5
      vertex 4.49363 -5.9 0.5
    endloop
  endfacet
  facet normal 0 1 0
    outer loop
      vertex -4.49363 -5.9 0.5
      vertex 4.49363 -5.9 -0.5
      vertex -4.49363 -5.9 -0.5
    endloop
  endfacet
endsolid OpenSCAD_Model
