solid OpenSCAD_Model
  facet normal 0 1 -2.22045e-016
    outer loop
      vertex 2.67511 -1.11022e-015 -5
      vertex 2.375 0 0
      vertex 3.60202 -9.55974e-016 -4.30533
    endloop
  endfacet
  facet normal 0 1 -2.22045e-016
    outer loop
      vertex 2.375 0 0
      vertex 2.67511 -1.11022e-015 -5
      vertex -2.375 0 0
    endloop
  endfacet
  facet normal 0 1 -2.22045e-016
    outer loop
      vertex 2.67511 -1.11022e-015 -5
      vertex 3.60202 -9.55974e-016 -4.30533
      vertex 2.85 -1.09609e-015 -4.93634
    endloop
  endfacet
  facet normal 0 1 -2.22045e-016
    outer loop
      vertex -2.67511 -1.11022e-015 -5
      vertex -2.375 0 0
      vertex 2.67511 -1.11022e-015 -5
    endloop
  endfacet
  facet normal 0 1 -2.22045e-016
    outer loop
      vertex -2.375 0 0
      vertex -2.67511 -1.11022e-015 -5
      vertex -3.60202 -9.55974e-016 -4.30533
    endloop
  endfacet
  facet normal 0 1 -2.22045e-016
    outer loop
      vertex -3.60202 -9.55974e-016 -4.30533
      vertex -2.67511 -1.11022e-015 -5
      vertex -2.85 -1.09609e-015 -4.93634
    endloop
  endfacet
  facet normal 0 0 -1
    outer loop
      vertex -2.67511 -50 -5
      vertex 2.67511 -1.11022e-015 -5
      vertex 2.67511 -50 -5
    endloop
  endfacet
  facet normal -0 0 -1
    outer loop
      vertex 2.67511 -1.11022e-015 -5
      vertex -2.67511 -50 -5
      vertex -2.67511 -1.11022e-015 -5
    endloop
  endfacet
  facet normal 0.961705 6.08593e-017 0.274086
    outer loop
      vertex 2.375 -50 1.11022e-014
      vertex 3.60202 -9.55974e-016 -4.30533
      vertex 2.375 0 0
    endloop
  endfacet
  facet normal 0.961705 0 0.274086
    outer loop
      vertex 3.60202 -9.55974e-016 -4.30533
      vertex 2.375 -50 1.11022e-014
      vertex 3.60202 -50 -4.30533
    endloop
  endfacet
  facet normal -0.961705 0 0.274086
    outer loop
      vertex -3.60202 -50 -4.30533
      vertex -2.375 0 0
      vertex -3.60202 -9.55974e-016 -4.30533
    endloop
  endfacet
  facet normal -0.961705 6.08593e-017 0.274086
    outer loop
      vertex -2.375 0 0
      vertex -3.60202 -50 -4.30533
      vertex -2.375 -50 1.11022e-014
    endloop
  endfacet
  facet normal 0 -1 0
    outer loop
      vertex -3.60202 -50 4.30533
      vertex -2.67511 -50 5
      vertex -2.85 -50 4.93634
    endloop
  endfacet
  facet normal 0 -1 0
    outer loop
      vertex -2.67511 -50 5
      vertex -2.375 -50 1.11022e-014
      vertex 2.67511 -50 5
    endloop
  endfacet
  facet normal 0 -1 -0
    outer loop
      vertex -2.67511 -50 5
      vertex -3.60202 -50 4.30533
      vertex -2.375 -50 1.11022e-014
    endloop
  endfacet
  facet normal 0 -1 0
    outer loop
      vertex 2.375 -50 1.11022e-014
      vertex 2.67511 -50 5
      vertex -2.375 -50 1.11022e-014
    endloop
  endfacet
  facet normal -0 -1 0
    outer loop
      vertex 3.60202 -50 4.30533
      vertex 2.67511 -50 5
      vertex 2.375 -50 1.11022e-014
    endloop
  endfacet
  facet normal 0 -1 0
    outer loop
      vertex 2.67511 -50 5
      vertex 3.60202 -50 4.30533
      vertex 2.85 -50 4.93634
    endloop
  endfacet
  facet normal 0 -1 0
    outer loop
      vertex -2.67511 -50 -5
      vertex -2.375 -50 1.11022e-014
      vertex -3.60202 -50 -4.30533
    endloop
  endfacet
  facet normal 0 -1 -0
    outer loop
      vertex -2.375 -50 1.11022e-014
      vertex -2.67511 -50 -5
      vertex 2.375 -50 1.11022e-014
    endloop
  endfacet
  facet normal 0 -1 0
    outer loop
      vertex -2.67511 -50 -5
      vertex -3.60202 -50 -4.30533
      vertex -2.85 -50 -4.93634
    endloop
  endfacet
  facet normal 0 -1 0
    outer loop
      vertex 2.67511 -50 -5
      vertex 2.375 -50 1.11022e-014
      vertex -2.67511 -50 -5
    endloop
  endfacet
  facet normal 0 -1 0
    outer loop
      vertex 2.375 -50 1.11022e-014
      vertex 2.67511 -50 -5
      vertex 3.60202 -50 -4.30533
    endloop
  endfacet
  facet normal 0 -1 0
    outer loop
      vertex 3.60202 -50 -4.30533
      vertex 2.67511 -50 -5
      vertex 2.85 -50 -4.93634
    endloop
  endfacet
  facet normal -0.961705 -6.08593e-017 -0.274086
    outer loop
      vertex -2.375 -50 1.11022e-014
      vertex -3.60202 0 4.30533
      vertex -2.375 0 0
    endloop
  endfacet
  facet normal -0.961705 -0 -0.274086
    outer loop
      vertex -3.60202 0 4.30533
      vertex -2.375 -50 1.11022e-014
      vertex -3.60202 -50 4.30533
    endloop
  endfacet
  facet normal 0.961705 0 -0.274086
    outer loop
      vertex 3.60202 -50 4.30533
      vertex 2.375 0 0
      vertex 3.60202 0 4.30533
    endloop
  endfacet
  facet normal 0.961705 -6.08593e-017 -0.274086
    outer loop
      vertex 2.375 0 0
      vertex 3.60202 -50 4.30533
      vertex 2.375 -50 1.11022e-014
    endloop
  endfacet
  facet normal -0 0 1
    outer loop
      vertex -2.67511 0 5
      vertex 2.67511 -50 5
      vertex 2.67511 0 5
    endloop
  endfacet
  facet normal 0 0 1
    outer loop
      vertex 2.67511 -50 5
      vertex -2.67511 0 5
      vertex -2.67511 -50 5
    endloop
  endfacet
  facet normal 0.642787 0 0.766045
    outer loop
      vertex 2.85 0 4.93634
      vertex 3.60202 -50 4.30533
      vertex 3.60202 0 4.30533
    endloop
  endfacet
  facet normal 0.642787 0 0.766045
    outer loop
      vertex 3.60202 -50 4.30533
      vertex 2.85 0 4.93634
      vertex 2.85 -50 4.93634
    endloop
  endfacet
  facet normal 0.34202 0 0.939693
    outer loop
      vertex 2.67511 0 5
      vertex 2.85 -50 4.93634
      vertex 2.85 0 4.93634
    endloop
  endfacet
  facet normal 0.34202 0 0.939693
    outer loop
      vertex 2.85 -50 4.93634
      vertex 2.67511 0 5
      vertex 2.67511 -50 5
    endloop
  endfacet
  facet normal -0.34202 0 0.939693
    outer loop
      vertex -2.85 0 4.93634
      vertex -2.67511 -50 5
      vertex -2.67511 0 5
    endloop
  endfacet
  facet normal -0.34202 0 0.939693
    outer loop
      vertex -2.67511 -50 5
      vertex -2.85 0 4.93634
      vertex -2.85 -50 4.93634
    endloop
  endfacet
  facet normal -0.642787 0 0.766045
    outer loop
      vertex -3.60202 0 4.30533
      vertex -2.85 -50 4.93634
      vertex -2.85 0 4.93634
    endloop
  endfacet
  facet normal -0.642787 0 0.766045
    outer loop
      vertex -2.85 -50 4.93634
      vertex -3.60202 0 4.30533
      vertex -3.60202 -50 4.30533
    endloop
  endfacet
  facet normal 0.642787 0 -0.766045
    outer loop
      vertex 2.85 -50 -4.93634
      vertex 3.60202 -9.55974e-016 -4.30533
      vertex 3.60202 -50 -4.30533
    endloop
  endfacet
  facet normal 0.642787 0 -0.766045
    outer loop
      vertex 3.60202 -9.55974e-016 -4.30533
      vertex 2.85 -50 -4.93634
      vertex 2.85 -1.09609e-015 -4.93634
    endloop
  endfacet
  facet normal 0.34202 0 -0.939693
    outer loop
      vertex 2.67511 -50 -5
      vertex 2.85 -1.09609e-015 -4.93634
      vertex 2.85 -50 -4.93634
    endloop
  endfacet
  facet normal 0.34202 0 -0.939693
    outer loop
      vertex 2.85 -1.09609e-015 -4.93634
      vertex 2.67511 -50 -5
      vertex 2.67511 -1.11022e-015 -5
    endloop
  endfacet
  facet normal -0.642787 0 -0.766045
    outer loop
      vertex -3.60202 -50 -4.30533
      vertex -2.85 -1.09609e-015 -4.93634
      vertex -2.85 -50 -4.93634
    endloop
  endfacet
  facet normal -0.642787 0 -0.766045
    outer loop
      vertex -2.85 -1.09609e-015 -4.93634
      vertex -3.60202 -50 -4.30533
      vertex -3.60202 -9.55974e-016 -4.30533
    endloop
  endfacet
  facet normal 0 1 0
    outer loop
      vertex 3.60202 0 4.30533
      vertex 2.67511 0 5
      vertex 2.85 0 4.93634
    endloop
  endfacet
  facet normal 0 1 0
    outer loop
      vertex 2.67511 0 5
      vertex 2.375 0 0
      vertex -2.67511 0 5
    endloop
  endfacet
  facet normal 0 1 0
    outer loop
      vertex 2.67511 0 5
      vertex 3.60202 0 4.30533
      vertex 2.375 0 0
    endloop
  endfacet
  facet normal 0 1 -0
    outer loop
      vertex -2.375 0 0
      vertex -2.67511 0 5
      vertex 2.375 0 0
    endloop
  endfacet
  facet normal -0 1 0
    outer loop
      vertex -3.60202 0 4.30533
      vertex -2.67511 0 5
      vertex -2.375 0 0
    endloop
  endfacet
  facet normal 0 1 0
    outer loop
      vertex -2.67511 0 5
      vertex -3.60202 0 4.30533
      vertex -2.85 0 4.93634
    endloop
  endfacet
  facet normal -0.34202 0 -0.939693
    outer loop
      vertex -2.85 -50 -4.93634
      vertex -2.67511 -1.11022e-015 -5
      vertex -2.67511 -50 -5
    endloop
  endfacet
  facet normal -0.34202 0 -0.939693
    outer loop
      vertex -2.67511 -1.11022e-015 -5
      vertex -2.85 -50 -4.93634
      vertex -2.85 -1.09609e-015 -4.93634
    endloop
  endfacet
endsolid OpenSCAD_Model
