solid OpenSCAD_Model
  facet normal 0 0 -1
    outer loop
      vertex 4.5 -50 0.0999994
      vertex -1.99839e-017 0 0.0999994
      vertex 4.5 -1.11022e-015 0.0999994
    endloop
  endfacet
  facet normal 0 0 -1
    outer loop
      vertex -4.5 -50 0.0999994
      vertex -1.99839e-017 0 0.0999994
      vertex 4.5 -50 0.0999994
    endloop
  endfacet
  facet normal -0 0 -1
    outer loop
      vertex -1.99839e-017 0 0.0999994
      vertex -4.5 -50 0.0999994
      vertex -4.5 0 0.0999994
    endloop
  endfacet
  facet normal 0 -1 0
    outer loop
      vertex -4.5 -50 3.43258
      vertex -4.11774 -50 3.87258
      vertex -4.36645 -50 3.66389
    endloop
  endfacet
  facet normal 0 -1 0
    outer loop
      vertex -4.5 -50 3.43258
      vertex -1.04916e-014 -50 2.5
      vertex -4.11774 -50 3.87258
    endloop
  endfacet
  facet normal -0 -1 0
    outer loop
      vertex -1.04916e-014 -50 2.5
      vertex -4.5 -50 3.43258
      vertex -4.5 -50 0.0999994
    endloop
  endfacet
  facet normal 0 -1 0
    outer loop
      vertex 4.11774 -50 3.87258
      vertex 4.5 -50 3.43258
      vertex 4.36645 -50 3.66389
    endloop
  endfacet
  facet normal 0 -1 0
    outer loop
      vertex -1.04916e-014 -50 2.5
      vertex 4.5 -50 3.43258
      vertex 4.11774 -50 3.87258
    endloop
  endfacet
  facet normal 0 -1 0
    outer loop
      vertex 4.5 -50 0.0999994
      vertex -1.04916e-014 -50 2.5
      vertex -4.5 -50 0.0999994
    endloop
  endfacet
  facet normal 0 -1 0
    outer loop
      vertex -1.04916e-014 -50 2.5
      vertex 4.5 -50 0.0999994
      vertex 4.5 -50 3.43258
    endloop
  endfacet
  facet normal 2.46716e-016 1 -5.60817e-022
    outer loop
      vertex 4.5 -1.11022e-015 3.43258
      vertex 4.11774 -1.01591e-015 3.87258
      vertex 4.36645 -1.07727e-015 3.66389
    endloop
  endfacet
  facet normal 2.46716e-016 1 4.53154e-023
    outer loop
      vertex 4.5 -1.11022e-015 3.43258
      vertex -4.996e-016 0 2.5
      vertex 4.11774 -1.01591e-015 3.87258
    endloop
  endfacet
  facet normal 2.46716e-016 1 -0
    outer loop
      vertex 4.5 -1.11022e-015 0.0999994
      vertex -4.996e-016 0 2.5
      vertex 4.5 -1.11022e-015 3.43258
    endloop
  endfacet
  facet normal 2.46716e-016 1 4.93038e-032
    outer loop
      vertex -4.996e-016 0 2.5
      vertex 4.5 -1.11022e-015 0.0999994
      vertex -1.99839e-017 0 0.0999994
    endloop
  endfacet
  facet normal 0.316228 -6.1388e-017 0.948683
    outer loop
      vertex -4.11774 0 3.87258
      vertex -1.04916e-014 -50 2.5
      vertex -4.996e-016 0 2.5
    endloop
  endfacet
  facet normal 0.316228 0 0.948683
    outer loop
      vertex -1.04916e-014 -50 2.5
      vertex -4.11774 0 3.87258
      vertex -4.11774 -50 3.87258
    endloop
  endfacet
  facet normal -1 0 0
    outer loop
      vertex -4.5 -50 0.0999994
      vertex -4.5 0 3.43258
      vertex -4.5 0 0.0999994
    endloop
  endfacet
  facet normal -1 -0 0
    outer loop
      vertex -4.5 0 3.43258
      vertex -4.5 -50 0.0999994
      vertex -4.5 -50 3.43258
    endloop
  endfacet
  facet normal -0.316228 0 0.948683
    outer loop
      vertex -4.996e-016 0 2.5
      vertex 4.11774 -50 3.87258
      vertex 4.11774 -1.01591e-015 3.87258
    endloop
  endfacet
  facet normal -0.316228 6.1388e-017 0.948683
    outer loop
      vertex 4.11774 -50 3.87258
      vertex -4.996e-016 0 2.5
      vertex -1.04916e-014 -50 2.5
    endloop
  endfacet
  facet normal 1 -0 0
    outer loop
      vertex 4.5 -50 3.43258
      vertex 4.5 -1.11022e-015 0.0999994
      vertex 4.5 -1.11022e-015 3.43258
    endloop
  endfacet
  facet normal 1 0 0
    outer loop
      vertex 4.5 -1.11022e-015 0.0999994
      vertex 4.5 -50 3.43258
      vertex 4.5 -50 0.0999994
    endloop
  endfacet
  facet normal 0.866025 -0 0.5
    outer loop
      vertex 4.36645 -50 3.66389
      vertex 4.5 -1.11022e-015 3.43258
      vertex 4.36645 -1.07727e-015 3.66389
    endloop
  endfacet
  facet normal 0.866025 0 0.5
    outer loop
      vertex 4.5 -1.11022e-015 3.43258
      vertex 4.36645 -50 3.66389
      vertex 4.5 -50 3.43258
    endloop
  endfacet
  facet normal 0.642788 0 0.766044
    outer loop
      vertex 4.11774 -1.01591e-015 3.87258
      vertex 4.36645 -50 3.66389
      vertex 4.36645 -1.07727e-015 3.66389
    endloop
  endfacet
  facet normal 0.642788 0 0.766044
    outer loop
      vertex 4.36645 -50 3.66389
      vertex 4.11774 -1.01591e-015 3.87258
      vertex 4.11774 -50 3.87258
    endloop
  endfacet
  facet normal -0.642788 0 0.766044
    outer loop
      vertex -4.36645 0 3.66389
      vertex -4.11774 -50 3.87258
      vertex -4.11774 0 3.87258
    endloop
  endfacet
  facet normal -0.642788 0 0.766044
    outer loop
      vertex -4.11774 -50 3.87258
      vertex -4.36645 0 3.66389
      vertex -4.36645 -50 3.66389
    endloop
  endfacet
  facet normal 0 1 0
    outer loop
      vertex -4.11774 0 3.87258
      vertex -4.5 0 3.43258
      vertex -4.36645 0 3.66389
    endloop
  endfacet
  facet normal 0 1 0
    outer loop
      vertex -4.996e-016 0 2.5
      vertex -4.5 0 3.43258
      vertex -4.11774 0 3.87258
    endloop
  endfacet
  facet normal 0 1 0
    outer loop
      vertex -4.5 0 0.0999994
      vertex -4.996e-016 0 2.5
      vertex -1.99839e-017 0 0.0999994
    endloop
  endfacet
  facet normal 0 1 0
    outer loop
      vertex -4.996e-016 0 2.5
      vertex -4.5 0 0.0999994
      vertex -4.5 0 3.43258
    endloop
  endfacet
  facet normal -0.866025 0 0.5
    outer loop
      vertex -4.5 -50 3.43258
      vertex -4.36645 0 3.66389
      vertex -4.5 0 3.43258
    endloop
  endfacet
  facet normal -0.866025 0 0.5
    outer loop
      vertex -4.36645 0 3.66389
      vertex -4.5 -50 3.43258
      vertex -4.36645 -50 3.66389
    endloop
  endfacet
endsolid OpenSCAD_Model
