solid OpenSCAD_Model
  facet normal 0 1 0
    outer loop
      vertex 3.40812 0 4.28932
      vertex 2.67511 0 5
      vertex 2.85 0 4.93634
    endloop
  endfacet
  facet normal 0 1 0
    outer loop
      vertex 2.67511 0 5
      vertex 2.39636 0 0.542064
      vertex -2.67511 0 5
    endloop
  endfacet
  facet normal 0 1 0
    outer loop
      vertex 3.40812 0 4.28932
      vertex 2.85 0 4.93634
      vertex 3.34634 0 4.51986
    endloop
  endfacet
  facet normal 0 1 0
    outer loop
      vertex 2.67511 0 5
      vertex 3.40812 0 4.28932
      vertex 2.39636 0 0.542064
    endloop
  endfacet
  facet normal 0 1 -0
    outer loop
      vertex -2.39636 0 0.542064
      vertex -2.67511 0 5
      vertex 2.39636 0 0.542064
    endloop
  endfacet
  facet normal 0 1 0
    outer loop
      vertex -2.85 0 4.93634
      vertex -3.40812 0 4.28932
      vertex -3.34634 0 4.51986
    endloop
  endfacet
  facet normal -0 1 0
    outer loop
      vertex -3.40812 0 4.28932
      vertex -2.67511 0 5
      vertex -2.39636 0 0.542064
    endloop
  endfacet
  facet normal 0 1 0
    outer loop
      vertex -2.67511 0 5
      vertex -3.40812 0 4.28932
      vertex -2.85 0 4.93634
    endloop
  endfacet
  facet normal 0 1 -0
    outer loop
      vertex 1.85429 0 0
      vertex -2.39636 0 0.542064
      vertex 2.39636 0 0.542064
    endloop
  endfacet
  facet normal 0 1 0
    outer loop
      vertex -2.39636 0 0.542064
      vertex 1.85429 0 0
      vertex -1.85429 0 0
    endloop
  endfacet
  facet normal 0.965429 0 -0.260666
    outer loop
      vertex 3.40812 -50 4.28932
      vertex 2.39636 0 0.542064
      vertex 3.40812 0 4.28932
    endloop
  endfacet
  facet normal 0.965429 0 -0.260666
    outer loop
      vertex 2.39636 0 0.542064
      vertex 3.40812 -50 4.28932
      vertex 2.39636 -50 0.542064
    endloop
  endfacet
  facet normal 0 -1 0
    outer loop
      vertex -3.40812 -50 4.28932
      vertex -2.67511 -50 5
      vertex -2.85 -50 4.93634
    endloop
  endfacet
  facet normal 0 -1 0
    outer loop
      vertex -2.67511 -50 5
      vertex -2.39636 -50 0.542064
      vertex 2.67511 -50 5
    endloop
  endfacet
  facet normal 0 -1 0
    outer loop
      vertex -3.40812 -50 4.28932
      vertex -2.85 -50 4.93634
      vertex -3.34634 -50 4.51986
    endloop
  endfacet
  facet normal 0 -1 -0
    outer loop
      vertex -2.67511 -50 5
      vertex -3.40812 -50 4.28932
      vertex -2.39636 -50 0.542064
    endloop
  endfacet
  facet normal 0 -1 0
    outer loop
      vertex 2.39636 -50 0.542064
      vertex 2.67511 -50 5
      vertex -2.39636 -50 0.542064
    endloop
  endfacet
  facet normal 0 -1 0
    outer loop
      vertex 2.85 -50 4.93634
      vertex 3.40812 -50 4.28932
      vertex 3.34634 -50 4.51986
    endloop
  endfacet
  facet normal -0 -1 0
    outer loop
      vertex 3.40812 -50 4.28932
      vertex 2.67511 -50 5
      vertex 2.39636 -50 0.542064
    endloop
  endfacet
  facet normal 0 -1 0
    outer loop
      vertex 2.67511 -50 5
      vertex 3.40812 -50 4.28932
      vertex 2.85 -50 4.93634
    endloop
  endfacet
  facet normal 0 -1 0
    outer loop
      vertex -1.85429 -50 0
      vertex 2.39636 -50 0.542064
      vertex -2.39636 -50 0.542064
    endloop
  endfacet
  facet normal 0 -1 0
    outer loop
      vertex 2.39636 -50 0.542064
      vertex -1.85429 -50 0
      vertex 1.85429 -50 0
    endloop
  endfacet
  facet normal -0 0 1
    outer loop
      vertex -2.67511 0 5
      vertex 2.67511 -50 5
      vertex 2.67511 0 5
    endloop
  endfacet
  facet normal 0 0 1
    outer loop
      vertex 2.67511 -50 5
      vertex -2.67511 0 5
      vertex -2.67511 -50 5
    endloop
  endfacet
  facet normal -0.965429 0 -0.260666
    outer loop
      vertex -2.39636 -50 0.542064
      vertex -3.40812 0 4.28932
      vertex -2.39636 0 0.542064
    endloop
  endfacet
  facet normal -0.965429 -0 -0.260666
    outer loop
      vertex -3.40812 0 4.28932
      vertex -2.39636 -50 0.542064
      vertex -3.40812 -50 4.28932
    endloop
  endfacet
  facet normal 0 0 -1
    outer loop
      vertex -1.85429 -50 0
      vertex 1.85429 0 0
      vertex 1.85429 -50 0
    endloop
  endfacet
  facet normal -0 0 -1
    outer loop
      vertex 1.85429 0 0
      vertex -1.85429 -50 0
      vertex -1.85429 0 0
    endloop
  endfacet
  facet normal 0.642787 0 0.766045
    outer loop
      vertex 2.85 0 4.93634
      vertex 3.34634 -50 4.51986
      vertex 3.34634 0 4.51986
    endloop
  endfacet
  facet normal 0.642787 0 0.766045
    outer loop
      vertex 3.34634 -50 4.51986
      vertex 2.85 0 4.93634
      vertex 2.85 -50 4.93634
    endloop
  endfacet
  facet normal -0.642787 0 0.766045
    outer loop
      vertex -3.34634 0 4.51986
      vertex -2.85 -50 4.93634
      vertex -2.85 0 4.93634
    endloop
  endfacet
  facet normal -0.642787 0 0.766045
    outer loop
      vertex -2.85 -50 4.93634
      vertex -3.34634 0 4.51986
      vertex -3.34634 -50 4.51986
    endloop
  endfacet
  facet normal -0.34202 0 0.939693
    outer loop
      vertex -2.85 0 4.93634
      vertex -2.67511 -50 5
      vertex -2.67511 0 5
    endloop
  endfacet
  facet normal -0.34202 0 0.939693
    outer loop
      vertex -2.67511 -50 5
      vertex -2.85 0 4.93634
      vertex -2.85 -50 4.93634
    endloop
  endfacet
  facet normal 0.34202 0 0.939693
    outer loop
      vertex 2.67511 0 5
      vertex 2.85 -50 4.93634
      vertex 2.85 0 4.93634
    endloop
  endfacet
  facet normal 0.34202 0 0.939693
    outer loop
      vertex 2.85 -50 4.93634
      vertex 2.67511 0 5
      vertex 2.67511 -50 5
    endloop
  endfacet
  facet normal 0.965926 -0 0.258818
    outer loop
      vertex 3.34634 -50 4.51986
      vertex 3.40812 0 4.28932
      vertex 3.34634 0 4.51986
    endloop
  endfacet
  facet normal 0.965926 0 0.258818
    outer loop
      vertex 3.40812 0 4.28932
      vertex 3.34634 -50 4.51986
      vertex 3.40812 -50 4.28932
    endloop
  endfacet
  facet normal -0.965926 0 0.258818
    outer loop
      vertex -3.40812 -50 4.28932
      vertex -3.34634 0 4.51986
      vertex -3.40812 0 4.28932
    endloop
  endfacet
  facet normal -0.965926 0 0.258818
    outer loop
      vertex -3.34634 0 4.51986
      vertex -3.40812 -50 4.28932
      vertex -3.34634 -50 4.51986
    endloop
  endfacet
  facet normal 0.707106 0 -0.707107
    outer loop
      vertex 1.85429 -50 0
      vertex 2.39636 0 0.542064
      vertex 2.39636 -50 0.542064
    endloop
  endfacet
  facet normal 0.707106 0 -0.707107
    outer loop
      vertex 2.39636 0 0.542064
      vertex 1.85429 -50 0
      vertex 1.85429 0 0
    endloop
  endfacet
  facet normal -0.707106 0 -0.707107
    outer loop
      vertex -2.39636 -50 0.542064
      vertex -1.85429 0 0
      vertex -1.85429 -50 0
    endloop
  endfacet
  facet normal -0.707106 0 -0.707107
    outer loop
      vertex -1.85429 0 0
      vertex -2.39636 -50 0.542064
      vertex -2.39636 0 0.542064
    endloop
  endfacet
endsolid OpenSCAD_Model
