<?xml version="1.0" standalone="no"?>
<!DOCTYPE svg PUBLIC "-//W3C//DTD SVG 1.1//EN" "http://www.w3.org/Graphics/SVG/1.1/DTD/svg11.dtd">
<svg width="220" height="220" viewBox="-110 -110 220 220" xmlns="http://www.w3.org/2000/svg" version="1.1">
<title>OpenSCAD Model</title>
<path d="
M 110,-110 L -110,-110 L -110,110 L 110,110 z
M -105.518,-105.296 L -105.645,-105.204 L -105.781,-105.125 L -105.924,-105.062 L -106.074,-105.013 L -106.227,-104.98
 L -106.383,-104.964 L -106.54,-104.964 L -106.697,-104.98 L -106.85,-105.013 L -107,-105.062 L -107.143,-105.125
 L -107.279,-105.204 L -107.406,-105.296 L -107.523,-105.401 L -107.628,-105.518 L -107.72,-105.645 L -107.798,-105.781
 L -107.862,-105.924 L -107.911,-106.074 L -107.944,-106.227 L -107.96,-106.383 L -107.96,-106.541 L -107.944,-106.697
 L -107.911,-106.85 L -107.862,-107 L -107.798,-107.143 L -107.72,-107.279 L -107.628,-107.406 L -107.523,-107.523
 L -107.406,-107.628 L -107.279,-107.72 L -107.143,-107.798 L -107,-107.862 L -106.85,-107.911 L -106.697,-107.944
 L -106.541,-107.96 L -106.383,-107.96 L -106.227,-107.944 L -106.074,-107.911 L -105.924,-107.862 L -105.781,-107.798
 L -105.645,-107.72 L -105.518,-107.628 L -105.401,-107.523 L -105.296,-107.406 L -105.204,-107.279 L -105.125,-107.143
 L -105.062,-107 L -105.013,-106.85 L -104.98,-106.697 L -104.964,-106.54 L -104.964,-106.383 L -104.98,-106.227
 L -105.013,-106.074 L -105.062,-105.924 L -105.125,-105.781 L -105.204,-105.645 L -105.296,-105.518 L -105.401,-105.401
 z
M -60.3933,-60.0615 L -60.8114,-59.8484 L -61.275,-59.775 L -61.7385,-59.8484 L -62.1566,-60.0615 L -62.4885,-60.3933
 L -62.7016,-60.8115 L -62.775,-61.275 L -62.7016,-61.7385 L -62.4885,-62.1567 L -62.1567,-62.4885 L -61.7385,-62.7016
 L -61.275,-62.775 L -60.8115,-62.7016 L -60.3933,-62.4885 L -60.0614,-62.1567 L -59.8484,-61.7385 L -59.775,-61.275
 L -59.8484,-60.8115 L -60.0614,-60.3933 z
M 0.680996,-85.3194 L 0.234663,-85.1744 L -0.234641,-85.1744 L -0.680974,-85.3194 L -1.06065,-85.5953 L -1.33651,-85.9749
 L -1.48153,-86.4213 L -1.48153,-86.8906 L -1.33651,-87.3369 L -1.06065,-87.7166 L -0.680974,-87.9924 L -0.234641,-88.1375
 L 0.234663,-88.1375 L 0.680996,-87.9924 L 1.06067,-87.7166 L 1.33653,-87.3369 L 1.48155,-86.8906 L 1.48155,-86.4213
 L 1.33653,-85.9749 L 1.06067,-85.5953 z
M -85.9749,1.33653 L -86.4213,1.48155 L -86.8906,1.48155 L -87.3369,1.33653 L -87.7166,1.06067 L -87.9924,0.680996
 L -88.1375,0.234663 L -88.1375,-0.234641 L -87.9924,-0.680974 L -87.7166,-1.06065 L -87.3369,-1.33651 L -86.8906,-1.48153
 L -86.4213,-1.48153 L -85.9749,-1.33651 L -85.5953,-1.06065 L -85.3194,-0.680974 L -85.1744,-0.234641 L -85.1744,0.234663
 L -85.3194,0.680996 L -85.5953,1.06067 z
M -23.8683,-23.5365 L -24.2864,-23.3234 L -24.75,-23.25 L -25.2135,-23.3234 L -25.6316,-23.5365 L -25.9635,-23.8683
 L -26.1765,-24.2865 L -26.25,-24.75 L -26.1765,-25.2135 L -25.9635,-25.6317 L -25.6317,-25.9635 L -25.2135,-26.1766
 L -24.75,-26.25 L -24.2864,-26.1766 L -23.8683,-25.9635 L -23.5365,-25.6317 L -23.3234,-25.2135 L -23.25,-24.75
 L -23.3234,-24.2865 L -23.5365,-23.8683 z
M 0.680996,-42.8576 L 0.234663,-42.7126 L -0.234641,-42.7126 L -0.680974,-42.8576 L -1.06065,-43.1335 L -1.3365,-43.5132
 L -1.48152,-43.9595 L -1.48152,-44.4288 L -1.3365,-44.8751 L -1.06065,-45.2548 L -0.680974,-45.5307 L -0.234641,-45.6757
 L 0.234663,-45.6757 L 0.680996,-45.5307 L 1.06067,-45.2548 L 1.33652,-44.8751 L 1.48154,-44.4288 L 1.48154,-43.9595
 L 1.33652,-43.5132 L 1.06067,-43.1335 z
M -43.5132,1.33652 L -43.9595,1.48154 L -44.4288,1.48154 L -44.8751,1.33652 L -45.2548,1.06067 L -45.5307,0.680996
 L -45.6757,0.234663 L -45.6757,-0.234641 L -45.5307,-0.680974 L -45.2548,-1.06065 L -44.8751,-1.3365 L -44.4288,-1.48152
 L -43.9595,-1.48152 L -43.5132,-1.3365 L -43.1335,-1.06065 L -42.8576,-0.680974 L -42.7126,-0.234641 L -42.7126,0.234663
 L -42.8576,0.680996 L -43.1335,1.06067 z
M 0.680996,-33.6653 L 0.234663,-33.5202 L -0.234641,-33.5202 L -0.680974,-33.6653 L -1.06065,-33.9411 L -1.3365,-34.3208
 L -1.48152,-34.7671 L -1.48152,-35.2364 L -1.3365,-35.6827 L -1.06065,-36.0624 L -0.680974,-36.3383 L -0.234641,-36.4833
 L 0.234663,-36.4833 L 0.680996,-36.3383 L 1.06067,-36.0624 L 1.33652,-35.6827 L 1.48154,-35.2364 L 1.48154,-34.7671
 L 1.33652,-34.3208 L 1.06067,-33.9411 z
M -34.3208,1.33652 L -34.7671,1.48154 L -35.2364,1.48154 L -35.6827,1.33652 L -36.0624,1.06067 L -36.3383,0.680996
 L -36.4833,0.234663 L -36.4833,-0.234641 L -36.3383,-0.680974 L -36.0624,-1.06065 L -35.6827,-1.3365 L -35.2364,-1.48152
 L -34.7671,-1.48152 L -34.3208,-1.3365 L -33.9411,-1.06065 L -33.6653,-0.680974 L -33.5202,-0.234641 L -33.5202,0.234663
 L -33.6653,0.680996 L -33.9411,1.06067 z
M -14.8188,-14.1633 L -15.2651,-14.0182 L -15.7344,-14.0182 L -16.1808,-14.1633 L -16.5604,-14.4391 L -16.8363,-14.8188
 L -16.9813,-15.2651 L -16.9813,-15.7344 L -16.8363,-16.1808 L -16.5604,-16.5604 L -16.1808,-16.8363 L -15.7344,-16.9813
 L -15.2651,-16.9813 L -14.8188,-16.8363 L -14.4391,-16.5604 L -14.1633,-16.1808 L -14.0182,-15.7344 L -14.0182,-15.2651
 L -14.1633,-14.8188 L -14.4391,-14.4391 z
M -25.1284,1.33652 L -25.5747,1.48154 L -26.044,1.48154 L -26.4904,1.33652 L -26.87,1.06067 L -27.1459,0.680996
 L -27.2909,0.234663 L -27.2909,-0.234641 L -27.1459,-0.680974 L -26.87,-1.06065 L -26.4904,-1.3365 L -26.044,-1.48152
 L -25.5747,-1.48152 L -25.1284,-1.3365 L -24.7487,-1.06065 L -24.4729,-0.680974 L -24.3278,-0.234641 L -24.3278,0.234663
 L -24.4729,0.680996 L -24.7487,1.06067 z
M 0.680996,-24.4729 L 0.234663,-24.3278 L -0.234641,-24.3278 L -0.680974,-24.4729 L -1.06065,-24.7487 L -1.3365,-25.1284
 L -1.48152,-25.5747 L -1.48152,-26.044 L -1.3365,-26.4904 L -1.06065,-26.87 L -0.680974,-27.1459 L -0.234641,-27.2909
 L 0.234663,-27.2909 L 0.680996,-27.1459 L 1.06067,-26.87 L 1.33652,-26.4904 L 1.48154,-26.044 L 1.48154,-25.5747
 L 1.33652,-25.1284 L 1.06067,-24.7487 z
M 0.881661,-20.7065 L 0.46351,-20.4934 L -1.77636e-15,-20.42 L -0.46351,-20.4934 L -0.881661,-20.7065 L -1.21351,-21.0383
 L -1.42657,-21.4565 L -1.49999,-21.92 L -1.42658,-22.3835 L -1.21352,-22.8017 L -0.881672,-23.1335 L -0.463521,-23.3466
 L -1.77636e-15,-23.42 L 0.463521,-23.3466 L 0.881672,-23.1335 L 1.21352,-22.8017 L 1.42658,-22.3835 L 1.49999,-21.92
 L 1.42657,-21.4565 L 1.21351,-21.0383 z
M -21.0383,1.21351 L -21.4565,1.42657 L -21.92,1.49999 L -22.3835,1.42658 L -22.8017,1.21352 L -23.1335,0.881672
 L -23.3466,0.463521 L -23.42,1.77636e-15 L -23.3466,-0.463521 L -23.1335,-0.881672 L -22.8017,-1.21352 L -22.3835,-1.42658
 L -21.92,-1.49999 L -21.4565,-1.42657 L -21.0383,-1.21351 L -20.7065,-0.881661 L -20.4934,-0.46351 L -20.42,1.77636e-15
 L -20.4934,0.46351 L -20.7065,0.881661 z
M 7.86651,9.71431 L 6.80799,10.4834 L 5.67488,11.1376 L 4.4796,11.6697 L 3.23524,12.0741 L 1.95543,12.3461
 L 0.654205,12.4829 L -0.654205,12.4829 L -1.95543,12.3461 L -3.23525,12.0741 L -4.4796,11.6697 L -5.67488,11.1376
 L -6.80799,10.4834 L -7.86651,9.71431 L -8.83883,8.83883 L -9.71431,7.86651 L -10.4834,6.80799 L -11.1376,5.67488
 L -11.6697,4.4796 L -12.0741,3.23525 L -12.3461,1.95543 L -12.4829,0.654205 L -12.4829,-0.654205 L -12.3461,-1.95543
 L -12.0741,-3.23525 L -11.6697,-4.4796 L -11.1376,-5.67488 L -10.4834,-6.80799 L -9.71431,-7.86651 L -8.83883,-8.83883
 L -7.86651,-9.71431 L -6.80799,-10.4834 L -5.67488,-11.1376 L -4.4796,-11.6697 L -3.23524,-12.0741 L -1.95543,-12.3461
 L -0.654205,-12.4829 L 0.654205,-12.4829 L 1.95543,-12.3461 L 3.23525,-12.0741 L 4.4796,-11.6697 L 5.67488,-11.1376
 L 6.80799,-10.4834 L 7.86651,-9.71431 L 8.83883,-8.83883 L 9.71431,-7.86651 L 10.4834,-6.80799 L 11.1376,-5.67488
 L 11.6697,-4.4796 L 12.0741,-3.23525 L 12.3461,-1.95543 L 12.4829,-0.654205 L 12.4829,0.654205 L 12.3461,1.95543
 L 12.0741,3.23524 L 11.6697,4.4796 L 11.1376,5.67488 L 10.4834,6.80799 L 9.71431,7.86651 L 8.83883,8.83883
 z
M -105.518,107.628 L -105.645,107.72 L -105.781,107.798 L -105.924,107.862 L -106.074,107.911 L -106.227,107.944
 L -106.383,107.96 L -106.541,107.96 L -106.697,107.944 L -106.85,107.911 L -107,107.862 L -107.143,107.798
 L -107.279,107.72 L -107.406,107.628 L -107.523,107.523 L -107.628,107.406 L -107.72,107.279 L -107.798,107.143
 L -107.862,107 L -107.911,106.85 L -107.944,106.697 L -107.96,106.541 L -107.96,106.383 L -107.944,106.227
 L -107.911,106.074 L -107.862,105.924 L -107.798,105.781 L -107.72,105.645 L -107.628,105.518 L -107.523,105.401
 L -107.406,105.296 L -107.279,105.204 L -107.143,105.125 L -107,105.062 L -106.85,105.013 L -106.697,104.98
 L -106.54,104.964 L -106.383,104.964 L -106.227,104.98 L -106.074,105.013 L -105.924,105.062 L -105.781,105.125
 L -105.645,105.204 L -105.518,105.296 L -105.401,105.401 L -105.296,105.518 L -105.204,105.645 L -105.125,105.781
 L -105.062,105.924 L -105.013,106.074 L -104.98,106.227 L -104.964,106.383 L -104.964,106.54 L -104.98,106.697
 L -105.013,106.85 L -105.062,107 L -105.125,107.143 L -105.204,107.279 L -105.296,107.406 L -105.401,107.523
 z
M -14.8188,16.8363 L -15.2651,16.9813 L -15.7344,16.9813 L -16.1808,16.8363 L -16.5604,16.5604 L -16.8363,16.1808
 L -16.9813,15.7344 L -16.9813,15.2651 L -16.8363,14.8188 L -16.5604,14.4391 L -16.1808,14.1633 L -15.7344,14.0182
 L -15.2651,14.0182 L -14.8188,14.1633 L -14.4391,14.4391 L -14.1633,14.8188 L -14.0182,15.2651 L -14.0182,15.7344
 L -14.1633,16.1808 L -14.4391,16.5604 z
M 16.1808,-14.1633 L 15.7344,-14.0182 L 15.2651,-14.0182 L 14.8188,-14.1633 L 14.4391,-14.4391 L 14.1633,-14.8188
 L 14.0182,-15.2651 L 14.0182,-15.7344 L 14.1633,-16.1808 L 14.4391,-16.5604 L 14.8188,-16.8363 L 15.2651,-16.9813
 L 15.7344,-16.9813 L 16.1808,-16.8363 L 16.5604,-16.5604 L 16.8363,-16.1808 L 16.9813,-15.7344 L 16.9813,-15.2651
 L 16.8363,-14.8188 L 16.5604,-14.4391 z
M 107.406,-105.296 L 107.279,-105.204 L 107.143,-105.125 L 107,-105.062 L 106.85,-105.013 L 106.697,-104.98
 L 106.54,-104.964 L 106.383,-104.964 L 106.227,-104.98 L 106.074,-105.013 L 105.924,-105.062 L 105.781,-105.125
 L 105.645,-105.204 L 105.518,-105.296 L 105.401,-105.401 L 105.296,-105.518 L 105.204,-105.645 L 105.125,-105.781
 L 105.062,-105.924 L 105.013,-106.074 L 104.98,-106.227 L 104.964,-106.383 L 104.964,-106.54 L 104.98,-106.697
 L 105.013,-106.85 L 105.062,-107 L 105.125,-107.143 L 105.204,-107.279 L 105.296,-107.406 L 105.401,-107.523
 L 105.518,-107.628 L 105.645,-107.72 L 105.781,-107.798 L 105.924,-107.862 L 106.074,-107.911 L 106.227,-107.944
 L 106.383,-107.96 L 106.541,-107.96 L 106.697,-107.944 L 106.85,-107.911 L 107,-107.862 L 107.143,-107.798
 L 107.279,-107.72 L 107.406,-107.628 L 107.523,-107.523 L 107.628,-107.406 L 107.72,-107.279 L 107.798,-107.143
 L 107.862,-107 L 107.911,-106.85 L 107.944,-106.697 L 107.96,-106.541 L 107.96,-106.383 L 107.944,-106.227
 L 107.911,-106.074 L 107.862,-105.924 L 107.798,-105.781 L 107.72,-105.645 L 107.628,-105.518 L 107.523,-105.401
 z
M -60.3933,62.4885 L -60.8115,62.7016 L -61.275,62.775 L -61.7385,62.7016 L -62.1567,62.4885 L -62.4885,62.1567
 L -62.7016,61.7385 L -62.775,61.275 L -62.7016,60.8115 L -62.4885,60.3933 L -62.1566,60.0615 L -61.7385,59.8484
 L -61.275,59.775 L -60.8114,59.8484 L -60.3933,60.0615 L -60.0614,60.3933 L -59.8484,60.8115 L -59.775,61.275
 L -59.8484,61.7385 L -60.0614,62.1567 z
M 62.1567,-60.0614 L 61.7385,-59.8484 L 61.275,-59.775 L 60.8115,-59.8484 L 60.3933,-60.0614 L 60.0615,-60.3933
 L 59.8484,-60.8114 L 59.775,-61.275 L 59.8484,-61.7385 L 60.0615,-62.1566 L 60.3933,-62.4885 L 60.8115,-62.7016
 L 61.275,-62.775 L 61.7385,-62.7016 L 62.1567,-62.4885 L 62.4885,-62.1567 L 62.7016,-61.7385 L 62.775,-61.275
 L 62.7016,-60.8115 L 62.4885,-60.3933 z
M 25.6317,-23.5365 L 25.2135,-23.3234 L 24.75,-23.25 L 24.2865,-23.3234 L 23.8683,-23.5365 L 23.5365,-23.8683
 L 23.3234,-24.2864 L 23.25,-24.75 L 23.3234,-25.2135 L 23.5365,-25.6316 L 23.8683,-25.9635 L 24.2865,-26.1765
 L 24.75,-26.25 L 25.2135,-26.1765 L 25.6317,-25.9635 L 25.9635,-25.6317 L 26.1766,-25.2135 L 26.25,-24.75
 L 26.1766,-24.2864 L 25.9635,-23.8683 z
M -23.8683,25.9635 L -24.2864,26.1766 L -24.75,26.25 L -25.2135,26.1766 L -25.6317,25.9635 L -25.9635,25.6317
 L -26.1765,25.2135 L -26.25,24.75 L -26.1765,24.2865 L -25.9635,23.8683 L -25.6316,23.5365 L -25.2135,23.3234
 L -24.75,23.25 L -24.2864,23.3234 L -23.8683,23.5365 L -23.5365,23.8683 L -23.3234,24.2865 L -23.25,24.75
 L -23.3234,25.2135 L -23.5365,25.6317 z
M 22.8017,1.21352 L 22.3835,1.42658 L 21.92,1.49999 L 21.4565,1.42657 L 21.0383,1.21351 L 20.7065,0.881661
 L 20.4934,0.46351 L 20.42,-1.77636e-15 L 20.4934,-0.46351 L 20.7065,-0.881661 L 21.0383,-1.21351 L 21.4565,-1.42657
 L 21.92,-1.49999 L 22.3835,-1.42658 L 22.8017,-1.21352 L 23.1335,-0.881672 L 23.3466,-0.463521 L 23.42,-1.77636e-15
 L 23.3466,0.463521 L 23.1335,0.881672 z
M 0.881672,23.1335 L 0.463521,23.3466 L 1.77636e-15,23.42 L -0.463521,23.3466 L -0.881672,23.1335 L -1.21352,22.8017
 L -1.42658,22.3835 L -1.49999,21.92 L -1.42657,21.4565 L -1.21351,21.0383 L -0.881661,20.7065 L -0.46351,20.4934
 L 1.77636e-15,20.42 L 0.46351,20.4934 L 0.881661,20.7065 L 1.21351,21.0383 L 1.42657,21.4565 L 1.49999,21.92
 L 1.42658,22.3835 L 1.21352,22.8017 z
M 0.680985,27.1459 L 0.234652,27.2909 L -0.234652,27.2909 L -0.680985,27.1459 L -1.06066,26.8701 L -1.33651,26.4904
 L -1.48153,26.044 L -1.48153,25.5747 L -1.33651,25.1284 L -1.06066,24.7487 L -0.680985,24.4729 L -0.234652,24.3279
 L 0.234652,24.3279 L 0.680985,24.4729 L 1.06066,24.7487 L 1.33651,25.1284 L 1.48153,25.5747 L 1.48153,26.044
 L 1.33651,26.4904 L 1.06066,26.8701 z
M 26.4904,1.33652 L 26.044,1.48154 L 25.5747,1.48154 L 25.1284,1.33652 L 24.7487,1.06067 L 24.4729,0.680996
 L 24.3278,0.234663 L 24.3278,-0.234641 L 24.4729,-0.680974 L 24.7487,-1.06065 L 25.1284,-1.3365 L 25.5747,-1.48152
 L 26.044,-1.48152 L 26.4904,-1.3365 L 26.87,-1.06065 L 27.1459,-0.680974 L 27.2909,-0.234641 L 27.2909,0.234663
 L 27.1459,0.680996 L 26.87,1.06067 z
M 16.1808,16.8363 L 15.7344,16.9813 L 15.2651,16.9813 L 14.8188,16.8363 L 14.4391,16.5604 L 14.1633,16.1808
 L 14.0182,15.7344 L 14.0182,15.2651 L 14.1633,14.8188 L 14.4391,14.4391 L 14.8188,14.1633 L 15.2651,14.0182
 L 15.7344,14.0182 L 16.1808,14.1633 L 16.5604,14.4391 L 16.8363,14.8188 L 16.9813,15.2651 L 16.9813,15.7344
 L 16.8363,16.1808 L 16.5604,16.5604 z
M 35.6827,1.33652 L 35.2364,1.48154 L 34.7671,1.48154 L 34.3208,1.33652 L 33.9411,1.06067 L 33.6653,0.680996
 L 33.5202,0.234663 L 33.5202,-0.234641 L 33.6653,-0.680974 L 33.9411,-1.06065 L 34.3208,-1.3365 L 34.7671,-1.48152
 L 35.2364,-1.48152 L 35.6827,-1.3365 L 36.0624,-1.06065 L 36.3383,-0.680974 L 36.4833,-0.234641 L 36.4833,0.234663
 L 36.3383,0.680996 L 36.0624,1.06067 z
M 0.680985,36.3383 L 0.234652,36.4833 L -0.234652,36.4833 L -0.680985,36.3383 L -1.06066,36.0624 L -1.33651,35.6828
 L -1.48153,35.2364 L -1.48153,34.7671 L -1.33651,34.3208 L -1.06066,33.9411 L -0.680985,33.6653 L -0.234652,33.5202
 L 0.234652,33.5202 L 0.680985,33.6653 L 1.06066,33.9411 L 1.33651,34.3208 L 1.48153,34.7671 L 1.48153,35.2364
 L 1.33651,35.6828 L 1.06066,36.0624 z
M 44.8751,1.33652 L 44.4288,1.48154 L 43.9595,1.48154 L 43.5132,1.33652 L 43.1335,1.06067 L 42.8576,0.680996
 L 42.7126,0.234663 L 42.7126,-0.234641 L 42.8576,-0.680974 L 43.1335,-1.06065 L 43.5132,-1.3365 L 43.9595,-1.48152
 L 44.4288,-1.48152 L 44.8751,-1.3365 L 45.2548,-1.06065 L 45.5307,-0.680974 L 45.6757,-0.234641 L 45.6757,0.234663
 L 45.5307,0.680996 L 45.2548,1.06067 z
M 0.680985,45.5307 L 0.234652,45.6757 L -0.234652,45.6757 L -0.680985,45.5307 L -1.06066,45.2548 L -1.33651,44.8751
 L -1.48153,44.4288 L -1.48153,43.9595 L -1.33651,43.5132 L -1.06066,43.1335 L -0.680985,42.8577 L -0.234652,42.7126
 L 0.234652,42.7126 L 0.680985,42.8577 L 1.06066,43.1335 L 1.33651,43.5132 L 1.48153,43.9595 L 1.48153,44.4288
 L 1.33651,44.8751 L 1.06066,45.2548 z
M 25.6317,25.9635 L 25.2135,26.1766 L 24.75,26.25 L 24.2865,26.1766 L 23.8683,25.9635 L 23.5365,25.6317
 L 23.3234,25.2135 L 23.25,24.75 L 23.3234,24.2865 L 23.5365,23.8683 L 23.8683,23.5365 L 24.2865,23.3234
 L 24.75,23.25 L 25.2135,23.3234 L 25.6317,23.5365 L 25.9635,23.8683 L 26.1766,24.2865 L 26.25,24.75
 L 26.1766,25.2135 L 25.9635,25.6317 z
M 0.680985,87.9924 L 0.234652,88.1375 L -0.234652,88.1375 L -0.680985,87.9924 L -1.06066,87.7166 L -1.33652,87.3369
 L -1.48154,86.8906 L -1.48154,86.4213 L -1.33652,85.9749 L -1.06066,85.5953 L -0.680985,85.3194 L -0.234652,85.1744
 L 0.234652,85.1744 L 0.680985,85.3194 L 1.06066,85.5953 L 1.33652,85.9749 L 1.48154,86.4213 L 1.48154,86.8906
 L 1.33652,87.3369 L 1.06066,87.7166 z
M 87.3369,1.33653 L 86.8906,1.48155 L 86.4213,1.48155 L 85.9749,1.33653 L 85.5953,1.06067 L 85.3194,0.680996
 L 85.1744,0.234663 L 85.1744,-0.234641 L 85.3194,-0.680974 L 85.5953,-1.06065 L 85.9749,-1.33651 L 86.4213,-1.48153
 L 86.8906,-1.48153 L 87.3369,-1.33651 L 87.7166,-1.06065 L 87.9924,-0.680974 L 88.1375,-0.234641 L 88.1375,0.234663
 L 87.9924,0.680996 L 87.7166,1.06067 z
M 62.1567,62.4885 L 61.7385,62.7016 L 61.275,62.775 L 60.8115,62.7016 L 60.3933,62.4885 L 60.0615,62.1567
 L 59.8484,61.7385 L 59.775,61.275 L 59.8484,60.8115 L 60.0615,60.3933 L 60.3933,60.0615 L 60.8115,59.8484
 L 61.275,59.775 L 61.7385,59.8484 L 62.1567,60.0615 L 62.4885,60.3933 L 62.7016,60.8115 L 62.775,61.275
 L 62.7016,61.7385 L 62.4885,62.1567 z
M 107.406,107.628 L 107.279,107.72 L 107.143,107.798 L 107,107.862 L 106.85,107.911 L 106.697,107.944
 L 106.541,107.96 L 106.383,107.96 L 106.227,107.944 L 106.074,107.911 L 105.924,107.862 L 105.781,107.798
 L 105.645,107.72 L 105.518,107.628 L 105.401,107.523 L 105.296,107.406 L 105.204,107.279 L 105.125,107.143
 L 105.062,107 L 105.013,106.85 L 104.98,106.697 L 104.964,106.54 L 104.964,106.383 L 104.98,106.227
 L 105.013,106.074 L 105.062,105.924 L 105.125,105.781 L 105.204,105.645 L 105.296,105.518 L 105.401,105.401
 L 105.518,105.296 L 105.645,105.204 L 105.781,105.125 L 105.924,105.062 L 106.074,105.013 L 106.227,104.98
 L 106.383,104.964 L 106.54,104.964 L 106.697,104.98 L 106.85,105.013 L 107,105.062 L 107.143,105.125
 L 107.279,105.204 L 107.406,105.296 L 107.523,105.401 L 107.628,105.518 L 107.72,105.645 L 107.798,105.781
 L 107.862,105.924 L 107.911,106.074 L 107.944,106.227 L 107.96,106.383 L 107.96,106.541 L 107.944,106.697
 L 107.911,106.85 L 107.862,107 L 107.798,107.143 L 107.72,107.279 L 107.628,107.406 L 107.523,107.523
 z
" stroke="black" fill="lightgray" stroke-width="0.5"/></svg>
