solid OpenSCAD_Model
  facet normal 0.632455 0.447214 -0.632456
    outer loop
      vertex 18.532 0 22.0746
      vertex 22.9289 4.99 30
      vertex 26.4574 0 30
    endloop
  endfacet
  facet normal 0.632456 0.447213 -0.632456
    outer loop
      vertex 22.9289 4.99 30
      vertex 18.532 0 22.0746
      vertex 16.7678 4.99 23.8388
    endloop
  endfacet
  facet normal -0.632456 0.447213 0.632456
    outer loop
      vertex 22.0746 0 18.532
      vertex 30 4.99 22.9289
      vertex 23.8388 4.99 16.7678
    endloop
  endfacet
  facet normal -0.632456 0.447214 0.632455
    outer loop
      vertex 30 4.99 22.9289
      vertex 22.0746 0 18.532
      vertex 30 0 26.4574
    endloop
  endfacet
  facet normal 0.707107 0 0.707107
    outer loop
      vertex 18.532 0 22.0746
      vertex 23.8388 4.99 16.7678
      vertex 16.7678 4.99 23.8388
    endloop
  endfacet
  facet normal 0.707107 0 0.707107
    outer loop
      vertex 23.8388 4.99 16.7678
      vertex 18.532 0 22.0746
      vertex 22.0746 0 18.532
    endloop
  endfacet
  facet normal 0 -1 0
    outer loop
      vertex 30 4.99 22.9289
      vertex 22.9289 4.99 30
      vertex 16.7678 4.99 23.8388
    endloop
  endfacet
  facet normal 0 -1 0
    outer loop
      vertex 22.9289 4.99 30
      vertex 30 4.99 22.9289
      vertex 30 4.99 30
    endloop
  endfacet
  facet normal -0 -1 0
    outer loop
      vertex 30 4.99 22.9289
      vertex 16.7678 4.99 23.8388
      vertex 23.8388 4.99 16.7678
    endloop
  endfacet
  facet normal 0.707107 -1.3514e-07 -0.707107
    outer loop
      vertex 22.0605 0 11.4539
      vertex 23.8388 4.99 13.2322
      vertex 22.0746 0 11.468
    endloop
  endfacet
  facet normal 0.707107 -1.52134e-07 -0.707107
    outer loop
      vertex 23.8388 4.99 13.2322
      vertex 22.0605 0 11.4539
      vertex 16.7678 4.99 6.16117
    endloop
  endfacet
  facet normal 0 -1 0
    outer loop
      vertex 16.7678 4.99 6.16117
      vertex 30 4.99 7.07107
      vertex 23.8388 4.99 13.2322
    endloop
  endfacet
  facet normal 0 -1 0
    outer loop
      vertex 22.9289 4.99 0
      vertex 30 4.99 7.07107
      vertex 16.7678 4.99 6.16117
    endloop
  endfacet
  facet normal 0 -1 -0
    outer loop
      vertex 30 4.99 7.07107
      vertex 22.9289 4.99 0
      vertex 30 4.99 0
    endloop
  endfacet
  facet normal 0.707107 3.04066e-07 -0.707107
    outer loop
      vertex 22.0605 0 11.4539
      vertex 18.532 0 7.9254
      vertex 16.7678 4.99 6.16117
    endloop
  endfacet
  facet normal -0.632456 0.447214 -0.632456
    outer loop
      vertex 22.0746 0 11.468
      vertex 30 4.99 7.07107
      vertex 30 0 3.5426
    endloop
  endfacet
  facet normal -0.632456 0.447214 -0.632455
    outer loop
      vertex 30 4.99 7.07107
      vertex 22.0746 0 11.468
      vertex 23.8388 4.99 13.2322
    endloop
  endfacet
  facet normal 0.632455 0.447214 0.632456
    outer loop
      vertex 22.9289 4.99 0
      vertex 18.532 0 7.9254
      vertex 26.4574 0 0
    endloop
  endfacet
  facet normal 0.632455 0.447214 0.632456
    outer loop
      vertex 18.532 0 7.9254
      vertex 22.9289 4.99 0
      vertex 16.7678 4.99 6.16117
    endloop
  endfacet
  facet normal -0.707107 0 -0.707107
    outer loop
      vertex 6.16117 4.99 13.2322
      vertex 7.93954 0 11.4539
      vertex 7.9254 0 11.468
    endloop
  endfacet
  facet normal -0.707107 6.79755e-08 -0.707107
    outer loop
      vertex 7.93954 0 11.4539
      vertex 6.16117 4.99 13.2322
      vertex 13.2322 4.99 6.16117
    endloop
  endfacet
  facet normal 0 -1 0
    outer loop
      vertex 0 4.99 7.07107
      vertex 13.2322 4.99 6.16117
      vertex 6.16117 4.99 13.2322
    endloop
  endfacet
  facet normal 0 -1 0
    outer loop
      vertex 7.07107 4.99 0
      vertex 0 4.99 7.07107
      vertex 0 4.99 0
    endloop
  endfacet
  facet normal 0 -1 0
    outer loop
      vertex 0 4.99 7.07107
      vertex 7.07107 4.99 0
      vertex 13.2322 4.99 6.16117
    endloop
  endfacet
  facet normal -0.707107 1.68925e-07 -0.707107
    outer loop
      vertex 13.2322 4.99 6.16117
      vertex 11.468 0 7.9254
      vertex 7.93954 0 11.4539
    endloop
  endfacet
  facet normal -0.632455 0.447214 0.632456
    outer loop
      vertex 3.5426 0 0
      vertex 13.2322 4.99 6.16117
      vertex 7.07107 4.99 0
    endloop
  endfacet
  facet normal -0.632455 0.447214 0.632455
    outer loop
      vertex 13.2322 4.99 6.16117
      vertex 3.5426 0 0
      vertex 11.468 0 7.9254
    endloop
  endfacet
  facet normal 0.632456 0.447214 -0.632456
    outer loop
      vertex 7.9254 0 11.468
      vertex 0 4.99 7.07107
      vertex 6.16117 4.99 13.2322
    endloop
  endfacet
  facet normal 0.632456 0.447214 -0.632456
    outer loop
      vertex 0 4.99 7.07107
      vertex 7.9254 0 11.468
      vertex 0 0 3.5426
    endloop
  endfacet
  facet normal -0.707107 -1.3514e-07 0.707107
    outer loop
      vertex 13.2322 4.99 23.8388
      vertex 11.4539 0 22.0605
      vertex 11.468 0 22.0746
    endloop
  endfacet
  facet normal -0.707107 -1.52134e-07 0.707107
    outer loop
      vertex 11.4539 0 22.0605
      vertex 13.2322 4.99 23.8388
      vertex 6.16117 4.99 16.7678
    endloop
  endfacet
  facet normal -0.707107 3.04066e-07 0.707107
    outer loop
      vertex 7.9254 0 18.532
      vertex 11.4539 0 22.0605
      vertex 6.16117 4.99 16.7678
    endloop
  endfacet
  facet normal -0.632455 0.447214 -0.632455
    outer loop
      vertex 3.5426 0 30
      vertex 13.2322 4.99 23.8388
      vertex 11.468 0 22.0746
    endloop
  endfacet
  facet normal -0.632455 0.447214 -0.632456
    outer loop
      vertex 13.2322 4.99 23.8388
      vertex 3.5426 0 30
      vertex 7.07107 4.99 30
    endloop
  endfacet
  facet normal 0 -1 0
    outer loop
      vertex 0 4.99 22.9289
      vertex 7.07107 4.99 30
      vertex 0 4.99 30
    endloop
  endfacet
  facet normal 0 -1 -0
    outer loop
      vertex 7.07107 4.99 30
      vertex 0 4.99 22.9289
      vertex 13.2322 4.99 23.8388
    endloop
  endfacet
  facet normal 0 -1 0
    outer loop
      vertex 13.2322 4.99 23.8388
      vertex 0 4.99 22.9289
      vertex 6.16117 4.99 16.7678
    endloop
  endfacet
  facet normal 0.632456 0.447214 0.632455
    outer loop
      vertex 7.9254 0 18.532
      vertex 0 4.99 22.9289
      vertex 0 0 26.4574
    endloop
  endfacet
  facet normal 0.632456 0.447214 0.632455
    outer loop
      vertex 0 4.99 22.9289
      vertex 7.9254 0 18.532
      vertex 6.16117 4.99 16.7678
    endloop
  endfacet
  facet normal -0.632456 -0.447214 0.632456
    outer loop
      vertex 30 115.01 22.9289
      vertex 22.0746 120 18.532
      vertex 23.8388 115.01 16.7678
    endloop
  endfacet
  facet normal -0.632456 -0.447214 0.632455
    outer loop
      vertex 22.0746 120 18.532
      vertex 30 115.01 22.9289
      vertex 30 120 26.4574
    endloop
  endfacet
  facet normal 0.632455 -0.447214 -0.632456
    outer loop
      vertex 22.9289 115.01 30
      vertex 18.532 120 22.0746
      vertex 26.4574 120 30
    endloop
  endfacet
  facet normal 0.632456 -0.447214 -0.632456
    outer loop
      vertex 18.532 120 22.0746
      vertex 22.9289 115.01 30
      vertex 16.7678 115.01 23.8388
    endloop
  endfacet
  facet normal 0.707107 0 0.707107
    outer loop
      vertex 16.7678 115.01 23.8388
      vertex 22.0746 120 18.532
      vertex 18.532 120 22.0746
    endloop
  endfacet
  facet normal 0.707107 0 0.707107
    outer loop
      vertex 22.0746 120 18.532
      vertex 16.7678 115.01 23.8388
      vertex 23.8388 115.01 16.7678
    endloop
  endfacet
  facet normal 0 1 -0
    outer loop
      vertex 30 115.01 22.9289
      vertex 22.9289 115.01 30
      vertex 30 115.01 30
    endloop
  endfacet
  facet normal 0 1 0
    outer loop
      vertex 22.9289 115.01 30
      vertex 30 115.01 22.9289
      vertex 16.7678 115.01 23.8388
    endloop
  endfacet
  facet normal 0 1 0
    outer loop
      vertex 16.7678 115.01 23.8388
      vertex 30 115.01 22.9289
      vertex 23.8388 115.01 16.7678
    endloop
  endfacet
  facet normal -0.707107 1.52134e-07 0.707107
    outer loop
      vertex 13.2322 115.01 23.8388
      vertex 11.4539 120 22.0605
      vertex 6.16117 115.01 16.7678
    endloop
  endfacet
  facet normal -0.707107 1.3514e-07 0.707107
    outer loop
      vertex 11.4539 120 22.0605
      vertex 13.2322 115.01 23.8388
      vertex 11.468 120 22.0746
    endloop
  endfacet
  facet normal 0 1 0
    outer loop
      vertex 0 115.01 22.9289
      vertex 7.07107 115.01 30
      vertex 13.2322 115.01 23.8388
    endloop
  endfacet
  facet normal 0 1 0
    outer loop
      vertex 7.07107 115.01 30
      vertex 0 115.01 22.9289
      vertex 0 115.01 30
    endloop
  endfacet
  facet normal -0 1 0
    outer loop
      vertex 0 115.01 22.9289
      vertex 13.2322 115.01 23.8388
      vertex 6.16117 115.01 16.7678
    endloop
  endfacet
  facet normal -0.707107 -3.04066e-07 0.707107
    outer loop
      vertex 11.4539 120 22.0605
      vertex 7.9254 120 18.532
      vertex 6.16117 115.01 16.7678
    endloop
  endfacet
  facet normal -0.632455 -0.447214 -0.632455
    outer loop
      vertex 13.2322 115.01 23.8388
      vertex 3.5426 120 30
      vertex 11.468 120 22.0746
    endloop
  endfacet
  facet normal -0.632455 -0.447214 -0.632456
    outer loop
      vertex 3.5426 120 30
      vertex 13.2322 115.01 23.8388
      vertex 7.07107 115.01 30
    endloop
  endfacet
  facet normal 0.632455 -0.447214 0.632455
    outer loop
      vertex 0 115.01 22.9289
      vertex 7.9254 120 18.532
      vertex 0 120 26.4574
    endloop
  endfacet
  facet normal 0.632455 -0.447214 0.632455
    outer loop
      vertex 7.9254 120 18.532
      vertex 0 115.01 22.9289
      vertex 6.16117 115.01 16.7678
    endloop
  endfacet
  facet normal -0.707107 0 -0.707107
    outer loop
      vertex 13.2322 115.01 6.16117
      vertex 11.4539 120 7.93954
      vertex 11.468 120 7.9254
    endloop
  endfacet
  facet normal -0.707107 -6.79755e-08 -0.707107
    outer loop
      vertex 11.4539 120 7.93954
      vertex 13.2322 115.01 6.16117
      vertex 6.16117 115.01 13.2322
    endloop
  endfacet
  facet normal 0 1 0
    outer loop
      vertex 13.2322 115.01 6.16117
      vertex 0 115.01 7.07107
      vertex 6.16117 115.01 13.2322
    endloop
  endfacet
  facet normal 0 1 -0
    outer loop
      vertex 7.07107 115.01 0
      vertex 0 115.01 7.07107
      vertex 13.2322 115.01 6.16117
    endloop
  endfacet
  facet normal 0 1 0
    outer loop
      vertex 0 115.01 7.07107
      vertex 7.07107 115.01 0
      vertex 0 115.01 0
    endloop
  endfacet
  facet normal -0.707107 -1.68925e-07 -0.707107
    outer loop
      vertex 7.9254 120 11.468
      vertex 11.4539 120 7.93954
      vertex 6.16117 115.01 13.2322
    endloop
  endfacet
  facet normal 0.632455 -0.447214 -0.632455
    outer loop
      vertex 0 115.01 7.07107
      vertex 7.9254 120 11.468
      vertex 6.16117 115.01 13.2322
    endloop
  endfacet
  facet normal 0.632455 -0.447214 -0.632455
    outer loop
      vertex 7.9254 120 11.468
      vertex 0 115.01 7.07107
      vertex 0 120 3.5426
    endloop
  endfacet
  facet normal -0.632455 -0.447214 0.632455
    outer loop
      vertex 13.2322 115.01 6.16117
      vertex 3.5426 120 0
      vertex 7.07107 115.01 0
    endloop
  endfacet
  facet normal -0.632455 -0.447214 0.632455
    outer loop
      vertex 3.5426 120 0
      vertex 13.2322 115.01 6.16117
      vertex 11.468 120 7.9254
    endloop
  endfacet
  facet normal 0.707107 1.3514e-07 -0.707107
    outer loop
      vertex 23.8388 115.01 13.2322
      vertex 22.0605 120 11.4539
      vertex 22.0746 120 11.468
    endloop
  endfacet
  facet normal 0.707107 1.52134e-07 -0.707107
    outer loop
      vertex 22.0605 120 11.4539
      vertex 23.8388 115.01 13.2322
      vertex 16.7678 115.01 6.16117
    endloop
  endfacet
  facet normal 0.707107 -3.04066e-07 -0.707107
    outer loop
      vertex 18.532 120 7.9254
      vertex 22.0605 120 11.4539
      vertex 16.7678 115.01 6.16117
    endloop
  endfacet
  facet normal -0.632455 -0.447214 -0.632455
    outer loop
      vertex 30 115.01 7.07107
      vertex 22.0746 120 11.468
      vertex 30 120 3.5426
    endloop
  endfacet
  facet normal -0.632455 -0.447214 -0.632455
    outer loop
      vertex 22.0746 120 11.468
      vertex 30 115.01 7.07107
      vertex 23.8388 115.01 13.2322
    endloop
  endfacet
  facet normal 0 1 0
    outer loop
      vertex 30 115.01 7.07107
      vertex 16.7678 115.01 6.16117
      vertex 23.8388 115.01 13.2322
    endloop
  endfacet
  facet normal 0 1 0
    outer loop
      vertex 22.9289 115.01 0
      vertex 30 115.01 7.07107
      vertex 30 115.01 0
    endloop
  endfacet
  facet normal 0 1 0
    outer loop
      vertex 30 115.01 7.07107
      vertex 22.9289 115.01 0
      vertex 16.7678 115.01 6.16117
    endloop
  endfacet
  facet normal 0.632455 -0.447214 0.632455
    outer loop
      vertex 18.532 120 7.9254
      vertex 22.9289 115.01 0
      vertex 26.4574 120 0
    endloop
  endfacet
  facet normal 0.632455 -0.447214 0.632455
    outer loop
      vertex 22.9289 115.01 0
      vertex 18.532 120 7.9254
      vertex 16.7678 115.01 6.16117
    endloop
  endfacet
  facet normal -1 0 0
    outer loop
      vertex 0 100 25
      vertex 0 115.01 7.07107
      vertex 0 115.01 0
    endloop
  endfacet
  facet normal -1 0 0
    outer loop
      vertex 0 115.01 7.07107
      vertex 0 110 25
      vertex 0 115.01 22.9289
    endloop
  endfacet
  facet normal -1 0 0
    outer loop
      vertex 0 115.01 22.9289
      vertex 0 110 25
      vertex 0 115.01 30
    endloop
  endfacet
  facet normal -1 0 0
    outer loop
      vertex 0 115.01 7.07107
      vertex 0 100 25
      vertex 0 110 25
    endloop
  endfacet
  facet normal -1 0 0
    outer loop
      vertex 0 115.01 0
      vertex 0 80 25
      vertex 0 100 25
    endloop
  endfacet
  facet normal -1 0 0
    outer loop
      vertex 0 115.01 0
      vertex 0 70 25
      vertex 0 80 25
    endloop
  endfacet
  facet normal -1 0 0
    outer loop
      vertex 0 115.01 0
      vertex 0 50 25
      vertex 0 70 25
    endloop
  endfacet
  facet normal -1 0 0
    outer loop
      vertex 0 4.99 0
      vertex 0 50 25
      vertex 0 115.01 0
    endloop
  endfacet
  facet normal -1 -0 0
    outer loop
      vertex 0 50 25
      vertex 0 4.99 0
      vertex 0 40 25
    endloop
  endfacet
  facet normal -1 -0 0
    outer loop
      vertex 0 40 25
      vertex 0 4.99 0
      vertex 0 20 25
    endloop
  endfacet
  facet normal -1 0 0
    outer loop
      vertex 0 4.99 7.07107
      vertex 0 20 25
      vertex 0 4.99 0
    endloop
  endfacet
  facet normal -1 0 0
    outer loop
      vertex 0 115.01 7.07107
      vertex 0 120 26.4574
      vertex 0 120 3.5426
    endloop
  endfacet
  facet normal -1 0 0
    outer loop
      vertex 0 120 26.4574
      vertex 0 115.01 7.07107
      vertex 0 115.01 22.9289
    endloop
  endfacet
  facet normal -1 -0 0
    outer loop
      vertex 0 115.01 30
      vertex 0 110 25
      vertex 0 107.5 30
    endloop
  endfacet
  facet normal -1 0 0
    outer loop
      vertex 0 80 25
      vertex 0 102.5 30
      vertex 0 100 25
    endloop
  endfacet
  facet normal -1 -0 0
    outer loop
      vertex 0 102.5 30
      vertex 0 80 25
      vertex 0 77.5 30
    endloop
  endfacet
  facet normal -1 0 0
    outer loop
      vertex 0 50 25
      vertex 0 72.5 30
      vertex 0 70 25
    endloop
  endfacet
  facet normal -1 -0 0
    outer loop
      vertex 0 72.5 30
      vertex 0 50 25
      vertex 0 47.5 30
    endloop
  endfacet
  facet normal -1 0 0
    outer loop
      vertex 0 20 25
      vertex 0 42.5 30
      vertex 0 40 25
    endloop
  endfacet
  facet normal -1 -0 0
    outer loop
      vertex 0 42.5 30
      vertex 0 20 25
      vertex 0 17.5 30
    endloop
  endfacet
  facet normal -1 -0 0
    outer loop
      vertex 0 20 25
      vertex 0 4.99 7.07107
      vertex 0 10 25
    endloop
  endfacet
  facet normal -1 0 0
    outer loop
      vertex 0 4.99 22.9289
      vertex 0 10 25
      vertex 0 4.99 7.07107
    endloop
  endfacet
  facet normal -1 0 0
    outer loop
      vertex 0 4.99 30
      vertex 0 10 25
      vertex 0 4.99 22.9289
    endloop
  endfacet
  facet normal -1 0 0
    outer loop
      vertex 0 10 25
      vertex 0 4.99 30
      vertex 0 12.5 30
    endloop
  endfacet
  facet normal -1 0 0
    outer loop
      vertex 0 0 3.5426
      vertex 0 4.99 22.9289
      vertex 0 4.99 7.07107
    endloop
  endfacet
  facet normal -1 -0 0
    outer loop
      vertex 0 4.99 22.9289
      vertex 0 0 3.5426
      vertex 0 0 26.4574
    endloop
  endfacet
  facet normal 5.50318e-08 0.894427 -0.447214
    outer loop
      vertex 15.5 11.2917 27.5833
      vertex 0 12.5 30
      vertex 15.5 12.5 30
    endloop
  endfacet
  facet normal 5.50318e-08 0.894427 -0.447214
    outer loop
      vertex 0 12.5 30
      vertex 15.5 11.2917 27.5833
      vertex 0 10 25
    endloop
  endfacet
  facet normal 0 0.894427 -0.447213
    outer loop
      vertex 16 12.5 30
      vertex 30 12.5 30
      vertex 16 11.3333 27.6667
    endloop
  endfacet
  facet normal 0 0.894427 -0.447213
    outer loop
      vertex 15.5 11.2917 27.5833
      vertex 15.5 10 25
      vertex 0 10 25
    endloop
  endfacet
  facet normal 3.24949e-08 0.894427 -0.447213
    outer loop
      vertex 30 10 25
      vertex 16 11.3333 27.6667
      vertex 30 12.5 30
    endloop
  endfacet
  facet normal 0 0.894427 -0.447214
    outer loop
      vertex 16 11.3333 27.6667
      vertex 30 10 25
      vertex 16 10 25
    endloop
  endfacet
  facet normal -0 0 1
    outer loop
      vertex 0 20 25
      vertex 15.5 10 25
      vertex 15.5 20 25
    endloop
  endfacet
  facet normal 0 0 1
    outer loop
      vertex 15.5 10 25
      vertex 0 20 25
      vertex 0 10 25
    endloop
  endfacet
  facet normal -0 0 1
    outer loop
      vertex 16 20 25
      vertex 30 10 25
      vertex 30 20 25
    endloop
  endfacet
  facet normal 0 0 1
    outer loop
      vertex 30 10 25
      vertex 16 20 25
      vertex 16 10 25
    endloop
  endfacet
  facet normal -1 0 0
    outer loop
      vertex 30 20 25
      vertex 30 12.5 27.5
      vertex 30 17.5 27.5
    endloop
  endfacet
  facet normal -1 -0 0
    outer loop
      vertex 30 12.5 27.5
      vertex 30 10 25
      vertex 30 12.5 30
    endloop
  endfacet
  facet normal -1 0 0
    outer loop
      vertex 30 10 25
      vertex 30 12.5 27.5
      vertex 30 20 25
    endloop
  endfacet
  facet normal -1 0 0
    outer loop
      vertex 30 20 25
      vertex 30 17.5 27.5
      vertex 30 17.5 30
    endloop
  endfacet
  facet normal 0 0 1
    outer loop
      vertex 0 12.5 30
      vertex 7.07107 4.99 30
      vertex 15.5 12.5 30
    endloop
  endfacet
  facet normal 0 0 1
    outer loop
      vertex 7.07107 4.99 30
      vertex 0 12.5 30
      vertex 0 4.99 30
    endloop
  endfacet
  facet normal -0 0 1
    outer loop
      vertex 0 42.5 30
      vertex 15.5 17.5 30
      vertex 15.5 42.5 30
    endloop
  endfacet
  facet normal 0 0 1
    outer loop
      vertex 15.5 17.5 30
      vertex 0 42.5 30
      vertex 0 17.5 30
    endloop
  endfacet
  facet normal -0 0 1
    outer loop
      vertex 0 72.5 30
      vertex 15.5 47.5 30
      vertex 15.5 72.5 30
    endloop
  endfacet
  facet normal 0 0 1
    outer loop
      vertex 15.5 47.5 30
      vertex 0 72.5 30
      vertex 0 47.5 30
    endloop
  endfacet
  facet normal -0 0 1
    outer loop
      vertex 0 102.5 30
      vertex 15.5 77.5 30
      vertex 15.5 102.5 30
    endloop
  endfacet
  facet normal 0 0 1
    outer loop
      vertex 15.5 77.5 30
      vertex 0 102.5 30
      vertex 0 77.5 30
    endloop
  endfacet
  facet normal 0 0 1
    outer loop
      vertex 7.07107 115.01 30
      vertex 22.9289 115.01 30
      vertex 26.4574 120 30
    endloop
  endfacet
  facet normal 0 0 1
    outer loop
      vertex 15.5 102.5 30
      vertex 16 102.5 30
      vertex 16 107.5 30
    endloop
  endfacet
  facet normal 0 0 1
    outer loop
      vertex 16 102.5 30
      vertex 15.5 102.5 30
      vertex 16 77.5 30
    endloop
  endfacet
  facet normal 0 0 1
    outer loop
      vertex 16 77.5 30
      vertex 15.5 77.5 30
      vertex 16 72.5 30
    endloop
  endfacet
  facet normal 0 0 1
    outer loop
      vertex 15.5 72.5 30
      vertex 16 72.5 30
      vertex 15.5 77.5 30
    endloop
  endfacet
  facet normal 0 0 1
    outer loop
      vertex 16 72.5 30
      vertex 15.5 72.5 30
      vertex 16 47.5 30
    endloop
  endfacet
  facet normal 0 0 1
    outer loop
      vertex 15.5 47.5 30
      vertex 16 47.5 30
      vertex 15.5 72.5 30
    endloop
  endfacet
  facet normal 0 0 1
    outer loop
      vertex 15.5 102.5 30
      vertex 16 107.5 30
      vertex 15.5 107.5 30
    endloop
  endfacet
  facet normal 0 -0 1
    outer loop
      vertex 15.5 107.5 30
      vertex 22.9289 115.01 30
      vertex 7.07107 115.01 30
    endloop
  endfacet
  facet normal 0 0 1
    outer loop
      vertex 22.9289 115.01 30
      vertex 15.5 107.5 30
      vertex 16 107.5 30
    endloop
  endfacet
  facet normal 0 -0 1
    outer loop
      vertex 7.07107 115.01 30
      vertex 26.4574 120 30
      vertex 3.5426 120 30
    endloop
  endfacet
  facet normal -0 0 1
    outer loop
      vertex 22.9289 115.01 30
      vertex 30 107.5 30
      vertex 30 115.01 30
    endloop
  endfacet
  facet normal 0 0 1
    outer loop
      vertex 30 107.5 30
      vertex 22.9289 115.01 30
      vertex 16 107.5 30
    endloop
  endfacet
  facet normal -0 0 1
    outer loop
      vertex 16 102.5 30
      vertex 30 77.5 30
      vertex 30 102.5 30
    endloop
  endfacet
  facet normal 0 0 1
    outer loop
      vertex 30 77.5 30
      vertex 16 102.5 30
      vertex 16 77.5 30
    endloop
  endfacet
  facet normal -0 0 1
    outer loop
      vertex 16 72.5 30
      vertex 30 47.5 30
      vertex 30 72.5 30
    endloop
  endfacet
  facet normal 0 0 1
    outer loop
      vertex 30 47.5 30
      vertex 16 72.5 30
      vertex 16 47.5 30
    endloop
  endfacet
  facet normal -0 0 1
    outer loop
      vertex 16 42.5 30
      vertex 30 17.5 30
      vertex 30 42.5 30
    endloop
  endfacet
  facet normal 0 0 1
    outer loop
      vertex 30 17.5 30
      vertex 16 42.5 30
      vertex 16 17.5 30
    endloop
  endfacet
  facet normal 0 0 1
    outer loop
      vertex 30 12.5 30
      vertex 22.9289 4.99 30
      vertex 30 4.99 30
    endloop
  endfacet
  facet normal 0 -0 1
    outer loop
      vertex 22.9289 4.99 30
      vertex 30 12.5 30
      vertex 16 12.5 30
    endloop
  endfacet
  facet normal -0 0 1
    outer loop
      vertex 15.5 12.5 30
      vertex 22.9289 4.99 30
      vertex 16 12.5 30
    endloop
  endfacet
  facet normal 0 0 1
    outer loop
      vertex 16 77.5 30
      vertex 15.5 102.5 30
      vertex 15.5 77.5 30
    endloop
  endfacet
  facet normal 0 0 1
    outer loop
      vertex 16 47.5 30
      vertex 15.5 47.5 30
      vertex 16 42.5 30
    endloop
  endfacet
  facet normal 0 0 1
    outer loop
      vertex 15.5 42.5 30
      vertex 16 42.5 30
      vertex 15.5 47.5 30
    endloop
  endfacet
  facet normal 0 0 1
    outer loop
      vertex 16 42.5 30
      vertex 15.5 42.5 30
      vertex 16 17.5 30
    endloop
  endfacet
  facet normal 0 0 1
    outer loop
      vertex 15.5 17.5 30
      vertex 16 17.5 30
      vertex 15.5 42.5 30
    endloop
  endfacet
  facet normal 0 0 1
    outer loop
      vertex 16 17.5 30
      vertex 15.5 17.5 30
      vertex 16 12.5 30
    endloop
  endfacet
  facet normal 0 0 1
    outer loop
      vertex 15.5 12.5 30
      vertex 16 12.5 30
      vertex 15.5 17.5 30
    endloop
  endfacet
  facet normal 0 0 1
    outer loop
      vertex 22.9289 4.99 30
      vertex 15.5 12.5 30
      vertex 7.07107 4.99 30
    endloop
  endfacet
  facet normal 0 0 1
    outer loop
      vertex 22.9289 4.99 30
      vertex 7.07107 4.99 30
      vertex 26.4574 0 30
    endloop
  endfacet
  facet normal 0 0 1
    outer loop
      vertex 26.4574 0 30
      vertex 7.07107 4.99 30
      vertex 3.5426 0 30
    endloop
  endfacet
  facet normal 0 0 1
    outer loop
      vertex 0 107.5 30
      vertex 7.07107 115.01 30
      vertex 0 115.01 30
    endloop
  endfacet
  facet normal 0 0 1
    outer loop
      vertex 7.07107 115.01 30
      vertex 0 107.5 30
      vertex 15.5 107.5 30
    endloop
  endfacet
  facet normal 0 -0.894427 -0.447214
    outer loop
      vertex 0 20 25
      vertex 15.5 17.5 30
      vertex 0 17.5 30
    endloop
  endfacet
  facet normal 0 -0.894427 -0.447214
    outer loop
      vertex 15.5 17.5 30
      vertex 0 20 25
      vertex 15.5 20 25
    endloop
  endfacet
  facet normal 0 -0.894427 -0.447214
    outer loop
      vertex 16 20 25
      vertex 30 17.5 30
      vertex 16 17.5 30
    endloop
  endfacet
  facet normal 0 -0.894427 -0.447214
    outer loop
      vertex 30 17.5 30
      vertex 16 20 25
      vertex 30 20 25
    endloop
  endfacet
  facet normal -1 0 0
    outer loop
      vertex 15.5 11.2917 27.5833
      vertex 15.5 17.5 30
      vertex 15.5 20 25
    endloop
  endfacet
  facet normal -1 -0 0
    outer loop
      vertex 15.5 17.5 30
      vertex 15.5 11.2917 27.5833
      vertex 15.5 12.5 30
    endloop
  endfacet
  facet normal -1 0 -0
    outer loop
      vertex 15.5 11.2917 27.5833
      vertex 15.5 20 25
      vertex 15.5 10 25
    endloop
  endfacet
  facet normal 1 0 0
    outer loop
      vertex 16 11.3333 27.6667
      vertex 16 17.5 30
      vertex 16 12.5 30
    endloop
  endfacet
  facet normal 1 0 0
    outer loop
      vertex 16 17.5 30
      vertex 16 11.3333 27.6667
      vertex 16 20 25
    endloop
  endfacet
  facet normal 1 0 0
    outer loop
      vertex 16 20 25
      vertex 16 11.3333 27.6667
      vertex 16 10 25
    endloop
  endfacet
  facet normal 0 0.894427 -0.447213
    outer loop
      vertex 15.5 41.2917 27.5833
      vertex 0 42.5 30
      vertex 15.5 42.5 30
    endloop
  endfacet
  facet normal -5.50318e-08 0.894427 -0.447214
    outer loop
      vertex 0 42.5 30
      vertex 15.5 41.2917 27.5833
      vertex 0 40 25
    endloop
  endfacet
  facet normal 0 0.894427 -0.447214
    outer loop
      vertex 16 42.5 30
      vertex 30 42.5 30
      vertex 16 41.3333 27.6667
    endloop
  endfacet
  facet normal 0 0.894427 -0.447214
    outer loop
      vertex 15.5 41.2917 27.5833
      vertex 15.5 40 25
      vertex 0 40 25
    endloop
  endfacet
  facet normal -6.0928e-08 0.894427 -0.447214
    outer loop
      vertex 30 40 25
      vertex 16 41.3333 27.6667
      vertex 30 42.5 30
    endloop
  endfacet
  facet normal 0 0.894427 -0.447213
    outer loop
      vertex 16 41.3333 27.6667
      vertex 30 40 25
      vertex 16 40 25
    endloop
  endfacet
  facet normal -0 0 1
    outer loop
      vertex 0 50 25
      vertex 15.5 40 25
      vertex 15.5 50 25
    endloop
  endfacet
  facet normal 0 0 1
    outer loop
      vertex 15.5 40 25
      vertex 0 50 25
      vertex 0 40 25
    endloop
  endfacet
  facet normal -0 0 1
    outer loop
      vertex 16 50 25
      vertex 30 40 25
      vertex 30 50 25
    endloop
  endfacet
  facet normal 0 0 1
    outer loop
      vertex 30 40 25
      vertex 16 50 25
      vertex 16 40 25
    endloop
  endfacet
  facet normal -1 0 0
    outer loop
      vertex 30 50 25
      vertex 30 42.5 27.5
      vertex 30 47.5 27.5
    endloop
  endfacet
  facet normal -1 -0 0
    outer loop
      vertex 30 42.5 27.5
      vertex 30 40 25
      vertex 30 42.5 30
    endloop
  endfacet
  facet normal -1 0 0
    outer loop
      vertex 30 40 25
      vertex 30 42.5 27.5
      vertex 30 50 25
    endloop
  endfacet
  facet normal -1 0 0
    outer loop
      vertex 30 50 25
      vertex 30 47.5 27.5
      vertex 30 47.5 30
    endloop
  endfacet
  facet normal 0 -0.894427 -0.447214
    outer loop
      vertex 0 50 25
      vertex 15.5 47.5 30
      vertex 0 47.5 30
    endloop
  endfacet
  facet normal 0 -0.894427 -0.447214
    outer loop
      vertex 15.5 47.5 30
      vertex 0 50 25
      vertex 15.5 50 25
    endloop
  endfacet
  facet normal 0 -0.894427 -0.447214
    outer loop
      vertex 16 50 25
      vertex 30 47.5 30
      vertex 16 47.5 30
    endloop
  endfacet
  facet normal 0 -0.894427 -0.447214
    outer loop
      vertex 30 47.5 30
      vertex 16 50 25
      vertex 30 50 25
    endloop
  endfacet
  facet normal -1 0 0
    outer loop
      vertex 15.5 41.2917 27.5833
      vertex 15.5 47.5 30
      vertex 15.5 50 25
    endloop
  endfacet
  facet normal -1 -0 0
    outer loop
      vertex 15.5 47.5 30
      vertex 15.5 41.2917 27.5833
      vertex 15.5 42.5 30
    endloop
  endfacet
  facet normal -1 0 -0
    outer loop
      vertex 15.5 41.2917 27.5833
      vertex 15.5 50 25
      vertex 15.5 40 25
    endloop
  endfacet
  facet normal 1 0 0
    outer loop
      vertex 16 41.3333 27.6667
      vertex 16 47.5 30
      vertex 16 42.5 30
    endloop
  endfacet
  facet normal 1 0 0
    outer loop
      vertex 16 47.5 30
      vertex 16 41.3333 27.6667
      vertex 16 50 25
    endloop
  endfacet
  facet normal 1 0 0
    outer loop
      vertex 16 50 25
      vertex 16 41.3333 27.6667
      vertex 16 40 25
    endloop
  endfacet
  facet normal 0 0.894427 -0.447214
    outer loop
      vertex 15.5 71.2917 27.5833
      vertex 0 72.5 30
      vertex 15.5 72.5 30
    endloop
  endfacet
  facet normal 1.65095e-07 0.894427 -0.447214
    outer loop
      vertex 0 72.5 30
      vertex 15.5 71.2917 27.5833
      vertex 0 70 25
    endloop
  endfacet
  facet normal 0 0.894428 -0.447213
    outer loop
      vertex 16 72.5 30
      vertex 30 72.5 30
      vertex 16 71.3333 27.6667
    endloop
  endfacet
  facet normal 0 0.894428 -0.447213
    outer loop
      vertex 15.5 71.2917 27.5833
      vertex 15.5 70 25
      vertex 0 70 25
    endloop
  endfacet
  facet normal 1.82784e-07 0.894427 -0.447214
    outer loop
      vertex 30 70 25
      vertex 16 71.3333 27.6667
      vertex 30 72.5 30
    endloop
  endfacet
  facet normal 0 0.894427 -0.447214
    outer loop
      vertex 16 71.3333 27.6667
      vertex 30 70 25
      vertex 16 70 25
    endloop
  endfacet
  facet normal -0 0 1
    outer loop
      vertex 0 80 25
      vertex 15.5 70 25
      vertex 15.5 80 25
    endloop
  endfacet
  facet normal 0 0 1
    outer loop
      vertex 15.5 70 25
      vertex 0 80 25
      vertex 0 70 25
    endloop
  endfacet
  facet normal -0 0 1
    outer loop
      vertex 16 80 25
      vertex 30 70 25
      vertex 30 80 25
    endloop
  endfacet
  facet normal 0 0 1
    outer loop
      vertex 30 70 25
      vertex 16 80 25
      vertex 16 70 25
    endloop
  endfacet
  facet normal -1 0 0
    outer loop
      vertex 30 80 25
      vertex 30 72.5 27.5
      vertex 30 77.5 27.5
    endloop
  endfacet
  facet normal -1 -0 0
    outer loop
      vertex 30 72.5 27.5
      vertex 30 70 25
      vertex 30 72.5 30
    endloop
  endfacet
  facet normal -1 0 0
    outer loop
      vertex 30 70 25
      vertex 30 72.5 27.5
      vertex 30 80 25
    endloop
  endfacet
  facet normal -1 0 0
    outer loop
      vertex 30 80 25
      vertex 30 77.5 27.5
      vertex 30 77.5 30
    endloop
  endfacet
  facet normal 0 -0.894427 -0.447214
    outer loop
      vertex 0 80 25
      vertex 15.5 77.5 30
      vertex 0 77.5 30
    endloop
  endfacet
  facet normal 0 -0.894427 -0.447214
    outer loop
      vertex 15.5 77.5 30
      vertex 0 80 25
      vertex 15.5 80 25
    endloop
  endfacet
  facet normal 0 -0.894427 -0.447214
    outer loop
      vertex 16 80 25
      vertex 30 77.5 30
      vertex 16 77.5 30
    endloop
  endfacet
  facet normal 0 -0.894427 -0.447214
    outer loop
      vertex 30 77.5 30
      vertex 16 80 25
      vertex 30 80 25
    endloop
  endfacet
  facet normal -1 0 0
    outer loop
      vertex 15.5 71.2917 27.5833
      vertex 15.5 77.5 30
      vertex 15.5 80 25
    endloop
  endfacet
  facet normal -1 -0 0
    outer loop
      vertex 15.5 77.5 30
      vertex 15.5 71.2917 27.5833
      vertex 15.5 72.5 30
    endloop
  endfacet
  facet normal -1 0 -0
    outer loop
      vertex 15.5 71.2917 27.5833
      vertex 15.5 80 25
      vertex 15.5 70 25
    endloop
  endfacet
  facet normal 1 0 0
    outer loop
      vertex 16 71.3333 27.6667
      vertex 16 77.5 30
      vertex 16 72.5 30
    endloop
  endfacet
  facet normal 1 0 0
    outer loop
      vertex 16 77.5 30
      vertex 16 71.3333 27.6667
      vertex 16 80 25
    endloop
  endfacet
  facet normal 1 0 0
    outer loop
      vertex 16 80 25
      vertex 16 71.3333 27.6667
      vertex 16 70 25
    endloop
  endfacet
  facet normal 0 0.894427 -0.447214
    outer loop
      vertex 15.5 101.292 27.5833
      vertex 0 102.5 30
      vertex 15.5 102.5 30
    endloop
  endfacet
  facet normal 1.65095e-07 0.894427 -0.447214
    outer loop
      vertex 0 102.5 30
      vertex 15.5 101.292 27.5833
      vertex 0 100 25
    endloop
  endfacet
  facet normal 0 0.894428 -0.447213
    outer loop
      vertex 16 102.5 30
      vertex 30 102.5 30
      vertex 16 101.333 27.6667
    endloop
  endfacet
  facet normal 0 0.894428 -0.447213
    outer loop
      vertex 15.5 101.292 27.5833
      vertex 15.5 100 25
      vertex 0 100 25
    endloop
  endfacet
  facet normal 1.82784e-07 0.894427 -0.447214
    outer loop
      vertex 30 100 25
      vertex 16 101.333 27.6667
      vertex 30 102.5 30
    endloop
  endfacet
  facet normal 0 0.894427 -0.447214
    outer loop
      vertex 16 101.333 27.6667
      vertex 30 100 25
      vertex 16 100 25
    endloop
  endfacet
  facet normal -0 0 1
    outer loop
      vertex 0 110 25
      vertex 15.5 100 25
      vertex 15.5 110 25
    endloop
  endfacet
  facet normal 0 0 1
    outer loop
      vertex 15.5 100 25
      vertex 0 110 25
      vertex 0 100 25
    endloop
  endfacet
  facet normal -0 0 1
    outer loop
      vertex 16 110 25
      vertex 30 100 25
      vertex 30 110 25
    endloop
  endfacet
  facet normal 0 0 1
    outer loop
      vertex 30 100 25
      vertex 16 110 25
      vertex 16 100 25
    endloop
  endfacet
  facet normal -1 0 0
    outer loop
      vertex 30 110 25
      vertex 30 102.5 27.5
      vertex 30 107.5 27.5
    endloop
  endfacet
  facet normal -1 -0 0
    outer loop
      vertex 30 102.5 27.5
      vertex 30 100 25
      vertex 30 102.5 30
    endloop
  endfacet
  facet normal -1 0 0
    outer loop
      vertex 30 100 25
      vertex 30 102.5 27.5
      vertex 30 110 25
    endloop
  endfacet
  facet normal -1 0 0
    outer loop
      vertex 30 110 25
      vertex 30 107.5 27.5
      vertex 30 107.5 30
    endloop
  endfacet
  facet normal 0 -0.894427 -0.447214
    outer loop
      vertex 0 110 25
      vertex 15.5 107.5 30
      vertex 0 107.5 30
    endloop
  endfacet
  facet normal 0 -0.894427 -0.447214
    outer loop
      vertex 15.5 107.5 30
      vertex 0 110 25
      vertex 15.5 110 25
    endloop
  endfacet
  facet normal 0 -0.894427 -0.447214
    outer loop
      vertex 16 110 25
      vertex 30 107.5 30
      vertex 16 107.5 30
    endloop
  endfacet
  facet normal 0 -0.894427 -0.447214
    outer loop
      vertex 30 107.5 30
      vertex 16 110 25
      vertex 30 110 25
    endloop
  endfacet
  facet normal -1 0 0
    outer loop
      vertex 15.5 101.292 27.5833
      vertex 15.5 107.5 30
      vertex 15.5 110 25
    endloop
  endfacet
  facet normal -1 -0 0
    outer loop
      vertex 15.5 107.5 30
      vertex 15.5 101.292 27.5833
      vertex 15.5 102.5 30
    endloop
  endfacet
  facet normal -1 0 -0
    outer loop
      vertex 15.5 101.292 27.5833
      vertex 15.5 110 25
      vertex 15.5 100 25
    endloop
  endfacet
  facet normal 1 0 0
    outer loop
      vertex 16 101.333 27.6667
      vertex 16 107.5 30
      vertex 16 102.5 30
    endloop
  endfacet
  facet normal 1 0 0
    outer loop
      vertex 16 107.5 30
      vertex 16 101.333 27.6667
      vertex 16 110 25
    endloop
  endfacet
  facet normal 1 0 0
    outer loop
      vertex 16 110 25
      vertex 16 101.333 27.6667
      vertex 16 100 25
    endloop
  endfacet
  facet normal -0.978147 6.476e-09 -0.207913
    outer loop
      vertex 19.3066 0 15.9097
      vertex 19.111 120 16.8303
      vertex 19.2973 120 15.9536
    endloop
  endfacet
  facet normal -0.978148 -0 -0.207912
    outer loop
      vertex 19.111 120 16.8303
      vertex 19.3066 0 15.9097
      vertex 19.111 0 16.8303
    endloop
  endfacet
  facet normal -0.809017 0 -0.587785
    outer loop
      vertex 19.111 0 16.8303
      vertex 18.0111 120 18.3442
      vertex 19.111 120 16.8303
    endloop
  endfacet
  facet normal -0.809017 -0 -0.587785
    outer loop
      vertex 18.0111 120 18.3442
      vertex 19.111 0 16.8303
      vertex 18.0111 0 18.3442
    endloop
  endfacet
  facet normal -0.978148 -1.65233e-09 -0.207911
    outer loop
      vertex 19.5 0 15
      vertex 19.2973 120 15.9536
      vertex 19.5 120 15
    endloop
  endfacet
  facet normal -0.978148 6.09366e-09 -0.207912
    outer loop
      vertex 19.2973 120 15.9536
      vertex 19.5 0 15
      vertex 19.3066 0 15.9097
    endloop
  endfacet
  facet normal 1 -0 0
    outer loop
      vertex 10.5983 0 15.9356
      vertex 10.5983 120 14.0644
      vertex 10.5983 120 15.9356
    endloop
  endfacet
  facet normal 1 0 0
    outer loop
      vertex 10.5983 120 14.0644
      vertex 10.5983 0 15.9356
      vertex 10.5983 0 14.0644
    endloop
  endfacet
  facet normal -0.104529 0 -0.994522
    outer loop
      vertex 14.5296 0 19.4753
      vertex 16.3906 120 19.2798
      vertex 16.3906 0 19.2798
    endloop
  endfacet
  facet normal -0.104529 0 -0.994522
    outer loop
      vertex 16.3906 120 19.2798
      vertex 14.5296 0 19.4753
      vertex 14.5296 120 19.4753
    endloop
  endfacet
  facet normal -0.5 0 0.866026
    outer loop
      vertex 16.3906 120 10.7202
      vertex 18.0111 0 11.6558
      vertex 18.0111 120 11.6558
    endloop
  endfacet
  facet normal -0.5 0 0.866026
    outer loop
      vertex 18.0111 0 11.6558
      vertex 16.3906 120 10.7202
      vertex 16.3906 0 10.7202
    endloop
  endfacet
  facet normal 0.66913 0 -0.743145
    outer loop
      vertex 11.3594 0 17.645
      vertex 12.75 120 18.8971
      vertex 12.75 0 18.8971
    endloop
  endfacet
  facet normal 0.66913 0 -0.743145
    outer loop
      vertex 12.75 120 18.8971
      vertex 11.3594 0 17.645
      vertex 11.3594 120 17.645
    endloop
  endfacet
  facet normal 0.309018 0 -0.951056
    outer loop
      vertex 12.75 0 18.8971
      vertex 14.5296 120 19.4753
      vertex 14.5296 0 19.4753
    endloop
  endfacet
  facet normal 0.309018 0 -0.951056
    outer loop
      vertex 14.5296 120 19.4753
      vertex 12.75 0 18.8971
      vertex 12.75 120 18.8971
    endloop
  endfacet
  facet normal -0.809017 0 0.587785
    outer loop
      vertex 18.0111 0 11.6558
      vertex 19.111 120 13.1697
      vertex 18.0111 120 11.6558
    endloop
  endfacet
  facet normal -0.809017 0 0.587785
    outer loop
      vertex 19.111 120 13.1697
      vertex 18.0111 0 11.6558
      vertex 19.111 0 13.1697
    endloop
  endfacet
  facet normal -0.5 0 -0.866025
    outer loop
      vertex 16.3906 0 19.2798
      vertex 18.0111 120 18.3442
      vertex 18.0111 0 18.3442
    endloop
  endfacet
  facet normal -0.5 0 -0.866025
    outer loop
      vertex 18.0111 120 18.3442
      vertex 16.3906 0 19.2798
      vertex 16.3906 120 19.2798
    endloop
  endfacet
  facet normal 0.913545 0 -0.406737
    outer loop
      vertex 11.3594 0 17.645
      vertex 10.5983 120 15.9356
      vertex 11.3594 120 17.645
    endloop
  endfacet
  facet normal 0.913545 0 -0.406737
    outer loop
      vertex 10.5983 120 15.9356
      vertex 11.3594 0 17.645
      vertex 10.5983 0 15.9356
    endloop
  endfacet
  facet normal 0.309017 0 0.951056
    outer loop
      vertex 12.75 120 11.1029
      vertex 14.5296 0 10.5247
      vertex 14.5296 120 10.5247
    endloop
  endfacet
  facet normal 0.309017 0 0.951056
    outer loop
      vertex 14.5296 0 10.5247
      vertex 12.75 120 11.1029
      vertex 12.75 0 11.1029
    endloop
  endfacet
  facet normal 0.669131 0 0.743145
    outer loop
      vertex 11.3594 120 12.355
      vertex 12.75 0 11.1029
      vertex 12.75 120 11.1029
    endloop
  endfacet
  facet normal 0.669131 0 0.743145
    outer loop
      vertex 12.75 0 11.1029
      vertex 11.3594 120 12.355
      vertex 11.3594 0 12.355
    endloop
  endfacet
  facet normal 0.913545 -0 0.406737
    outer loop
      vertex 10.5983 0 14.0644
      vertex 11.3594 120 12.355
      vertex 10.5983 120 14.0644
    endloop
  endfacet
  facet normal 0.913545 0 0.406737
    outer loop
      vertex 11.3594 120 12.355
      vertex 10.5983 0 14.0644
      vertex 11.3594 0 12.355
    endloop
  endfacet
  facet normal -0.104529 0 0.994522
    outer loop
      vertex 14.5296 120 10.5247
      vertex 16.3906 0 10.7202
      vertex 16.3906 120 10.7202
    endloop
  endfacet
  facet normal -0.104529 0 0.994522
    outer loop
      vertex 16.3906 0 10.7202
      vertex 14.5296 120 10.5247
      vertex 14.5296 0 10.5247
    endloop
  endfacet
  facet normal -0.978148 0 0.207911
    outer loop
      vertex 19.111 0 13.1697
      vertex 19.3136 120 14.1233
      vertex 19.111 120 13.1697
    endloop
  endfacet
  facet normal -0.978148 -6.09366e-09 0.207912
    outer loop
      vertex 19.3136 120 14.1233
      vertex 19.111 0 13.1697
      vertex 19.3043 0 14.0794
    endloop
  endfacet
  facet normal -0.978147 -6.476e-09 0.207913
    outer loop
      vertex 19.3043 0 14.0794
      vertex 19.5 120 15
      vertex 19.3136 120 14.1233
    endloop
  endfacet
  facet normal -0.978148 1.65233e-09 0.207912
    outer loop
      vertex 19.5 120 15
      vertex 19.3043 0 14.0794
      vertex 19.5 0 15
    endloop
  endfacet
  facet normal 1 0 0
    outer loop
      vertex 30 12.5 30
      vertex 30 4.99 30
      vertex 30 12.5 27.5
    endloop
  endfacet
  facet normal 1 0 0
    outer loop
      vertex 30 42.5 30
      vertex 30 17.5 30
      vertex 30 42.5 27.5
    endloop
  endfacet
  facet normal 1 0 0
    outer loop
      vertex 30 72.5 30
      vertex 30 47.5 30
      vertex 30 72.5 27.5
    endloop
  endfacet
  facet normal 1 0 0
    outer loop
      vertex 30 102.5 30
      vertex 30 77.5 30
      vertex 30 102.5 27.5
    endloop
  endfacet
  facet normal 1 -0 0
    outer loop
      vertex 30 107.5 27.5
      vertex 30 115.01 22.9289
      vertex 30 115.01 30
    endloop
  endfacet
  facet normal 1 0 0
    outer loop
      vertex 30 115.01 22.9289
      vertex 30 107.5 27.5
      vertex 30 115.01 7.07107
    endloop
  endfacet
  facet normal 1 0 0
    outer loop
      vertex 30 107.5 27.5
      vertex 30 115.01 30
      vertex 30 107.5 30
    endloop
  endfacet
  facet normal 1 -0 0
    outer loop
      vertex 30 102.5 27.5
      vertex 30 115.01 7.07107
      vertex 30 107.5 27.5
    endloop
  endfacet
  facet normal 1 -0 0
    outer loop
      vertex 30 77.5 27.5
      vertex 30 115.01 7.07107
      vertex 30 102.5 27.5
    endloop
  endfacet
  facet normal 1 0 0
    outer loop
      vertex 30 77.5 27.5
      vertex 30 102.5 27.5
      vertex 30 77.5 30
    endloop
  endfacet
  facet normal 1 0 0
    outer loop
      vertex 30 115.01 7.07107
      vertex 30 77.5 27.5
      vertex 30 115.01 0
    endloop
  endfacet
  facet normal 1 -0 0
    outer loop
      vertex 30 72.5 27.5
      vertex 30 115.01 0
      vertex 30 77.5 27.5
    endloop
  endfacet
  facet normal 1 0 0
    outer loop
      vertex 30 47.5 27.5
      vertex 30 72.5 27.5
      vertex 30 47.5 30
    endloop
  endfacet
  facet normal 1 0 0
    outer loop
      vertex 30 72.5 27.5
      vertex 30 47.5 27.5
      vertex 30 115.01 0
    endloop
  endfacet
  facet normal 1 0 0
    outer loop
      vertex 30 4.99 0
      vertex 30 47.5 27.5
      vertex 30 42.5 27.5
    endloop
  endfacet
  facet normal 1 0 0
    outer loop
      vertex 30 17.5 27.5
      vertex 30 42.5 27.5
      vertex 30 17.5 30
    endloop
  endfacet
  facet normal 1 0 0
    outer loop
      vertex 30 4.99 7.07107
      vertex 30 42.5 27.5
      vertex 30 17.5 27.5
    endloop
  endfacet
  facet normal 1 0 0
    outer loop
      vertex 30 4.99 7.07107
      vertex 30 17.5 27.5
      vertex 30 12.5 27.5
    endloop
  endfacet
  facet normal 1 0 0
    outer loop
      vertex 30 4.99 22.9289
      vertex 30 12.5 27.5
      vertex 30 4.99 30
    endloop
  endfacet
  facet normal 1 0 0
    outer loop
      vertex 30 4.99 7.07107
      vertex 30 12.5 27.5
      vertex 30 4.99 22.9289
    endloop
  endfacet
  facet normal 1 0 0
    outer loop
      vertex 30 42.5 27.5
      vertex 30 4.99 7.07107
      vertex 30 4.99 0
    endloop
  endfacet
  facet normal 1 0 0
    outer loop
      vertex 30 47.5 27.5
      vertex 30 4.99 0
      vertex 30 115.01 0
    endloop
  endfacet
  facet normal 1 -0 0
    outer loop
      vertex 30 115.01 22.9289
      vertex 30 120 3.5426
      vertex 30 120 26.4574
    endloop
  endfacet
  facet normal 1 0 0
    outer loop
      vertex 30 120 3.5426
      vertex 30 115.01 22.9289
      vertex 30 115.01 7.07107
    endloop
  endfacet
  facet normal 1 0 0
    outer loop
      vertex 30 0 26.4574
      vertex 30 4.99 7.07107
      vertex 30 4.99 22.9289
    endloop
  endfacet
  facet normal 1 0 0
    outer loop
      vertex 30 4.99 7.07107
      vertex 30 0 26.4574
      vertex 30 0 3.5426
    endloop
  endfacet
  facet normal 0 1 -0
    outer loop
      vertex 18.532 120 22.0746
      vertex 3.5426 120 30
      vertex 26.4574 120 30
    endloop
  endfacet
  facet normal 0 1 0
    outer loop
      vertex 18.532 120 22.0746
      vertex 11.468 120 22.0746
      vertex 3.5426 120 30
    endloop
  endfacet
  facet normal 0 1 -0
    outer loop
      vertex 14.5296 120 19.4753
      vertex 11.468 120 22.0746
      vertex 18.532 120 22.0746
    endloop
  endfacet
  facet normal 0 1 -0
    outer loop
      vertex 12.75 120 18.8971
      vertex 11.468 120 22.0746
      vertex 14.5296 120 19.4753
    endloop
  endfacet
  facet normal 0 1 0
    outer loop
      vertex 18.532 120 22.0746
      vertex 16.3906 120 19.2798
      vertex 14.5296 120 19.4753
    endloop
  endfacet
  facet normal 0 1 0
    outer loop
      vertex 18.0111 120 18.3442
      vertex 18.532 120 22.0746
      vertex 22.0746 120 18.532
    endloop
  endfacet
  facet normal 0 1 0
    outer loop
      vertex 18.532 120 22.0746
      vertex 18.0111 120 18.3442
      vertex 16.3906 120 19.2798
    endloop
  endfacet
  facet normal 0 1 0
    outer loop
      vertex 11.468 120 22.0746
      vertex 12.75 120 18.8971
      vertex 11.4539 120 22.0605
    endloop
  endfacet
  facet normal 0 1 0
    outer loop
      vertex 11.3594 120 17.645
      vertex 11.4539 120 22.0605
      vertex 12.75 120 18.8971
    endloop
  endfacet
  facet normal 0 1 0
    outer loop
      vertex 11.4539 120 22.0605
      vertex 11.3594 120 17.645
      vertex 7.9254 120 18.532
    endloop
  endfacet
  facet normal 0 1 -0
    outer loop
      vertex 10.5983 120 15.9356
      vertex 7.9254 120 18.532
      vertex 11.3594 120 17.645
    endloop
  endfacet
  facet normal 0 1 -0
    outer loop
      vertex 10.5983 120 14.0644
      vertex 7.9254 120 18.532
      vertex 10.5983 120 15.9356
    endloop
  endfacet
  facet normal 0 1 0
    outer loop
      vertex 7.9254 120 11.468
      vertex 7.9254 120 18.532
      vertex 10.5983 120 14.0644
    endloop
  endfacet
  facet normal 0 1 0
    outer loop
      vertex 7.9254 120 11.468
      vertex 10.5983 120 14.0644
      vertex 11.3594 120 12.355
    endloop
  endfacet
  facet normal 0 1 0
    outer loop
      vertex 7.9254 120 18.532
      vertex 7.9254 120 11.468
      vertex 0 120 26.4574
    endloop
  endfacet
  facet normal 0 1 0
    outer loop
      vertex 0 120 26.4574
      vertex 7.9254 120 11.468
      vertex 0 120 3.5426
    endloop
  endfacet
  facet normal 0 1 -0
    outer loop
      vertex 11.4539 120 7.93954
      vertex 11.3594 120 12.355
      vertex 12.75 120 11.1029
    endloop
  endfacet
  facet normal 0 1 0
    outer loop
      vertex 11.468 120 7.9254
      vertex 12.75 120 11.1029
      vertex 14.5296 120 10.5247
    endloop
  endfacet
  facet normal 0 1 0
    outer loop
      vertex 11.3594 120 12.355
      vertex 11.4539 120 7.93954
      vertex 7.9254 120 11.468
    endloop
  endfacet
  facet normal 0 1 0
    outer loop
      vertex 22.0746 120 18.532
      vertex 19.111 120 16.8303
      vertex 18.0111 120 18.3442
    endloop
  endfacet
  facet normal 0 1 0
    outer loop
      vertex 22.0746 120 18.532
      vertex 19.2973 120 15.9536
      vertex 19.111 120 16.8303
    endloop
  endfacet
  facet normal 0 1 0
    outer loop
      vertex 22.0746 120 18.532
      vertex 19.5 120 15
      vertex 19.2973 120 15.9536
    endloop
  endfacet
  facet normal 0 1 0
    outer loop
      vertex 22.0746 120 11.468
      vertex 22.0746 120 18.532
      vertex 30 120 26.4574
    endloop
  endfacet
  facet normal 0 1 0
    outer loop
      vertex 22.0746 120 18.532
      vertex 22.0746 120 11.468
      vertex 19.5 120 15
    endloop
  endfacet
  facet normal 0 1 0
    outer loop
      vertex 19.5 120 15
      vertex 22.0746 120 11.468
      vertex 19.3136 120 14.1233
    endloop
  endfacet
  facet normal 0 1 0
    outer loop
      vertex 19.3136 120 14.1233
      vertex 22.0746 120 11.468
      vertex 19.111 120 13.1697
    endloop
  endfacet
  facet normal 0 1 -0
    outer loop
      vertex 22.0605 120 11.4539
      vertex 19.111 120 13.1697
      vertex 22.0746 120 11.468
    endloop
  endfacet
  facet normal -0 1 0
    outer loop
      vertex 22.0746 120 11.468
      vertex 30 120 26.4574
      vertex 30 120 3.5426
    endloop
  endfacet
  facet normal 0 1 0
    outer loop
      vertex 19.111 120 13.1697
      vertex 22.0605 120 11.4539
      vertex 18.0111 120 11.6558
    endloop
  endfacet
  facet normal 0 1 -0
    outer loop
      vertex 18.532 120 7.9254
      vertex 18.0111 120 11.6558
      vertex 22.0605 120 11.4539
    endloop
  endfacet
  facet normal 0 1 0
    outer loop
      vertex 18.532 120 7.9254
      vertex 14.5296 120 10.5247
      vertex 16.3906 120 10.7202
    endloop
  endfacet
  facet normal 0 1 0
    outer loop
      vertex 18.0111 120 11.6558
      vertex 18.532 120 7.9254
      vertex 16.3906 120 10.7202
    endloop
  endfacet
  facet normal 0 1 0
    outer loop
      vertex 14.5296 120 10.5247
      vertex 18.532 120 7.9254
      vertex 11.468 120 7.9254
    endloop
  endfacet
  facet normal 0 1 0
    outer loop
      vertex 12.75 120 11.1029
      vertex 11.468 120 7.9254
      vertex 11.4539 120 7.93954
    endloop
  endfacet
  facet normal 0 1 0
    outer loop
      vertex 26.4574 120 0
      vertex 11.468 120 7.9254
      vertex 18.532 120 7.9254
    endloop
  endfacet
  facet normal 0 1 0
    outer loop
      vertex 11.468 120 7.9254
      vertex 26.4574 120 0
      vertex 3.5426 120 0
    endloop
  endfacet
  facet normal 0 0 -1
    outer loop
      vertex 0 4.99 0
      vertex 7.07107 115.01 0
      vertex 7.07107 4.99 0
    endloop
  endfacet
  facet normal -0 0 -1
    outer loop
      vertex 7.07107 115.01 0
      vertex 0 4.99 0
      vertex 0 115.01 0
    endloop
  endfacet
  facet normal 0 0 -1
    outer loop
      vertex 22.9289 4.99 0
      vertex 7.07107 4.99 0
      vertex 22.9289 115.01 0
    endloop
  endfacet
  facet normal 0 0 -1
    outer loop
      vertex 26.4574 0 0
      vertex 7.07107 4.99 0
      vertex 22.9289 4.99 0
    endloop
  endfacet
  facet normal 0 -0 -1
    outer loop
      vertex 7.07107 4.99 0
      vertex 26.4574 0 0
      vertex 3.5426 0 0
    endloop
  endfacet
  facet normal 0 0 -1
    outer loop
      vertex 22.9289 4.99 0
      vertex 30 115.01 0
      vertex 30 4.99 0
    endloop
  endfacet
  facet normal -0 0 -1
    outer loop
      vertex 30 115.01 0
      vertex 22.9289 4.99 0
      vertex 22.9289 115.01 0
    endloop
  endfacet
  facet normal 0 0 -1
    outer loop
      vertex 7.07107 115.01 0
      vertex 22.9289 115.01 0
      vertex 7.07107 4.99 0
    endloop
  endfacet
  facet normal 0 0 -1
    outer loop
      vertex 7.07107 115.01 0
      vertex 26.4574 120 0
      vertex 22.9289 115.01 0
    endloop
  endfacet
  facet normal -0 0 -1
    outer loop
      vertex 26.4574 120 0
      vertex 7.07107 115.01 0
      vertex 3.5426 120 0
    endloop
  endfacet
  facet normal 0 -1 0
    outer loop
      vertex 7.9254 0 18.532
      vertex 10.5983 0 15.9356
      vertex 11.3594 0 17.645
    endloop
  endfacet
  facet normal 0 -1 0
    outer loop
      vertex 7.9254 0 18.532
      vertex 10.5983 0 14.0644
      vertex 10.5983 0 15.9356
    endloop
  endfacet
  facet normal 0 -1 0
    outer loop
      vertex 7.9254 0 11.468
      vertex 7.9254 0 18.532
      vertex 0 0 26.4574
    endloop
  endfacet
  facet normal 0 -1 0
    outer loop
      vertex 7.9254 0 18.532
      vertex 7.9254 0 11.468
      vertex 10.5983 0 14.0644
    endloop
  endfacet
  facet normal 0 -1 0
    outer loop
      vertex 7.93954 0 11.4539
      vertex 10.5983 0 14.0644
      vertex 7.9254 0 11.468
    endloop
  endfacet
  facet normal -0 -1 0
    outer loop
      vertex 7.9254 0 11.468
      vertex 0 0 26.4574
      vertex 0 0 3.5426
    endloop
  endfacet
  facet normal 0 -1 0
    outer loop
      vertex 11.468 0 22.0746
      vertex 12.75 0 18.8971
      vertex 14.5296 0 19.4753
    endloop
  endfacet
  facet normal 0 -1 0
    outer loop
      vertex 11.3594 0 17.645
      vertex 11.4539 0 22.0605
      vertex 7.9254 0 18.532
    endloop
  endfacet
  facet normal 0 -1 -0
    outer loop
      vertex 11.4539 0 22.0605
      vertex 11.3594 0 17.645
      vertex 12.75 0 18.8971
    endloop
  endfacet
  facet normal 0 -1 0
    outer loop
      vertex 3.5426 0 30
      vertex 18.532 0 22.0746
      vertex 26.4574 0 30
    endloop
  endfacet
  facet normal 0 -1 0
    outer loop
      vertex 11.468 0 22.0746
      vertex 18.532 0 22.0746
      vertex 3.5426 0 30
    endloop
  endfacet
  facet normal 0 -1 0
    outer loop
      vertex 12.75 0 18.8971
      vertex 11.468 0 22.0746
      vertex 11.4539 0 22.0605
    endloop
  endfacet
  facet normal 0 -1 0
    outer loop
      vertex 11.468 0 22.0746
      vertex 14.5296 0 19.4753
      vertex 18.532 0 22.0746
    endloop
  endfacet
  facet normal 0 -1 0
    outer loop
      vertex 16.3906 0 19.2798
      vertex 18.532 0 22.0746
      vertex 14.5296 0 19.4753
    endloop
  endfacet
  facet normal 0 -1 0
    outer loop
      vertex 18.0111 0 18.3442
      vertex 18.532 0 22.0746
      vertex 16.3906 0 19.2798
    endloop
  endfacet
  facet normal 0 -1 -0
    outer loop
      vertex 18.532 0 22.0746
      vertex 18.0111 0 18.3442
      vertex 22.0746 0 18.532
    endloop
  endfacet
  facet normal 0 -1 0
    outer loop
      vertex 19.111 0 16.8303
      vertex 22.0746 0 18.532
      vertex 18.0111 0 18.3442
    endloop
  endfacet
  facet normal 0 -1 0
    outer loop
      vertex 19.3066 0 15.9097
      vertex 22.0746 0 18.532
      vertex 19.111 0 16.8303
    endloop
  endfacet
  facet normal 0 -1 0
    outer loop
      vertex 19.5 0 15
      vertex 22.0746 0 18.532
      vertex 19.3066 0 15.9097
    endloop
  endfacet
  facet normal 0 -1 0
    outer loop
      vertex 22.0746 0 11.468
      vertex 22.0746 0 18.532
      vertex 19.5 0 15
    endloop
  endfacet
  facet normal 0 -1 0
    outer loop
      vertex 22.0746 0 11.468
      vertex 19.5 0 15
      vertex 19.3043 0 14.0794
    endloop
  endfacet
  facet normal 0 -1 0
    outer loop
      vertex 22.0746 0 11.468
      vertex 19.3043 0 14.0794
      vertex 19.111 0 13.1697
    endloop
  endfacet
  facet normal 0 -1 0
    outer loop
      vertex 22.0605 0 11.4539
      vertex 19.111 0 13.1697
      vertex 18.0111 0 11.6558
    endloop
  endfacet
  facet normal 0 -1 -0
    outer loop
      vertex 22.0746 0 18.532
      vertex 22.0746 0 11.468
      vertex 30 0 26.4574
    endloop
  endfacet
  facet normal 0 -1 -0
    outer loop
      vertex 30 0 26.4574
      vertex 22.0746 0 11.468
      vertex 30 0 3.5426
    endloop
  endfacet
  facet normal 0 -1 0
    outer loop
      vertex 19.111 0 13.1697
      vertex 22.0605 0 11.4539
      vertex 22.0746 0 11.468
    endloop
  endfacet
  facet normal 0 -1 0
    outer loop
      vertex 18.532 0 7.9254
      vertex 18.0111 0 11.6558
      vertex 16.3906 0 10.7202
    endloop
  endfacet
  facet normal 0 -1 0
    outer loop
      vertex 18.0111 0 11.6558
      vertex 18.532 0 7.9254
      vertex 22.0605 0 11.4539
    endloop
  endfacet
  facet normal 0 -1 0
    outer loop
      vertex 18.532 0 7.9254
      vertex 16.3906 0 10.7202
      vertex 14.5296 0 10.5247
    endloop
  endfacet
  facet normal 0 -1 -0
    outer loop
      vertex 10.5983 0 14.0644
      vertex 7.93954 0 11.4539
      vertex 11.3594 0 12.355
    endloop
  endfacet
  facet normal 0 -1 0
    outer loop
      vertex 11.468 0 7.9254
      vertex 11.3594 0 12.355
      vertex 7.93954 0 11.4539
    endloop
  endfacet
  facet normal 0 -1 0
    outer loop
      vertex 11.3594 0 12.355
      vertex 11.468 0 7.9254
      vertex 12.75 0 11.1029
    endloop
  endfacet
  facet normal 0 -1 -0
    outer loop
      vertex 12.75 0 11.1029
      vertex 11.468 0 7.9254
      vertex 14.5296 0 10.5247
    endloop
  endfacet
  facet normal 0 -1 -0
    outer loop
      vertex 14.5296 0 10.5247
      vertex 11.468 0 7.9254
      vertex 18.532 0 7.9254
    endloop
  endfacet
  facet normal 0 -1 0
    outer loop
      vertex 3.5426 0 0
      vertex 18.532 0 7.9254
      vertex 11.468 0 7.9254
    endloop
  endfacet
  facet normal 0 -1 -0
    outer loop
      vertex 18.532 0 7.9254
      vertex 3.5426 0 0
      vertex 26.4574 0 0
    endloop
  endfacet
endsolid OpenSCAD_Model
